<?xml version="1.0" standalone="no"?>
<!DOCTYPE svg PUBLIC "-//W3C//DTD SVG 1.1//EN" "http://www.w3.org/Graphics/SVG/1.1/DTD/svg11.dtd" >
<svg>
<metadata>
Created by FontForge 20090914 at Mon Jul  6 06:47:55 2020
 By www-data
(c) Copyright 2001 by Tom Truong. All Rights Reserved
</metadata>
<defs>
<font id="UVNAnhHai" horiz-adv-x="1020" >
  <font-face 
    font-family="UVN Anh Hai"
    font-weight="400"
    font-stretch="normal"
    units-per-em="2048"
    panose-1="2 4 6 3 5 5 6 2 4 3"
    ascent="1638"
    descent="-410"
    x-height="958"
    cap-height="1450"
    bbox="-344 -483 2275 2258"
    underline-thickness="125"
    underline-position="-133"
    unicode-range="U+0020-U+F002"
  />
<missing-glyph horiz-adv-x="1024" 
d="M128 0v2250h768v-2250h-768zM256 128h512v1994h-512v-1994z" />
    <glyph glyph-name=".notdef" horiz-adv-x="1024" 
d="M128 0v2250h768v-2250h-768zM256 128h512v1994h-512v-1994z" />
    <glyph glyph-name="space" unicode=" " horiz-adv-x="510" 
 />
    <glyph glyph-name="exclam" unicode="!" horiz-adv-x="688" 
d="M475 109c0 -37.333 -12.5 -69 -37.5 -95s-56.167 -39 -93.5 -39s-68.5 13 -93.5 39s-37.5 57.667 -37.5 95c0 36 12.833 66.833 38.5 92.5s56.5 38.5 92.5 38.5c36.667 0 67.667 -12.667 93 -38s38 -56.333 38 -93zM307 422l-67.001 950v21c0 57.333 36 86 108 86
c76.667 0 112.334 -35 107.001 -105l-74 -952h-74z" />
    <glyph glyph-name="quotedbl" unicode="&#x22;" horiz-adv-x="678" 
d="M518 864l-31 0.000976562l-65 457c-2.66699 18.667 -4 31.667 -4 39c0 68 28.667 102 86 102c56 0 84 -33.333 84 -100c0 -18.667 -0.666992 -32.334 -2 -41.001zM190 864.001l-32 0.000976562l-64 457c-2.66699 19.333 -4 33 -4 41c0 66.667 28 100 84 100
c57.333 0 86 -33.333 86 -100c0 -8.66699 -1.33301 -22.334 -4 -41.001z" />
    <glyph glyph-name="numbersign" unicode="#" horiz-adv-x="1575" 
d="M700 868l-100 -286h289l102 286h-291zM778 1456h133l-168 -471h287l168 471h131l-166 -471h307l-40 -117h-310l-100 -286h332l-43 -115h-330l-166 -469h-133l166 469h-287l-166 -469h-131l166 469h-324l43 115h322l100 286h-348l43 117h348z" />
    <glyph glyph-name="dollar" unicode="$" 
d="M557 100c151.333 11.333 227 89.334 227 234.001c0 95.333 -75.667 182.666 -227 261.999v-496zM461 -224.999l0.00292969 212.998c-265.333 17.333 -398 80 -398 188c0 61.333 33.667 92 101 92c25.333 0 64 -26.667 116 -80
c53.333 -55.333 113.666 -85.333 180.999 -90v551c-107.333 60.667 -187.333 117 -240 169c-79.333 79.333 -119 165 -119 257c0 100.667 35.333 183.334 106 248.001c65.333 59.333 149.666 95 252.999 107v165h96v-159c78 -2 152.667 -17.333 224 -46
c94 -38 141 -89 141 -153c0 -25.333 -7.83301 -47.333 -23.5 -66s-35.834 -28 -60.501 -28c-38.667 0 -70.667 17 -96 51l-64 95c-30 34.667 -70.333 52.667 -121 54v-491c120.667 -68 210.667 -131 270 -189c90.667 -89.333 136 -185.333 136 -288
c0 -107.333 -41.667 -197.333 -125 -270c-75.333 -65.333 -169 -105.666 -281 -120.999v-209h-96zM461.003 910.999v429.999c-124.667 -30.667 -187 -96.667 -187 -198c0 -81.333 62.333 -158.666 187 -231.999z" />
    <glyph glyph-name="percent" unicode="%" horiz-adv-x="1587" 
d="M1108 391c0 -215.333 42.333 -323 127 -323c87.333 0 131 108.333 131 325c0 198 -42.333 297 -127 297c-87.333 0 -131 -99.667 -131 -299zM946 381c0 108 21 194.998 63 260.998c50 80 126 120 228 120c103.333 0 180 -39.667 230 -119
c42 -65.333 63 -152.666 63 -261.999s-21 -196.666 -63 -261.999c-50 -79.333 -126.667 -119 -230 -119c-102 0 -178.333 39.667 -229 119c-41.333 66.667 -62 154 -62 262zM281 -25.002l911 1461h119l-914 -1461h-116zM221 1044c0 -215.333 42.333 -323 127 -323
c87.333 0 131 108.667 131 326c0 199.333 -42.333 299 -127 299c-87.333 0 -131 -100.667 -131 -302zM59 1032c0 108 20.667 195.332 62 261.999c50.667 79.333 127 119 229 119c102.667 0 179 -39.667 229 -119c41.333 -66 62 -153.333 62 -262
c0 -109.333 -20.667 -196.666 -62 -261.999c-50 -79.333 -126.333 -119 -229 -119c-102 0 -178 40 -228 120c-42 66 -63 153 -63 261z" />
    <glyph glyph-name="ampersand" unicode="&#x26;" horiz-adv-x="1585" 
d="M547 782c-140.667 -115.333 -211 -224.334 -211 -327.001c0 -79.333 31.667 -154.666 95 -225.999c66 -73.333 138 -110 216 -110c86.667 0 181 45.667 283 137zM668 984.999c106 80.667 159.001 155.666 159.001 224.999c0 42.667 -16.833 80 -50.5 112
s-71.834 48 -114.501 48c-40 0 -74.667 -12.667 -104 -38s-44 -57.666 -44 -96.999c0 -58 51.333 -141.333 154 -250zM1503 15.998c-70.667 -30 -133.332 -44.998 -187.999 -44.998c-105.333 0 -213.333 65.667 -324 197c-140.667 -131.333 -294.334 -197 -461.001 -197
c-114.667 0 -211 36.333 -289 109c-80 74 -120 168 -120 282c0 97.333 41.667 193 125 287c49.333 56 131.333 126.333 246 211c-52.667 78.667 -83.667 126.667 -93 144c-30 55.333 -45 109.666 -45 162.999c0 84.667 36.667 158.667 110 222c70 60 148 90 234 90
c72 0 136.667 -24.667 194 -74c59.333 -51.333 89 -112.666 89 -183.999c0 -87.333 -82.667 -192.666 -248 -315.999c123.333 -145.333 239.333 -305 348 -479c101.333 117.333 152 215.666 152 294.999c0 55.333 -41 86.666 -123 93.999v90h393v-90
c-32.667 -8 -61.667 -23 -87 -45c-27.333 -24.667 -71.333 -91.334 -132 -200.001c-69.333 -124 -115.666 -201.333 -138.999 -232c47.333 -76.667 84 -130.667 110 -162c55.333 -65.333 107.333 -98 156 -98c17.333 0 38.666 4.66699 63.999 14z" />
    <glyph glyph-name="quotesingle" unicode="'" horiz-adv-x="348" 
d="M190 864l-32 0.000976562l-66 457c-1.33301 9.33301 -2 22.333 -2 39c0 68 28 102 84 102c57.333 0 86 -33.333 86 -100c0 -8.66699 -1.33301 -22.334 -4 -41.001z" />
    <glyph glyph-name="parenleft" unicode="(" horiz-adv-x="682" 
d="M565 -379c-330 239.333 -495 546.665 -495 921.998c0 388.667 163.667 700.667 491 936l51 -54c-267.333 -217.333 -401 -510.666 -401 -879.999c0 -188 31.333 -349 94 -483c64 -137.333 168.333 -263.666 313 -378.999z" />
    <glyph glyph-name="parenright" unicode=")" horiz-adv-x="682" 
d="M117 1479c331.333 -239.333 497 -546.667 497 -922c0 -390 -163.667 -702 -491 -936l-53 53c268.667 220 403 513.667 403 881c0 186.667 -31.833 348.5 -95.5 485.5s-167.5 263.167 -311.5 378.5z" />
    <glyph glyph-name="asterisk" unicode="*" horiz-adv-x="1024" 
d="M512 815l-238.002 -203c-10.667 -9.33301 -20.667 -14 -30 -14c-24.667 0 -37 13 -37 39c0 16.667 18.333 69.667 55 159l70 167l-234 155c-16 10.667 -24 23 -24 37c0 24.667 15 37 45 37c2.66699 0 95.334 -7 278.001 -21l76 271c6.66699 24.667 19.667 37 39 37
s32.333 -12.333 39 -37l76 -271c182.667 14 275.334 21 278.001 21c30 0 45 -12.333 45 -37c0 -14 -8 -26.333 -24 -37l-234 -155l70 -167c36.667 -89.333 55 -142.333 55 -159c0 -26 -12.333 -39 -37 -39c-9.33301 0 -19.333 4.66699 -30 14z" />
    <glyph glyph-name="plus" unicode="+" horiz-adv-x="1706" 
d="M795 1221h118v-551h539v-117h-539v-553h-118v553h-541v117h541v551z" />
    <glyph glyph-name="comma" unicode="," horiz-adv-x="510" 
d="M53 -346v86.001c190 55.333 285 140 285 254c0 37.333 -21.333 62 -64 74l-120 28c-42.667 17.333 -64 51.666 -64 102.999c0 38.667 13.5 71.167 40.5 97.5s59.833 39.5 98.5 39.5c72 0 129.333 -32.667 172 -98c37.333 -56.667 56 -123 56 -199
c0 -108.667 -41.667 -197.667 -125 -267c-70.667 -58.667 -163.667 -98 -279 -118z" />
    <glyph glyph-name="hyphen" unicode="-" horiz-adv-x="682" 
d="M94 408v170h494v-170h-494z" />
    <glyph glyph-name="hyphen" unicode="&#x2010;" horiz-adv-x="682" 
d="M94 408v170h494v-170h-494z" />
    <glyph glyph-name="period" unicode="." horiz-adv-x="510" 
d="M123 133c0 36.667 12.667 67.667 38 93s56.333 38 93 38s67.667 -12.667 93 -38s38 -56.333 38 -93s-12.667 -68 -38 -94s-56.333 -39 -93 -39s-67.667 13 -93 39s-38 57.333 -38 94z" />
    <glyph glyph-name="slash" unicode="/" horiz-adv-x="569" 
d="M496 1479h106l-532 -1669h-105z" />
    <glyph glyph-name="zero" unicode="0" 
d="M281 711c0 -420.667 76.333 -631 229 -631c151.333 0 227 210.333 227 631c0 423.333 -75.667 635 -227 635c-152.667 0 -229 -211.667 -229 -635zM510 -23c-152 0 -268.666 89.332 -349.999 267.999c-62.667 138 -94 293.333 -94 466c0 134 20 258 60 372
c48.667 138 120.667 238 216 300c54.667 35.333 110.667 53 168 53s113.666 -17.667 168.999 -53c94.667 -62 166 -162.333 214 -301c39.333 -113.333 59 -237.666 59 -372.999c0 -173.333 -31 -328.333 -93 -465c-80.667 -178 -197 -267 -349 -267z" />
    <glyph glyph-name="one" unicode="1" 
d="M223 0v90c72 0 120.333 8 145 24c33.333 22 50 68.667 50 140v842c0 73.333 -14.667 121 -44 143c-24 18 -74.333 27.667 -151 29v69l383 99v-1178c0 -67.333 15.667 -113 47 -137c26.667 -20.667 74.667 -31 144 -31v-90h-574z" />
    <glyph glyph-name="two" unicode="2" 
d="M80 0l-0.000976562 95.999c404 446 606 760 606 942c0 70 -23 129.167 -69 177.5s-103.667 72.5 -173 72.5c-96.667 0 -186.667 -47.667 -270 -143l-51 53c120 158.667 255 238 405 238c101.333 0 186 -29 254 -87c71.333 -60.667 107 -141 107 -241
c0 -120 -79.333 -284.667 -238 -494c-69.333 -92.667 -192.666 -236 -369.999 -430h389c54 0 93.667 6.83301 119 20.5s52.333 43.834 81 90.501c20.667 -4.66699 44 -15 70 -31l-113 -264h-747z" />
    <glyph glyph-name="three" unicode="3" 
d="M238 662l3.99902 103.998c104.667 20 191.667 51.667 261 95c96 58.667 144 131.334 144 218.001c0 68 -18 123 -54 165c-38.667 44.667 -91.667 67 -159 67c-57.333 0 -135.666 -41.667 -234.999 -125l-60 28c98.667 153.333 224.334 230 377.001 230
c88.667 0 164.667 -27 228 -81c66.667 -56.667 100 -128.667 100 -216c0 -122.667 -73.667 -230 -221 -322c190.667 -82 286 -200 286 -354c0 -162.667 -69.333 -288 -208 -376c-117.333 -74 -262.333 -111 -435 -111c-103.333 0 -155 30.667 -155 92
c0 57.333 35.333 86 106 86c29.333 0 73.166 -6.16699 131.499 -18.5s102.5 -18.5 132.5 -18.5c76 0 135.667 22.833 179 68.5s65 106.834 65 183.501c0 192.667 -130.333 289 -391 289c-9.33301 0 -24.833 -0.833008 -46.5 -2.5s-38.167 -2.16699 -49.5 -1.5z" />
    <glyph glyph-name="four" unicode="4" 
d="M569 -25v418h-526v139l623 904h92v-885h219v-158h-219v-418h-189zM569 551v602l-403 -602h403z" />
    <glyph glyph-name="five" unicode="5" 
d="M127 911l162.002 510h362c22.667 0 57.667 27.333 105 82l75 -39l-83 -176c-12.667 -27.333 -41.334 -41 -86.001 -41h-330l-56 -172c392 -95.333 588 -283 588 -563c0 -151.333 -59.333 -279.666 -178 -384.999c-114.667 -101.333 -248.334 -152 -401.001 -152
c-124.667 0 -187 22 -187 66c0 32.667 33.667 79 101 139c64 -31.333 133.667 -47 209 -47c88 0 162.167 29.167 222.5 87.5s90.5 131.5 90.5 219.5c0 124 -71.333 230.667 -214 320c-100 63.333 -226.667 113.666 -380 150.999z" />
    <glyph glyph-name="six" unicode="6" 
d="M295 707c-10.667 -72 -16 -131 -16 -177c0 -107.333 14.667 -200 44 -278c41.333 -110.667 106.333 -166 195 -166c74.667 0 132 36 172 108c32.667 58 49 127.667 49 209c0 100 -19.333 182.333 -58 247c-47.333 78.667 -118 118 -212 118c-58 0 -116 -20.333 -174 -61z
M786 1436l91.001 -58c-326 -103.333 -513.333 -288.333 -562 -555c85.333 49.333 166.666 74 243.999 74c118.667 0 214.667 -44.667 288 -134c68.667 -84 103 -186.667 103 -308c0 -129.333 -39.333 -239.333 -118 -330c-82 -95.333 -186.667 -143 -314 -143
c-144.667 0 -259 64 -343 192c-72.667 111.333 -109 243 -109 395c0 226 65.333 415.333 196 568c125.333 146 300 245.667 524 299z" />
    <glyph glyph-name="seven" unicode="7" 
d="M218 598v170h348l202 477h-453c-48.667 0 -86 -13 -112 -39c-15.333 -16 -36 -51.333 -62 -106l-73 14l96 299h788l-242 -645h90v-170h-154l-234 -623h-183l264 623h-275z" />
    <glyph glyph-name="eight" unicode="8" 
d="M463 629c-116 -95.333 -174 -203.333 -174 -324c0 -64 21.333 -117.833 64 -161.5s95.667 -65.5 159 -65.5c57.333 0 107.5 19.5 150.5 58.5s64.5 87.167 64.5 144.5c0 63.333 -31 129.333 -93 198c-30.667 33.333 -87.667 83.333 -171 150zM559 838
c114.667 78.667 172 173.333 172 284c0 68 -18.333 122.667 -55 164s-88.667 62 -156 62c-58.667 0 -107.5 -18.333 -146.5 -55s-58.5 -84 -58.5 -142c0 -96.667 81.333 -201 244 -313zM391 695.999c-79.333 70.667 -136 131 -170 181c-50.667 74 -76 151.667 -76 233
c0 104.667 39 187 117 247c70.667 54 160 81 268 81c98.667 0 182.667 -26.333 252 -79c75.333 -58 113 -135 113 -231c0 -102.667 -86.667 -220.667 -260 -354c181.333 -148 272 -292 272 -432c0 -110 -40.667 -199 -122 -267c-76.667 -63.333 -171 -95 -283 -95
c-102.667 0 -192 30.667 -268 92c-82 66 -123 149.333 -123 250c0 127.333 93.333 252 280 374z" />
    <glyph glyph-name="nine" unicode="9" 
d="M127 57c307.333 116.667 497.667 306.67 571 570.003c-89.333 -46.667 -169 -70 -239 -70c-122 0 -220.333 42.333 -295 127c-71.333 81.333 -107 183.666 -107 306.999c0 128 40.833 233.5 122.5 316.5s186.5 124.5 314.5 124.5c143.333 0 258 -60.667 344 -182
c77.333 -108.667 116 -237.334 116 -386.001c0 -204.667 -70.333 -387.334 -211 -548.001c-126 -144 -291.667 -253.333 -497 -328zM721.001 745.003c12 64 17.999 123 17.999 177c0 104 -15 192.333 -45 265c-41.333 100 -106.666 150 -195.999 150
c-75.333 0 -133 -34 -173 -102c-32.667 -56 -49 -124.333 -49 -205c0 -90 16.333 -165 49 -225c42 -75.333 104.333 -113 187 -113c55.333 0 125 17.667 209 53z" />
    <glyph glyph-name="colon" unicode=":" horiz-adv-x="688" 
d="M213 106c0 37.333 12.5 68.666 37.5 93.999s56.167 38 93.5 38s68.5 -12.667 93.5 -38s37.5 -56.666 37.5 -93.999c0 -36.667 -12.667 -68 -38 -94s-56.333 -39 -93 -39s-67.667 13 -93 39s-38 57.333 -38 94zM213 844c0 36.667 12.667 67.667 38 93s56.333 38 93 38
s67.667 -12.667 93 -38s38 -56.333 38 -93s-12.667 -68 -38 -94s-56.333 -39 -93 -39c-37.333 0 -68.5 12.833 -93.5 38.5s-37.5 57.167 -37.5 94.5z" />
    <glyph glyph-name="semicolon" unicode=";" horiz-adv-x="688" 
d="M141 -346l-0.00195312 85.998c191.333 55.333 287 140 287 254c0 22.667 -4 39.334 -12 50.001c-7.33301 8 -32.666 17.333 -75.999 28c-50 12.667 -85.667 25.334 -107 38.001c-36.667 22 -55 51.667 -55 89c0 38.667 13.833 71.167 41.5 97.5s60.834 39.5 99.501 39.5
c72 0 129 -32.667 171 -98c36.667 -56.667 55 -123 55 -199c0 -108.667 -41.667 -197.667 -125 -267c-70.667 -58.667 -163.667 -98 -279 -118zM212.998 843.998c0 36.667 12.667 67.667 38 93s56.333 38 93 38s67.667 -12.667 93 -38s38 -56.333 38 -93
s-12.667 -68 -38 -94s-56.333 -39 -93 -39c-37.333 0 -68.5 12.833 -93.5 38.5s-37.5 57.167 -37.5 94.5z" />
    <glyph glyph-name="less" unicode="&#x3c;" horiz-adv-x="1706" 
d="M1442 1145v-127l-1000 -408l1000 -405v-129l-1178 483v103z" />
    <glyph glyph-name="equal" unicode="=" horiz-adv-x="1706" 
d="M254 477h1198v-117h-1198v117zM254 860h1198v-117h-1198v117z" />
    <glyph glyph-name="greater" unicode="&#x3e;" horiz-adv-x="1706" 
d="M264 1145l1178 -483v-103l-1178 -483v129l1000 405l-1000 408v127z" />
    <glyph glyph-name="question" unicode="?" horiz-adv-x="909" 
d="M418 375c-37.333 -4 -59.3291 -5.99805 -65.9961 -5.99805c-16.667 0 -26 14.333 -28 43l-23 295c136 43.333 221.333 73.666 256 90.999c102.667 52.667 154 117.667 154 195c0 84 -28.333 157.667 -85 221c-58.667 66 -129.334 99 -212.001 99
c-18.667 0 -45.834 -5.16699 -81.501 -15.5s-62.5 -15.5 -80.5 -15.5c-57.333 0 -86 28.667 -86 86c0 38 18 67.333 54 88c29.333 16.667 64.666 25 105.999 25c88 0 179 -38 273 -114c84 -68.667 147.667 -146.667 191 -234c38.667 -79.333 58 -161.333 58 -246
c0 -96 -32.667 -170 -98 -222c-34 -26.667 -98 -57 -192 -91c-76 -27.333 -120 -56 -132 -86c-10.667 -26.667 -13.334 -64.334 -8.00098 -113.001zM227.004 109.002c0 36.667 12.667 67.667 38 93s56.333 38 93 38c37.333 0 69 -12.5 95 -37.5s39 -56.167 39 -93.5
c0 -36.667 -13.167 -68.167 -39.5 -94.5s-57.833 -39.5 -94.5 -39.5c-37.333 0 -68.5 13 -93.5 39s-37.5 57.667 -37.5 95z" />
    <glyph glyph-name="at" unicode="@" horiz-adv-x="2019" 
d="M1190 336c-82 -140.667 -185 -211.001 -309 -211.001c-90 0 -160 34.667 -210 104c-44.667 61.333 -67 138.666 -67 231.999c0 128.667 48.333 250.334 145 365.001c100.667 120 214.334 180 341.001 180c117.333 0 191 -65 221 -195l53 180h143l-170 -610
c-12 -43.333 -18 -79.666 -18 -108.999c0 -68 31.333 -102 94 -102c50 0 104.667 22 164 66c168 124 252 306 252 546c0 188.667 -68 341 -204 457c-129.333 109.333 -290 164 -482 164c-261.333 0 -473.5 -84 -636.5 -252s-244.5 -383 -244.5 -645
c0 -228 80.667 -409.667 242 -545c151.333 -126.667 343.666 -190 576.999 -190c218.667 0 423 68.667 613 206l30 -36c-199.333 -148 -417.666 -222 -654.999 -222c-261.333 0 -477.333 69.667 -648 209c-184 150.667 -276 353.667 -276 609
c0 261.333 97.333 480.333 292 657c189.333 172 415.666 258 678.999 258c222 0 402 -58 540 -174c146.667 -124 220 -294.667 220 -512c0 -150.667 -41.333 -290.667 -124 -420c-94 -147.333 -212.333 -221 -355 -221c-130 0 -199 70.333 -207 211zM1098 964.999
c-92.667 0 -176.334 -77.333 -251.001 -232c-64.667 -133.333 -97 -252.666 -97 -357.999c0 -54.667 11 -100 33 -136c26 -43.333 64.667 -65 116 -65c100.667 0 189.667 73.333 267 220c66.667 127.333 100 246.666 100 357.999c0 56 -13.667 104 -41 144
c-31.333 46 -73.666 69 -126.999 69z" />
    <glyph glyph-name="A" unicode="A" horiz-adv-x="1475" 
d="M483 702h379l-186 545zM55 0l-0.000976562 90.002c56.667 10.667 101.334 40.334 134.001 89.001c18.667 27.333 41 77.666 67 150.999l354 999c12.667 36 19 58.667 19 68c0 17.333 -7 35 -21 53h217l412 -1141c49.333 -136 112 -209 188 -219v-90h-557v90
c98.667 11.333 148 45.666 148 102.999c0 40.667 -16 108 -48 202l-71 193h-453l-56 -175c-21.333 -73.333 -32 -132.333 -32 -177c0 -74.667 51.333 -123.334 154 -146.001v-90h-455z" />
    <glyph glyph-name="B" unicode="B" horiz-adv-x="1360" 
d="M76 0v89.998c81.333 9.33301 135 28.833 161 58.5s39 85.834 39 168.501v826c0 82.667 -13 138.834 -39 168.501s-79.667 49.167 -161 58.5v80h427c202.667 0 349 -13.333 439 -40c170.667 -49.333 256 -150 256 -302c0 -172.667 -110.667 -286.667 -332 -342
c264 -50 396 -173.667 396 -371c0 -55.333 -10.667 -107 -32 -155c-50 -111.333 -143.667 -183.333 -281 -216c-69.333 -16 -193.333 -24 -372 -24h-501zM502 707.998l-0.000976562 -417.001c0 -72 15.333 -122.833 46 -152.5s82 -44.5 154 -44.5c88 0 160.333 26 217 78
c59.333 54 89 124.333 89 211c0 114.667 -45 200.334 -135 257.001c-75.333 47.333 -173.666 71 -294.999 71c-36.667 0 -62 -1 -76 -3zM501.999 808.997c46.667 -10.667 86.333 -15.999 119 -15.999c94.667 0 174 25.667 238 77c69.333 55.333 104 129.333 104 222
c0 89.333 -32.667 157.666 -98 204.999c-58 42 -133.333 63 -226 63c-52 0 -84.333 -2.33301 -97 -7c-26.667 -10.667 -40 -37 -40 -79v-465z" />
    <glyph glyph-name="C" unicode="C" horiz-adv-x="1364" 
d="M1219 406l89.999 0.00195312l-37 -310c-181.333 -84.667 -344.666 -127 -489.999 -127c-210.667 0 -382.334 71.333 -515.001 214c-130 138.667 -195 314 -195 526c0 105.333 13.667 199.333 41 282c47.333 147.333 136 266.333 266 357
c127.333 88.667 269.333 133 426 133c130.667 0 279.334 -39 446.001 -117l39 -299l-88 -8c-30 105.333 -83 187.666 -159 246.999s-168.333 89 -277 89c-157.333 0 -273.666 -67.667 -348.999 -203c-59.333 -106.667 -89 -245.334 -89 -416.001c0 -184 31.667 -339 95 -465
c81.333 -164 204.666 -246 369.999 -246c200 0 342 114.333 426 343z" />
    <glyph glyph-name="D" unicode="D" horiz-adv-x="1657" 
d="M76 0l0.000976562 90.002c81.333 9.33301 135 29 161 59s39 86 39 168v818c0 82 -13 137.667 -39 167s-79.667 48.666 -161 57.999v90h530c155.333 0 278.666 -9 369.999 -27c181.333 -36.667 325 -114.334 431 -233.001c109.333 -122.667 164 -275 164 -457
c0 -236 -86.667 -420.333 -260 -553c-156.667 -120 -356.667 -180 -600 -180h-635zM510.001 344.002c0 -100 17.332 -166.666 51.999 -199.999s102.667 -50 204 -50c174.667 0 311.334 63 410.001 189c90 115.333 135 262.666 135 441.999
c0 204.667 -55.333 362.667 -166 474s-268.334 167 -473.001 167c-41.333 0 -74.666 -2 -99.999 -6c-28.667 -4.66699 -46.167 -10.5 -52.5 -17.5s-9.5 -24.5 -9.5 -52.5v-946z" />
    <glyph glyph-name="E" unicode="E" horiz-adv-x="1352" 
d="M82 0v89.999c82 9.33301 136 28.833 162 58.5s39 85.834 39 168.501v830c0 82.667 -13 138.834 -39 168.501s-80 49.167 -162 58.5v76h1151l10 -307h-86c-26.667 94 -81.334 157.333 -164.001 190c-56 22 -142.667 33 -260 33h-147c-32 0 -52 -4.16699 -60 -12.5
s-12 -27.5 -12 -57.5v-481h164c103.333 0 174.333 8 213 24c65.333 26.667 98.666 83.334 99.999 170.001l88 1v-488l-88 1c-2 87.333 -35 144.666 -99 171.999c-40 17.333 -111.333 26 -214 26h-164v-422c0 -86.667 24 -145.334 72 -176.001
c36.667 -23.333 101.334 -35 194.001 -35c194.667 0 339.334 96.333 434.001 289l91 -23l-88 -354h-1135z" />
    <glyph glyph-name="F" unicode="F" horiz-adv-x="1352" 
d="M541 317c0 -82.667 13 -138.835 39 -168.502s79.667 -49.167 161 -58.5v-90h-632v90c81.333 9.33301 135 28.833 161 58.5s39 85.834 39 168.501v826c0 82.667 -13 138.834 -39 168.501s-79.667 49.167 -161 58.5v80h1189l31 -334h-92
c-26.667 100 -74.667 168.333 -144 205c-54.667 28.667 -139 43 -253 43h-250c-32.667 0 -49 -18.333 -49 -55v-498h268c78.667 0 134 12.333 166 37c36.667 28 57.667 79.667 63 155l80 1v-504h-80c-4.66699 86 -34.667 145.333 -90 178c-44 26 -112.333 39 -205 39h-202
v-400z" />
    <glyph glyph-name="G" unicode="G" horiz-adv-x="1538" 
d="M946 729l565 0.00195312v-76c-74 -10.667 -121.333 -43.667 -142 -99c-11.333 -30.667 -17 -92.334 -17 -185.001v-336c-194.667 -46.667 -356 -70 -484 -70c-219.333 0 -403.333 68.667 -552 206c-153.333 141.333 -230 320.666 -230 537.999
c0 225.333 76.333 411.333 229 558c150 144 338 216 564 216c149.333 0 297.333 -37.667 444 -113l33 -305l-84 -4c-68 222.667 -222.333 334 -463 334c-165.333 0 -288 -65 -368 -195c-66 -106.667 -99 -248 -99 -424c0 -191.333 32 -347.333 96 -468
c82.667 -154.667 211.667 -232 387 -232c114 0 213.667 19 299 57v301c0 79.333 -8.66699 132.333 -26 159c-23.333 37.333 -74 58 -152 62v76z" />
    <glyph glyph-name="H" unicode="H" horiz-adv-x="1698" 
d="M76 0v90.002c81.333 9.33301 135 29 161 59s39 86 39 168v818c0 82 -13 137.667 -39 167s-79.667 48.666 -161 57.999v90h635v-90c-82 -9.33301 -136 -28.5 -162 -57.5s-39 -84.833 -39 -167.5v-334h678v334c0 82.667 -13.333 138.5 -40 167.5s-81 48.167 -163 57.5v90
h637v-90c-82 -9.33301 -136.333 -28.5 -163 -57.5s-40 -84.833 -40 -167.5v-818c0 -82.667 13.333 -138.834 40 -168.501s81 -49.167 163 -58.5v-90h-637v90c82 9.33301 136.333 28.833 163 58.5s40 85.834 40 168.501v379h-678v-379c0 -82.667 13 -138.834 39 -168.501
s80 -49.167 162 -58.5v-90h-635z" />
    <glyph glyph-name="I" unicode="I" horiz-adv-x="797" 
d="M80 0v90.001c82 9.33301 136 28.833 162 58.5s39 85.834 39 168.501v818c0 82 -13 137.667 -39 167s-80 48.666 -162 57.999v90h635v-90c-82 -9.33301 -136 -28.5 -162 -57.5s-39 -84.833 -39 -167.5v-818c0 -82.667 13 -138.834 39 -168.501s80 -49.167 162 -58.5v-90
h-635z" />
    <glyph glyph-name="J" unicode="J" horiz-adv-x="821" 
d="M115 1450l624 0.000976562v-84c-132 -2.66699 -198 -62.667 -198 -180v-1123c0 -116.667 -32.667 -215.334 -98 -296.001c-70.667 -86 -163 -129 -277 -129c-128.667 0 -193 51 -193 153c0 65.333 33 98 99 98c40 0 77 -24.167 111 -72.5s57.667 -72.5 71 -72.5
c32.667 0 49 41 49 123v1319c0 67.333 -14.667 114.333 -44 141c-28 24.667 -76 37.667 -144 39v84z" />
    <glyph glyph-name="K" unicode="K" horiz-adv-x="1702" 
d="M573 317c0 -82.667 13 -138.835 39 -168.502s80 -49.167 162 -58.5v-90h-635v90c82 9.33301 136 28.833 162 58.5s39 85.834 39 168.501v818c0 82.667 -13 138.5 -39 167.5s-80 48.167 -162 57.5v90h635v-90c-81.333 -9.33301 -135.166 -28.666 -161.499 -57.999
s-39.5 -85 -39.5 -167v-369l365 332c83.333 76 125 135.333 125 178c0 53.333 -41.667 83.333 -125 90v84h571v-84c-122.667 -22 -235.334 -82 -338.001 -180l-370 -355l532 -552c58.667 -60.667 106.667 -103.667 144 -129c59.333 -40 119.333 -60 180 -60v-90h-361
l-667 690l-56 -37v-336z" />
    <glyph glyph-name="L" unicode="L" horiz-adv-x="1475" 
d="M115 0l0.000976562 90.0029c71.333 1.33301 122.833 17.166 154.5 47.499s47.5 80.833 47.5 151.5v899c0 66.667 -17.667 113.667 -53 141c-30.667 23.333 -80.334 35.666 -149.001 36.999v84h643v-84c-138 0 -207 -60.667 -207 -182v-862
c0 -100.667 23.667 -167.334 71 -200.001c37.333 -25.333 110 -38 218 -38c242.667 0 407 99 493 297l92 -25l-88 -356h-1222z" />
    <glyph glyph-name="M" unicode="M" horiz-adv-x="1925" 
d="M51 0l0.999023 90.001c71.333 5.33301 125 44 161 116c22 42.667 41 110.667 57 204l125 723c5.33301 30.667 8 55.667 8 75c0 101.333 -49.667 154 -149 158v84h383c0 -84 29.333 -205 88 -363l248 -667l268 713c40.667 108 61 196.667 61 266c0 17.333 -1 34.333 -3 51
h403l-1 -84c-103.333 -2.66699 -155 -47.667 -155 -135c0 -30.667 4.33301 -75 13 -133l118 -789c10.667 -70.667 26.667 -121 48 -151c28 -38.667 74 -61.334 138 -68.001l1 -90h-598v90c61.333 8 105.333 22 132 42c33.333 26 50 67.333 50 124
c0 24.667 -3.33301 60 -10 106l-105 725l-334 -884c-24.667 -64.667 -41 -132.334 -49 -203.001h-106c-17.333 110.667 -42.666 211.667 -75.999 303l-285 774l-71 -378c-31.333 -177.333 -47 -313.333 -47 -408c0 -65.333 10 -111.666 30 -138.999
c22.667 -30 65 -50.667 127 -62v-90h-471z" />
    <glyph glyph-name="N" unicode="N" horiz-adv-x="1636" 
d="M86 0l-0.000976562 90c86 0 144.667 24 176 72c24.667 38 37 103.333 37 196v834c-68 108 -146.667 166 -236 174v84h338l854 -1092v768c0 88.667 -13 148.667 -39 180c-28.667 34.667 -86 54.667 -172 60v84h523v-84c-83.333 -15.333 -138.666 -39.833 -165.999 -73.5
s-41 -93.167 -41 -178.5v-894c0 -90 5.33301 -173 16 -249h-114c-42 65.333 -116.667 165.666 -224 300.999l-637 803v-717c0 -81.333 8.33301 -141.666 25 -180.999c26 -60 74.667 -90 146 -90c12.667 0 26 1 40 3v-90h-526z" />
    <glyph glyph-name="O" unicode="O" horiz-adv-x="1571" 
d="M336 778c0 -183.333 31.333 -338.666 94 -465.999c81.333 -166 204.333 -249 369 -249c158 0 274.667 70 350 210c58.667 110 88 251 88 423c0 176.667 -34 328.667 -102 456c-84.667 159.333 -207.667 239 -369 239c-153.333 0 -267.333 -67.667 -342 -203
c-58.667 -106.667 -88 -243.334 -88 -410.001zM782 -29c-207.333 0 -376.999 72.333 -508.999 217c-127.333 140.667 -191 315.667 -191 525c0 214 65 393.667 195 539c135.333 151.333 308.666 227 519.999 227c200 0 366.667 -73.667 500 -221
c128 -142.667 192 -315 192 -517c0 -209.333 -65 -388.333 -195 -537c-135.333 -155.333 -306 -233 -512 -233z" />
    <glyph glyph-name="P" unicode="P" horiz-adv-x="1276" 
d="M70 0l-0.000976562 89.999c81.333 9.33301 135 28.833 161 58.5s39 85.834 39 168.501v816c0 86 -11 144.667 -33 176c-27.333 38 -81.666 57 -162.999 57v84h551c397.333 0 596 -127 596 -381c0 -129.333 -52.667 -231.666 -158 -306.999
c-93.333 -66.667 -207.333 -100 -342 -100c-44.667 0 -73.334 1.33301 -86.001 4c-32.667 8 -49 27 -49 57c0 24.667 9.66699 38.667 29 42c-4.66699 -0.666992 14.333 -1 57 -1c88.667 0 160.334 28.5 215.001 85.5s82 130.167 82 219.5c0 96 -31.667 169.333 -95 220
c-58.667 47.333 -137 71 -235 71c-52 0 -84.333 -2.33301 -97 -7c-26.667 -10.667 -40 -37 -40 -79v-957c0 -82.667 13.333 -138.834 40 -168.501s81 -49.167 163 -58.5v-90h-635z" />
    <glyph glyph-name="Q" unicode="Q" horiz-adv-x="1571" 
d="M1538 -365l-21.999 -0.000976562c-218.667 0 -433 69.333 -643 208c-107.333 70.667 -203 123.334 -287 158.001c-166 68 -287.667 151.667 -365 251c-92.667 118.667 -139 272.334 -139 461.001c0 214 65 393.667 195 539c135.333 151.333 308.666 227 519.999 227
c200 0 366.667 -73.667 500 -221c128 -142.667 192 -315 192 -517c0 -342.667 -157 -588.334 -471 -737.001c132.667 -116 306 -198 520 -246v-123zM336.001 777.999c0 -183.333 31.333 -338.666 94 -465.999c81.333 -166 204.333 -249 369 -249c158 0 274.667 70 350 210
c58.667 110 88 251 88 423c0 176.667 -34 328.667 -102 456c-84.667 159.333 -207.667 239 -369 239c-153.333 0 -267.333 -67.667 -342 -203c-58.667 -106.667 -88 -243.334 -88 -410.001z" />
    <glyph glyph-name="R" unicode="R" horiz-adv-x="1432" 
d="M496 793c28 -4.66699 65.333 -7 112 -7c98.667 0 177.667 24 237 72c64.667 52.667 97 127 97 223c0 90.667 -34.333 162 -103 214c-61.333 46 -139 69 -233 69c-42 0 -69 -3 -81 -9c-19.333 -10 -29 -33 -29 -69v-493zM76 0l0.000976562 90.001
c74.667 9.33301 125.334 31.666 152.001 66.999c24 32.667 36 87.667 36 165v794c0 93.333 -8.66699 153.666 -26 180.999c-22.667 36.667 -76.667 59.667 -162 69v84h508c401.333 0 602 -121.667 602 -365c0 -193.333 -119 -316.666 -357 -369.999
c56.667 -46 106.667 -94.667 150 -146l293 -346c75.333 -88.667 132.666 -133 171.999 -133v-90h-270l-457 549c-80.667 96.667 -148.334 145 -203.001 145l-20 -2v-364c0 -80.667 9 -135.667 27 -165c24.667 -40.667 75.667 -65 153 -73v-90h-598z" />
    <glyph glyph-name="S" unicode="S" horiz-adv-x="1133" 
d="M154 96l0.000976562 342l79 -10c58 -241.333 175.667 -362 353 -362c68 0 124.167 22.167 168.5 66.5s66.5 100.5 66.5 168.5c0 94.667 -56 184 -168 268l-311 215c-112 92.667 -168 197.334 -168 314.001s37.667 209.334 113 278.001c73.333 66 168.666 99 285.999 99
c113.333 0 244 -38.333 392 -115v-297h-86c-31.333 214 -133.333 321 -306 321c-64 0 -117.667 -17 -161 -51c-46.667 -36.667 -70 -86.334 -70 -149.001c0 -33.333 6 -64 18 -92c23.333 -57.333 94.333 -124 213 -200c162 -103.333 261.667 -171.666 299 -204.999
c101.333 -90.667 152 -189.334 152 -296.001c0 -132.667 -44 -237.334 -132 -314.001c-84 -73.333 -193 -110 -327 -110c-147.333 0 -284.333 43 -411 129z" />
    <glyph glyph-name="T" unicode="T" horiz-adv-x="1470" 
d="M410 0v90.001c80 2 134 20.667 162 56c25.333 31.333 38 88.333 38 171v1041h-133c-98 0 -169.833 -16 -215.5 -48s-86.5 -94 -122.5 -186h-90l41 326h1278l53 -326l-92 2c-44.667 82 -88.334 139.333 -131.001 172c-52 40 -120.333 60 -205 60h-145v-1041
c0 -82 11.333 -138 34 -168c26.667 -34.667 79.334 -54.334 158.001 -59.001v-90h-630z" />
    <glyph glyph-name="U" unicode="U" horiz-adv-x="1583" 
d="M74 1366l-0.000976562 83.999h604v-84c-77.333 -11.333 -127.666 -36.333 -150.999 -75c-18 -30 -27 -87.667 -27 -173v-659c0 -242 119.333 -363 358 -363c82.667 0 155 19.333 217 58c68 42.667 111.333 102.334 130 179.001c9.33301 40 14 112 14 216v516
c0 104.667 -9.33301 175.667 -28 213c-28 54.667 -88.333 84 -181 88v84h510v-84c-74 -10.667 -125.333 -35 -154 -73s-43 -114 -43 -228v-571c0 -93.333 -7.33301 -163.333 -22 -210c-32.667 -104 -99.667 -184 -201 -240c-89.333 -48.667 -192.333 -73 -309 -73
c-347.333 0 -521 168 -521 504v643c0 88 -11 147.667 -33 179c-26 37.333 -80.333 60.333 -163 69z" />
    <glyph glyph-name="V" unicode="V" horiz-adv-x="1452" 
d="M698 -29l-446 1135c-68 173.333 -139.667 260 -215 260v84h538v-84c-92.667 0 -139 -28 -139 -84c0 -17.333 6.33301 -42 19 -74l350 -891l190 497c96 258 144 408 144 450c0 68 -59.333 102 -178 102v84h462v-84c-80 0 -157.333 -102.333 -232 -307l-236 -625l-91 -229
c-34.667 -91.333 -59 -169.333 -73 -234h-93z" />
    <glyph glyph-name="W" unicode="W" horiz-adv-x="2017" 
d="M705 -29c-36 110 -88.667 241.997 -158 395.997l-373 831c-20.667 46 -38.334 79.333 -53.001 100c-25.333 36.667 -54 59.334 -86 68.001v84h459v-84c-56 -21.333 -84 -56 -84 -104c0 -25.333 8.66699 -57.666 26 -96.999l377 -852l172 357l-235 538
c-40 92 -94 144.667 -162 158v84h477v-84c-56 -18.667 -84 -54 -84 -106c0 -32.667 18 -90.667 54 -174l73 -160c90 188.667 135 302.667 135 342c0 45.333 -30.667 78 -92 98v84h371v-84c-58.667 -11.333 -128.334 -93 -209.001 -245l-150 -318l217 -486l192 501
c94.667 254.667 142 403.334 142 446.001c0 52 -38.333 86 -115 102v84h404v-84c-77.333 0 -154.666 -102 -231.999 -306l-239 -630l-91 -227c-34.667 -90.667 -59 -168 -73 -232h-82c-55.333 142 -136.666 334 -243.999 576c-62 -122 -108.333 -216.667 -139 -284
c-56 -124 -91.333 -221.333 -106 -292h-92z" />
    <glyph glyph-name="X" unicode="X" horiz-adv-x="1583" 
d="M47 0l0.000976562 90.002c76.667 2.66699 141.334 22 194.001 58c43.333 29.333 90 79 140 149l291 410l-361 489c-82.667 112 -170.334 168.667 -263.001 170l-1 84h645v-84c-10.667 1.33301 -23 2 -37 2c-69.333 0 -104 -23.333 -104 -70
c0 -25.333 18.333 -63.333 55 -114l205 -285l168 238c43.333 61.333 65 109.666 65 144.999c0 38 -15.667 62.667 -47 74c-18 6.66699 -50 10 -96 10v84h520v-84c-90.667 -7.33301 -196 -81 -316 -221c-34.667 -40.667 -114.334 -149.334 -239.001 -326.001l330 -448
c70 -94.667 117.667 -155 143 -181c66 -66.667 131.667 -100 197 -100v-90h-653v90c98 4 147 33.333 147 88c0 22 -9.33301 45.667 -28 71l-271 372l-149 -213c-86 -126 -129 -197.667 -129 -215c0 -64.667 60.667 -99 182 -103v-90h-588z" />
    <glyph glyph-name="Y" unicode="Y" horiz-adv-x="1473" 
d="M418 0l0.000976562 89.998c76 8 127.333 26.833 154 56.5s40 82.5 40 158.5v318l-276 452c-48 78 -87 136 -117 174c-60.667 75.333 -114.667 114.333 -162 117v84h598v-84c-103.333 0 -155 -27.333 -155 -82c0 -30 16.333 -73 49 -129l246 -422l157 263
c79.333 136.667 119 219.667 119 249c0 73.333 -56.667 114 -170 122v83h512v-84c-44.667 -9.33301 -85.334 -27.666 -122.001 -54.999c-45.333 -35.333 -123 -142.666 -233 -321.999l-218 -368v-318c0 -142 64.667 -213 194 -213v-90h-616z" />
    <glyph glyph-name="Z" unicode="Z" horiz-adv-x="1360" 
d="M66 0v76l874 1284h-342c-96 0 -167 -15.667 -213 -47s-88.333 -91.333 -127 -180l-84 -9l14 326h1031v-76l-859 -1280h320c120.667 0 218.334 18.667 293.001 56c77.333 38 149.666 105.333 216.999 202l100 6l-108 -358h-1116z" />
    <glyph glyph-name="bracketleft" unicode="[" horiz-adv-x="692" 
d="M612 -383h-449.999v1829h450v-80c-14.667 0 -34.334 0.333008 -59.001 1s-42.334 1 -53.001 1c-58 0 -98 -9.33301 -120 -28c-29.333 -24.667 -44 -72 -44 -142v-1346c0 -58 6 -94 18 -108c14.667 -17.333 57.334 -27.333 128.001 -30c-12 0.666992 31.333 1 130 1v-98z
" />
    <glyph glyph-name="backslash" unicode="\" horiz-adv-x="569" 
d="M72 1479l530 -1669h-104l-533 1669h107z" />
    <glyph glyph-name="bracketright" unicode="]" horiz-adv-x="692" 
d="M80 -383v98c104 0 151 -0.333008 141 -1c74 4.66699 116.333 20.667 127 48c5.33301 14 8 44.333 8 91v1345c0 70 -14.333 117.333 -43 142c-22.667 18.667 -62.667 28 -120 28c-10 0 -27.667 -0.333008 -53 -1s-45.333 -1 -60 -1v80h450v-1829h-450z" />
    <glyph glyph-name="asciicircum" unicode="^" horiz-adv-x="2048" 
d="M934 1462h178l520 -565h-92l-518 436l-520 -436h-90z" />
    <glyph glyph-name="underscore" unicode="_" horiz-adv-x="1024" 
d="M0 -365h1024v-118h-1024v118z" />
    <glyph glyph-name="grave" unicode="`" horiz-adv-x="1024" 
d="M688 1087h-67l-330 205c-41.333 26 -62 54 -62 84c0 46.667 24.667 70 74 70c25.333 0 57.333 -20 96 -60z" />
    <glyph glyph-name="a" unicode="a" horiz-adv-x="915" 
d="M883 80c-48 -68.667 -103.334 -103 -166.001 -103c-66.667 0 -113 44 -139 132c-90 -80.667 -180.333 -121 -271 -121c-65.333 0 -120 18.667 -164 56c-47.333 39.333 -71 91 -71 155c0 104.667 61.333 191.334 184 260.001c70.667 40 178 78.667 322 116v136
c0 121.333 -54.667 182 -164 182c-97.333 0 -146 -32.667 -146 -98c0 -18 6.83301 -41.333 20.5 -70s20.5 -44.334 20.5 -47.001c0 -16 -20.667 -32 -62 -48c-36 -14.667 -64.333 -22 -85 -22c-38.667 0 -58 46.667 -58 140c0 78.667 46.667 138.667 140 180
c72.667 32.667 153.667 49 243 49c94 0 161.667 -17.667 203 -53c45.333 -38 68 -103 68 -195v-504c0 -58.667 13 -88 39 -88c26.667 0 55.334 9.66699 86.001 29v-86zM577.999 479c-209.333 -56.667 -314 -131 -314 -223c0 -38 14 -68.667 42 -92c26 -22 58.333 -33 97 -33
c64.667 0 123 30.667 175 92v256z" />
    <glyph glyph-name="b" unicode="b" horiz-adv-x="1114" 
d="M166 1270l-137 64.999v56c187.333 60 291.666 90 312.999 90c6 0 10.667 -0.666992 14 -2v-633c114.667 87.333 215 131 301 131c114.667 0 205 -47 271 -141c58.667 -83.333 88 -184.666 88 -303.999c0 -134 -40.333 -255.667 -121 -365
c-88 -119.333 -196.667 -179 -326 -179c-119.333 0 -253.666 32.667 -402.999 98v1184zM356 755.999v-423.999c0 -174.667 74.667 -262 224 -262c86.667 0 151 41.667 193 125c33.333 65.333 50 145.666 50 240.999c0 100 -18.333 185.333 -55 256
c-46.667 90 -115.667 135 -207 135c-58.667 0 -127 -23.667 -205 -71z" />
    <glyph glyph-name="c" unicode="c" horiz-adv-x="909" 
d="M872 213c-109.333 -154 -237.667 -231.003 -385 -231.003c-132 0 -235 50 -309 150c-65.333 89.333 -98 202.333 -98 339c0 142.667 42.667 261.667 128 357c88.667 98 203.667 147 345 147c72.667 0 139.667 -17.333 201 -52c73.333 -41.333 110 -95.666 110 -162.999
c0 -27.333 -11.667 -49.666 -35 -66.999c-20.667 -15.333 -45 -23 -73 -23c-26.667 0 -49 18.667 -67 56c-28.667 60 -47 95 -55 105c-30.667 37.333 -74.667 56 -132 56c-84.667 0 -149 -34 -193 -102c-38 -57.333 -57 -130.666 -57 -219.999
c0 -104.667 24.333 -194.667 73 -270c56.667 -87.333 134.667 -131 234 -131c90 0 175.333 34 256 102z" />
    <glyph glyph-name="d" unicode="d" horiz-adv-x="1139" 
d="M772 1270l-136.999 64.999v56c187.333 60 292 90 314 90c6 0 10.667 -0.666992 14 -2v-1223c0 -62 6.66699 -100.667 20 -116c16.667 -19.333 57 -28.666 121 -27.999v-79l-336 -51v129c-118 -86 -219 -129 -303 -129c-114 0 -204.333 47 -271 141
c-58.667 83.333 -88 184.333 -88 303c0 143.333 42 269 126 377c91.333 116 206.666 174 345.999 174c53.333 0 118 -20.667 194 -62v355zM768.001 202.999v423.999c0 174.667 -75 262 -225 262c-86.667 0 -151.667 -42 -195 -126c-34 -65.333 -51 -145.666 -51 -240.999
c0 -99.333 19 -185 57 -257c47.333 -89.333 116.333 -134 207 -134c56.667 0 125.667 24 207 72z" />
    <glyph glyph-name="e" unicode="e" horiz-adv-x="909" 
d="M250 678h407c-4 61.333 -22.667 111 -56 149c-36 41.333 -84 62 -144 62c-104.667 0 -173.667 -70.333 -207 -211zM872 211c-104 -154 -228.667 -231.002 -374 -231.002c-134.667 0 -241 47.667 -319 143c-72.667 88.667 -109 202 -109 340
c0 136.667 36.333 254.334 109 353.001c80.667 108.667 187 163 319 163c107.333 0 197 -39 269 -117c67.333 -73.333 105.333 -164.666 114 -273.999h-535c-37.333 0 -58.333 -0.666992 -63 -2c-22 -4.66699 -33 -19 -33 -43c0 -96 26.667 -182.333 80 -259
c59.333 -86.667 135 -130 227 -130c88 0 175.333 37.333 262 112z" />
    <glyph glyph-name="f" unicode="f" horiz-adv-x="651" 
d="M72 0v90c60.667 3.33301 103 22 127 56c21.333 29.333 32 75.666 32 138.999v581h-159v92h159c0 158.667 30.333 284.334 91 377.001c72.667 109.333 184.334 164 335.001 164c50 0 93.333 -9.66699 130 -29c46 -24 69 -58.667 69 -104c0 -25.333 -10 -47 -30 -65
s-42.667 -27 -68 -27c-15.333 0 -44.333 20.833 -87 62.5s-77.334 62.5 -104.001 62.5c-99.333 0 -149 -88.667 -149 -266v-175h213v-92h-213v-573c0 -72 13.333 -123.333 40 -154c28 -32.667 77.333 -49 148 -49v-90h-534z" />
    <glyph glyph-name="g" unicode="g" 
d="M301 12c-62.667 -60 -94.001 -112.333 -94.001 -157c0 -48 34 -83.333 102 -106c48 -16.667 102.667 -25 164 -25c72.667 0 142.667 14 210 42c86.667 36.667 130 86 130 148c0 50 -39.667 82 -119 96c-30 5.33301 -88.667 8 -176 8c-111.333 0 -183.666 -2 -216.999 -6z
M312.999 682c0 -68 13 -125 39 -171c32 -56.667 79.333 -85 142 -85c51.333 0 91 18.667 119 56c25.333 34 38 77.333 38 130c0 186 -59.333 279 -178 279c-106.667 0 -160 -69.667 -160 -209zM196.999 35c-53.333 42.667 -80.001 83.665 -80.001 122.998
c0 50.667 50.333 125.667 151 225c-103.333 74 -155 163.333 -155 268c0 100.667 35 181.334 105 242.001c66 57.333 150.333 86 253 86c43.333 0 107.333 -9.83301 192 -29.5s197.334 -29.5 338.001 -29.5v-134c-14 3.33301 -34.333 5 -61 5c-46 0 -82 -3.66699 -108 -11
c12 -44 18 -83.333 18 -118c0 -111.333 -38.333 -195 -115 -251c-66.667 -48.667 -158 -73 -274 -73c-30.667 0 -63.334 4.66699 -98.001 14c-46.667 -46.667 -70 -80.667 -70 -102c0 -18 7.66699 -30.667 23 -38c10.667 -6 120.334 -9 329.001 -9
c203.333 0 305 -76.667 305 -230c0 -123.333 -64 -218.666 -192 -285.999c-102.667 -54.667 -221.667 -82 -357 -82c-86.667 0 -161.667 16.333 -225 49c-79.333 41.333 -119 101.333 -119 180c0 64.667 46.667 131.667 140 201z" />
    <glyph glyph-name="h" unicode="h" horiz-adv-x="1186" 
d="M74 0l0.000976562 89.998c59.333 2.66699 99.666 19.334 120.999 50.001c18.667 26 28 70 28 132v998l-137 65v56c186 60 290 90 312 90c6 0 10.667 -0.666992 14 -2v-635c108.667 88.667 215 133 319 133c169.333 0 254 -108 254 -324v-381
c0 -61.333 6.33301 -103.666 19 -126.999c18 -32 54.667 -50.333 110 -55v-90h-461l1 90c60.667 4.66699 101 22.667 121 54c14.667 23.333 22 66 22 128v385c0 63.333 -7.33301 107 -22 131c-19.333 33.333 -58 50 -116 50c-70.667 0 -153 -29.333 -247 -88v-478
c0 -62 7.33301 -104.667 22 -128c20 -31.333 60.333 -49.333 121 -54v-90h-481z" />
    <glyph glyph-name="i" unicode="i" horiz-adv-x="631" 
d="M211 1364c0 32.667 11.333 60.667 34 84s50.334 35 83.001 35s60.167 -11.667 82.5 -35s33.5 -51.333 33.5 -84s-11.167 -60.334 -33.5 -83.001s-49.833 -34 -82.5 -34s-60.334 11.333 -83.001 34s-34 50.334 -34 83.001zM233 766l-136.999 64.999v56l275 90h51v-705
c0 -62 7.33301 -104.667 22 -128c20 -31.333 60.333 -49.333 121 -54v-90h-481v90c59.333 2.66699 99.666 19.334 120.999 50.001c18.667 26 28 70 28 132v494z" />
    <glyph glyph-name="j" unicode="j" horiz-adv-x="578" 
d="M223 766l-137 65v56l274 90h52v-922c0 -88.667 -27 -172 -81 -250c-38.667 -56.667 -100.667 -120.667 -186 -192l-61 57c54 62 91 122 111 180c18.667 54 28 123.667 28 209v707zM201 1364c0 32.667 11.165 60.665 33.498 83.998s49.833 35 82.5 35
s60.334 -11.667 83.001 -35s34 -51.333 34 -84c0 -33.333 -11.167 -61.166 -33.5 -83.499s-50.166 -33.5 -83.499 -33.5c-32.667 0 -60.167 11.333 -82.5 34s-33.5 50.334 -33.5 83.001z" />
    <glyph glyph-name="k" unicode="k" horiz-adv-x="1126" 
d="M74 0v89.9971c57.333 2.66699 97 18.334 119 47.001c20 26 30 69 30 129v1004l-137 65v56c186 60 290 90 312 90c6 0 10.667 -0.666992 14 -2v-928c0 -10 0.666992 -19.333 2 -28l6 -5c8 2.66699 64 56 168 160c53.333 53.333 80 96.333 80 129
c0 36.667 -35.667 64 -107 82v67h469v-67c-64.667 -8 -138 -48.667 -220 -122l-175 -177c-8 -7.33301 -17 -19.666 -27 -36.999c2.66699 -12 13 -27 31 -45l428 -428v-80h-184l-239 244c-137.333 140 -212 211.667 -224 215l-6 -6c-1.33301 -10 -2 -21 -2 -33v-155
c0 -59.333 8 -100.666 24 -123.999c20 -30 59.667 -47 119 -51v-90h-481z" />
    <glyph glyph-name="l" unicode="l" horiz-adv-x="610" 
d="M63 0v89.999c59.333 2.66699 100 19.334 122 50.001c18.667 25.333 28 69.333 28 132v998l-137 65v56l276 88h51v-1207c0 -62 7 -104.667 21 -128c20 -31.333 60 -49.333 120 -54l1 -90h-482z" />
    <glyph glyph-name="m" unicode="m" horiz-adv-x="1733" 
d="M74 0l0.000976562 89.9971c59.333 4 99.666 21 120.999 51c18.667 25.333 28 69 28 131v494l-137 65v56c186 61.333 290 92 312 92c6 0 10.667 -0.666992 14 -2v-137c110 91.333 216.333 137 319 137c114.667 0 190.334 -44.333 227.001 -133c110 88.667 216 133 318 133
c170.667 0 256 -108 256 -324v-381c0 -62.667 6 -105 18 -127c17.333 -31.333 53.666 -49.666 108.999 -54.999v-90h-459v90c60.667 5.33301 100.667 23.333 120 54c14 22.667 21 65.334 21 128.001v385c0 63.333 -6.66699 107 -20 131
c-19.333 33.333 -57.666 50 -114.999 50c-100 0 -173 -29.333 -219 -88v-478c0 -62.667 6 -105 18 -127c17.333 -31.333 53.666 -49.666 108.999 -54.999v-90h-459l1 90c60.667 5.33301 100.667 23.333 120 54c14 22.667 21 65.334 21 128.001v385c0 63.333 -7 107 -21 131
c-20 33.333 -59 50 -117 50c-70 0 -151.667 -29.333 -245 -88v-478c0 -62.667 7 -105.334 21 -128.001c19.333 -31.333 59.333 -49.333 120 -54v-90h-481z" />
    <glyph glyph-name="n" unicode="n" horiz-adv-x="1186" 
d="M74 0l0.000976562 89.998c59.333 2.66699 99.666 19.334 120.999 50.001c18.667 26 28 70 28 132v494l-137 65v56c186 61.333 290 92 312 92c6 0 10.667 -0.666992 14 -2v-133c108.667 88.667 215 133 319 133c169.333 0 254 -108 254 -324v-381
c0 -61.333 6.33301 -103.666 19 -126.999c18 -32 54.667 -50.333 110 -55v-90h-461l1 90c60.667 4.66699 101 22.667 121 54c14.667 23.333 22 66 22 128v385c0 63.333 -7.33301 107 -22 131c-19.333 33.333 -58 50 -116 50c-70.667 0 -153 -29.333 -247 -88v-478
c0 -62 7.33301 -104.667 22 -128c20 -31.333 60.333 -49.333 121 -54v-90h-481z" />
    <glyph glyph-name="o" unicode="o" horiz-adv-x="1042" 
d="M274 559c0 -114.667 17.333 -217.667 52 -309c48 -126 119.667 -189 215 -189c151.333 0 227 113.333 227 340c0 116.667 -17.333 219.667 -52 309c-47.333 123.333 -120 185 -218 185c-149.333 0 -224 -112 -224 -336zM522 -18c-134 0 -243.666 49.333 -328.999 148
c-82 94 -123 209 -123 345c0 140 39.667 257 119 351c84 99.333 195 149 333 149c134.667 0 244.667 -50 330 -150c80.667 -94.667 121 -210.667 121 -348c0 -139.333 -39.667 -255.333 -119 -348c-84.667 -98 -195.334 -147 -332.001 -147z" />
    <glyph glyph-name="p" unicode="p" horiz-adv-x="1110" 
d="M371 756l-0.000976562 -423.999c0 -174.667 73 -262 219 -262c86.667 0 151.667 41.667 195 125c34 65.333 51 145.666 51 240.999c0 100 -19 185.667 -57 257c-47.333 89.333 -116.666 134 -207.999 134c-62 0 -128.667 -23.667 -200 -71zM30.999 -388.999
l-0.000976562 81.998c58 6 98 24.667 120 56c19.333 26.667 29 70.667 29 132v885l-137 65v56c187.333 61.333 292 92 314 92c6 0 10.667 -0.666992 14 -2v-131c108 87.333 207 131 297 131c114.667 0 205 -47 271 -141c58 -83.333 87 -184.666 87 -303.999
c0 -141.333 -41 -265.333 -123 -372c-89.333 -116 -202.666 -174 -339.999 -174c-64 0 -128 17 -192 51v-156c0 -61.333 9.66699 -105.666 29 -132.999c21.333 -30.667 61.333 -49 120 -55v-82h-489z" />
    <glyph glyph-name="q" unicode="q" horiz-adv-x="1090" 
d="M1081 -307v-81.999h-491v82c58.667 5.33301 99 23.666 121 54.999c18.667 27.333 28 71.666 28 132.999v234c-106.667 -87.333 -205.667 -131 -297 -131c-114 0 -204 47 -270 141c-58.667 83.333 -88 184.333 -88 303c0 142.667 41 267.334 123 374.001
c89.333 115.333 203.333 173 342 173c82.667 0 170.667 -25.333 264 -76l41 78h78v-1096c0 -61.333 9.66699 -105.333 29 -132c22 -31.333 62 -50 120 -56zM739 205.001l0.00195312 424c0 173.333 -73.667 260 -221 260c-86.667 0 -151.334 -41.667 -194.001 -125
c-33.333 -64.667 -50 -144.667 -50 -240c0 -100 18.667 -185.667 56 -257c46.667 -89.333 115.667 -134 207 -134c63.333 0 130.666 24 201.999 72z" />
    <glyph glyph-name="r" unicode="r" horiz-adv-x="801" 
d="M66 0l0.00390625 90.001c61.333 0 102.666 19 123.999 57c15.333 27.333 23 74.666 23 141.999v477l-141 65v56c186 61.333 290 92 312 92c5.33301 0 9.66602 -0.666992 12.999 -2v-166c98.667 113.333 176.667 170 234 170c37.333 0 72.166 -13 104.499 -39
s48.5 -57.333 48.5 -94c0 -26 -9.33301 -54 -28 -84c-20 -34 -42 -51 -66 -51c-12.667 0 -34 17.667 -64 53s-53.667 53 -71 53c-52.667 0 -105.334 -46.333 -158.001 -139v-426c0 -66.667 15 -112 45 -136c26.667 -20.667 74 -30 142 -28v-90h-518z" />
    <glyph glyph-name="s" unicode="s" horiz-adv-x="801" 
d="M96 90v245.998h84c28 -174.667 101.667 -262 221 -262c45.333 0 82.333 11.667 111 35c31.333 24.667 47 59.334 47 104.001c0 54.667 -41.667 108.334 -125 161.001l-231 140c-83.333 63.333 -125 135.666 -125 216.999c0 79.333 33 142.666 99 189.999
c58.667 41.333 129.334 62 212.001 62c83.333 0 175.666 -26 276.999 -78v-217h-62c-31.333 142 -106.333 213 -225 213c-87.333 0 -131 -36 -131 -108c0 -51.333 41.667 -102.666 125 -153.999l233 -144c83.333 -66 125 -141.667 125 -227s-36 -155.666 -108 -210.999
c-66 -51.333 -142.667 -77 -230 -77c-96.667 0 -195.667 36.667 -297 110z" />
    <glyph glyph-name="t" unicode="t" horiz-adv-x="688" 
d="M653 41c-94.667 -42.667 -180.667 -64 -258 -64c-78 0 -130.667 25.667 -158 77c-18.667 36 -28 95.667 -28 179v637h-137v56c84 30 174 99.667 270 209h47v-177h246v-88h-246v-618c0 -50.667 4.33301 -85 13 -103c14 -28.667 43 -43 87 -43c27.333 0 82 6.33301 164 19
v-84z" />
    <glyph glyph-name="u" unicode="u" horiz-adv-x="1137" 
d="M55 889l0.000976562 69l318 19v-666c0 -120 49.667 -180 149 -180c88 0 166 30.667 234 92v510c0 63.333 -9.66699 105.166 -29 125.499s-59 31.833 -119 34.5v65l332 19v-721c0 -61.333 7 -100 21 -116c17.333 -20 58 -29.333 122 -28v-79l-327 -49v135
c-130 -90 -236 -135 -318 -135c-170.667 0 -256 107.667 -256 323v432c0 58.667 -6.66699 97.334 -20 116.001c-16.667 22.667 -52.334 34 -107.001 34z" />
    <glyph glyph-name="v" unicode="v" horiz-adv-x="1024" 
d="M563 250l154 415.999c22 59.333 33 102.333 33 129c0 52 -40.333 82 -121 90v73h354v-73c-46.667 -16.667 -86.667 -52.667 -120 -108c-16 -27.333 -38.667 -78 -68 -152c-58 -140 -140 -351.667 -246 -635h-74c-26.667 76.667 -129.667 337.334 -309 782.001
c-16.667 40.667 -31 67.667 -43 81c-18.667 21.333 -46 32 -82 32v73h430v-73c-69.333 -2.66699 -104 -26 -104 -70c0 -23.333 5.33301 -49.333 16 -78z" />
    <glyph glyph-name="w" unicode="w" horiz-adv-x="1448" 
d="M410 -18c-17.333 58.667 -105.002 309 -263.002 751c-16 44 -29 74.333 -39 91c-20 30.667 -45.667 49 -77 55v79h397v-79c-72.667 0 -109 -24 -109 -72c0 -13.333 9.66699 -47.333 29 -102l158 -449l184 416l-44 127c-25.333 54.667 -56.333 82 -93 82
c-5.33301 0 -10.666 -0.666992 -15.999 -2v79h426v-79c-80.667 0 -121 -26.667 -121 -80c0 -24.667 6 -52 18 -82l172 -432l160 444c8 22 12 43.333 12 64c0 45.333 -39.667 74 -119 86v79h332v-79c-35.333 0 -68.666 -29.333 -99.999 -88c-10 -19.333 -28.333 -64 -55 -134
l-128 -329c-53.333 -140 -92 -255.333 -116 -346h-74c-20.667 77.333 -91.667 270.333 -213 579l-134 -286c-50.667 -111.333 -90 -209 -118 -293h-69z" />
    <glyph glyph-name="x" unicode="x" horiz-adv-x="1024" 
d="M35 0l-0.000976562 86c52 0 106.667 34 164 102l113 129c64.667 75.333 98.667 122 102 140c-2 8 -10.333 22.333 -25 43l-164 227c-65.333 90.667 -128.666 140.667 -189.999 150v81h450v-81c-57.333 -2.66699 -86 -23.334 -86 -62.001
c0 -31.333 50.667 -105.666 152 -222.999l88 93c42 49.333 63 89.333 63 120c0 45.333 -31.333 69.333 -94 72v81h346v-81c-46.667 -2.66699 -95 -35 -145 -97l-174 -215c-14 -17.333 -23.667 -31.666 -29 -42.999c2 -6.66699 11 -21 27 -43l188 -258
c70.667 -96.667 126.667 -141.667 168 -135v-86h-465v86c18.667 -2.66699 31 -4 37 -4c48 0 72 18.333 72 55c0 26 -24.333 71 -73 135l-87 107l-89 -99c-46 -55.333 -69 -97.333 -69 -126c0 -42.667 33.333 -65.334 100 -68.001l1 -86h-381z" />
    <glyph glyph-name="y" unicode="y" 
d="M51 877v83.999h418v-84c-66.667 0 -100 -20.667 -100 -62c0 -34.667 13.667 -82.334 41 -143.001l188 -418l152 420c17.333 48 26 81.333 26 100c0 28.667 -10.5 52.334 -31.5 71.001s-46.5 29.334 -76.5 32.001v84h356v-84c-74.667 -16 -132 -75.667 -172 -179
l-281 -727c-45.333 -118 -83 -199.333 -113 -244c-60 -90 -131.333 -135 -214 -135c-43.333 0 -80.333 9 -111 27c-36.667 22 -55 53.333 -55 94c0 25.333 8.33301 48.166 25 68.499s37.667 30.5 63 30.5c18 0 42.667 -12.667 74 -38s55.666 -38 72.999 -38
c43.333 0 83 36 119 108c12 24 33.333 80.667 64 170l-305 698c-20.667 46.667 -38 80 -52 100c-25.333 36.667 -54.666 58.334 -87.999 65.001z" />
    <glyph glyph-name="z" unicode="z" horiz-adv-x="909" 
d="M61 0v76l588 805h-203c-69.333 0 -120.666 -9 -153.999 -27c-38 -19.333 -72 -58.333 -102 -117l-71 -6l18 252h30c9.33301 -19.333 48.666 -29 117.999 -29h592v-65l-592 -813h180c90.667 0 160.667 15.5 210 46.5s91.333 87.833 126 170.5l76 -19
c-14 -46.667 -32.667 -138 -56 -274h-760z" />
    <glyph glyph-name="braceleft" unicode="{" horiz-adv-x="1024" 
d="M846 1516v-50.999c-94.667 -1.33301 -159.5 -20 -194.5 -56s-52.5 -120.667 -52.5 -254v-49.5v-51.5c0 -149.333 -20.333 -251.333 -61 -306s-115.667 -92.334 -225 -113.001c109.333 -20.667 184.333 -58.334 225 -113.001s61 -157.334 61 -308.001v-50v-49
c0 -133.333 17.333 -217.666 52 -252.999s99.667 -53.666 195 -54.999v-51h-10c-162.667 0 -270 33.667 -322 101c-38.667 50 -58 146.667 -58 290v80c0.666992 38 1 67.333 1 88c0 105.333 -20.667 178.666 -62 219.999c-39.333 38.667 -112.333 62.334 -219 71.001v60
c107.333 10 180.333 33.667 219 71c41.333 40.667 62 113.667 62 219c0 21.333 -0.333008 50.333 -1 87v80c0 146 20 244 60 294c52.667 66 162.667 99 330 99z" />
    <glyph glyph-name="bar" unicode="|" horiz-adv-x="1024" 
d="M449 1565h126v-2048h-126v2048z" />
    <glyph glyph-name="braceright" unicode="}" horiz-adv-x="1024" 
d="M178 1516l9.99902 0.00195312c144 0 243.333 -24.833 298 -74.5s82 -150.834 82 -303.501c0 -16.667 -0.333008 -41.5 -1 -74.5s-1 -57.5 -1 -73.5c0 -126.667 19.5 -209.834 58.5 -249.501s113.5 -64.5 223.5 -74.5v-60
c-106.667 -8.66699 -179.667 -32.334 -219 -71.001c-41.333 -41.333 -62 -114.666 -62 -219.999c0 -176 -2 -279.333 -6 -310c-10 -87.333 -40.333 -149.333 -91 -186c-58 -42 -155.333 -63 -292 -63v51c95.333 1.33301 160.333 19.666 195 54.999s52 119.666 52 252.999v49
v50c0 150.667 20.333 253.334 61 308.001s115.667 92.334 225 113.001c-109.333 20.667 -184.666 58.667 -225.999 114c-40 53.333 -60 155 -60 305v51v50c0 133.333 -17.5 218 -52.5 254s-99.833 54.667 -194.5 56v51z" />
    <glyph glyph-name="asciitilde" unicode="~" horiz-adv-x="1706" 
d="M1530 758v-131c-134.667 -96 -263.667 -144 -387 -144c-67.333 0 -164 23 -290 69s-222.667 69 -290 69c-104.667 0 -233 -53.333 -385 -160v133c139.333 96.667 268.333 145 387 145c68 0 165 -22.833 291 -68.5s222.333 -68.5 289 -68.5c108.667 0 237 52 385 156z" />
    <glyph glyph-name="euro" 
d="M940 1325l26.999 -289.001l-74 -8c-18 87.333 -47.667 159 -89 215c-52 71.333 -117.333 107 -196 107c-92.667 0 -163.667 -59 -213 -177c-34.667 -82 -55 -180.667 -61 -296h397l-39 -84h-364c0 -64.667 2 -122 6 -172h282l-36 -84h-238c40 -312.667 137 -469 291 -469
c118 0 208 109.667 270 329h78l-35 -301c-112 -79.333 -222 -119 -330 -119c-142 0 -257.333 60.333 -346 181c-73.333 98.667 -121.666 225 -144.999 379h-125l39 84h80c-3.33301 56.667 -3.33301 113.667 0 171l-150 1l37 84h121c25.333 148.667 77 274.334 155 377.001
c93.333 122.667 208.333 184 345 184c92.667 0 197 -37.667 313 -113z" />
    <glyph glyph-name="nonbreakingspace" unicode="&#xa0;" 
 />
    <glyph glyph-name="exclamdown" unicode="&#xa1;" horiz-adv-x="688" 
d="M213 1348c0 36.667 12.667 67.667 38 93s56.333 38 93 38s67.667 -12.667 93 -38s38 -56.333 38 -93s-12.667 -68.167 -38 -94.5s-56.333 -39.5 -93 -39.5c-37.333 0 -68.5 13 -93.5 39s-37.5 57.667 -37.5 95zM381 1032l68.001 -950v-21c0 -57.333 -36.333 -86 -109 -86
c-76.667 0 -112.334 35 -107.001 105l74 952h74z" />
    <glyph glyph-name="cent" unicode="&#xa2;" 
d="M877 213c-112.667 -154 -240.332 -230.999 -382.999 -230.999c-31.333 0 -74.333 6.66699 -129 20l-113 -225l-74 28l111 234c-136.667 94.667 -205 238.667 -205 432c0 145.333 43.333 264.666 130 357.999c88.667 96 205 144 349 144
c47.333 0 100.666 -10.333 159.999 -31l123 254l76 -29l-129 -268c50 -46 75 -91.667 75 -137c0 -62.667 -28.667 -94 -86 -94c-28.667 0 -56 13 -82 39l-249 -519c40.667 -17.333 74.667 -26 102 -26c90 0 178.667 34.667 266 104zM657.002 805.001
c-36.667 54.667 -88.333 82 -155 82c-84 0 -147.667 -35 -191 -105c-36.667 -58 -55 -131.667 -55 -221c0 -134 43 -244 129 -330z" />
    <glyph glyph-name="sterling" unicode="&#xa3;" 
d="M57 682v100.002h164c-24.667 100 -37 175.333 -37 226c0 126 39.333 230.167 118 312.5s180.667 123.5 306 123.5c74.667 0 146.334 -16.667 215.001 -50c84.667 -40.667 127 -94.334 127 -161.001c0 -26.667 -7.66699 -49.667 -23 -69s-36.333 -29 -63 -29
c-35.333 0 -64.333 19 -87 57l-61 105c-30.667 38 -73.334 57 -128.001 57c-134 0 -201 -105.333 -201 -316c0 -84 11.667 -169.333 35 -256h248v-100h-234c32.667 -112.667 49 -205.667 49 -279c0 -42.667 -4.66699 -89.334 -14 -140.001c88 -56.667 161.667 -85 221 -85
c80.667 0 156 48 226 144l61 -48c-68.667 -190.667 -173 -286 -313 -286c-85.333 0 -165.333 45.667 -240 137c-54.667 -91.333 -123 -137 -205 -137c-56.667 0 -101.167 16.333 -133.5 49s-48.5 77.667 -48.5 135c0 53.333 17.167 98 51.5 134s77.833 54 130.5 54
c44.667 0 91.667 -12.667 141 -38c2 7.33301 3 15.333 3 24c0 30.667 -14.667 86 -44 166l-65 170h-199zM338 213.002c-44.667 36.667 -83.667 55 -117 55c-26 0 -47.5 -9.5 -64.5 -28.5s-25.5 -41.5 -25.5 -67.5c0 -61.333 28 -92 84 -92c55.333 0 96.333 44.333 123 133z
" />
    <glyph glyph-name="currency" unicode="&#xa4;" 
d="M940 1325l26.999 -289.001l-74 -8c-18 87.333 -47.667 159 -89 215c-52 71.333 -117.333 107 -196 107c-92.667 0 -163.667 -59 -213 -177c-34.667 -82 -55 -180.667 -61 -296h397l-39 -84h-364c0 -64.667 2 -122 6 -172h282l-36 -84h-238c40 -312.667 137 -469 291 -469
c118 0 208 109.667 270 329h78l-35 -301c-112 -79.333 -222 -119 -330 -119c-142 0 -257.333 60.333 -346 181c-73.333 98.667 -121.666 225 -144.999 379h-125l39 84h80c-3.33301 56.667 -3.33301 113.667 0 171l-150 1l37 84h121c25.333 148.667 77 274.334 155 377.001
c93.333 122.667 208.333 184 345 184c92.667 0 197 -37.667 313 -113z" />
    <glyph glyph-name="yen" unicode="&#xa5;" horiz-adv-x="1452" 
d="M815 604l-0.000976562 -309c0 -138 60 -207 180 -207v-88h-559l1 88c71.333 8 119.333 27 144 57c23.333 28 35 78.667 35 152v307h-532v82h487l-110 174h-377v82h328c-71.333 118.667 -117.666 193 -138.999 223c-75.333 104.667 -138.333 158 -189 160v84h549v-84
c-100 0 -150 -26 -150 -78c0 -30 15.667 -72.333 47 -127l238 -413c178.667 290.667 268 457.667 268 501c0 71.333 -53 110.333 -159 117v84h485v-84c-70 -15.333 -138.667 -68 -206 -158c-10 -13.333 -57.333 -88.333 -142 -225h348v-84h-395l-109 -172h504v-82h-547z" />
    <glyph glyph-name="brokenbar" unicode="&#xa6;" horiz-adv-x="1024" 
d="M449 408h126v-758h-126v758zM449 1432h126v-758h-126v758z" />
    <glyph glyph-name="section" unicode="&#xa7;" 
d="M489 1384c-66.667 0 -99.9971 -30.668 -99.9971 -92.001c0 -42.667 40.667 -133.667 122 -273c115.333 -197.333 191 -335 227 -413c81.333 -174.667 122 -326 122 -454c0 -152 -32.333 -275 -97 -369c-74.667 -109.333 -184.334 -164 -329.001 -164
c-57.333 0 -108.666 10 -153.999 30c-60 26.667 -90 65 -90 115c0 28.667 10.167 51.667 30.5 69s45.166 26 74.499 26c30.667 0 65.5 -23 104.5 -69s80.5 -69 124.5 -69c32.667 0 58.667 11 78 33s29 49.333 29 82c0 54.667 -40.667 157.334 -122 308.001
c-131.333 243.333 -207 386.333 -227 429c-81.333 175.333 -122 320.333 -122 435c0 133.333 34.667 244 104 332c76 95.333 179 143 309 143c62 0 115 -8.66699 159 -26c62 -24 93 -62 93 -114c0 -60 -32.667 -90 -98 -90c-36.667 0 -78.834 21.833 -126.501 65.5
s-84.834 65.5 -111.501 65.5zM715.003 -86.001c27.333 60 41.001 127.667 41.001 203c0 116 -33.667 249.333 -101 400c-16.667 38 -81.334 162 -194.001 372l-91 169c-36 70 -59.667 129 -71 177c-27.333 -66 -41 -127.333 -41 -184c0 -112 32 -240.333 96 -385
c22.667 -52 88.667 -179 198 -381c82.667 -154 137 -277.667 163 -371z" />
    <glyph glyph-name="dieresis" unicode="&#xa8;" horiz-adv-x="1024" 
d="M588 1243c0 26.667 10 49.667 30 69s43.333 29 70 29s49.667 -9.66699 69 -29s29 -42.333 29 -69c0 -28.667 -9.16699 -52.5 -27.5 -71.5s-41.833 -28.5 -70.5 -28.5c-28 0 -51.667 9.66699 -71 29s-29 43 -29 71zM238 1243c0 26.667 9.66699 49.667 29 69
s42.333 29 69 29s50 -9.66699 70 -29s30 -42.333 30 -69c0 -28 -9.66699 -51.667 -29 -71s-43 -29 -71 -29c-28.667 0 -52.167 9.5 -70.5 28.5s-27.5 42.833 -27.5 71.5z" />
    <glyph glyph-name="copyright" unicode="&#xa9;" horiz-adv-x="1683" 
d="M1120 1096l35 -0.000976562l2 -314h-41c-45.333 183.333 -138.666 275 -279.999 275c-165.333 0 -248 -124.333 -248 -373c0 -254 88.667 -381 266 -381c113.333 0 207.666 58 282.999 174l34 -24c-76.667 -139.333 -190.667 -209 -342 -209
c-114 0 -209.667 41.333 -287 124s-116 181.334 -116 296.001c0 119.333 36.333 221.333 109 306c76.667 88 174 132 292 132c38 0 85.333 -11.333 142 -34s86 -34 88 -34c35.333 0 56.333 20.667 63 62zM844 1303c-170.667 0 -316.5 -61.5 -437.5 -184.5
s-181.5 -269.833 -181.5 -440.5s60.167 -316.834 180.5 -438.501s265.833 -182.5 436.5 -182.5s316 60.833 436 182.5s180 267.834 180 438.501s-59.667 317.5 -179 440.5s-264.333 184.5 -435 184.5zM844 1382c193.333 0 358.334 -68.833 495.001 -206.5
s205 -303.5 205 -497.5s-68.5 -359.667 -205.5 -497s-302.5 -206 -496.5 -206c-194.667 0 -360.5 68.5 -497.5 205.5s-205.5 302.833 -205.5 497.5c0 195.333 68.667 361.5 206 498.5s303.666 205.5 498.999 205.5z" />
    <glyph glyph-name="ordfeminine" unicode="&#xaa;" horiz-adv-x="686" 
d="M662 836c-35.333 -48 -76.334 -72.001 -123.001 -72.001c-50.667 0 -85.667 30.667 -105 92c-68 -56 -135.667 -84 -203 -84c-47.333 0 -88 12.333 -122 37c-37.333 28 -56 65 -56 111c0 73.333 47.667 134.666 143 183.999c52 26.667 131.333 53.334 238 80.001v94
c0 84.667 -41 127 -123 127c-73.333 0 -110 -22.667 -110 -68c0 -12.667 5 -29 15 -49s15 -31 15 -33c0 -11.333 -15.333 -22.666 -46 -33.999c-27.333 -10 -48.666 -15 -63.999 -15c-28.667 0 -43 33 -43 99c0 55.333 36.333 97.666 109 126.999c54 21.333 114 32 180 32
c68 0 117.333 -11.667 148 -35c36 -27.333 54 -73.666 54 -138.999v-352c0 -40.667 9.66699 -61 29 -61c22.667 0 44 6.66699 64 20v-61zM433.999 1116c-156.667 -40 -235 -91.667 -235 -155c0 -59.333 34.667 -89 104 -89c50 0 93.667 21.333 131 64v180z" />
    <glyph glyph-name="guillemotleft" unicode="&#xab;" horiz-adv-x="887" 
d="M324 96c-64.667 131.333 -149.333 263.333 -254 396c103.333 122.667 188 251.667 254 387h137c-55.333 -144 -131.333 -273 -228 -387c88 -116.667 164 -248.667 228 -396h-137zM678.001 96c-66 135.333 -149.999 267.333 -251.999 396
c100.667 118.667 184.667 247.667 252 387h137c-54.667 -142.667 -130.334 -271.667 -227.001 -387c88 -118.667 163.667 -250.667 227 -396h-137z" />
    <glyph glyph-name="logicalnot" unicode="&#xac;" horiz-adv-x="1706" 
d="M254 858h1198v-502h-115v385h-1083v117z" />
    <glyph glyph-name="sfthyphen" unicode="&#xad;" horiz-adv-x="682" 
d="M94 408v170h494v-170h-494z" />
    <glyph glyph-name="registered" unicode="&#xae;" horiz-adv-x="1683" 
d="M729 719c21.333 -1.33301 43.332 -2 65.999 -2c156.667 0 235 58 235 174c0 53.333 -20 94.333 -60 123c-35.333 26 -80.666 39 -135.999 39c-70 0 -105 -24 -105 -72v-262zM468.999 1092l393.001 0.00292969c81.333 0 150 -13.333 206 -40
c74.667 -35.333 112 -89 112 -161c0 -98 -95.667 -164.333 -287 -199c73.333 -22.667 126.666 -55.334 159.999 -98.001c30.667 -39.333 52 -98 64 -176c8.66699 -58.667 28.334 -88 59.001 -88c44.667 0 67 44.333 67 133h43v-12c0 -119.333 -53.333 -179 -160 -179
c-80.667 0 -127 35.333 -139 106l-28 196c-30 70.667 -106.667 106 -230 106v-248c0 -39.333 11.667 -66.333 35 -81c16.667 -10.667 46.667 -17.334 90 -20.001v-40h-385v40c43.333 2 74 8.33301 92 19c23.333 15.333 35 42.666 35 81.999v516c0 40 -11.667 67.333 -35 82
c-16.667 10 -47.334 16.333 -92.001 19v43zM844 1303c-170.667 0 -316.5 -61.502 -437.5 -184.502s-181.5 -269.833 -181.5 -440.5c0 -171.333 60.167 -317.666 180.5 -438.999s265.833 -182 436.5 -182s316 60.833 436 182.5s180 267.834 180 438.501
c0 171.333 -59.667 318.333 -179 441s-264.333 184 -435 184zM844 1382c195.333 0 360.834 -68.833 496.501 -206.5s203.5 -304.167 203.5 -499.5c0 -194 -69.5 -359.333 -208.5 -496s-305.5 -205 -499.5 -205c-192.667 0 -357 69 -493 207s-204 303.333 -204 496
c0 195.333 68.667 361.5 206 498.5s303.666 205.5 498.999 205.5z" />
    <glyph glyph-name="macron" unicode="&#xaf;" horiz-adv-x="1024" 
d="M254 1180v125h516v-125h-516z" />
    <glyph glyph-name="macron" unicode="&#x2c9;" horiz-adv-x="1024" 
d="M254 1180v125h516v-125h-516z" />
    <glyph glyph-name="degree" unicode="&#xb0;" horiz-adv-x="674" 
d="M338 1372c-56.667 0 -104.666 -19.501 -143.999 -58.501s-59 -86.5 -59 -142.5c0 -56.667 19.667 -104.5 59 -143.5s87.333 -58.5 144 -58.5c56 0 103.5 19.5 142.5 58.5s58.5 86.833 58.5 143.5s-19.333 104.334 -58 143.001s-86.334 58 -143.001 58zM338.001 1454
c78.667 0 145.501 -27.498 200.501 -82.498s82.5 -121.833 82.5 -200.5s-27.833 -145.334 -83.5 -200.001s-122.834 -82 -201.501 -82c-79.333 0 -146 27.167 -200 81.5s-81 121.166 -81 200.499s27.333 146.333 82 201s121.667 82 201 82z" />
    <glyph glyph-name="plusminus" unicode="&#xb1;" horiz-adv-x="1706" 
d="M254 158h1198v-117h-1198v117zM795 1180h118v-344h539v-117h-539v-344h-118v344h-541v117h541v344z" />
    <glyph glyph-name="twosuperior" unicode="&#xb2;" horiz-adv-x="674" 
d="M53 565l0.00195312 57.999c266.667 268 400 456.333 400 565c0 43.333 -15.667 79 -47 107s-69 42 -113 42c-64 0 -123.333 -28.667 -178 -86l-33 33c80 95.333 168.667 143 266 143c64.667 0 119 -16 163 -48c50 -36.667 75 -86 75 -148c0 -73.333 -53 -173 -159 -299
c-46 -55.333 -127 -140.666 -243 -255.999h258c35.333 0 60.666 3.33301 75.999 10c18 8.66699 37 27 57 55c12 -1.33301 27.333 -7.33301 46 -18c-4.66699 -8 -29.334 -60.667 -74.001 -158h-494z" />
    <glyph glyph-name="threesuperior" unicode="&#xb3;" horiz-adv-x="674" 
d="M158 963l2.00195 61c178.667 31.333 268 94 268 188c0 42.667 -12.833 76.667 -38.5 102s-59.834 38 -102.501 38c-37.333 0 -89.333 -25.333 -156 -76l-39 18c66 92 148.667 138 248 138c56.667 0 106 -15.333 148 -46c46 -34 69 -78.333 69 -133
c0 -74.667 -48.333 -138.667 -145 -192c125.333 -49.333 188 -120.333 188 -213c0 -100 -48 -176.333 -144 -229c-78 -42.667 -171.333 -64 -280 -64c-68 0 -102 18.333 -102 55c0 34.667 23 52 69 52c19.333 0 48.166 -3.5 86.499 -10.5s67.5 -10.5 87.5 -10.5
c48 0 87 13 117 39s45 63 45 111c0 78 -37.667 129 -113 153c-38.667 12.667 -108 19 -208 19z" />
    <glyph glyph-name="acute" unicode="&#xb4;" horiz-adv-x="1024" 
d="M336 1087l289 299c38.667 40 70.667 60 96 60c49.333 0 74 -23.333 74 -70c0 -30 -20.667 -58 -62 -84l-330 -205h-67z" />
    <glyph glyph-name="mu" unicode="&#xb5;" horiz-adv-x="1120" 
d="M164 193c-16.667 -82.667 -34.001 -195.669 -52.001 -339.002l-2 -18c-22 -169.333 -58.667 -254 -110 -254c-53.333 0 -80 29.333 -80 88c0 26 21.5 117.167 64.5 273.5s78.167 298.833 105.5 427.5l109 514h147l-104 -492c-8.66699 -41.333 -13 -78.666 -13 -111.999
c0 -116.667 53.333 -175 160 -175c132.667 0 218.667 89.667 258 269l111 510h149l-114 -531c-14 -65.333 -21 -111 -21 -137c0 -29.333 8.16699 -54.666 24.5 -75.999s38.833 -32 67.5 -32c44.667 0 81 19.333 109 58c14.667 20 31.334 55.667 50.001 107
c14.667 38.667 27.334 58 38.001 58c17.333 0 26 -12.333 26 -37c0 -16 -3.66699 -38 -11 -66c-42.667 -164.667 -129 -247 -259 -247c-99.333 0 -149 71 -149 213c-60.667 -145.333 -154.334 -218 -281.001 -218c-130 0 -204.333 72 -223 216z" />
    <glyph glyph-name="mu" unicode="&#x3bc;" horiz-adv-x="1120" 
d="M164 193c-16.667 -82.667 -34.001 -195.669 -52.001 -339.002l-2 -18c-22 -169.333 -58.667 -254 -110 -254c-53.333 0 -80 29.333 -80 88c0 26 21.5 117.167 64.5 273.5s78.167 298.833 105.5 427.5l109 514h147l-104 -492c-8.66699 -41.333 -13 -78.666 -13 -111.999
c0 -116.667 53.333 -175 160 -175c132.667 0 218.667 89.667 258 269l111 510h149l-114 -531c-14 -65.333 -21 -111 -21 -137c0 -29.333 8.16699 -54.666 24.5 -75.999s38.833 -32 67.5 -32c44.667 0 81 19.333 109 58c14.667 20 31.334 55.667 50.001 107
c14.667 38.667 27.334 58 38.001 58c17.333 0 26 -12.333 26 -37c0 -16 -3.66699 -38 -11 -66c-42.667 -164.667 -129 -247 -259 -247c-99.333 0 -149 71 -149 213c-60.667 -145.333 -154.334 -218 -281.001 -218c-130 0 -204.333 72 -223 216z" />
    <glyph glyph-name="paragraph" unicode="&#xb6;" horiz-adv-x="1024" 
d="M948 1479l-0.000976562 -78h-125v-1401h-94v1401h-182v-1401h-96v782c-109.333 5.33301 -197.666 36.666 -264.999 93.999c-73.333 62.667 -110 147.334 -110 254.001c0 110.667 38.667 197.667 116 261c72 58.667 164.333 88 277 88h479z" />
    <glyph glyph-name="ch270" unicode="&#xb7;" horiz-adv-x="510" 
d="M125 707c0 36.667 12.667 67.6689 38 93.002s56.333 38 93 38s67.667 -12.667 93 -38s38 -56.333 38 -93s-12.667 -67.834 -38 -93.501s-56.333 -38.5 -93 -38.5c-37.333 0 -68.5 12.667 -93.5 38s-37.5 56.666 -37.5 93.999z" />
    <glyph glyph-name="ch270" unicode="&#x2219;" horiz-adv-x="510" 
d="M125 707c0 36.667 12.667 67.6689 38 93.002s56.333 38 93 38s67.667 -12.667 93 -38s38 -56.333 38 -93s-12.667 -67.834 -38 -93.501s-56.333 -38.5 -93 -38.5c-37.333 0 -68.5 12.667 -93.5 38s-37.5 56.666 -37.5 93.999z" />
    <glyph glyph-name="cedilla" unicode="&#xb8;" horiz-adv-x="1024" 
d="M244 -371l35.002 77.999c84.667 -48 159 -72 223 -72c82 0 123 31 123 93c0 58.667 -37 88 -111 88c-20.667 0 -42.334 -2 -65.001 -6v190h63v-112c32 4 52.333 6 61 6c122 0 183 -54.667 183 -164c0 -59.333 -22.333 -104.666 -67 -135.999
c-39.333 -26.667 -90 -40 -152 -40c-68.667 0 -166.334 25 -293.001 75z" />
    <glyph glyph-name="onesuperior" unicode="&#xb9;" horiz-adv-x="672" 
d="M147 565v53.001c46.667 0 78 5 94 15c23.333 13.333 35 41.333 35 84v506c0 44.667 -10.667 73.667 -32 87c-16 10 -48.333 15 -97 15v43l252 59v-706c0 -42.667 11.667 -71.334 35 -86.001c18 -11.333 48.667 -17 92 -17v-53h-379z" />
    <glyph glyph-name="ordmasculine" unicode="&#xba;" horiz-adv-x="782" 
d="M207 1171c0 -81.333 13.333 -154.332 40 -218.999c36 -86 89 -129 159 -129c112.667 0 169 79.333 169 238c0 83.333 -13.333 156.666 -40 219.999c-36 84 -90 126 -162 126c-110.667 0 -166 -78.667 -166 -236zM391 768.001c-97.333 0 -178 32.833 -242 98.5
s-96 147.5 -96 245.5c0 101.333 31.167 185 93.5 251s143.833 99 244.5 99c99.333 0 180.5 -33 243.5 -99s94.5 -149 94.5 -249c0 -100.667 -31.333 -183.5 -94 -248.5s-144 -97.5 -244 -97.5z" />
    <glyph glyph-name="guillemotright" unicode="&#xbb;" horiz-adv-x="887" 
d="M563 96h-136.999c63.333 145.333 139 277.333 227 396c-96.667 115.333 -172.334 244.333 -227.001 387h137c67.333 -139.333 151.333 -268.333 252 -387c-98 -124.667 -182 -256.667 -252 -396zM209.001 96h-137c62 144 137 276 225 396
c-96 113.333 -171 242.333 -225 387h137c67.333 -139.333 151.333 -268.333 252 -387c-102 -128.667 -186 -260.667 -252 -396z" />
    <glyph glyph-name="onequarter" unicode="&#xbc;" horiz-adv-x="1626" 
d="M1343 -14v235h-331v78l393 506h57v-496h140v-88h-140v-235h-119zM1343 309v336l-253 -336h253zM299 -25l911 1461h119l-913 -1461h-117zM141 621l-0.000976562 50.999c44.667 0 74.334 4 89.001 12c22.667 12 34 38 34 78v473c0 42 -10.333 69.333 -31 82
c-14 8 -44.333 12.667 -91 14l-1 39l242 55v-659c0 -39.333 11.333 -65.666 34 -78.999c16 -10 44.333 -15 85 -15v-51h-361z" />
    <glyph glyph-name="onehalf" unicode="&#xbd;" horiz-adv-x="1626" 
d="M1036 0l0.000976562 53c254 250 381 426.333 381 529c0 40.667 -14.833 74 -44.5 100s-65.167 39 -106.5 39c-62.667 0 -119.334 -26.667 -170.001 -80l-33 31c77.333 88.667 162.666 133 255.999 133c60 0 111.333 -15.333 154 -46c47.333 -34.667 71 -80.667 71 -138
c0 -68 -50.667 -161.333 -152 -280c-43.333 -51.333 -120.333 -131 -231 -239h246c33.333 0 58 3.83301 74 11.5s33.667 25.167 53 52.5c8.66699 -2.66699 21.334 -7 38.001 -13l5 -6l-70 -147h-471zM299.001 -25l911 1461h119l-913 -1461h-117zM141.001 621
l-0.000976562 50.999c44.667 0 74.334 4 89.001 12c22.667 12 34 38 34 78v473c0 42 -10.333 69.333 -31 82c-14 8 -44.333 12.667 -91 14l-1 39l242 55v-659c0 -39.333 11.333 -65.666 34 -78.999c16 -10 44.333 -15 85 -15v-51h-361z" />
    <glyph glyph-name="threequarters" unicode="&#xbe;" horiz-adv-x="1626" 
d="M1343 -14v235h-331v78l393 506h57v-496h140v-88h-140v-235h-119zM1343 309v336l-253 -336h253zM299 -25l911 1461h119l-913 -1461h-117zM150 991l1.99902 58c170.667 28 256 86.667 256 176c0 40 -12.333 71.5 -37 94.5s-57 34.5 -97 34.5
c-40.667 0 -90.334 -23.333 -149.001 -70l-37 16c62 86.667 141.333 130 238 130c52 0 98.333 -14.333 139 -43c44.667 -32 67 -73 67 -123c0 -70 -46.333 -130.333 -139 -181c120 -46.667 180 -112.667 180 -198c0 -94.667 -46.333 -166.334 -139 -215.001
c-73.333 -38.667 -162 -58 -266 -58c-65.333 0 -98 17.333 -98 52c0 31.333 22.333 47 67 47c18.667 0 46.334 -3.5 83.001 -10.5s64.334 -10.5 83.001 -10.5c102.667 0 154 47 154 141c0 72.667 -36.333 120.334 -109 143.001c-37.333 11.333 -103.333 17 -198 17z" />
    <glyph glyph-name="questiondown" unicode="&#xbf;" horiz-adv-x="909" 
d="M500 1081c36.667 2.66699 57.667 4.00098 63 4.00098c17.333 0 27 -14.333 29 -43l22 -294c-180.667 -58 -294 -105.5 -340 -142.5s-69 -84.5 -69 -142.5c0 -83.333 28.333 -157 85 -221c58.667 -66 129.334 -99 212.001 -99c19.333 0 47 5.16699 83 15.5
s63 15.5 81 15.5c56 0 84 -28.667 84 -86c0 -38.667 -17.667 -68 -53 -88c-28.667 -16.667 -63.667 -25 -105 -25c-132.667 0 -254.334 66.667 -365.001 200c-106 127.333 -159 258.666 -159 393.999c0 95.333 32.667 168.666 98 219.999c34 26.667 98 57.334 192 92.001
c76 27.333 120.333 56 133 86c11.333 27.333 14.333 65.333 9 114zM688 1346c0 -37.333 -12.5 -68.666 -37.5 -93.999s-56.167 -38 -93.5 -38s-68.5 12.667 -93.5 38s-37.5 56.666 -37.5 93.999c0 36.667 12.667 68 38 94s56.333 39 93 39s67.667 -13 93 -39
s38 -57.333 38 -94z" />
    <glyph glyph-name="Agrave" unicode="&#xc0;" horiz-adv-x="1475" 
d="M483 702h379l-186 545zM55 0l-0.000976562 90.002c56.667 10.667 101.334 40.334 134.001 89.001c18.667 27.333 41 77.666 67 150.999l354 999c12.667 36 19 58.667 19 68c0 17.333 -7 35 -21 53h217l412 -1141c49.333 -136 112 -209 188 -219v-90h-557v90
c98.667 11.333 148 45.666 148 102.999c0 40.667 -16 108 -48 202l-71 193h-453l-56 -175c-21.333 -73.333 -32 -132.333 -32 -177c0 -74.667 51.333 -123.334 154 -146.001v-90h-455zM912.999 1589h-67l-330 205c-41.333 26 -62 54 -62 84c0 46.667 24.667 70 74 70
c25.333 0 57.333 -20 96 -60z" />
    <glyph glyph-name="Aacute" unicode="&#xc1;" horiz-adv-x="1475" 
d="M483 702h379l-186 545zM55 0l-0.000976562 90.002c56.667 10.667 101.334 40.334 134.001 89.001c18.667 27.333 41 77.666 67 150.999l354 999c12.667 36 19 58.667 19 68c0 17.333 -7 35 -21 53h217l412 -1141c49.333 -136 112 -209 188 -219v-90h-557v90
c98.667 11.333 148 45.666 148 102.999c0 40.667 -16 108 -48 202l-71 193h-453l-56 -175c-21.333 -73.333 -32 -132.333 -32 -177c0 -74.667 51.333 -123.334 154 -146.001v-90h-455zM560.999 1589l289 299c38.667 40 70.667 60 96 60c49.333 0 74 -23.333 74 -70
c0 -30 -20.667 -58 -62 -84l-330 -205h-67z" />
    <glyph glyph-name="Acircumflex" unicode="&#xc2;" horiz-adv-x="1475" 
d="M483 702h379l-186 545zM55 0l-0.000976562 90.002c56.667 10.667 101.334 40.334 134.001 89.001c18.667 27.333 41 77.666 67 150.999l354 999c12.667 36 19 58.667 19 68c0 17.333 -7 35 -21 53h217l412 -1141c49.333 -136 112 -209 188 -219v-90h-557v90
c98.667 11.333 148 45.666 148 102.999c0 40.667 -16 108 -48 202l-71 193h-453l-56 -175c-21.333 -73.333 -32 -132.333 -32 -177c0 -74.667 51.333 -123.334 154 -146.001v-90h-455zM445.999 1517l232 349h118l232 -349h-58l-233 211l-233 -211h-58z" />
    <glyph glyph-name="Atilde" unicode="&#xc3;" horiz-adv-x="1475" 
d="M483 702h379l-186 545zM55 0l-0.000976562 90.002c56.667 10.667 101.334 40.334 134.001 89.001c18.667 27.333 41 77.666 67 150.999l354 999c12.667 36 19 58.667 19 68c0 17.333 -7 35 -21 53h217l412 -1141c49.333 -136 112 -209 188 -219v-90h-557v90
c98.667 11.333 148 45.666 148 102.999c0 40.667 -16 108 -48 202l-71 193h-453l-56 -175c-21.333 -73.333 -32 -132.333 -32 -177c0 -74.667 51.333 -123.334 154 -146.001v-90h-455zM1024 1886c-26.667 -136 -91.665 -204 -194.998 -204
c-26.667 0 -65.334 7.5 -116.001 22.5s-89 22.5 -115 22.5c-46.667 0 -79 -30 -97 -90h-51c25.333 138.667 91 208 197 208c26.667 0 65.167 -7.5 115.5 -22.5s88.166 -22.5 113.499 -22.5c44.667 0 76 28.667 94 86h54z" />
    <glyph glyph-name="Adieresis" unicode="&#xc4;" horiz-adv-x="1475" 
d="M483 702h379l-186 545zM55 0l-0.000976562 90.002c56.667 10.667 101.334 40.334 134.001 89.001c18.667 27.333 41 77.666 67 150.999l354 999c12.667 36 19 58.667 19 68c0 17.333 -7 35 -21 53h217l412 -1141c49.333 -136 112 -209 188 -219v-90h-557v90
c98.667 11.333 148 45.666 148 102.999c0 40.667 -16 108 -48 202l-71 193h-453l-56 -175c-21.333 -73.333 -32 -132.333 -32 -177c0 -74.667 51.333 -123.334 154 -146.001v-90h-455zM812.999 1745c0 26.667 10 49.667 30 69s43.333 29 70 29s49.667 -9.66699 69 -29
s29 -42.333 29 -69c0 -28.667 -9.16699 -52.5 -27.5 -71.5s-41.833 -28.5 -70.5 -28.5c-28 0 -51.667 9.66699 -71 29s-29 43 -29 71zM462.999 1745c0 26.667 9.66699 49.667 29 69s42.333 29 69 29s50 -9.66699 70 -29s30 -42.333 30 -69c0 -28 -9.66699 -51.667 -29 -71
s-43 -29 -71 -29c-28.667 0 -52.167 9.5 -70.5 28.5s-27.5 42.833 -27.5 71.5z" />
    <glyph glyph-name="Aring" unicode="&#xc5;" horiz-adv-x="1475" 
d="M582 1737c0 -41.333 13.833 -76 41.5 -104s62.167 -42 103.5 -42c40.667 0 75 14.167 103 42.5s42 62.833 42 103.5s-14 75.334 -42 104.001s-62.333 43 -103 43s-75 -14.333 -103 -43s-42 -63.334 -42 -104.001zM492 1737c0 66 22.667 121.667 68 167s101 68 167 68
c66.667 0 122.667 -22.5 168 -67.5s68 -100.833 68 -167.5c0 -66 -22.833 -121.833 -68.5 -167.5s-101.5 -68.5 -167.5 -68.5s-121.667 22.833 -167 68.5s-68 101.5 -68 167.5zM483 702h379l-186 545zM55 0v90.001c57.333 10.667 102 40 134 88c18 26 40.333 76.667 67 152
l350 982c12.667 35.333 19 58.666 19 69.999c0 18 -7 36 -21 54h227l406 -1127c48 -134 110.667 -207 188 -219v-90h-557v90c46.667 5.33301 79.667 13 99 23c32.667 16 49 42.667 49 80c0 32.667 -7 69.334 -21 110.001l-98 285h-453l-54 -170
c-22.667 -78 -34 -138.667 -34 -182c0 -74.667 51.333 -123.334 154 -146.001v-90h-455z" />
    <glyph glyph-name="AE" unicode="&#xc6;" horiz-adv-x="2034" 
d="M55 0l-0.00292969 90.002c56.667 10.667 101.334 40 134.001 88c18.667 27.333 41 78 67 152l307 872c14 40 21 68 21 84c0 36 -16 59.667 -48 71c-17.333 6 -48.666 9 -93.999 9v84h1135l94 -301l-86 -14c-54.667 96 -121.667 160.667 -201 194
c-58.667 24 -144 36 -256 36h-77c-35.333 -0.666992 -62.666 -1 -81.999 -1c-46.667 0 -70 -10.333 -70 -31c0 -8 60.667 -191.667 182 -551h168c62 0 106 4.33301 132 13c46 16 69 48.667 69 98c0 21.333 -5.33301 56.666 -16 105.999h92l164 -483h-93
c-28 66.667 -64 112.667 -108 138c-40 22.667 -98 34 -174 34h-203l133 -395c26 -76.667 51.667 -128 77 -154c34 -35.333 87 -53 159 -53c100.667 0 184.667 28 252 84c49.333 41.333 104.333 113.666 165 216.999l87 -14l-84 -373h-1033v90c98.667 12 148 44.667 148 98
c0 36 -17.667 106.333 -53 211l-68 189h-440l-61 -166c-29.333 -84.667 -44 -146 -44 -184c0 -76 53.333 -125.333 160 -148v-90h-455zM495.997 702.002h366l-178 527z" />
    <glyph glyph-name="Ccedilla" unicode="&#xc7;" horiz-adv-x="1364" 
d="M1219 406l89.999 0.00195312l-37 -310c-181.333 -84.667 -344.666 -127 -489.999 -127c-210.667 0 -382.334 71.333 -515.001 214c-130 138.667 -195 314 -195 526c0 105.333 13.667 199.333 41 282c47.333 147.333 136 266.333 266 357
c127.333 88.667 269.333 133 426 133c130.667 0 279.334 -39 446.001 -117l39 -299l-88 -8c-30 105.333 -83 187.666 -159 246.999s-168.333 89 -277 89c-157.333 0 -273.666 -67.667 -348.999 -203c-59.333 -106.667 -89 -245.334 -89 -416.001c0 -184 31.667 -339 95 -465
c81.333 -164 204.666 -246 369.999 -246c200 0 342 114.333 426 343zM501.999 -370.998l35.002 77.999c84.667 -48 159 -72 223 -72c82 0 123 31 123 93c0 58.667 -37 88 -111 88c-20.667 0 -42.334 -2 -65.001 -6v190h63v-112c32 4 52.333 6 61 6
c122 0 183 -54.667 183 -164c0 -59.333 -22.333 -104.666 -67 -135.999c-39.333 -26.667 -90 -40 -152 -40c-68.667 0 -166.334 25 -293.001 75z" />
    <glyph glyph-name="Egrave" unicode="&#xc8;" horiz-adv-x="1352" 
d="M82 0v89.999c82 9.33301 136 28.833 162 58.5s39 85.834 39 168.501v830c0 82.667 -13 138.834 -39 168.501s-80 49.167 -162 58.5v76h1151l10 -307h-86c-26.667 94 -81.334 157.333 -164.001 190c-56 22 -142.667 33 -260 33h-147c-32 0 -52 -4.16699 -60 -12.5
s-12 -27.5 -12 -57.5v-481h164c103.333 0 174.333 8 213 24c65.333 26.667 98.666 83.334 99.999 170.001l88 1v-488l-88 1c-2 87.333 -35 144.666 -99 171.999c-40 17.333 -111.333 26 -214 26h-164v-422c0 -86.667 24 -145.334 72 -176.001
c36.667 -23.333 101.334 -35 194.001 -35c194.667 0 339.334 96.333 434.001 289l91 -23l-88 -354h-1135zM852 1589h-67l-330 205c-41.333 26 -62 54 -62 84c0 46.667 24.667 70 74 70c25.333 0 57.333 -20 96 -60z" />
    <glyph glyph-name="Eacute" unicode="&#xc9;" horiz-adv-x="1352" 
d="M82 0v89.999c82 9.33301 136 28.833 162 58.5s39 85.834 39 168.501v830c0 82.667 -13 138.834 -39 168.501s-80 49.167 -162 58.5v76h1151l10 -307h-86c-26.667 94 -81.334 157.333 -164.001 190c-56 22 -142.667 33 -260 33h-147c-32 0 -52 -4.16699 -60 -12.5
s-12 -27.5 -12 -57.5v-481h164c103.333 0 174.333 8 213 24c65.333 26.667 98.666 83.334 99.999 170.001l88 1v-488l-88 1c-2 87.333 -35 144.666 -99 171.999c-40 17.333 -111.333 26 -214 26h-164v-422c0 -86.667 24 -145.334 72 -176.001
c36.667 -23.333 101.334 -35 194.001 -35c194.667 0 339.334 96.333 434.001 289l91 -23l-88 -354h-1135zM500 1589l289 299c38.667 40 70.667 60 96 60c49.333 0 74 -23.333 74 -70c0 -30 -20.667 -58 -62 -84l-330 -205h-67z" />
    <glyph glyph-name="Ecircumflex" unicode="&#xca;" horiz-adv-x="1352" 
d="M82 0v89.999c82 9.33301 136 28.833 162 58.5s39 85.834 39 168.501v830c0 82.667 -13 138.834 -39 168.501s-80 49.167 -162 58.5v76h1151l10 -307h-86c-26.667 94 -81.334 157.333 -164.001 190c-56 22 -142.667 33 -260 33h-147c-32 0 -52 -4.16699 -60 -12.5
s-12 -27.5 -12 -57.5v-481h164c103.333 0 174.333 8 213 24c65.333 26.667 98.666 83.334 99.999 170.001l88 1v-488l-88 1c-2 87.333 -35 144.666 -99 171.999c-40 17.333 -111.333 26 -214 26h-164v-422c0 -86.667 24 -145.334 72 -176.001
c36.667 -23.333 101.334 -35 194.001 -35c194.667 0 339.334 96.333 434.001 289l91 -23l-88 -354h-1135zM386 1517l232 349h118l232 -349h-58l-233 211l-233 -211h-58z" />
    <glyph glyph-name="Edieresis" unicode="&#xcb;" horiz-adv-x="1352" 
d="M82 0v89.999c82 9.33301 136 28.833 162 58.5s39 85.834 39 168.501v830c0 82.667 -13 138.834 -39 168.501s-80 49.167 -162 58.5v76h1151l10 -307h-86c-26.667 94 -81.334 157.333 -164.001 190c-56 22 -142.667 33 -260 33h-147c-32 0 -52 -4.16699 -60 -12.5
s-12 -27.5 -12 -57.5v-481h164c103.333 0 174.333 8 213 24c65.333 26.667 98.666 83.334 99.999 170.001l88 1v-488l-88 1c-2 87.333 -35 144.666 -99 171.999c-40 17.333 -111.333 26 -214 26h-164v-422c0 -86.667 24 -145.334 72 -176.001
c36.667 -23.333 101.334 -35 194.001 -35c194.667 0 339.334 96.333 434.001 289l91 -23l-88 -354h-1135zM752 1745c0 26.667 10 49.667 30 69s43.333 29 70 29s49.667 -9.66699 69 -29s29 -42.333 29 -69c0 -28.667 -9.16699 -52.5 -27.5 -71.5s-41.833 -28.5 -70.5 -28.5
c-28 0 -51.667 9.66699 -71 29s-29 43 -29 71zM402 1745c0 26.667 9.66699 49.667 29 69s42.333 29 69 29s50 -9.66699 70 -29s30 -42.333 30 -69c0 -28 -9.66699 -51.667 -29 -71s-43 -29 -71 -29c-28.667 0 -52.167 9.5 -70.5 28.5s-27.5 42.833 -27.5 71.5z" />
    <glyph glyph-name="Igrave" unicode="&#xcc;" horiz-adv-x="797" 
d="M80 0v90.001c82 9.33301 136 28.833 162 58.5s39 85.834 39 168.501v818c0 82 -13 137.667 -39 167s-80 48.666 -162 57.999v90h635v-90c-82 -9.33301 -136 -28.5 -162 -57.5s-39 -84.833 -39 -167.5v-818c0 -82.667 13 -138.834 39 -168.501s80 -49.167 162 -58.5v-90
h-635zM575 1589h-67l-330 205c-41.333 26 -62 54 -62 84c0 46.667 24.667 70 74 70c25.333 0 57.333 -20 96 -60z" />
    <glyph glyph-name="Iacute" unicode="&#xcd;" horiz-adv-x="797" 
d="M80 0v90.001c82 9.33301 136 28.833 162 58.5s39 85.834 39 168.501v818c0 82 -13 137.667 -39 167s-80 48.666 -162 57.999v90h635v-90c-82 -9.33301 -136 -28.5 -162 -57.5s-39 -84.833 -39 -167.5v-818c0 -82.667 13 -138.834 39 -168.501s80 -49.167 162 -58.5v-90
h-635zM223 1589l289 299c38.667 40 70.667 60 96 60c49.333 0 74 -23.333 74 -70c0 -30 -20.667 -58 -62 -84l-330 -205h-67z" />
    <glyph glyph-name="Icircumflex" unicode="&#xce;" horiz-adv-x="797" 
d="M80 0v90.001c82 9.33301 136 28.833 162 58.5s39 85.834 39 168.501v818c0 82 -13 137.667 -39 167s-80 48.666 -162 57.999v90h635v-90c-82 -9.33301 -136 -28.5 -162 -57.5s-39 -84.833 -39 -167.5v-818c0 -82.667 13 -138.834 39 -168.501s80 -49.167 162 -58.5v-90
h-635zM108 1589l232 349h118l232 -349h-58l-233 211l-233 -211h-58z" />
    <glyph glyph-name="Idieresis" unicode="&#xcf;" horiz-adv-x="797" 
d="M80 0v90.001c82 9.33301 136 28.833 162 58.5s39 85.834 39 168.501v818c0 82 -13 137.667 -39 167s-80 48.666 -162 57.999v90h635v-90c-82 -9.33301 -136 -28.5 -162 -57.5s-39 -84.833 -39 -167.5v-818c0 -82.667 13 -138.834 39 -168.501s80 -49.167 162 -58.5v-90
h-635zM475 1745c0 26.667 10 49.667 30 69s43.333 29 70 29s49.667 -9.66699 69 -29s29 -42.333 29 -69c0 -28.667 -9.16699 -52.5 -27.5 -71.5s-41.833 -28.5 -70.5 -28.5c-28 0 -51.667 9.66699 -71 29s-29 43 -29 71zM125 1745c0 26.667 9.66699 49.667 29 69
s42.333 29 69 29s50 -9.66699 70 -29s30 -42.333 30 -69c0 -28 -9.66699 -51.667 -29 -71s-43 -29 -71 -29c-28.667 0 -52.167 9.5 -70.5 28.5s-27.5 42.833 -27.5 71.5z" />
    <glyph glyph-name="Eth" unicode="&#xd0;" horiz-adv-x="1669" 
d="M518 344c0 -100 17.332 -166.666 51.999 -199.999s102.667 -50 204 -50c174.667 0 311.667 63 411 189c90.667 115.333 136 262.666 136 441.999c0 204.667 -55.667 362.667 -167 474s-269.333 167 -474 167c-41.333 0 -74.666 -2 -99.999 -6
c-28.667 -4.66699 -46.167 -10.5 -52.5 -17.5s-9.5 -24.5 -9.5 -52.5v-491h410v-101h-410v-354zM85.999 0.000976562l-0.000976562 90c81.333 9.33301 135.166 28.833 161.499 58.5s39.5 85.834 39.5 168.501v381h-277v101h277v336c0 82 -13.167 137.667 -39.5 167
s-80.166 48.666 -161.499 57.999v90h530c155.333 0 278.333 -9 369 -27c180.667 -36.667 324 -114.334 430 -233.001c110.667 -123.333 166 -275.666 166 -456.999c0 -236 -87 -420.333 -261 -553c-157.333 -120 -357.666 -180 -600.999 -180h-633z" />
    <glyph glyph-name="Ntilde" unicode="&#xd1;" horiz-adv-x="1636" 
d="M86 0l-0.000976562 90c86 0 144.667 24 176 72c24.667 38 37 103.333 37 196v834c-68 108 -146.667 166 -236 174v84h338l854 -1092v768c0 88.667 -13 148.667 -39 180c-28.667 34.667 -86 54.667 -172 60v84h523v-84c-83.333 -15.333 -138.666 -39.833 -165.999 -73.5
s-41 -93.167 -41 -178.5v-894c0 -90 5.33301 -173 16 -249h-114c-42 65.333 -116.667 165.666 -224 300.999l-637 803v-717c0 -81.333 8.33301 -141.666 25 -180.999c26 -60 74.667 -90 146 -90c12.667 0 26 1 40 3v-90h-526zM1092 1886
c-26.667 -136 -91.665 -204 -194.998 -204c-26.667 0 -65.334 7.5 -116.001 22.5s-89 22.5 -115 22.5c-46.667 0 -79 -30 -97 -90h-51c25.333 138.667 91 208 197 208c26.667 0 65.167 -7.5 115.5 -22.5s88.166 -22.5 113.499 -22.5c44.667 0 76 28.667 94 86h54z" />
    <glyph glyph-name="Ograve" unicode="&#xd2;" horiz-adv-x="1571" 
d="M336 778c0 -183.333 31.333 -338.666 94 -465.999c81.333 -166 204.333 -249 369 -249c158 0 274.667 70 350 210c58.667 110 88 251 88 423c0 176.667 -34 328.667 -102 456c-84.667 159.333 -207.667 239 -369 239c-153.333 0 -267.333 -67.667 -342 -203
c-58.667 -106.667 -88 -243.334 -88 -410.001zM782 -29c-207.333 0 -376.999 72.333 -508.999 217c-127.333 140.667 -191 315.667 -191 525c0 214 65 393.667 195 539c135.333 151.333 308.666 227 519.999 227c200 0 366.667 -73.667 500 -221
c128 -142.667 192 -315 192 -517c0 -209.333 -65 -388.333 -195 -537c-135.333 -155.333 -306 -233 -512 -233zM962.001 1589h-67l-330 205c-41.333 26 -62 54 -62 84c0 46.667 24.667 70 74 70c25.333 0 57.333 -20 96 -60z" />
    <glyph glyph-name="Oacute" unicode="&#xd3;" horiz-adv-x="1571" 
d="M336 778c0 -183.333 31.333 -338.666 94 -465.999c81.333 -166 204.333 -249 369 -249c158 0 274.667 70 350 210c58.667 110 88 251 88 423c0 176.667 -34 328.667 -102 456c-84.667 159.333 -207.667 239 -369 239c-153.333 0 -267.333 -67.667 -342 -203
c-58.667 -106.667 -88 -243.334 -88 -410.001zM782 -29c-207.333 0 -376.999 72.333 -508.999 217c-127.333 140.667 -191 315.667 -191 525c0 214 65 393.667 195 539c135.333 151.333 308.666 227 519.999 227c200 0 366.667 -73.667 500 -221
c128 -142.667 192 -315 192 -517c0 -209.333 -65 -388.333 -195 -537c-135.333 -155.333 -306 -233 -512 -233zM610.001 1589l289 299c38.667 40 70.667 60 96 60c49.333 0 74 -23.333 74 -70c0 -30 -20.667 -58 -62 -84l-330 -205h-67z" />
    <glyph glyph-name="Ocircumflex" unicode="&#xd4;" horiz-adv-x="1571" 
d="M336 778c0 -183.333 31.333 -338.666 94 -465.999c81.333 -166 204.333 -249 369 -249c158 0 274.667 70 350 210c58.667 110 88 251 88 423c0 176.667 -34 328.667 -102 456c-84.667 159.333 -207.667 239 -369 239c-153.333 0 -267.333 -67.667 -342 -203
c-58.667 -106.667 -88 -243.334 -88 -410.001zM782 -29c-207.333 0 -376.999 72.333 -508.999 217c-127.333 140.667 -191 315.667 -191 525c0 214 65 393.667 195 539c135.333 151.333 308.666 227 519.999 227c200 0 366.667 -73.667 500 -221
c128 -142.667 192 -315 192 -517c0 -209.333 -65 -388.333 -195 -537c-135.333 -155.333 -306 -233 -512 -233zM496.001 1517l232 349h118l232 -349h-58l-233 211l-233 -211h-58z" />
    <glyph glyph-name="Otilde" unicode="&#xd5;" horiz-adv-x="1571" 
d="M336 778c0 -183.333 31.333 -338.666 94 -465.999c81.333 -166 204.333 -249 369 -249c158 0 274.667 70 350 210c58.667 110 88 251 88 423c0 176.667 -34 328.667 -102 456c-84.667 159.333 -207.667 239 -369 239c-153.333 0 -267.333 -67.667 -342 -203
c-58.667 -106.667 -88 -243.334 -88 -410.001zM782 -29c-207.333 0 -376.999 72.333 -508.999 217c-127.333 140.667 -191 315.667 -191 525c0 214 65 393.667 195 539c135.333 151.333 308.666 227 519.999 227c200 0 366.667 -73.667 500 -221
c128 -142.667 192 -315 192 -517c0 -209.333 -65 -388.333 -195 -537c-135.333 -155.333 -306 -233 -512 -233zM1073 1886c-26.667 -136 -91.665 -204 -194.998 -204c-26.667 0 -65.334 7.5 -116.001 22.5s-89 22.5 -115 22.5c-46.667 0 -79 -30 -97 -90h-51
c25.333 138.667 91 208 197 208c26.667 0 65.167 -7.5 115.5 -22.5s88.166 -22.5 113.499 -22.5c44.667 0 76 28.667 94 86h54z" />
    <glyph glyph-name="Odieresis" unicode="&#xd6;" horiz-adv-x="1571" 
d="M336 778c0 -183.333 31.333 -338.666 94 -465.999c81.333 -166 204.333 -249 369 -249c158 0 274.667 70 350 210c58.667 110 88 251 88 423c0 176.667 -34 328.667 -102 456c-84.667 159.333 -207.667 239 -369 239c-153.333 0 -267.333 -67.667 -342 -203
c-58.667 -106.667 -88 -243.334 -88 -410.001zM782 -29c-207.333 0 -376.999 72.333 -508.999 217c-127.333 140.667 -191 315.667 -191 525c0 214 65 393.667 195 539c135.333 151.333 308.666 227 519.999 227c200 0 366.667 -73.667 500 -221
c128 -142.667 192 -315 192 -517c0 -209.333 -65 -388.333 -195 -537c-135.333 -155.333 -306 -233 -512 -233zM862.001 1745c0 26.667 10 49.667 30 69s43.333 29 70 29s49.667 -9.66699 69 -29s29 -42.333 29 -69c0 -28.667 -9.16699 -52.5 -27.5 -71.5
s-41.833 -28.5 -70.5 -28.5c-28 0 -51.667 9.66699 -71 29s-29 43 -29 71zM512.001 1745c0 26.667 9.66699 49.667 29 69s42.333 29 69 29s50 -9.66699 70 -29s30 -42.333 30 -69c0 -28 -9.66699 -51.667 -29 -71s-43 -29 -71 -29c-28.667 0 -52.167 9.5 -70.5 28.5
s-27.5 42.833 -27.5 71.5z" />
    <glyph glyph-name="multiply" unicode="&#xd7;" horiz-adv-x="1706" 
d="M381 1169l477 -477l475 477l82 -82l-475 -477l475 -475l-82 -82l-475 475l-477 -475l-80 82l475 475l-475 477z" />
    <glyph glyph-name="Oslash" unicode="&#xd8;" horiz-adv-x="1571" 
d="M479 39l-152.998 -270l-70 30l156 277c-220 142 -330 354.333 -330 637c0 214 65 393.667 195 539c135.333 151.333 308.666 227 519.999 227c112 0 228 -33 348 -99l94 170l74 -41l-99 -176c183.333 -148.667 275 -346 275 -592c0 -220 -68.333 -402.667 -205 -548
c-139.333 -149.333 -318 -224 -536 -224c-76.667 0 -166.334 23.333 -269.001 70zM1122 1171l-574.998 -1015c71.333 -64.667 152.666 -97 243.999 -97c159.333 0 277.666 69 354.999 207c62 110 93 251.333 93 424c0 180.667 -39 341 -117 481zM492.004 215l576.999 1032
c-81.333 94.667 -185.666 142 -312.999 142c-152 0 -264.667 -71.333 -338 -214c-57.333 -110 -86 -249 -86 -417c0 -230 53.333 -411 160 -543z" />
    <glyph glyph-name="Ugrave" unicode="&#xd9;" horiz-adv-x="1583" 
d="M74 1366l-0.000976562 83.999h604v-84c-77.333 -11.333 -127.666 -36.333 -150.999 -75c-18 -30 -27 -87.667 -27 -173v-659c0 -242 119.333 -363 358 -363c82.667 0 155 19.333 217 58c68 42.667 111.333 102.334 130 179.001c9.33301 40 14 112 14 216v516
c0 104.667 -9.33301 175.667 -28 213c-28 54.667 -88.333 84 -181 88v84h510v-84c-74 -10.667 -125.333 -35 -154 -73s-43 -114 -43 -228v-571c0 -93.333 -7.33301 -163.333 -22 -210c-32.667 -104 -99.667 -184 -201 -240c-89.333 -48.667 -192.333 -73 -309 -73
c-347.333 0 -521 168 -521 504v643c0 88 -11 147.667 -33 179c-26 37.333 -80.333 60.333 -163 69zM1024 1589h-67l-330 205c-41.333 26 -62 54 -62 84c0 46.667 24.667 70 74 70c25.333 0 57.333 -20 96 -60z" />
    <glyph glyph-name="Uacute" unicode="&#xda;" horiz-adv-x="1583" 
d="M74 1366l-0.000976562 83.999h604v-84c-77.333 -11.333 -127.666 -36.333 -150.999 -75c-18 -30 -27 -87.667 -27 -173v-659c0 -242 119.333 -363 358 -363c82.667 0 155 19.333 217 58c68 42.667 111.333 102.334 130 179.001c9.33301 40 14 112 14 216v516
c0 104.667 -9.33301 175.667 -28 213c-28 54.667 -88.333 84 -181 88v84h510v-84c-74 -10.667 -125.333 -35 -154 -73s-43 -114 -43 -228v-571c0 -93.333 -7.33301 -163.333 -22 -210c-32.667 -104 -99.667 -184 -201 -240c-89.333 -48.667 -192.333 -73 -309 -73
c-347.333 0 -521 168 -521 504v643c0 88 -11 147.667 -33 179c-26 37.333 -80.333 60.333 -163 69zM671.999 1589l289 299c38.667 40 70.667 60 96 60c49.333 0 74 -23.333 74 -70c0 -30 -20.667 -58 -62 -84l-330 -205h-67z" />
    <glyph glyph-name="Ucircumflex" unicode="&#xdb;" horiz-adv-x="1583" 
d="M74 1366l-0.000976562 83.999h604v-84c-77.333 -11.333 -127.666 -36.333 -150.999 -75c-18 -30 -27 -87.667 -27 -173v-659c0 -242 119.333 -363 358 -363c82.667 0 155 19.333 217 58c68 42.667 111.333 102.334 130 179.001c9.33301 40 14 112 14 216v516
c0 104.667 -9.33301 175.667 -28 213c-28 54.667 -88.333 84 -181 88v84h510v-84c-74 -10.667 -125.333 -35 -154 -73s-43 -114 -43 -228v-571c0 -93.333 -7.33301 -163.333 -22 -210c-32.667 -104 -99.667 -184 -201 -240c-89.333 -48.667 -192.333 -73 -309 -73
c-347.333 0 -521 168 -521 504v643c0 88 -11 147.667 -33 179c-26 37.333 -80.333 60.333 -163 69zM556.999 1589l232 349h118l232 -349h-58l-233 211l-233 -211h-58z" />
    <glyph glyph-name="Udieresis" unicode="&#xdc;" horiz-adv-x="1583" 
d="M74 1366l-0.000976562 83.999h604v-84c-77.333 -11.333 -127.666 -36.333 -150.999 -75c-18 -30 -27 -87.667 -27 -173v-659c0 -242 119.333 -363 358 -363c82.667 0 155 19.333 217 58c68 42.667 111.333 102.334 130 179.001c9.33301 40 14 112 14 216v516
c0 104.667 -9.33301 175.667 -28 213c-28 54.667 -88.333 84 -181 88v84h510v-84c-74 -10.667 -125.333 -35 -154 -73s-43 -114 -43 -228v-571c0 -93.333 -7.33301 -163.333 -22 -210c-32.667 -104 -99.667 -184 -201 -240c-89.333 -48.667 -192.333 -73 -309 -73
c-347.333 0 -521 168 -521 504v643c0 88 -11 147.667 -33 179c-26 37.333 -80.333 60.333 -163 69zM923.999 1745c0 26.667 10 49.667 30 69s43.333 29 70 29s49.667 -9.66699 69 -29s29 -42.333 29 -69c0 -28.667 -9.16699 -52.5 -27.5 -71.5s-41.833 -28.5 -70.5 -28.5
c-28 0 -51.667 9.66699 -71 29s-29 43 -29 71zM573.999 1745c0 26.667 9.66699 49.667 29 69s42.333 29 69 29s50 -9.66699 70 -29s30 -42.333 30 -69c0 -28 -9.66699 -51.667 -29 -71s-43 -29 -71 -29c-28.667 0 -52.167 9.5 -70.5 28.5s-27.5 42.833 -27.5 71.5z" />
    <glyph glyph-name="Yacute" unicode="&#xdd;" horiz-adv-x="1473" 
d="M418 0l0.000976562 89.998c76 8 127.333 26.833 154 56.5s40 82.5 40 158.5v318l-276 452c-48 78 -87 136 -117 174c-60.667 75.333 -114.667 114.333 -162 117v84h598v-84c-103.333 0 -155 -27.333 -155 -82c0 -30 16.333 -73 49 -129l246 -422l157 263
c79.333 136.667 119 219.667 119 249c0 73.333 -56.667 114 -170 122v83h512v-84c-44.667 -9.33301 -85.334 -27.666 -122.001 -54.999c-45.333 -35.333 -123 -142.666 -233 -321.999l-218 -368v-318c0 -142 64.667 -213 194 -213v-90h-616zM561.001 1589l289 299
c38.667 40 70.667 60 96 60c49.333 0 74 -23.333 74 -70c0 -30 -20.667 -58 -62 -84l-330 -205h-67z" />
    <glyph glyph-name="Thorn" unicode="&#xde;" horiz-adv-x="1280" 
d="M698 1450l0.000976562 -83.999c-75.333 0 -126.833 -15.167 -154.5 -45.5s-41.5 -83.5 -41.5 -159.5c219.333 0 374.666 -14.667 465.999 -44c168.667 -54.667 253 -167.667 253 -339c0 -129.333 -52.667 -231.333 -158 -306c-93.333 -66 -207.333 -99 -342 -99
c-42.667 0 -70.667 1.33301 -84 4c-34 8 -51 25.667 -51 53s9 42.666 27 45.999c-4 -0.666992 15.667 -1 59 -1c88.667 0 160.334 28.667 215.001 86s82 130.333 82 219c0 96 -31.667 169.333 -95 220c-58.667 47.333 -137 71 -235 71
c-52.667 0 -85.334 -2.33301 -98.001 -7c-26 -10.667 -39 -37 -39 -79v-668c0 -82.667 13.333 -138.834 40 -168.501s81 -49.167 163 -58.5v-90h-635v90c81.333 9.33301 135 28.833 161 58.5s39 85.834 39 168.501v816c0 86 -11 144.667 -33 176c-26.667 38 -81 57 -163 57
v84h624z" />
    <glyph glyph-name="germandbls" unicode="&#xdf;" horiz-adv-x="1157" 
d="M399 272c0 -62 7 -104.668 21 -128.001c20 -31.333 60 -49.333 120 -54l1 -90h-473v90c59.333 2.66699 99.666 19.334 120.999 50.001c18.667 26 28 70 28 132v607h-88v63l90 19c0 146 33.667 266 101 360c76.667 106.667 185.667 160 327 160
c85.333 0 154.333 -21.333 207 -64c57.333 -46 86 -110.667 86 -194c0 -138 -81.333 -252.667 -244 -344c124.667 -12.667 221 -53.334 289 -122.001c71.333 -71.333 107 -168.666 107 -291.999c0 -115.333 -22.333 -218.333 -67 -309c-56.667 -113.333 -137 -170 -241 -170
c-105.333 0 -162 62.667 -170 188l82 6c12.667 -62.667 41.334 -94 86.001 -94c76.667 0 115 83.333 115 250c0 123.333 -27.333 224 -82 302c-62 87.333 -152 135.333 -270 144v97c147.333 80 221 185 221 315c0 54 -13 98.333 -39 133c-28.667 38 -69 57 -121 57
c-138 0 -207 -104.333 -207 -313v-799z" />
    <glyph glyph-name="agrave" unicode="&#xe0;" horiz-adv-x="915" 
d="M883 80c-48 -68.667 -103.334 -103 -166.001 -103c-66.667 0 -113 44 -139 132c-90 -80.667 -180.333 -121 -271 -121c-65.333 0 -120 18.667 -164 56c-47.333 39.333 -71 91 -71 155c0 104.667 61.333 191.334 184 260.001c70.667 40 178 78.667 322 116v136
c0 121.333 -54.667 182 -164 182c-97.333 0 -146 -32.667 -146 -98c0 -18 6.83301 -41.333 20.5 -70s20.5 -44.334 20.5 -47.001c0 -16 -20.667 -32 -62 -48c-36 -14.667 -64.333 -22 -85 -22c-38.667 0 -58 46.667 -58 140c0 78.667 46.667 138.667 140 180
c72.667 32.667 153.667 49 243 49c94 0 161.667 -17.667 203 -53c45.333 -38 68 -103 68 -195v-504c0 -58.667 13 -88 39 -88c26.667 0 55.334 9.66699 86.001 29v-86zM577.999 479c-209.333 -56.667 -314 -131 -314 -223c0 -38 14 -68.667 42 -92c26 -22 58.333 -33 97 -33
c64.667 0 123 30.667 175 92v256zM628.999 1087h-67l-330 205c-41.333 26 -62 54 -62 84c0 46.667 24.667 70 74 70c25.333 0 57.333 -20 96 -60z" />
    <glyph glyph-name="aacute" unicode="&#xe1;" horiz-adv-x="915" 
d="M883 80c-48 -68.667 -103.334 -103 -166.001 -103c-66.667 0 -113 44 -139 132c-90 -80.667 -180.333 -121 -271 -121c-65.333 0 -120 18.667 -164 56c-47.333 39.333 -71 91 -71 155c0 104.667 61.333 191.334 184 260.001c70.667 40 178 78.667 322 116v136
c0 121.333 -54.667 182 -164 182c-97.333 0 -146 -32.667 -146 -98c0 -18 6.83301 -41.333 20.5 -70s20.5 -44.334 20.5 -47.001c0 -16 -20.667 -32 -62 -48c-36 -14.667 -64.333 -22 -85 -22c-38.667 0 -58 46.667 -58 140c0 78.667 46.667 138.667 140 180
c72.667 32.667 153.667 49 243 49c94 0 161.667 -17.667 203 -53c45.333 -38 68 -103 68 -195v-504c0 -58.667 13 -88 39 -88c26.667 0 55.334 9.66699 86.001 29v-86zM577.999 479c-209.333 -56.667 -314 -131 -314 -223c0 -38 14 -68.667 42 -92c26 -22 58.333 -33 97 -33
c64.667 0 123 30.667 175 92v256zM276.999 1087l289 299c38.667 40 70.667 60 96 60c49.333 0 74 -23.333 74 -70c0 -30 -20.667 -58 -62 -84l-330 -205h-67z" />
    <glyph glyph-name="acircumflex" unicode="&#xe2;" horiz-adv-x="915" 
d="M883 80c-48 -68.667 -103.334 -103 -166.001 -103c-66.667 0 -113 44 -139 132c-90 -80.667 -180.333 -121 -271 -121c-65.333 0 -120 18.667 -164 56c-47.333 39.333 -71 91 -71 155c0 104.667 61.333 191.334 184 260.001c70.667 40 178 78.667 322 116v136
c0 121.333 -54.667 182 -164 182c-97.333 0 -146 -32.667 -146 -98c0 -18 6.83301 -41.333 20.5 -70s20.5 -44.334 20.5 -47.001c0 -16 -20.667 -32 -62 -48c-36 -14.667 -64.333 -22 -85 -22c-38.667 0 -58 46.667 -58 140c0 78.667 46.667 138.667 140 180
c72.667 32.667 153.667 49 243 49c94 0 161.667 -17.667 203 -53c45.333 -38 68 -103 68 -195v-504c0 -58.667 13 -88 39 -88c26.667 0 55.334 9.66699 86.001 29v-86zM577.999 479c-209.333 -56.667 -314 -131 -314 -223c0 -38 14 -68.667 42 -92c26 -22 58.333 -33 97 -33
c64.667 0 123 30.667 175 92v256zM161.999 1087l232 349h118l232 -349h-58l-233 211l-233 -211h-58z" />
    <glyph glyph-name="atilde" unicode="&#xe3;" horiz-adv-x="915" 
d="M883 80c-48 -68.667 -103.334 -103 -166.001 -103c-66.667 0 -113 44 -139 132c-90 -80.667 -180.333 -121 -271 -121c-65.333 0 -120 18.667 -164 56c-47.333 39.333 -71 91 -71 155c0 104.667 61.333 191.334 184 260.001c70.667 40 178 78.667 322 116v136
c0 121.333 -54.667 182 -164 182c-97.333 0 -146 -32.667 -146 -98c0 -18 6.83301 -41.333 20.5 -70s20.5 -44.334 20.5 -47.001c0 -16 -20.667 -32 -62 -48c-36 -14.667 -64.333 -22 -85 -22c-38.667 0 -58 46.667 -58 140c0 78.667 46.667 138.667 140 180
c72.667 32.667 153.667 49 243 49c94 0 161.667 -17.667 203 -53c45.333 -38 68 -103 68 -195v-504c0 -58.667 13 -88 39 -88c26.667 0 55.334 9.66699 86.001 29v-86zM577.999 479c-209.333 -56.667 -314 -131 -314 -223c0 -38 14 -68.667 42 -92c26 -22 58.333 -33 97 -33
c64.667 0 123 30.667 175 92v256zM739.999 1384c-26.667 -136 -91.665 -204 -194.998 -204c-26.667 0 -65.334 7.5 -116.001 22.5s-89 22.5 -115 22.5c-46.667 0 -79 -30 -97 -90h-51c25.333 138.667 91 208 197 208c26.667 0 65.167 -7.5 115.5 -22.5
s88.166 -22.5 113.499 -22.5c44.667 0 76 28.667 94 86h54z" />
    <glyph glyph-name="adieresis" unicode="&#xe4;" horiz-adv-x="915" 
d="M883 80c-48 -68.667 -103.334 -103 -166.001 -103c-66.667 0 -113 44 -139 132c-90 -80.667 -180.333 -121 -271 -121c-65.333 0 -120 18.667 -164 56c-47.333 39.333 -71 91 -71 155c0 104.667 61.333 191.334 184 260.001c70.667 40 178 78.667 322 116v136
c0 121.333 -54.667 182 -164 182c-97.333 0 -146 -32.667 -146 -98c0 -18 6.83301 -41.333 20.5 -70s20.5 -44.334 20.5 -47.001c0 -16 -20.667 -32 -62 -48c-36 -14.667 -64.333 -22 -85 -22c-38.667 0 -58 46.667 -58 140c0 78.667 46.667 138.667 140 180
c72.667 32.667 153.667 49 243 49c94 0 161.667 -17.667 203 -53c45.333 -38 68 -103 68 -195v-504c0 -58.667 13 -88 39 -88c26.667 0 55.334 9.66699 86.001 29v-86zM577.999 479c-209.333 -56.667 -314 -131 -314 -223c0 -38 14 -68.667 42 -92c26 -22 58.333 -33 97 -33
c64.667 0 123 30.667 175 92v256zM528.999 1243c0 26.667 10 49.667 30 69s43.333 29 70 29s49.667 -9.66699 69 -29s29 -42.333 29 -69c0 -28.667 -9.16699 -52.5 -27.5 -71.5s-41.833 -28.5 -70.5 -28.5c-28 0 -51.667 9.66699 -71 29s-29 43 -29 71zM178.999 1243
c0 26.667 9.66699 49.667 29 69s42.333 29 69 29s50 -9.66699 70 -29s30 -42.333 30 -69c0 -28 -9.66699 -51.667 -29 -71s-43 -29 -71 -29c-28.667 0 -52.167 9.5 -70.5 28.5s-27.5 42.833 -27.5 71.5z" />
    <glyph glyph-name="aring" unicode="&#xe5;" horiz-adv-x="915" 
d="M301 1274c0 -41.333 13.833 -76.333 41.5 -105s62.167 -43 103.5 -43c40.667 0 75.167 14.5 103.5 43.5s42.5 63.833 42.5 104.5s-14.167 75 -42.5 103s-62.833 42 -103.5 42s-75 -14 -103 -42s-42 -62.333 -42 -103zM211 1272c0 66 22.667 121.667 68 167s101 68 167 68
c66.667 0 122.667 -22.5 168 -67.5s68 -100.833 68 -167.5c0 -66 -22.833 -121.833 -68.5 -167.5s-101.5 -68.5 -167.5 -68.5s-121.667 22.833 -167 68.5s-68 101.5 -68 167.5zM883 80c-48 -68.667 -103.334 -103 -166.001 -103c-66.667 0 -113 44 -139 132
c-90 -80.667 -180.333 -121 -271 -121c-65.333 0 -120 18.667 -164 56c-47.333 39.333 -71 91 -71 155c0 104.667 61.333 191.334 184 260.001c70.667 40 178 78.667 322 116v136c0 121.333 -54.667 182 -164 182c-97.333 0 -146 -32.667 -146 -98
c0 -18 6.83301 -41.333 20.5 -70s20.5 -44.334 20.5 -47.001c0 -16 -20.667 -32 -62 -48c-36 -14.667 -64.333 -22 -85 -22c-38.667 0 -58 46.667 -58 140c0 78.667 46.667 138.667 140 180c72.667 32.667 153.667 49 243 49c94 0 161.667 -17.667 203 -53
c45.333 -38 68 -103 68 -195v-504c0 -58.667 13 -88 39 -88c26.667 0 55.334 9.66699 86.001 29v-86zM577.999 479c-209.333 -56.667 -314 -131 -314 -223c0 -38 14 -68.667 42 -92c26 -22 58.333 -33 97 -33c64.667 0 123 30.667 175 92v256z" />
    <glyph glyph-name="ae" unicode="&#xe6;" horiz-adv-x="1356" 
d="M758 504l0.00195312 -46.002c0 -91.333 19.333 -165.666 58 -222.999c44.667 -66.667 110.667 -100 198 -100c100.667 0 184 43 250 129l53 -53c-96.667 -156 -221.667 -234 -375 -234c-128.667 0 -236.667 54 -324 162c-112 -100.667 -215.667 -151 -311 -151
c-65.333 0 -120 18.667 -164 56c-47.333 39.333 -71 91 -71 155c0 104.667 61.333 191.334 184 260.001c70.667 40 178 78.667 322 116v136c0 121.333 -54.667 182 -164 182c-97.333 0 -146 -32.667 -146 -98c0 -18 6.83301 -41.5 20.5 -70.5s20.5 -44.5 20.5 -46.5
c0 -16 -20.333 -32 -61 -48c-36.667 -14.667 -65.334 -22 -86.001 -22c-38.667 0 -58 46.667 -58 140c0 78.667 46.667 138.667 140 180c72.667 32.667 153.667 49 243 49c125.333 0 203.333 -32 234 -96c65.333 56 143.666 84 234.999 84c190 0 308.333 -108.667 355 -326z
M578.002 478.998c-209.333 -56.667 -314 -131 -314 -223c0 -38 14 -68.667 42 -92c26 -22 58.333 -33 97 -33c64.667 0 123 30.667 175 92v256zM760.002 603.998l340 73.999c-6 57.333 -23 105 -51 143c-32.667 45.333 -75.667 68 -129 68c-108 0 -162 -82.667 -162 -248
c0 -4.66699 0.333008 -11.167 1 -19.5s1 -14.166 1 -17.499z" />
    <glyph glyph-name="ccedilla" unicode="&#xe7;" horiz-adv-x="909" 
d="M872 213c-109.333 -154 -237.667 -231.003 -385 -231.003c-132 0 -235 50 -309 150c-65.333 89.333 -98 202.333 -98 339c0 142.667 42.667 261.667 128 357c88.667 98 203.667 147 345 147c72.667 0 139.667 -17.333 201 -52c73.333 -41.333 110 -95.666 110 -162.999
c0 -27.333 -11.667 -49.666 -35 -66.999c-20.667 -15.333 -45 -23 -73 -23c-26.667 0 -49 18.667 -67 56c-28.667 60 -47 95 -55 105c-30.667 37.333 -74.667 56 -132 56c-84.667 0 -149 -34 -193 -102c-38 -57.333 -57 -130.666 -57 -219.999
c0 -104.667 24.333 -194.667 73 -270c56.667 -87.333 134.667 -131 234 -131c90 0 175.333 34 256 102zM212.999 -371.003l35.002 77.999c84.667 -48 159 -72 223 -72c82 0 123 31 123 93c0 58.667 -37 88 -111 88c-20.667 0 -42.334 -2 -65.001 -6v190h63v-112
c32 4 52.333 6 61 6c122 0 183 -54.667 183 -164c0 -59.333 -22.333 -104.666 -67 -135.999c-39.333 -26.667 -90 -40 -152 -40c-68.667 0 -166.334 25 -293.001 75z" />
    <glyph glyph-name="egrave" unicode="&#xe8;" horiz-adv-x="909" 
d="M250 678h407c-4 61.333 -22.667 111 -56 149c-36 41.333 -84 62 -144 62c-104.667 0 -173.667 -70.333 -207 -211zM872 211c-104 -154 -228.667 -231.002 -374 -231.002c-134.667 0 -241 47.667 -319 143c-72.667 88.667 -109 202 -109 340
c0 136.667 36.333 254.334 109 353.001c80.667 108.667 187 163 319 163c107.333 0 197 -39 269 -117c67.333 -73.333 105.333 -164.666 114 -273.999h-535c-37.333 0 -58.333 -0.666992 -63 -2c-22 -4.66699 -33 -19 -33 -43c0 -96 26.667 -182.333 80 -259
c59.333 -86.667 135 -130 227 -130c88 0 175.333 37.333 262 112zM659 1087h-67l-330 205c-41.333 26 -62 54 -62 84c0 46.667 24.667 70 74 70c25.333 0 57.333 -20 96 -60z" />
    <glyph glyph-name="eacute" unicode="&#xe9;" horiz-adv-x="909" 
d="M250 678h407c-4 61.333 -22.667 111 -56 149c-36 41.333 -84 62 -144 62c-104.667 0 -173.667 -70.333 -207 -211zM872 211c-104 -154 -228.667 -231.002 -374 -231.002c-134.667 0 -241 47.667 -319 143c-72.667 88.667 -109 202 -109 340
c0 136.667 36.333 254.334 109 353.001c80.667 108.667 187 163 319 163c107.333 0 197 -39 269 -117c67.333 -73.333 105.333 -164.666 114 -273.999h-535c-37.333 0 -58.333 -0.666992 -63 -2c-22 -4.66699 -33 -19 -33 -43c0 -96 26.667 -182.333 80 -259
c59.333 -86.667 135 -130 227 -130c88 0 175.333 37.333 262 112zM307 1087l289 299c38.667 40 70.667 60 96 60c49.333 0 74 -23.333 74 -70c0 -30 -20.667 -58 -62 -84l-330 -205h-67z" />
    <glyph glyph-name="ecircumflex" unicode="&#xea;" horiz-adv-x="909" 
d="M250 678h407c-4 61.333 -22.667 111 -56 149c-36 41.333 -84 62 -144 62c-104.667 0 -173.667 -70.333 -207 -211zM872 211c-104 -154 -228.667 -231.002 -374 -231.002c-134.667 0 -241 47.667 -319 143c-72.667 88.667 -109 202 -109 340
c0 136.667 36.333 254.334 109 353.001c80.667 108.667 187 163 319 163c107.333 0 197 -39 269 -117c67.333 -73.333 105.333 -164.666 114 -273.999h-535c-37.333 0 -58.333 -0.666992 -63 -2c-22 -4.66699 -33 -19 -33 -43c0 -96 26.667 -182.333 80 -259
c59.333 -86.667 135 -130 227 -130c88 0 175.333 37.333 262 112zM192 1087l232 349h118l232 -349h-58l-233 211l-233 -211h-58z" />
    <glyph glyph-name="edieresis" unicode="&#xeb;" horiz-adv-x="909" 
d="M250 678h407c-4 61.333 -22.667 111 -56 149c-36 41.333 -84 62 -144 62c-104.667 0 -173.667 -70.333 -207 -211zM872 211c-104 -154 -228.667 -231.002 -374 -231.002c-134.667 0 -241 47.667 -319 143c-72.667 88.667 -109 202 -109 340
c0 136.667 36.333 254.334 109 353.001c80.667 108.667 187 163 319 163c107.333 0 197 -39 269 -117c67.333 -73.333 105.333 -164.666 114 -273.999h-535c-37.333 0 -58.333 -0.666992 -63 -2c-22 -4.66699 -33 -19 -33 -43c0 -96 26.667 -182.333 80 -259
c59.333 -86.667 135 -130 227 -130c88 0 175.333 37.333 262 112zM559 1243c0 26.667 10 49.667 30 69s43.333 29 70 29s49.667 -9.66699 69 -29s29 -42.333 29 -69c0 -28.667 -9.16699 -52.5 -27.5 -71.5s-41.833 -28.5 -70.5 -28.5c-28 0 -51.667 9.66699 -71 29
s-29 43 -29 71zM209 1243c0 26.667 9.66699 49.667 29 69s42.333 29 69 29s50 -9.66699 70 -29s30 -42.333 30 -69c0 -28 -9.66699 -51.667 -29 -71s-43 -29 -71 -29c-28.667 0 -52.167 9.5 -70.5 28.5s-27.5 42.833 -27.5 71.5z" />
    <glyph glyph-name="igrave" unicode="&#xec;" horiz-adv-x="631" 
d="M233 766l-136.999 64.999v56l275 90h51v-705c0 -62 7.33301 -104.667 22 -128c20 -31.333 60.333 -49.333 121 -54v-90h-481v90c59.333 2.66699 99.666 19.334 120.999 50.001c18.667 26 28 70 28 132v494zM485.001 1087h-67l-330 205c-41.333 26 -62 54 -62 84
c0 46.667 24.667 70 74 70c25.333 0 57.333 -20 96 -60z" />
    <glyph glyph-name="iacute" unicode="&#xed;" horiz-adv-x="631" 
d="M233 766l-136.999 64.999v56l275 90h51v-705c0 -62 7.33301 -104.667 22 -128c20 -31.333 60.333 -49.333 121 -54v-90h-481v90c59.333 2.66699 99.666 19.334 120.999 50.001c18.667 26 28 70 28 132v494zM133.001 1087l289 299c38.667 40 70.667 60 96 60
c49.333 0 74 -23.333 74 -70c0 -30 -20.667 -58 -62 -84l-330 -205h-67z" />
    <glyph glyph-name="icircumflex" unicode="&#xee;" horiz-adv-x="631" 
d="M233 766l-136.999 64.999v56l275 90h51v-705c0 -62 7.33301 -104.667 22 -128c20 -31.333 60.333 -49.333 121 -54v-90h-481v90c59.333 2.66699 99.666 19.334 120.999 50.001c18.667 26 28 70 28 132v494zM18.001 1087l232 349h118l232 -349h-58l-233 211l-233 -211h-58
z" />
    <glyph glyph-name="idieresis" unicode="&#xef;" horiz-adv-x="631" 
d="M233 766l-136.999 64.999v56l275 90h51v-705c0 -62 7.33301 -104.667 22 -128c20 -31.333 60.333 -49.333 121 -54v-90h-481v90c59.333 2.66699 99.666 19.334 120.999 50.001c18.667 26 28 70 28 132v494zM385.001 1243c0 26.667 10 49.667 30 69s43.333 29 70 29
s49.667 -9.66699 69 -29s29 -42.333 29 -69c0 -28.667 -9.16699 -52.5 -27.5 -71.5s-41.833 -28.5 -70.5 -28.5c-28 0 -51.667 9.66699 -71 29s-29 43 -29 71zM35.001 1243c0 26.667 9.66699 49.667 29 69s42.333 29 69 29s50 -9.66699 70 -29s30 -42.333 30 -69
c0 -28 -9.66699 -51.667 -29 -71s-43 -29 -71 -29c-28.667 0 -52.167 9.5 -70.5 28.5s-27.5 42.833 -27.5 71.5z" />
    <glyph glyph-name="eth" unicode="&#xf0;" horiz-adv-x="991" 
d="M553 944c-30.667 66.667 -72.333 129.668 -125 189.001l-256 -166l-47 77l246 160c-88 88 -171.333 164.667 -250 230l39 45c108.667 -68 213 -138.333 313 -211l287 180l49 -76l-252 -164c242 -217.333 363 -461.666 363 -732.999c0 -136 -36 -250 -108 -342
c-78.667 -100.667 -184 -151 -316 -151c-131.333 0 -237 50.667 -317 152c-72.667 93.333 -109 207.666 -109 342.999c0 115.333 34 221.666 102 318.999c76 108 169.667 162 281 162c24.667 0 58 -4.66699 100 -14zM473.001 883.001
c-140.667 0 -211 -110.665 -211 -331.998c0 -110.667 16.333 -211.334 49 -302.001c44.667 -125.333 112.334 -188 203.001 -188c142 0 213 112 213 336c0 113.333 -16 213.666 -48 300.999c-44.667 123.333 -113.334 185 -206.001 185z" />
    <glyph glyph-name="ntilde" unicode="&#xf1;" horiz-adv-x="1186" 
d="M74 0l0.000976562 89.998c59.333 2.66699 99.666 19.334 120.999 50.001c18.667 26 28 70 28 132v494l-137 65v56c186 61.333 290 92 312 92c6 0 10.667 -0.666992 14 -2v-133c108.667 88.667 215 133 319 133c169.333 0 254 -108 254 -324v-381
c0 -61.333 6.33301 -103.666 19 -126.999c18 -32 54.667 -50.333 110 -55v-90h-461l1 90c60.667 4.66699 101 22.667 121 54c14.667 23.333 22 66 22 128v385c0 63.333 -7.33301 107 -22 131c-19.333 33.333 -58 50 -116 50c-70.667 0 -153 -29.333 -247 -88v-478
c0 -62 7.33301 -104.667 22 -128c20 -31.333 60.333 -49.333 121 -54v-90h-481zM881.001 1384c-26.667 -136 -91.665 -204 -194.998 -204c-26.667 0 -65.334 7.5 -116.001 22.5s-89 22.5 -115 22.5c-46.667 0 -79 -30 -97 -90h-51c25.333 138.667 91 208 197 208
c26.667 0 65.167 -7.5 115.5 -22.5s88.166 -22.5 113.499 -22.5c44.667 0 76 28.667 94 86h54z" />
    <glyph glyph-name="ograve" unicode="&#xf2;" horiz-adv-x="1042" 
d="M274 559c0 -114.667 17.333 -217.667 52 -309c48 -126 119.667 -189 215 -189c151.333 0 227 113.333 227 340c0 116.667 -17.333 219.667 -52 309c-47.333 123.333 -120 185 -218 185c-149.333 0 -224 -112 -224 -336zM522 -18c-134 0 -243.666 49.333 -328.999 148
c-82 94 -123 209 -123 345c0 140 39.667 257 119 351c84 99.333 195 149 333 149c134.667 0 244.667 -50 330 -150c80.667 -94.667 121 -210.667 121 -348c0 -139.333 -39.667 -255.333 -119 -348c-84.667 -98 -195.334 -147 -332.001 -147zM698.001 1087h-67l-330 205
c-41.333 26 -62 54 -62 84c0 46.667 24.667 70 74 70c25.333 0 57.333 -20 96 -60z" />
    <glyph glyph-name="oacute" unicode="&#xf3;" horiz-adv-x="1042" 
d="M274 559c0 -114.667 17.333 -217.667 52 -309c48 -126 119.667 -189 215 -189c151.333 0 227 113.333 227 340c0 116.667 -17.333 219.667 -52 309c-47.333 123.333 -120 185 -218 185c-149.333 0 -224 -112 -224 -336zM522 -18c-134 0 -243.666 49.333 -328.999 148
c-82 94 -123 209 -123 345c0 140 39.667 257 119 351c84 99.333 195 149 333 149c134.667 0 244.667 -50 330 -150c80.667 -94.667 121 -210.667 121 -348c0 -139.333 -39.667 -255.333 -119 -348c-84.667 -98 -195.334 -147 -332.001 -147zM346.001 1087l289 299
c38.667 40 70.667 60 96 60c49.333 0 74 -23.333 74 -70c0 -30 -20.667 -58 -62 -84l-330 -205h-67z" />
    <glyph glyph-name="ocircumflex" unicode="&#xf4;" horiz-adv-x="1042" 
d="M274 559c0 -114.667 17.333 -217.667 52 -309c48 -126 119.667 -189 215 -189c151.333 0 227 113.333 227 340c0 116.667 -17.333 219.667 -52 309c-47.333 123.333 -120 185 -218 185c-149.333 0 -224 -112 -224 -336zM522 -18c-134 0 -243.666 49.333 -328.999 148
c-82 94 -123 209 -123 345c0 140 39.667 257 119 351c84 99.333 195 149 333 149c134.667 0 244.667 -50 330 -150c80.667 -94.667 121 -210.667 121 -348c0 -139.333 -39.667 -255.333 -119 -348c-84.667 -98 -195.334 -147 -332.001 -147zM231.001 1087l232 349h118
l232 -349h-58l-233 211l-233 -211h-58z" />
    <glyph glyph-name="otilde" unicode="&#xf5;" horiz-adv-x="1042" 
d="M274 559c0 -114.667 17.333 -217.667 52 -309c48 -126 119.667 -189 215 -189c151.333 0 227 113.333 227 340c0 116.667 -17.333 219.667 -52 309c-47.333 123.333 -120 185 -218 185c-149.333 0 -224 -112 -224 -336zM522 -18c-134 0 -243.666 49.333 -328.999 148
c-82 94 -123 209 -123 345c0 140 39.667 257 119 351c84 99.333 195 149 333 149c134.667 0 244.667 -50 330 -150c80.667 -94.667 121 -210.667 121 -348c0 -139.333 -39.667 -255.333 -119 -348c-84.667 -98 -195.334 -147 -332.001 -147zM809.001 1384
c-26.667 -136 -91.665 -204 -194.998 -204c-26.667 0 -65.334 7.5 -116.001 22.5s-89 22.5 -115 22.5c-46.667 0 -79 -30 -97 -90h-51c25.333 138.667 91 208 197 208c26.667 0 65.167 -7.5 115.5 -22.5s88.166 -22.5 113.499 -22.5c44.667 0 76 28.667 94 86h54z" />
    <glyph glyph-name="odieresis" unicode="&#xf6;" horiz-adv-x="1042" 
d="M274 559c0 -114.667 17.333 -217.667 52 -309c48 -126 119.667 -189 215 -189c151.333 0 227 113.333 227 340c0 116.667 -17.333 219.667 -52 309c-47.333 123.333 -120 185 -218 185c-149.333 0 -224 -112 -224 -336zM522 -18c-134 0 -243.666 49.333 -328.999 148
c-82 94 -123 209 -123 345c0 140 39.667 257 119 351c84 99.333 195 149 333 149c134.667 0 244.667 -50 330 -150c80.667 -94.667 121 -210.667 121 -348c0 -139.333 -39.667 -255.333 -119 -348c-84.667 -98 -195.334 -147 -332.001 -147zM598.001 1243
c0 26.667 10 49.667 30 69s43.333 29 70 29s49.667 -9.66699 69 -29s29 -42.333 29 -69c0 -28.667 -9.16699 -52.5 -27.5 -71.5s-41.833 -28.5 -70.5 -28.5c-28 0 -51.667 9.66699 -71 29s-29 43 -29 71zM248.001 1243c0 26.667 9.66699 49.667 29 69s42.333 29 69 29
s50 -9.66699 70 -29s30 -42.333 30 -69c0 -28 -9.66699 -51.667 -29 -71s-43 -29 -71 -29c-28.667 0 -52.167 9.5 -70.5 28.5s-27.5 42.833 -27.5 71.5z" />
    <glyph glyph-name="divide" unicode="&#xf7;" horiz-adv-x="1706" 
d="M854 365c31.333 0 58.333 -11.333 81 -34s34 -49.667 34 -81c0 -32 -11.167 -59.167 -33.5 -81.5s-49.5 -33.5 -81.5 -33.5s-59.167 11.167 -81.5 33.5s-33.5 49.5 -33.5 81.5s11.167 59.167 33.5 81.5s49.5 33.5 81.5 33.5zM254 670h1198v-117h-1198v117zM854 1085
c32 0 59.167 -10.999 81.5 -32.999s33.5 -49 33.5 -81s-11.167 -59.167 -33.5 -81.5s-49.5 -33.5 -81.5 -33.5c-32.667 0 -60 11 -82 33s-33 49.333 -33 82c0 31.333 11.333 58.166 34 80.499s49.667 33.5 81 33.5z" />
    <glyph glyph-name="oslash" unicode="&#xf8;" horiz-adv-x="1042" 
d="M707 729l-315.999 -591.999c45.333 -50.667 96.666 -76 153.999 -76c148.667 0 223 113.333 223 340c0 121.333 -20.333 230.666 -61 327.999zM346.001 207.001l320 599.999c-39.333 58.667 -96 88 -170 88c-80 0 -139.333 -38.333 -178 -115
c-29.333 -58 -44 -131.667 -44 -221c0 -137.333 24 -254.666 72 -351.999zM193.001 -238l-70 27.001l145 272c-132 104 -198 240.667 -198 410c0 139.333 39.667 256.666 119 351.999c84.667 102.667 195 154 331 154c70 0 139 -18.333 207 -55l125 237l66 -33l-127 -243
c121.333 -96.667 182 -232.667 182 -408c0 -143.333 -40.333 -260.333 -121 -351c-84.667 -94.667 -198 -142 -340 -142c-53.333 0 -114 14.333 -182 43z" />
    <glyph glyph-name="ugrave" unicode="&#xf9;" horiz-adv-x="1137" 
d="M55 889l0.000976562 69l318 19v-666c0 -120 49.667 -180 149 -180c88 0 166 30.667 234 92v510c0 63.333 -9.66699 105.166 -29 125.499s-59 31.833 -119 34.5v65l332 19v-721c0 -61.333 7 -100 21 -116c17.333 -20 58 -29.333 122 -28v-79l-327 -49v135
c-130 -90 -236 -135 -318 -135c-170.667 0 -256 107.667 -256 323v432c0 58.667 -6.66699 97.334 -20 116.001c-16.667 22.667 -52.334 34 -107.001 34zM713.001 1087h-67l-330 205c-41.333 26 -62 54 -62 84c0 46.667 24.667 70 74 70c25.333 0 57.333 -20 96 -60z" />
    <glyph glyph-name="uacute" unicode="&#xfa;" horiz-adv-x="1137" 
d="M55 889l0.000976562 69l318 19v-666c0 -120 49.667 -180 149 -180c88 0 166 30.667 234 92v510c0 63.333 -9.66699 105.166 -29 125.499s-59 31.833 -119 34.5v65l332 19v-721c0 -61.333 7 -100 21 -116c17.333 -20 58 -29.333 122 -28v-79l-327 -49v135
c-130 -90 -236 -135 -318 -135c-170.667 0 -256 107.667 -256 323v432c0 58.667 -6.66699 97.334 -20 116.001c-16.667 22.667 -52.334 34 -107.001 34zM361.001 1087l289 299c38.667 40 70.667 60 96 60c49.333 0 74 -23.333 74 -70c0 -30 -20.667 -58 -62 -84l-330 -205
h-67z" />
    <glyph glyph-name="ucircumflex" unicode="&#xfb;" horiz-adv-x="1137" 
d="M55 889l0.000976562 69l318 19v-666c0 -120 49.667 -180 149 -180c88 0 166 30.667 234 92v510c0 63.333 -9.66699 105.166 -29 125.499s-59 31.833 -119 34.5v65l332 19v-721c0 -61.333 7 -100 21 -116c17.333 -20 58 -29.333 122 -28v-79l-327 -49v135
c-130 -90 -236 -135 -318 -135c-170.667 0 -256 107.667 -256 323v432c0 58.667 -6.66699 97.334 -20 116.001c-16.667 22.667 -52.334 34 -107.001 34zM246.001 1087l232 349h118l232 -349h-58l-233 211l-233 -211h-58z" />
    <glyph glyph-name="udieresis" unicode="&#xfc;" horiz-adv-x="1137" 
d="M55 889l0.000976562 69l318 19v-666c0 -120 49.667 -180 149 -180c88 0 166 30.667 234 92v510c0 63.333 -9.66699 105.166 -29 125.499s-59 31.833 -119 34.5v65l332 19v-721c0 -61.333 7 -100 21 -116c17.333 -20 58 -29.333 122 -28v-79l-327 -49v135
c-130 -90 -236 -135 -318 -135c-170.667 0 -256 107.667 -256 323v432c0 58.667 -6.66699 97.334 -20 116.001c-16.667 22.667 -52.334 34 -107.001 34zM613.001 1243c0 26.667 10 49.667 30 69s43.333 29 70 29s49.667 -9.66699 69 -29s29 -42.333 29 -69
c0 -28.667 -9.16699 -52.5 -27.5 -71.5s-41.833 -28.5 -70.5 -28.5c-28 0 -51.667 9.66699 -71 29s-29 43 -29 71zM263.001 1243c0 26.667 9.66699 49.667 29 69s42.333 29 69 29s50 -9.66699 70 -29s30 -42.333 30 -69c0 -28 -9.66699 -51.667 -29 -71s-43 -29 -71 -29
c-28.667 0 -52.167 9.5 -70.5 28.5s-27.5 42.833 -27.5 71.5z" />
    <glyph glyph-name="yacute" unicode="&#xfd;" 
d="M51 877v83.999h418v-84c-66.667 0 -100 -20.667 -100 -62c0 -34.667 13.667 -82.334 41 -143.001l188 -418l152 420c17.333 48 26 81.333 26 100c0 28.667 -10.5 52.334 -31.5 71.001s-46.5 29.334 -76.5 32.001v84h356v-84c-74.667 -16 -132 -75.667 -172 -179
l-281 -727c-45.333 -118 -83 -199.333 -113 -244c-60 -90 -131.333 -135 -214 -135c-43.333 0 -80.333 9 -111 27c-36.667 22 -55 53.333 -55 94c0 25.333 8.33301 48.166 25 68.499s37.667 30.5 63 30.5c18 0 42.667 -12.667 74 -38s55.666 -38 72.999 -38
c43.333 0 83 36 119 108c12 24 33.333 80.667 64 170l-305 698c-20.667 46.667 -38 80 -52 100c-25.333 36.667 -54.666 58.334 -87.999 65.001zM334 1087l289 299c38.667 40 70.667 60 96 60c49.333 0 74 -23.333 74 -70c0 -30 -20.667 -58 -62 -84l-330 -205h-67z" />
    <glyph glyph-name="thorn" unicode="&#xfe;" horiz-adv-x="1110" 
d="M371 332c0 -174.667 72.999 -261.999 218.999 -261.999c86.667 0 151.667 41.667 195 125c34 65.333 51 145.666 51 240.999c0 100 -19 185.667 -57 257c-47.333 89.333 -116.666 134 -207.999 134c-62 0 -128.667 -23.667 -200 -71v-424zM179.999 1270l-137.001 64.998
v56c187.333 60 292 90 314 90c6 0 10.667 -0.666992 14 -2v-633c108 87.333 207 131 297 131c114.667 0 205 -47 271 -141c58 -83.333 87 -184.666 87 -303.999c0 -141.333 -41 -265.333 -123 -372c-89.333 -116 -202.666 -174 -339.999 -174c-64 0 -128 17 -192 51v-156
c0 -61.333 9.66699 -105.666 29 -132.999c21.333 -30.667 61.333 -49 120 -55v-82h-489v82c58 6 98 24.667 120 56c19.333 26.667 29 70.667 29 132v1389z" />
    <glyph glyph-name="ydieresis" unicode="&#xff;" 
d="M51 877v83.999h418v-84c-66.667 0 -100 -20.667 -100 -62c0 -34.667 13.667 -82.334 41 -143.001l188 -418l152 420c17.333 48 26 81.333 26 100c0 28.667 -10.5 52.334 -31.5 71.001s-46.5 29.334 -76.5 32.001v84h356v-84c-74.667 -16 -132 -75.667 -172 -179
l-281 -727c-45.333 -118 -83 -199.333 -113 -244c-60 -90 -131.333 -135 -214 -135c-43.333 0 -80.333 9 -111 27c-36.667 22 -55 53.333 -55 94c0 25.333 8.33301 48.166 25 68.499s37.667 30.5 63 30.5c18 0 42.667 -12.667 74 -38s55.666 -38 72.999 -38
c43.333 0 83 36 119 108c12 24 33.333 80.667 64 170l-305 698c-20.667 46.667 -38 80 -52 100c-25.333 36.667 -54.666 58.334 -87.999 65.001zM586 1243c0 26.667 10 49.667 30 69s43.333 29 70 29s49.667 -9.66699 69 -29s29 -42.333 29 -69
c0 -28.667 -9.16699 -52.5 -27.5 -71.5s-41.833 -28.5 -70.5 -28.5c-28 0 -51.667 9.66699 -71 29s-29 43 -29 71zM236 1243c0 26.667 9.66699 49.667 29 69s42.333 29 69 29s50 -9.66699 70 -29s30 -42.333 30 -69c0 -28 -9.66699 -51.667 -29 -71s-43 -29 -71 -29
c-28.667 0 -52.167 9.5 -70.5 28.5s-27.5 42.833 -27.5 71.5z" />
    <glyph glyph-name="glyph271" unicode="&#x102;" horiz-adv-x="1475" 
d="M483 702h379l-186 545zM55 0l-0.000976562 90.002c56.667 10.667 101.334 40.334 134.001 89.001c18.667 27.333 41 77.666 67 150.999l354 999c12.667 36 19 58.667 19 68c0 17.333 -7 35 -21 53h217l412 -1141c49.333 -136 112 -209 188 -219v-90h-557v90
c98.667 11.333 148 45.666 148 102.999c0 40.667 -16 108 -48 202l-71 193h-453l-56 -175c-21.333 -73.333 -32 -132.333 -32 -177c0 -74.667 51.333 -123.334 154 -146.001v-90h-455zM445.999 1825h51.001c22 -94.667 102.667 -142 242 -142
c138.667 0 218.667 47.333 240 142h51c-27.333 -180.667 -124.333 -271 -291 -271s-264.334 90.333 -293.001 271z" />
    <glyph glyph-name="glyph272" unicode="&#x103;" horiz-adv-x="915" 
d="M883 80c-48 -68.667 -103.334 -103 -166.001 -103c-66.667 0 -113 44 -139 132c-90 -80.667 -180.333 -121 -271 -121c-65.333 0 -120 18.667 -164 56c-47.333 39.333 -71 91 -71 155c0 104.667 61.333 191.334 184 260.001c70.667 40 178 78.667 322 116v136
c0 121.333 -54.667 182 -164 182c-97.333 0 -146 -32.667 -146 -98c0 -18 6.83301 -41.333 20.5 -70s20.5 -44.334 20.5 -47.001c0 -16 -20.667 -32 -62 -48c-36 -14.667 -64.333 -22 -85 -22c-38.667 0 -58 46.667 -58 140c0 78.667 46.667 138.667 140 180
c72.667 32.667 153.667 49 243 49c94 0 161.667 -17.667 203 -53c45.333 -38 68 -103 68 -195v-504c0 -58.667 13 -88 39 -88c26.667 0 55.334 9.66699 86.001 29v-86zM577.999 479c-209.333 -56.667 -314 -131 -314 -223c0 -38 14 -68.667 42 -92c26 -22 58.333 -33 97 -33
c64.667 0 123 30.667 175 92v256zM160.999 1400h51.001c22 -94.667 102.667 -142 242 -142c138.667 0 218.667 47.333 240 142h51c-27.333 -180.667 -124.333 -271 -291 -271s-264.334 90.333 -293.001 271z" />
    <glyph glyph-name="Cacute" unicode="&#x106;" horiz-adv-x="1364" 
d="M1219 406l89.999 0.00195312l-37 -310c-181.333 -84.667 -344.666 -127 -489.999 -127c-210.667 0 -382.334 71.333 -515.001 214c-130 138.667 -195 314 -195 526c0 105.333 13.667 199.333 41 282c47.333 147.333 136 266.333 266 357
c127.333 88.667 269.333 133 426 133c130.667 0 279.334 -39 446.001 -117l39 -299l-88 -8c-30 105.333 -83 187.666 -159 246.999s-168.333 89 -277 89c-157.333 0 -273.666 -67.667 -348.999 -203c-59.333 -106.667 -89 -245.334 -89 -416.001c0 -184 31.667 -339 95 -465
c81.333 -164 204.666 -246 369.999 -246c200 0 342 114.333 426 343zM568.999 1589l289 299c38.667 40 70.667 60 96 60c49.333 0 74 -23.333 74 -70c0 -30 -20.667 -58 -62 -84l-330 -205h-67z" />
    <glyph glyph-name="cacute" unicode="&#x107;" horiz-adv-x="909" 
d="M872 213c-109.333 -154 -237.667 -231.003 -385 -231.003c-132 0 -235 50 -309 150c-65.333 89.333 -98 202.333 -98 339c0 142.667 42.667 261.667 128 357c88.667 98 203.667 147 345 147c72.667 0 139.667 -17.333 201 -52c73.333 -41.333 110 -95.666 110 -162.999
c0 -27.333 -11.667 -49.666 -35 -66.999c-20.667 -15.333 -45 -23 -73 -23c-26.667 0 -49 18.667 -67 56c-28.667 60 -47 95 -55 105c-30.667 37.333 -74.667 56 -132 56c-84.667 0 -149 -34 -193 -102c-38 -57.333 -57 -130.666 -57 -219.999
c0 -104.667 24.333 -194.667 73 -270c56.667 -87.333 134.667 -131 234 -131c90 0 175.333 34 256 102zM343.999 1087l289 299c38.667 40 70.667 60 96 60c49.333 0 74 -23.333 74 -70c0 -30 -20.667 -58 -62 -84l-330 -205h-67z" />
    <glyph glyph-name="Ccaron" unicode="&#x10c;" horiz-adv-x="1364" 
d="M1219 406l89.999 0.00195312l-37 -310c-181.333 -84.667 -344.666 -127 -489.999 -127c-210.667 0 -382.334 71.333 -515.001 214c-130 138.667 -195 314 -195 526c0 105.333 13.667 199.333 41 282c47.333 147.333 136 266.333 266 357
c127.333 88.667 269.333 133 426 133c130.667 0 279.334 -39 446.001 -117l39 -299l-88 -8c-30 105.333 -83 187.666 -159 246.999s-168.333 89 -277 89c-157.333 0 -273.666 -67.667 -348.999 -203c-59.333 -106.667 -89 -245.334 -89 -416.001c0 -184 31.667 -339 95 -465
c81.333 -164 204.666 -246 369.999 -246c200 0 342 114.333 426 343zM453.999 1938h58l233 -209l233 209h58l-232 -349h-118z" />
    <glyph glyph-name="ccaron" unicode="&#x10d;" horiz-adv-x="909" 
d="M872 213c-109.333 -154 -237.667 -231.003 -385 -231.003c-132 0 -235 50 -309 150c-65.333 89.333 -98 202.333 -98 339c0 142.667 42.667 261.667 128 357c88.667 98 203.667 147 345 147c72.667 0 139.667 -17.333 201 -52c73.333 -41.333 110 -95.666 110 -162.999
c0 -27.333 -11.667 -49.666 -35 -66.999c-20.667 -15.333 -45 -23 -73 -23c-26.667 0 -49 18.667 -67 56c-28.667 60 -47 95 -55 105c-30.667 37.333 -74.667 56 -132 56c-84.667 0 -149 -34 -193 -102c-38 -57.333 -57 -130.666 -57 -219.999
c0 -104.667 24.333 -194.667 73 -270c56.667 -87.333 134.667 -131 234 -131c90 0 175.333 34 256 102zM228.999 1436h58l233 -209l233 209h58l-232 -349h-118z" />
    <glyph glyph-name="Dslash" unicode="&#x110;" horiz-adv-x="1669" 
d="M518 344c0 -100 17.332 -166.666 51.999 -199.999s102.667 -50 204 -50c174.667 0 311.667 63 411 189c90.667 115.333 136 262.666 136 441.999c0 204.667 -55.667 362.667 -167 474s-269.333 167 -474 167c-41.333 0 -74.666 -2 -99.999 -6
c-28.667 -4.66699 -46.167 -10.5 -52.5 -17.5s-9.5 -24.5 -9.5 -52.5v-491h410v-101h-410v-354zM85.999 0.000976562l-0.000976562 90c81.333 9.33301 135.166 28.833 161.499 58.5s39.5 85.834 39.5 168.501v381h-277v101h277v336c0 82 -13.167 137.667 -39.5 167
s-80.166 48.666 -161.499 57.999v90h530c155.333 0 278.333 -9 369 -27c180.667 -36.667 324 -114.334 430 -233.001c110.667 -123.333 166 -275.666 166 -456.999c0 -236 -87 -420.333 -261 -553c-157.333 -120 -357.666 -180 -600.999 -180h-633z" />
    <glyph glyph-name="dcroat" unicode="&#x111;" horiz-adv-x="1147" 
d="M772 1096h-283v88h283v86l-137 65v56c187.333 60 292 90 314 90c6 0 10.667 -0.666992 14 -2v-295h176v-88h-176v-840c0 -62.667 6.66699 -101.667 20 -117c16 -19.333 56.333 -28.333 121 -27v-79l-336 -51v129c-120.667 -86 -221.667 -129 -303 -129
c-114 0 -204 47 -270 141c-59.333 84 -89 185 -89 303c0 142.667 42.333 268 127 376c91.333 116.667 206.333 175 345 175c55.333 0 120 -20.667 194 -62v181zM768 203v423.999c0 174.667 -75 262 -225 262c-86.667 0 -151.667 -42 -195 -126
c-34 -65.333 -51 -145.666 -51 -240.999c0 -99.333 19 -185 57 -257c47.333 -89.333 116.333 -134 207 -134c55.333 0 124.333 24 207 72z" />
    <glyph glyph-name="Gbreve" unicode="&#x11e;" horiz-adv-x="1538" 
d="M946 729l565 0.00195312v-76c-74 -10.667 -121.333 -43.667 -142 -99c-11.333 -30.667 -17 -92.334 -17 -185.001v-336c-194.667 -46.667 -356 -70 -484 -70c-219.333 0 -403.333 68.667 -552 206c-153.333 141.333 -230 320.666 -230 537.999
c0 225.333 76.333 411.333 229 558c150 144 338 216 564 216c149.333 0 297.333 -37.667 444 -113l33 -305l-84 -4c-68 222.667 -222.333 334 -463 334c-165.333 0 -288 -65 -368 -195c-66 -106.667 -99 -248 -99 -424c0 -191.333 32 -347.333 96 -468
c82.667 -154.667 211.667 -232 387 -232c114 0 213.667 19 299 57v301c0 79.333 -8.66699 132.333 -26 159c-23.333 37.333 -74 58 -152 62v76zM477 1899h51.001c22 -94.667 102.667 -142 242 -142c138.667 0 218.667 47.333 240 142h51
c-27.333 -180.667 -124.333 -271 -291 -271s-264.334 90.333 -293.001 271z" />
    <glyph glyph-name="gbreve" unicode="&#x11f;" 
d="M301 12c-62.667 -60 -94.001 -112.333 -94.001 -157c0 -48 34 -83.333 102 -106c48 -16.667 102.667 -25 164 -25c72.667 0 142.667 14 210 42c86.667 36.667 130 86 130 148c0 50 -39.667 82 -119 96c-30 5.33301 -88.667 8 -176 8c-111.333 0 -183.666 -2 -216.999 -6z
M312.999 682c0 -68 13 -125 39 -171c32 -56.667 79.333 -85 142 -85c51.333 0 91 18.667 119 56c25.333 34 38 77.333 38 130c0 186 -59.333 279 -178 279c-106.667 0 -160 -69.667 -160 -209zM196.999 35c-53.333 42.667 -80.001 83.665 -80.001 122.998
c0 50.667 50.333 125.667 151 225c-103.333 74 -155 163.333 -155 268c0 100.667 35 181.334 105 242.001c66 57.333 150.333 86 253 86c43.333 0 107.333 -9.83301 192 -29.5s197.334 -29.5 338.001 -29.5v-134c-14 3.33301 -34.333 5 -61 5c-46 0 -82 -3.66699 -108 -11
c12 -44 18 -83.333 18 -118c0 -111.333 -38.333 -195 -115 -251c-66.667 -48.667 -158 -73 -274 -73c-30.667 0 -63.334 4.66699 -98.001 14c-46.667 -46.667 -70 -80.667 -70 -102c0 -18 7.66699 -30.667 23 -38c10.667 -6 120.334 -9 329.001 -9
c203.333 0 305 -76.667 305 -230c0 -123.333 -64 -218.666 -192 -285.999c-102.667 -54.667 -221.667 -82 -357 -82c-86.667 0 -161.667 16.333 -225 49c-79.333 41.333 -119 101.333 -119 180c0 64.667 46.667 131.667 140 201zM216.998 1397h51.001
c22 -94.667 102.667 -142 242 -142c138.667 0 218.667 47.333 240 142h51c-27.333 -180.667 -124.333 -271 -291 -271s-264.334 90.333 -293.001 271z" />
    <glyph glyph-name="glyph273" unicode="&#x128;" horiz-adv-x="797" 
d="M80 0v90.001c82 9.33301 136 28.833 162 58.5s39 85.834 39 168.501v818c0 82 -13 137.667 -39 167s-80 48.666 -162 57.999v90h635v-90c-82 -9.33301 -136 -28.5 -162 -57.5s-39 -84.833 -39 -167.5v-818c0 -82.667 13 -138.834 39 -168.501s80 -49.167 162 -58.5v-90
h-635zM688 1886c-26.667 -136 -91.665 -204 -194.998 -204c-26.667 0 -65.334 7.5 -116.001 22.5s-89 22.5 -115 22.5c-46.667 0 -79 -30 -97 -90h-51c25.333 138.667 91 208 197 208c26.667 0 65.167 -7.5 115.5 -22.5s88.166 -22.5 113.499 -22.5
c44.667 0 76 28.667 94 86h54z" />
    <glyph glyph-name="glyph274" unicode="&#x129;" horiz-adv-x="631" 
d="M233 766l-136.999 64.999v56l275 90h51v-705c0 -62 7.33301 -104.667 22 -128c20 -31.333 60.333 -49.333 121 -54v-90h-481v90c59.333 2.66699 99.666 19.334 120.999 50.001c18.667 26 28 70 28 132v494zM607.001 1384c-26.667 -136 -91.665 -204 -194.998 -204
c-26.667 0 -65.334 7.5 -116.001 22.5s-89 22.5 -115 22.5c-46.667 0 -79 -30 -97 -90h-51c25.333 138.667 91 208 197 208c26.667 0 65.167 -7.5 115.5 -22.5s88.166 -22.5 113.499 -22.5c44.667 0 76 28.667 94 86h54z" />
    <glyph glyph-name="Idotaccent" unicode="&#x130;" horiz-adv-x="797" 
d="M80 0v90.001c82 9.33301 136 28.833 162 58.5s39 85.834 39 168.501v818c0 82 -13 137.667 -39 167s-80 48.666 -162 57.999v90h635v-90c-82 -9.33301 -136 -28.5 -162 -57.5s-39 -84.833 -39 -167.5v-818c0 -82.667 13 -138.834 39 -168.501s80 -49.167 162 -58.5v-90
h-635zM299 1745c0 27.333 9.83301 50.833 29.5 70.5s43.167 29.5 70.5 29.5s50.833 -9.83301 70.5 -29.5s29.5 -43.167 29.5 -70.5s-9.83301 -50.833 -29.5 -70.5s-43.167 -29.5 -70.5 -29.5s-50.833 9.83301 -70.5 29.5s-29.5 43.167 -29.5 70.5z" />
    <glyph glyph-name="dotlessi" unicode="&#x131;" horiz-adv-x="631" 
d="M233 766l-136.999 64.999v56l275 90h51v-705c0 -62 7.33301 -104.667 22 -128c20 -31.333 60.333 -49.333 121 -54v-90h-481v90c59.333 2.66699 99.666 19.334 120.999 50.001c18.667 26 28 70 28 132v494z" />
    <glyph glyph-name="Lslash" unicode="&#x141;" horiz-adv-x="1485" 
d="M123 0v90.0029c71.333 1.33301 123.333 17.166 156 47.499s49 80.833 49 151.5v258l-318 -215v121l318 215v520c0 66.667 -18 113.667 -54 141c-31.333 23.333 -81.666 35.666 -150.999 36.999v84h645v-84c-138 0 -207 -60.667 -207 -182v-398l426 289v-121l-426 -288
v-344c0 -100.667 24 -167.334 72 -200.001c37.333 -25.333 109.666 -38 216.999 -38c244 0 408.333 99 493 297l91 -25l-86 -356h-1225z" />
    <glyph glyph-name="lslash" unicode="&#x142;" horiz-adv-x="631" 
d="M74 0l0.000976562 89.999c59.333 2.66699 99.666 19.334 120.999 50.001c18.667 26 28 70 28 132v361l-223 -148v105l223 147v533l-137 65v56c186 60 290 90 312 90c6 0 10.667 -0.666992 14 -2v-645l219 147v-104l-219 -148v-457c0 -62 7.33301 -104.667 22 -128
c20 -31.333 60.333 -49.333 121 -54v-90h-481z" />
    <glyph glyph-name="OE" unicode="&#x152;" horiz-adv-x="2165" 
d="M2011 383l88.002 -12l-86 -371h-1083c-149.333 0 -261.333 10 -336 30c-153.333 40 -273.333 124.667 -360 254c-82 121.333 -123 263.666 -123 426.999c0 146.667 32.333 278.334 97 395.001c68.667 124 166.667 216 294 276c98.667 46.667 229.667 70 393 70l1098 -2
l20 -299l-90 -6c-20.667 94 -65.334 157 -134.001 189c-49.333 22.667 -129 34 -239 34h-420c178 -134 278.667 -320.333 302 -559h157c127.333 0 191 64 191 192h88v-471l-90 1c-2.66699 75.333 -24.334 127 -65.001 155c-30.667 21.333 -80 32 -148 32
c-13.333 0 -34.833 -0.5 -64.5 -1.5s-52.5 -1.5 -68.5 -1.5c-9.33301 -264 -104.333 -466 -285 -606h414c116 0 207.333 19.333 274 58c72 42 130.667 114 176 216zM352.002 776c0 -175.333 30.333 -324.669 91 -448.002c78.667 -160 196.667 -240 354 -240
c152 0 264.333 67.333 337 202c56.667 106 85 242 85 408c0 168.667 -33 314.334 -99 437.001c-81.333 152.667 -199.333 229 -354 229c-146.667 0 -256 -64.667 -328 -194c-57.333 -103.333 -86 -234.666 -86 -393.999z" />
    <glyph glyph-name="oe" unicode="&#x153;" horiz-adv-x="1610" 
d="M1579 588l-632.999 -0.00195312l2 -45c4.66699 -99.333 31.667 -186 81 -260c57.333 -86 132.666 -129 225.999 -129c88.667 0 176.334 37.333 263.001 112l53 -55c-103.333 -154 -227 -231 -371 -231c-140.667 0 -252.667 53 -336 159
c-92.667 -104.667 -206.667 -157 -342 -157c-133.333 0 -243 49 -329 147c-82 94 -123 208.667 -123 344c0 138.667 39 255.334 117 350.001c83.333 101.333 193 152 329 152c147.333 0 262.666 -61.333 345.999 -184c88.667 125.333 200 188 334 188
c107.333 0 197 -39 269 -117c68 -73.333 106 -164.666 114 -273.999zM948.001 673.998h407.001c-2.66699 61.333 -20.334 112 -53.001 152c-36 43.333 -83.667 65 -143 65c-108 0 -178.333 -72.333 -211 -217zM274.002 558.998c0 -114.667 17.333 -217.667 52 -309
c48 -126 119.667 -189 215 -189c151.333 0 227 113.333 227 340c0 116.667 -17.333 219.667 -52 309c-47.333 123.333 -120 185 -218 185c-149.333 0 -224 -112 -224 -336z" />
    <glyph glyph-name="Scedilla" unicode="&#x15e;" horiz-adv-x="1133" 
d="M154 96l0.000976562 342l79 -10c58 -241.333 175.667 -362 353 -362c68 0 124.167 22.167 168.5 66.5s66.5 100.5 66.5 168.5c0 94.667 -56 184 -168 268l-311 215c-112 92.667 -168 197.334 -168 314.001s37.667 209.334 113 278.001c73.333 66 168.666 99 285.999 99
c113.333 0 244 -38.333 392 -115v-297h-86c-31.333 214 -133.333 321 -306 321c-64 0 -117.667 -17 -161 -51c-46.667 -36.667 -70 -86.334 -70 -149.001c0 -33.333 6 -64 18 -92c23.333 -57.333 94.333 -124 213 -200c162 -103.333 261.667 -171.666 299 -204.999
c101.333 -90.667 152 -189.334 152 -296.001c0 -132.667 -44 -237.334 -132 -314.001c-84 -73.333 -193 -110 -327 -110c-147.333 0 -284.333 43 -411 129zM299.001 -371l35.002 77.999c84.667 -48 159 -72 223 -72c82 0 123 31 123 93c0 58.667 -37 88 -111 88
c-20.667 0 -42.334 -2 -65.001 -6v190h63v-112c32 4 52.333 6 61 6c122 0 183 -54.667 183 -164c0 -59.333 -22.333 -104.666 -67 -135.999c-39.333 -26.667 -90 -40 -152 -40c-68.667 0 -166.334 25 -293.001 75z" />
    <glyph glyph-name="scedilla" unicode="&#x15f;" horiz-adv-x="801" 
d="M96 90v245.998h84c28 -174.667 101.667 -262 221 -262c45.333 0 82.333 11.667 111 35c31.333 24.667 47 59.334 47 104.001c0 54.667 -41.667 108.334 -125 161.001l-231 140c-83.333 63.333 -125 135.666 -125 216.999c0 79.333 33 142.666 99 189.999
c58.667 41.333 129.334 62 212.001 62c83.333 0 175.666 -26 276.999 -78v-217h-62c-31.333 142 -106.333 213 -225 213c-87.333 0 -131 -36 -131 -108c0 -51.333 41.667 -102.666 125 -153.999l233 -144c83.333 -66 125 -141.667 125 -227s-36 -155.666 -108 -210.999
c-66 -51.333 -142.667 -77 -230 -77c-96.667 0 -195.667 36.667 -297 110zM133 -371.002l35.002 77.999c84.667 -48 159 -72 223 -72c82 0 123 31 123 93c0 58.667 -37 88 -111 88c-20.667 0 -42.334 -2 -65.001 -6v190h63v-112c32 4 52.333 6 61 6
c122 0 183 -54.667 183 -164c0 -59.333 -22.333 -104.666 -67 -135.999c-39.333 -26.667 -90 -40 -152 -40c-68.667 0 -166.334 25 -293.001 75z" />
    <glyph glyph-name="Scaron" unicode="&#x160;" horiz-adv-x="1133" 
d="M154 96l0.000976562 342l79 -10c58 -241.333 175.667 -362 353 -362c68 0 124.167 22.167 168.5 66.5s66.5 100.5 66.5 168.5c0 94.667 -56 184 -168 268l-311 215c-112 92.667 -168 197.334 -168 314.001s37.667 209.334 113 278.001c73.333 66 168.666 99 285.999 99
c113.333 0 244 -38.333 392 -115v-297h-86c-31.333 214 -133.333 321 -306 321c-64 0 -117.667 -17 -161 -51c-46.667 -36.667 -70 -86.334 -70 -149.001c0 -33.333 6 -64 18 -92c23.333 -57.333 94.333 -124 213 -200c162 -103.333 261.667 -171.666 299 -204.999
c101.333 -90.667 152 -189.334 152 -296.001c0 -132.667 -44 -237.334 -132 -314.001c-84 -73.333 -193 -110 -327 -110c-147.333 0 -284.333 43 -411 129zM276.001 1938h58l233 -209l233 209h58l-232 -349h-118z" />
    <glyph glyph-name="scaron" unicode="&#x161;" horiz-adv-x="801" 
d="M96 90v245.998h84c28 -174.667 101.667 -262 221 -262c45.333 0 82.333 11.667 111 35c31.333 24.667 47 59.334 47 104.001c0 54.667 -41.667 108.334 -125 161.001l-231 140c-83.333 63.333 -125 135.666 -125 216.999c0 79.333 33 142.666 99 189.999
c58.667 41.333 129.334 62 212.001 62c83.333 0 175.666 -26 276.999 -78v-217h-62c-31.333 142 -106.333 213 -225 213c-87.333 0 -131 -36 -131 -108c0 -51.333 41.667 -102.666 125 -153.999l233 -144c83.333 -66 125 -141.667 125 -227s-36 -155.666 -108 -210.999
c-66 -51.333 -142.667 -77 -230 -77c-96.667 0 -195.667 36.667 -297 110zM110 1436h58l233 -209l233 209h58l-232 -349h-118z" />
    <glyph glyph-name="glyph275" unicode="&#x168;" horiz-adv-x="1583" 
d="M74 1366l-0.000976562 83.999h604v-84c-77.333 -11.333 -127.666 -36.333 -150.999 -75c-18 -30 -27 -87.667 -27 -173v-659c0 -242 119.333 -363 358 -363c82.667 0 155 19.333 217 58c68 42.667 111.333 102.334 130 179.001c9.33301 40 14 112 14 216v516
c0 104.667 -9.33301 175.667 -28 213c-28 54.667 -88.333 84 -181 88v84h510v-84c-74 -10.667 -125.333 -35 -154 -73s-43 -114 -43 -228v-571c0 -93.333 -7.33301 -163.333 -22 -210c-32.667 -104 -99.667 -184 -201 -240c-89.333 -48.667 -192.333 -73 -309 -73
c-347.333 0 -521 168 -521 504v643c0 88 -11 147.667 -33 179c-26 37.333 -80.333 60.333 -163 69zM1111 1886c-26.667 -136 -91.665 -204 -194.998 -204c-26.667 0 -65.334 7.5 -116.001 22.5s-89 22.5 -115 22.5c-46.667 0 -79 -30 -97 -90h-51
c25.333 138.667 91 208 197 208c26.667 0 65.167 -7.5 115.5 -22.5s88.166 -22.5 113.499 -22.5c44.667 0 76 28.667 94 86h54z" />
    <glyph glyph-name="glyph276" unicode="&#x169;" horiz-adv-x="1137" 
d="M55 889l0.000976562 69l318 19v-666c0 -120 49.667 -180 149 -180c88 0 166 30.667 234 92v510c0 63.333 -9.66699 105.166 -29 125.499s-59 31.833 -119 34.5v65l332 19v-721c0 -61.333 7 -100 21 -116c17.333 -20 58 -29.333 122 -28v-79l-327 -49v135
c-130 -90 -236 -135 -318 -135c-170.667 0 -256 107.667 -256 323v432c0 58.667 -6.66699 97.334 -20 116.001c-16.667 22.667 -52.334 34 -107.001 34zM809.001 1384c-26.667 -136 -91.665 -204 -194.998 -204c-26.667 0 -65.334 7.5 -116.001 22.5s-89 22.5 -115 22.5
c-46.667 0 -79 -30 -97 -90h-51c25.333 138.667 91 208 197 208c26.667 0 65.167 -7.5 115.5 -22.5s88.166 -22.5 113.499 -22.5c44.667 0 76 28.667 94 86h54z" />
    <glyph glyph-name="Ydieresis" unicode="&#x178;" horiz-adv-x="1473" 
d="M418 0l0.000976562 89.998c76 8 127.333 26.833 154 56.5s40 82.5 40 158.5v318l-276 452c-48 78 -87 136 -117 174c-60.667 75.333 -114.667 114.333 -162 117v84h598v-84c-103.333 0 -155 -27.333 -155 -82c0 -30 16.333 -73 49 -129l246 -422l157 263
c79.333 136.667 119 219.667 119 249c0 73.333 -56.667 114 -170 122v83h512v-84c-44.667 -9.33301 -85.334 -27.666 -122.001 -54.999c-45.333 -35.333 -123 -142.666 -233 -321.999l-218 -368v-318c0 -142 64.667 -213 194 -213v-90h-616zM813.001 1745
c0 26.667 10 49.667 30 69s43.333 29 70 29s49.667 -9.66699 69 -29s29 -42.333 29 -69c0 -28.667 -9.16699 -52.5 -27.5 -71.5s-41.833 -28.5 -70.5 -28.5c-28 0 -51.667 9.66699 -71 29s-29 43 -29 71zM463.001 1745c0 26.667 9.66699 49.667 29 69s42.333 29 69 29
s50 -9.66699 70 -29s30 -42.333 30 -69c0 -28 -9.66699 -51.667 -29 -71s-43 -29 -71 -29c-28.667 0 -52.167 9.5 -70.5 28.5s-27.5 42.833 -27.5 71.5z" />
    <glyph glyph-name="Zcaron" unicode="&#x17d;" horiz-adv-x="1360" 
d="M66 0v76l874 1284h-342c-96 0 -167 -15.667 -213 -47s-88.333 -91.333 -127 -180l-84 -9l14 326h1031v-76l-859 -1280h320c120.667 0 218.334 18.667 293.001 56c77.333 38 149.666 105.333 216.999 202l100 6l-108 -358h-1116zM389 1938h58l233 -209l233 209h58
l-232 -349h-118z" />
    <glyph glyph-name="zcaron" unicode="&#x17e;" horiz-adv-x="909" 
d="M61 0v76l588 805h-203c-69.333 0 -120.666 -9 -153.999 -27c-38 -19.333 -72 -58.333 -102 -117l-71 -6l18 252h30c9.33301 -19.333 48.666 -29 117.999 -29h592v-65l-592 -813h180c90.667 0 160.667 15.5 210 46.5s91.333 87.833 126 170.5l76 -19
c-14 -46.667 -32.667 -138 -56 -274h-760zM164 1436h58l233 -209l233 209h58l-232 -349h-118z" />
    <glyph glyph-name="florin" unicode="&#x192;" 
d="M405 807h-221v98h232c32.667 394.667 160.334 592 383.001 592c44 0 82.333 -10.333 115 -31c38 -24 57 -56.667 57 -98c0 -24 -7.66699 -44.333 -23 -61s-35 -25 -59 -25c-31.333 0 -61.166 20.167 -89.499 60.5s-51.833 60.5 -70.5 60.5
c-72.667 0 -116.334 -166 -131.001 -498h246v-98h-252l-4 -40l-53 -515c-6 -56.667 -12.333 -113 -19 -169c-8 -65.333 -18.333 -121 -31 -167c-53.333 -198 -164.333 -297 -333 -297c-116.667 0 -175 41 -175 123c0 61.333 28.667 92 86 92
c30.667 0 57.667 -20.167 81 -60.5s45.666 -60.5 66.999 -60.5c58 0 105.667 157.333 143 472c9.33301 80.667 26.333 288 51 622z" />
    <glyph glyph-name="glyph277" unicode="&#x1a0;" horiz-adv-x="1571" 
d="M336 778c0 -183.333 31.333 -338.666 94 -465.999c81.333 -166 204.333 -249 369 -249c158 0 274.667 70 350 210c58.667 110 88 251 88 423c0 176.667 -34 328.667 -102 456c-84.667 159.333 -207.667 239 -369 239c-153.333 0 -267.333 -67.667 -342 -203
c-58.667 -106.667 -88 -243.334 -88 -410.001zM1416 1082c53.333 45.333 80 90.667 80 136c0 24 -18 43.667 -54 59c-65.333 26.667 -99.333 41 -102 43c-36.667 22.667 -55 55.667 -55 99c0 34 14.333 62.333 43 85c26.667 21.333 57.334 32 92.001 32
c67.333 0 119.333 -26 156 -78c32.667 -45.333 49 -102.666 49 -171.999c0 -122.667 -57.333 -221.334 -172 -296.001c24 -76 36 -159 36 -249c0 -209.333 -65 -388.333 -195 -537c-135.333 -155.333 -306 -233 -512 -233c-208 0 -377.667 72.333 -509 217
c-127.333 140.667 -191 315.667 -191 525c0 214 65 393.667 195 539c135.333 151.333 308.666 227 519.999 227c132 0 253.667 -36 365 -108s196 -168.333 254 -289z" />
    <glyph glyph-name="glyph278" unicode="&#x1a1;" horiz-adv-x="1042" 
d="M274 559c0 -114.667 17.333 -217.667 52 -309c48 -126 119.667 -189 215 -189c151.333 0 227 113.333 227 340c0 116.667 -17.333 219.667 -52 309c-47.333 123.333 -120 185 -218 185c-149.333 0 -224 -112 -224 -336zM914 733c46 41.333 68.999 83 68.999 125
c0 24 -18.333 43.667 -55 59c-65.333 27.333 -99.333 41.666 -102 42.999c-36 23.333 -54 56.333 -54 99c0 34.667 14 63.334 42 86.001c26.667 20.667 57.667 31 93 31c66.667 0 118.334 -25.667 155.001 -77c33.333 -46 50 -103.667 50 -173
c0 -117.333 -53.333 -213 -160 -287c14 -50 21 -104 21 -162c0 -139.333 -39.667 -255.333 -119 -348c-84.667 -98 -195.334 -147 -332.001 -147c-134 0 -243.667 49.333 -329 148c-82 94 -123 209 -123 345c0 140 39.667 257 119 351c84 99.333 195 149 333 149
c176.667 0 307.334 -80.667 392.001 -242z" />
    <glyph glyph-name="glyph279" unicode="&#x1af;" horiz-adv-x="1583" 
d="M1323 1018c115.333 68 173 134.667 173 200c0 22 -15.667 40.667 -47 56l-75 29c-34 -40 -51 -119.333 -51 -238v-47zM1334 934l-11.002 18.9961v-459c0 -120 -19 -216 -57 -288c-44 -83.333 -118 -146.666 -222 -189.999c-73.333 -30 -157.666 -45 -252.999 -45
c-347.333 0 -521 168 -521 504v643c0 88 -11 147.667 -33 179c-26 37.333 -80.333 60.333 -163 69v84h604v-84c-77.333 -11.333 -127.666 -36.333 -150.999 -75c-18 -30 -27 -87.667 -27 -173v-659c0 -242 119.333 -363 358 -363c82.667 0 155 19.333 217 58
c68 42.667 111.333 102.334 130 179.001c9.33301 40 14 112 14 216v516c0 104.667 -9.33301 175.334 -28 212.001c-28 55.333 -88.333 85 -181 89v84h280c18 57.333 61.333 86 130 86c67.333 0 119.333 -26 156 -78c32.667 -45.333 49 -102.666 49 -171.999
c0 -84 -28.667 -158 -86 -222c-52 -58 -120.333 -101.333 -205 -130z" />
    <glyph glyph-name="glyph280" unicode="&#x1b0;" horiz-adv-x="1137" 
d="M898 975c-23.333 20 -35.001 47.999 -35.001 83.999c0 34.667 14 63.334 42 86.001c26.667 20.667 57.667 31 93 31c66.667 0 118.334 -25.667 155.001 -77c33.333 -46 50 -103.667 50 -173c0 -78 -25.667 -148 -77 -210c-46.667 -57.333 -108.667 -101 -186 -131v-329
c0 -61.333 7 -100 21 -116c17.333 -20 58 -29.333 122 -28v-79l-327 -49v135c-130 -90 -236 -135 -318 -135c-170.667 0 -256 107.667 -256 323v432c0 58.667 -6.66699 97.334 -20 116.001c-16 22.667 -51.667 34 -107 34v69l318 19v-666c0 -120 49.667 -180 149 -180
c88 0 166 30.667 234 92v510c0 63.333 -9.66699 105.166 -29 125.499s-59 31.833 -119 34.5v65zM939.999 682.999c89.333 58.667 134 116.999 134 174.999c0 22.667 -17.333 42.334 -52 59.001l-82 31v-265z" />
    <glyph glyph-name="circumflex" unicode="&#x2c6;" horiz-adv-x="1024" 
d="M221 1087l232 349h118l232 -349h-58l-233 211l-233 -211h-58z" />
    <glyph glyph-name="caron" unicode="&#x2c7;" horiz-adv-x="1024" 
d="M221 1436h58l233 -209l233 209h58l-232 -349h-118z" />
    <glyph glyph-name="breve" unicode="&#x2d8;" horiz-adv-x="1024" 
d="M219 1397h51.001c22 -94.667 102.667 -142 242 -142c138.667 0 218.667 47.333 240 142h51c-27.333 -180.667 -124.333 -271 -291 -271s-264.334 90.333 -293.001 271z" />
    <glyph glyph-name="dotaccent" unicode="&#x2d9;" horiz-adv-x="1024" 
d="M412 1243c0 27.333 9.83301 50.833 29.5 70.5s43.167 29.5 70.5 29.5s50.833 -9.83301 70.5 -29.5s29.5 -43.167 29.5 -70.5s-9.83301 -50.833 -29.5 -70.5s-43.167 -29.5 -70.5 -29.5s-50.833 9.83301 -70.5 29.5s-29.5 43.167 -29.5 70.5z" />
    <glyph glyph-name="ring" unicode="&#x2da;" horiz-adv-x="1024" 
d="M362 1311c0 -42.667 14.3311 -78.667 42.998 -108s64.334 -44 107.001 -44s78.334 14.667 107.001 44s43 65.333 43 108c0 40.667 -14.833 75.667 -44.5 105s-64.834 44 -105.501 44c-41.333 0 -76.666 -14.5 -105.999 -43.5s-44 -64.167 -44 -105.5zM271.998 1309
c0 68 23 125.167 69 171.5s103 69.5 171 69.5s125.333 -23.167 172 -69.5s70 -103.5 70 -171.5s-23.333 -125 -70 -171s-104 -69 -172 -69s-125 23 -171 69s-69 103 -69 171z" />
    <glyph glyph-name="ogonek" unicode="&#x2db;" horiz-adv-x="1024" 
d="M674 31c-120 -93.333 -180 -182.332 -180 -266.999c0 -78.667 33.333 -118 100 -118c53.333 0 93 23.667 119 71l28 -18c-48 -98.667 -118.333 -148 -211 -148c-44 0 -81 12.667 -111 38c-32 27.333 -48 62.666 -48 105.999c0 114 84.667 226 254 336h49z" />
    <glyph glyph-name="tilde" unicode="&#x2dc;" horiz-adv-x="1024" 
d="M799 1384c-26.667 -136 -91.665 -204 -194.998 -204c-26.667 0 -65.334 7.5 -116.001 22.5s-89 22.5 -115 22.5c-46.667 0 -79 -30 -97 -90h-51c25.333 138.667 91 208 197 208c26.667 0 65.167 -7.5 115.5 -22.5s88.166 -22.5 113.499 -22.5c44.667 0 76 28.667 94 86
h54z" />
    <glyph glyph-name="hungarumlaut" unicode="&#x2dd;" horiz-adv-x="1024" 
d="M594 1087l143 279c28 54.667 58.667 82 92 82c18.667 0 34.667 -6.66699 48 -20s20 -29.333 20 -48c0 -20.667 -13.667 -45.667 -41 -75l-203 -218h-59zM319 1087l144 279c28 54.667 58.667 82 92 82c18.667 0 34.667 -6.66699 48 -20s20 -29.333 20 -48
c0 -20.667 -13.667 -45.667 -41 -75l-205 -218h-58z" />
    <glyph glyph-name="Delta" unicode="&#x394;" horiz-adv-x="1208" 
d="M555 1212l-389 -1042h768zM596 1497h29l555 -1497h-1151z" />
    <glyph glyph-name="Delta" unicode="&#x2206;" horiz-adv-x="1208" 
d="M555 1212l-389 -1042h768zM596 1497h29l555 -1497h-1151z" />
    <glyph glyph-name="Omega" unicode="&#x3a9;" horiz-adv-x="1567" 
d="M1100 188l-0.00195312 -26h313l66 203h61l-108 -365h-500c180 312.667 270 600.667 270 864c0 160 -28.667 288 -86 384c-70.667 118 -180.667 177 -330 177s-259.666 -59 -330.999 -177c-57.333 -96 -86 -224 -86 -384c0 -260 90.667 -548 272 -864h-500l-110 365h61
l68 -203h311v26c-97.333 119.333 -168.666 225.666 -213.999 318.999c-59.333 121.333 -89 244.666 -89 369.999c0 181.333 57.667 330 173 446s263.666 174 444.999 174c180.667 0 328.667 -58.167 444 -174.5s173 -264.833 173 -445.5
c0 -125.333 -29.667 -248.666 -89 -369.999c-45.333 -93.333 -116.666 -199.666 -213.999 -318.999z" />
    <glyph glyph-name="Omega" unicode="&#x2126;" horiz-adv-x="1567" 
d="M1100 188l-0.00195312 -26h313l66 203h61l-108 -365h-500c180 312.667 270 600.667 270 864c0 160 -28.667 288 -86 384c-70.667 118 -180.667 177 -330 177s-259.666 -59 -330.999 -177c-57.333 -96 -86 -224 -86 -384c0 -260 90.667 -548 272 -864h-500l-110 365h61
l68 -203h311v26c-97.333 119.333 -168.666 225.666 -213.999 318.999c-59.333 121.333 -89 244.666 -89 369.999c0 181.333 57.667 330 173 446s263.666 174 444.999 174c180.667 0 328.667 -58.167 444 -174.5s173 -264.833 173 -445.5
c0 -125.333 -29.667 -248.666 -89 -369.999c-45.333 -93.333 -116.666 -199.666 -213.999 -318.999z" />
    <glyph glyph-name="pi" unicode="&#x3c0;" horiz-adv-x="1354" 
d="M1329 885l-35.001 -162h-329c-21.333 -111.333 -39.333 -262 -54 -452c-16.667 -209.333 -56.667 -314 -120 -314c-52 0 -78 31.333 -78 94c0 38 25.833 132.167 77.5 282.5s90.5 280.166 116.5 389.499h-375c-19.333 -105.333 -37 -254.666 -53 -447.999
c-17.333 -212 -58.333 -318 -123 -318c-51.333 0 -77 32 -77 96c0 36.667 26 129 78 277c52 150.667 91.333 281.667 118 393h-133c-86.667 0 -146.334 -14.667 -179.001 -44c-29.333 -26.667 -53.666 -83.667 -72.999 -171h-59c22 124 55 214 99 270
c56.667 71.333 142.334 107 257.001 107h942z" />
    <glyph glyph-name="glyph281" unicode="&#x1ea0;" horiz-adv-x="1475" 
d="M483 702h379l-186 545zM55 0l-0.000976562 90.002c56.667 10.667 101.334 40.334 134.001 89.001c18.667 27.333 41 77.666 67 150.999l354 999c12.667 36 19 58.667 19 68c0 17.333 -7 35 -21 53h217l412 -1141c49.333 -136 112 -209 188 -219v-90h-557v90
c98.667 11.333 148 45.666 148 102.999c0 40.667 -16 108 -48 202l-71 193h-453l-56 -175c-21.333 -73.333 -32 -132.333 -32 -177c0 -74.667 51.333 -123.334 154 -146.001v-90h-455zM584.999 -261.998c0 36.667 12.667 67.667 38 93s56.333 38 93 38
s67.667 -12.667 93 -38s38 -56.333 38 -93s-12.667 -68 -38 -94s-56.333 -39 -93 -39s-67.667 13 -93 39s-38 57.333 -38 94z" />
    <glyph glyph-name="glyph282" unicode="&#x1ea1;" horiz-adv-x="915" 
d="M883 80c-48 -68.667 -103.334 -103 -166.001 -103c-66.667 0 -113 44 -139 132c-90 -80.667 -180.333 -121 -271 -121c-65.333 0 -120 18.667 -164 56c-47.333 39.333 -71 91 -71 155c0 104.667 61.333 191.334 184 260.001c70.667 40 178 78.667 322 116v136
c0 121.333 -54.667 182 -164 182c-97.333 0 -146 -32.667 -146 -98c0 -18 6.83301 -41.333 20.5 -70s20.5 -44.334 20.5 -47.001c0 -16 -20.667 -32 -62 -48c-36 -14.667 -64.333 -22 -85 -22c-38.667 0 -58 46.667 -58 140c0 78.667 46.667 138.667 140 180
c72.667 32.667 153.667 49 243 49c94 0 161.667 -17.667 203 -53c45.333 -38 68 -103 68 -195v-504c0 -58.667 13 -88 39 -88c26.667 0 55.334 9.66699 86.001 29v-86zM577.999 479c-209.333 -56.667 -314 -131 -314 -223c0 -38 14 -68.667 42 -92c26 -22 58.333 -33 97 -33
c64.667 0 123 30.667 175 92v256zM321.999 -262c0 36.667 12.667 67.667 38 93s56.333 38 93 38s67.667 -12.667 93 -38s38 -56.333 38 -93s-12.667 -68 -38 -94s-56.333 -39 -93 -39s-67.667 13 -93 39s-38 57.333 -38 94z" />
    <glyph glyph-name="glyph283" unicode="&#x1ea2;" horiz-adv-x="1475" 
d="M483 702h379l-186 545zM55 0l-0.000976562 90.002c56.667 10.667 101.334 40.334 134.001 89.001c18.667 27.333 41 77.666 67 150.999l354 999c12.667 36 19 58.667 19 68c0 17.333 -7 35 -21 53h217l412 -1141c49.333 -136 112 -209 188 -219v-90h-557v90
c98.667 11.333 148 45.666 148 102.999c0 40.667 -16 108 -48 202l-71 193h-453l-56 -175c-21.333 -73.333 -32 -132.333 -32 -177c0 -74.667 51.333 -123.334 154 -146.001v-90h-455zM737.999 1572c-34 -2 -52.3301 -3.00098 -54.9971 -3.00098
c-8.66699 0 -14.334 19.667 -17.001 59c-0.666992 24.667 -1.66699 49.334 -3 74.001c53.333 16.667 86.666 28.667 99.999 36c40.667 20 61 45.333 61 76c0 32.667 -11.333 61.667 -34 87s-50.334 38 -83.001 38c-7.33301 0 -18 -2 -32 -6s-24.333 -6 -31 -6
c-22.667 0 -34 11.333 -34 34c0 36 25 54 75 54c62.667 0 119.667 -23.333 171 -70c53.333 -48.667 80 -104.334 80 -167.001c0 -43.333 -18.333 -74.666 -55 -93.999l-98 -38c-34 -15.333 -49 -40 -45 -74z" />
    <glyph glyph-name="glyph284" unicode="&#x1ea3;" horiz-adv-x="915" 
d="M883 80c-48 -68.667 -103.334 -103 -166.001 -103c-66.667 0 -113 44 -139 132c-90 -80.667 -180.333 -121 -271 -121c-65.333 0 -120 18.667 -164 56c-47.333 39.333 -71 91 -71 155c0 104.667 61.333 191.334 184 260.001c70.667 40 178 78.667 322 116v136
c0 121.333 -54.667 182 -164 182c-97.333 0 -146 -32.667 -146 -98c0 -18 6.83301 -41.333 20.5 -70s20.5 -44.334 20.5 -47.001c0 -16 -20.667 -32 -62 -48c-36 -14.667 -64.333 -22 -85 -22c-38.667 0 -58 46.667 -58 140c0 78.667 46.667 138.667 140 180
c72.667 32.667 153.667 49 243 49c94 0 161.667 -17.667 203 -53c45.333 -38 68 -103 68 -195v-504c0 -58.667 13 -88 39 -88c26.667 0 55.334 9.66699 86.001 29v-86zM577.999 479c-209.333 -56.667 -314 -131 -314 -223c0 -38 14 -68.667 42 -92c26 -22 58.333 -33 97 -33
c64.667 0 123 30.667 175 92v256zM452.999 1082c-34 -2 -52.3301 -3.00098 -54.9971 -3.00098c-8.66699 0 -14.334 19.667 -17.001 59c-0.666992 24.667 -1.66699 49.334 -3 74.001c53.333 16.667 86.666 28.667 99.999 36c40.667 20 61 45.333 61 76
c0 32.667 -11.333 61.667 -34 87s-50.334 38 -83.001 38c-7.33301 0 -18 -2 -32 -6s-24.333 -6 -31 -6c-22.667 0 -34 11.333 -34 34c0 36 25 54 75 54c62.667 0 119.667 -23.333 171 -70c53.333 -48.667 80 -104.334 80 -167.001c0 -43.333 -18.333 -74.666 -55 -93.999
l-98 -38c-34 -15.333 -49 -40 -45 -74z" />
    <glyph glyph-name="glyph285" unicode="&#x1ea4;" horiz-adv-x="1475" 
d="M483 702h379l-186 545zM55 0l-0.000976562 90.002c56.667 10.667 101.334 40.334 134.001 89.001c18.667 27.333 41 77.666 67 150.999l354 999c12.667 36 19 58.667 19 68c0 17.333 -7 35 -21 53h217l412 -1141c49.333 -136 112 -209 188 -219v-90h-557v90
c98.667 11.333 148 45.666 148 102.999c0 40.667 -16 108 -48 202l-71 193h-453l-56 -175c-21.333 -73.333 -32 -132.333 -32 -177c0 -74.667 51.333 -123.334 154 -146.001v-90h-455zM445.999 1517l232 349h118l232 -349h-58l-233 211l-233 -211h-58zM491.999 1881l289 299
c38.667 40 70.667 60 96 60c49.333 0 74 -23.333 74 -70c0 -30 -20.667 -58 -62 -84l-330 -205h-67z" />
    <glyph glyph-name="glyph286" unicode="&#x1ea5;" horiz-adv-x="915" 
d="M883 80c-48 -68.667 -103.334 -103 -166.001 -103c-66.667 0 -113 44 -139 132c-90 -80.667 -180.333 -121 -271 -121c-65.333 0 -120 18.667 -164 56c-47.333 39.333 -71 91 -71 155c0 104.667 61.333 191.334 184 260.001c70.667 40 178 78.667 322 116v136
c0 121.333 -54.667 182 -164 182c-97.333 0 -146 -32.667 -146 -98c0 -18 6.83301 -41.333 20.5 -70s20.5 -44.334 20.5 -47.001c0 -16 -20.667 -32 -62 -48c-36 -14.667 -64.333 -22 -85 -22c-38.667 0 -58 46.667 -58 140c0 78.667 46.667 138.667 140 180
c72.667 32.667 153.667 49 243 49c94 0 161.667 -17.667 203 -53c45.333 -38 68 -103 68 -195v-504c0 -58.667 13 -88 39 -88c26.667 0 55.334 9.66699 86.001 29v-86zM577.999 479c-209.333 -56.667 -314 -131 -314 -223c0 -38 14 -68.667 42 -92c26 -22 58.333 -33 97 -33
c64.667 0 123 30.667 175 92v256zM161.999 1087l232 349h118l232 -349h-58l-233 211l-233 -211h-58zM207.999 1451l289 299c38.667 40 70.667 60 96 60c49.333 0 74 -23.333 74 -70c0 -30 -20.667 -58 -62 -84l-330 -205h-67z" />
    <glyph glyph-name="glyph287" unicode="&#x1ea6;" horiz-adv-x="1475" 
d="M483 702h379l-186 545zM55 0l-0.000976562 90.002c56.667 10.667 101.334 40.334 134.001 89.001c18.667 27.333 41 77.666 67 150.999l354 999c12.667 36 19 58.667 19 68c0 17.333 -7 35 -21 53h217l412 -1141c49.333 -136 112 -209 188 -219v-90h-557v90
c98.667 11.333 148 45.666 148 102.999c0 40.667 -16 108 -48 202l-71 193h-453l-56 -175c-21.333 -73.333 -32 -132.333 -32 -177c0 -74.667 51.333 -123.334 154 -146.001v-90h-455zM445.999 1517l232 349h118l232 -349h-58l-233 211l-233 -211h-58zM992.999 1880h-67
l-330 205c-41.333 26 -62 54 -62 84c0 46.667 24.667 70 74 70c25.333 0 57.333 -20 96 -60z" />
    <glyph glyph-name="glyph288" unicode="&#x1ea7;" horiz-adv-x="915" 
d="M883 80c-48 -68.667 -103.334 -103 -166.001 -103c-66.667 0 -113 44 -139 132c-90 -80.667 -180.333 -121 -271 -121c-65.333 0 -120 18.667 -164 56c-47.333 39.333 -71 91 -71 155c0 104.667 61.333 191.334 184 260.001c70.667 40 178 78.667 322 116v136
c0 121.333 -54.667 182 -164 182c-97.333 0 -146 -32.667 -146 -98c0 -18 6.83301 -41.333 20.5 -70s20.5 -44.334 20.5 -47.001c0 -16 -20.667 -32 -62 -48c-36 -14.667 -64.333 -22 -85 -22c-38.667 0 -58 46.667 -58 140c0 78.667 46.667 138.667 140 180
c72.667 32.667 153.667 49 243 49c94 0 161.667 -17.667 203 -53c45.333 -38 68 -103 68 -195v-504c0 -58.667 13 -88 39 -88c26.667 0 55.334 9.66699 86.001 29v-86zM577.999 479c-209.333 -56.667 -314 -131 -314 -223c0 -38 14 -68.667 42 -92c26 -22 58.333 -33 97 -33
c64.667 0 123 30.667 175 92v256zM161.999 1087l232 349h118l232 -349h-58l-233 211l-233 -211h-58zM707.999 1450h-67l-330 205c-41.333 26 -62 54 -62 84c0 46.667 24.667 70 74 70c25.333 0 57.333 -20 96 -60z" />
    <glyph glyph-name="glyph289" unicode="&#x1ea8;" horiz-adv-x="1475" 
d="M483 702h379l-186 545zM55 0l-0.000976562 90.002c56.667 10.667 101.334 40.334 134.001 89.001c18.667 27.333 41 77.666 67 150.999l354 999c12.667 36 19 58.667 19 68c0 17.333 -7 35 -21 53h217l412 -1141c49.333 -136 112 -209 188 -219v-90h-557v90
c98.667 11.333 148 45.666 148 102.999c0 40.667 -16 108 -48 202l-71 193h-453l-56 -175c-21.333 -73.333 -32 -132.333 -32 -177c0 -74.667 51.333 -123.334 154 -146.001v-90h-455zM445.999 1517l232 349h118l232 -349h-58l-233 211l-233 -211h-58zM945.999 1815
c-34 -2 -52.3301 -3.00098 -54.9971 -3.00098c-8.66699 0 -14.334 19.667 -17.001 59c-0.666992 24.667 -1.66699 49.334 -3 74.001c53.333 16.667 86.666 28.667 99.999 36c40.667 20 61 45.333 61 76c0 32.667 -11.333 61.667 -34 87s-50.334 38 -83.001 38
c-7.33301 0 -18 -2 -32 -6s-24.333 -6 -31 -6c-22.667 0 -34 11.333 -34 34c0 36 25 54 75 54c62.667 0 119.667 -23.333 171 -70c53.333 -48.667 80 -104.334 80 -167.001c0 -43.333 -18.333 -74.666 -55 -93.999l-98 -38c-34 -15.333 -49 -40 -45 -74z" />
    <glyph glyph-name="glyph290" unicode="&#x1ea9;" horiz-adv-x="915" 
d="M883 80c-48 -68.667 -103.334 -103 -166.001 -103c-66.667 0 -113 44 -139 132c-90 -80.667 -180.333 -121 -271 -121c-65.333 0 -120 18.667 -164 56c-47.333 39.333 -71 91 -71 155c0 104.667 61.333 191.334 184 260.001c70.667 40 178 78.667 322 116v136
c0 121.333 -54.667 182 -164 182c-97.333 0 -146 -32.667 -146 -98c0 -18 6.83301 -41.333 20.5 -70s20.5 -44.334 20.5 -47.001c0 -16 -20.667 -32 -62 -48c-36 -14.667 -64.333 -22 -85 -22c-38.667 0 -58 46.667 -58 140c0 78.667 46.667 138.667 140 180
c72.667 32.667 153.667 49 243 49c94 0 161.667 -17.667 203 -53c45.333 -38 68 -103 68 -195v-504c0 -58.667 13 -88 39 -88c26.667 0 55.334 9.66699 86.001 29v-86zM577.999 479c-209.333 -56.667 -314 -131 -314 -223c0 -38 14 -68.667 42 -92c26 -22 58.333 -33 97 -33
c64.667 0 123 30.667 175 92v256zM161.999 1087l232 349h118l232 -349h-58l-233 211l-233 -211h-58zM661.999 1386c-34 -2 -52.3301 -3.00098 -54.9971 -3.00098c-8.66699 0 -14.334 19.667 -17.001 59c-0.666992 24.667 -1.66699 49.334 -3 74.001
c53.333 16.667 86.666 28.667 99.999 36c40.667 20 61 45.333 61 76c0 32.667 -11.333 61.667 -34 87s-50.334 38 -83.001 38c-7.33301 0 -18 -2 -32 -6s-24.333 -6 -31 -6c-22.667 0 -34 11.333 -34 34c0 36 25 54 75 54c62.667 0 119.667 -23.333 171 -70
c53.333 -48.667 80 -104.334 80 -167.001c0 -43.333 -18.333 -74.666 -55 -93.999l-98 -38c-34 -15.333 -49 -40 -45 -74z" />
    <glyph glyph-name="glyph291" unicode="&#x1eaa;" horiz-adv-x="1475" 
d="M483 702h379l-186 545zM55 0l-0.000976562 90.002c56.667 10.667 101.334 40.334 134.001 89.001c18.667 27.333 41 77.666 67 150.999l354 999c12.667 36 19 58.667 19 68c0 17.333 -7 35 -21 53h217l412 -1141c49.333 -136 112 -209 188 -219v-90h-557v90
c98.667 11.333 148 45.666 148 102.999c0 40.667 -16 108 -48 202l-71 193h-453l-56 -175c-21.333 -73.333 -32 -132.333 -32 -177c0 -74.667 51.333 -123.334 154 -146.001v-90h-455zM445.999 1517l232 349h118l232 -349h-58l-233 211l-233 -211h-58zM1098 2172
c-26.667 -136 -91.665 -204 -194.998 -204c-26.667 0 -65.334 7.5 -116.001 22.5s-89 22.5 -115 22.5c-46.667 0 -79 -30 -97 -90h-51c25.333 138.667 91 208 197 208c26.667 0 65.167 -7.5 115.5 -22.5s88.166 -22.5 113.499 -22.5c44.667 0 76 28.667 94 86h54z" />
    <glyph glyph-name="glyph292" unicode="&#x1eab;" horiz-adv-x="915" 
d="M883 80c-48 -68.667 -103.334 -103 -166.001 -103c-66.667 0 -113 44 -139 132c-90 -80.667 -180.333 -121 -271 -121c-65.333 0 -120 18.667 -164 56c-47.333 39.333 -71 91 -71 155c0 104.667 61.333 191.334 184 260.001c70.667 40 178 78.667 322 116v136
c0 121.333 -54.667 182 -164 182c-97.333 0 -146 -32.667 -146 -98c0 -18 6.83301 -41.333 20.5 -70s20.5 -44.334 20.5 -47.001c0 -16 -20.667 -32 -62 -48c-36 -14.667 -64.333 -22 -85 -22c-38.667 0 -58 46.667 -58 140c0 78.667 46.667 138.667 140 180
c72.667 32.667 153.667 49 243 49c94 0 161.667 -17.667 203 -53c45.333 -38 68 -103 68 -195v-504c0 -58.667 13 -88 39 -88c26.667 0 55.334 9.66699 86.001 29v-86zM577.999 479c-209.333 -56.667 -314 -131 -314 -223c0 -38 14 -68.667 42 -92c26 -22 58.333 -33 97 -33
c64.667 0 123 30.667 175 92v256zM161.999 1087l232 349h118l232 -349h-58l-233 211l-233 -211h-58zM812.999 1742c-26.667 -136 -91.665 -204 -194.998 -204c-26.667 0 -65.334 7.5 -116.001 22.5s-89 22.5 -115 22.5c-46.667 0 -79 -30 -97 -90h-51
c25.333 138.667 91 208 197 208c26.667 0 65.167 -7.5 115.5 -22.5s88.166 -22.5 113.499 -22.5c44.667 0 76 28.667 94 86h54z" />
    <glyph glyph-name="glyph293" unicode="&#x1eac;" horiz-adv-x="1475" 
d="M483 702h379l-186 545zM55 0l-0.000976562 90.002c56.667 10.667 101.334 40.334 134.001 89.001c18.667 27.333 41 77.666 67 150.999l354 999c12.667 36 19 58.667 19 68c0 17.333 -7 35 -21 53h217l412 -1141c49.333 -136 112 -209 188 -219v-90h-557v90
c98.667 11.333 148 45.666 148 102.999c0 40.667 -16 108 -48 202l-71 193h-453l-56 -175c-21.333 -73.333 -32 -132.333 -32 -177c0 -74.667 51.333 -123.334 154 -146.001v-90h-455zM445.999 1517l232 349h118l232 -349h-58l-233 211l-233 -211h-58zM584.999 -261.998
c0 36.667 12.667 67.667 38 93s56.333 38 93 38s67.667 -12.667 93 -38s38 -56.333 38 -93s-12.667 -68 -38 -94s-56.333 -39 -93 -39s-67.667 13 -93 39s-38 57.333 -38 94z" />
    <glyph glyph-name="glyph294" unicode="&#x1ead;" horiz-adv-x="915" 
d="M883 80c-48 -68.667 -103.334 -103 -166.001 -103c-66.667 0 -113 44 -139 132c-90 -80.667 -180.333 -121 -271 -121c-65.333 0 -120 18.667 -164 56c-47.333 39.333 -71 91 -71 155c0 104.667 61.333 191.334 184 260.001c70.667 40 178 78.667 322 116v136
c0 121.333 -54.667 182 -164 182c-97.333 0 -146 -32.667 -146 -98c0 -18 6.83301 -41.333 20.5 -70s20.5 -44.334 20.5 -47.001c0 -16 -20.667 -32 -62 -48c-36 -14.667 -64.333 -22 -85 -22c-38.667 0 -58 46.667 -58 140c0 78.667 46.667 138.667 140 180
c72.667 32.667 153.667 49 243 49c94 0 161.667 -17.667 203 -53c45.333 -38 68 -103 68 -195v-504c0 -58.667 13 -88 39 -88c26.667 0 55.334 9.66699 86.001 29v-86zM577.999 479c-209.333 -56.667 -314 -131 -314 -223c0 -38 14 -68.667 42 -92c26 -22 58.333 -33 97 -33
c64.667 0 123 30.667 175 92v256zM161.999 1087l232 349h118l232 -349h-58l-233 211l-233 -211h-58zM321.999 -262c0 36.667 12.667 67.667 38 93s56.333 38 93 38s67.667 -12.667 93 -38s38 -56.333 38 -93s-12.667 -68 -38 -94s-56.333 -39 -93 -39s-67.667 13 -93 39
s-38 57.333 -38 94z" />
    <glyph glyph-name="glyph295" unicode="&#x1eae;" horiz-adv-x="1475" 
d="M483 702h379l-186 545zM55 0l-0.000976562 90.002c56.667 10.667 101.334 40.334 134.001 89.001c18.667 27.333 41 77.666 67 150.999l354 999c12.667 36 19 58.667 19 68c0 17.333 -7 35 -21 53h217l412 -1141c49.333 -136 112 -209 188 -219v-90h-557v90
c98.667 11.333 148 45.666 148 102.999c0 40.667 -16 108 -48 202l-71 193h-453l-56 -175c-21.333 -73.333 -32 -132.333 -32 -177c0 -74.667 51.333 -123.334 154 -146.001v-90h-455zM445.999 1825h51.001c22 -94.667 102.667 -142 242 -142
c138.667 0 218.667 47.333 240 142h51c-27.333 -180.667 -124.333 -271 -291 -271s-264.334 90.333 -293.001 271zM604 1877l289 299c38.667 40 70.667 60 96 60c49.333 0 74 -23.333 74 -70c0 -30 -20.667 -58 -62 -84l-330 -205h-67z" />
    <glyph glyph-name="glyph296" unicode="&#x1eaf;" horiz-adv-x="915" 
d="M883 80c-48 -68.667 -103.334 -103 -166.001 -103c-66.667 0 -113 44 -139 132c-90 -80.667 -180.333 -121 -271 -121c-65.333 0 -120 18.667 -164 56c-47.333 39.333 -71 91 -71 155c0 104.667 61.333 191.334 184 260.001c70.667 40 178 78.667 322 116v136
c0 121.333 -54.667 182 -164 182c-97.333 0 -146 -32.667 -146 -98c0 -18 6.83301 -41.333 20.5 -70s20.5 -44.334 20.5 -47.001c0 -16 -20.667 -32 -62 -48c-36 -14.667 -64.333 -22 -85 -22c-38.667 0 -58 46.667 -58 140c0 78.667 46.667 138.667 140 180
c72.667 32.667 153.667 49 243 49c94 0 161.667 -17.667 203 -53c45.333 -38 68 -103 68 -195v-504c0 -58.667 13 -88 39 -88c26.667 0 55.334 9.66699 86.001 29v-86zM577.999 479c-209.333 -56.667 -314 -131 -314 -223c0 -38 14 -68.667 42 -92c26 -22 58.333 -33 97 -33
c64.667 0 123 30.667 175 92v256zM160.999 1400h51.001c22 -94.667 102.667 -142 242 -142c138.667 0 218.667 47.333 240 142h51c-27.333 -180.667 -124.333 -271 -291 -271s-264.334 90.333 -293.001 271zM319 1451l289 299c38.667 40 70.667 60 96 60
c49.333 0 74 -23.333 74 -70c0 -30 -20.667 -58 -62 -84l-330 -205h-67z" />
    <glyph glyph-name="glyph297" unicode="&#x1eb0;" horiz-adv-x="1475" 
d="M483 702h379l-186 545zM55 0l-0.000976562 90.002c56.667 10.667 101.334 40.334 134.001 89.001c18.667 27.333 41 77.666 67 150.999l354 999c12.667 36 19 58.667 19 68c0 17.333 -7 35 -21 53h217l412 -1141c49.333 -136 112 -209 188 -219v-90h-557v90
c98.667 11.333 148 45.666 148 102.999c0 40.667 -16 108 -48 202l-71 193h-453l-56 -175c-21.333 -73.333 -32 -132.333 -32 -177c0 -74.667 51.333 -123.334 154 -146.001v-90h-455zM445.999 1825h51.001c22 -94.667 102.667 -142 242 -142
c138.667 0 218.667 47.333 240 142h51c-27.333 -180.667 -124.333 -271 -291 -271s-264.334 90.333 -293.001 271zM874 1875h-67l-330 205c-41.333 26 -62 54 -62 84c0 46.667 24.667 70 74 70c25.333 0 57.333 -20 96 -60z" />
    <glyph glyph-name="glyph298" unicode="&#x1eb1;" horiz-adv-x="915" 
d="M883 80c-48 -68.667 -103.334 -103 -166.001 -103c-66.667 0 -113 44 -139 132c-90 -80.667 -180.333 -121 -271 -121c-65.333 0 -120 18.667 -164 56c-47.333 39.333 -71 91 -71 155c0 104.667 61.333 191.334 184 260.001c70.667 40 178 78.667 322 116v136
c0 121.333 -54.667 182 -164 182c-97.333 0 -146 -32.667 -146 -98c0 -18 6.83301 -41.333 20.5 -70s20.5 -44.334 20.5 -47.001c0 -16 -20.667 -32 -62 -48c-36 -14.667 -64.333 -22 -85 -22c-38.667 0 -58 46.667 -58 140c0 78.667 46.667 138.667 140 180
c72.667 32.667 153.667 49 243 49c94 0 161.667 -17.667 203 -53c45.333 -38 68 -103 68 -195v-504c0 -58.667 13 -88 39 -88c26.667 0 55.334 9.66699 86.001 29v-86zM577.999 479c-209.333 -56.667 -314 -131 -314 -223c0 -38 14 -68.667 42 -92c26 -22 58.333 -33 97 -33
c64.667 0 123 30.667 175 92v256zM160.999 1400h51.001c22 -94.667 102.667 -142 242 -142c138.667 0 218.667 47.333 240 142h51c-27.333 -180.667 -124.333 -271 -291 -271s-264.334 90.333 -293.001 271zM589 1450h-67l-330 205c-41.333 26 -62 54 -62 84
c0 46.667 24.667 70 74 70c25.333 0 57.333 -20 96 -60z" />
    <glyph glyph-name="glyph299" unicode="&#x1eb2;" horiz-adv-x="1475" 
d="M483 702h379l-186 545zM55 0l-0.000976562 90.002c56.667 10.667 101.334 40.334 134.001 89.001c18.667 27.333 41 77.666 67 150.999l354 999c12.667 36 19 58.667 19 68c0 17.333 -7 35 -21 53h217l412 -1141c49.333 -136 112 -209 188 -219v-90h-557v90
c98.667 11.333 148 45.666 148 102.999c0 40.667 -16 108 -48 202l-71 193h-453l-56 -175c-21.333 -73.333 -32 -132.333 -32 -177c0 -74.667 51.333 -123.334 154 -146.001v-90h-455zM445.999 1825h51.001c22 -94.667 102.667 -142 242 -142
c138.667 0 218.667 47.333 240 142h51c-27.333 -180.667 -124.333 -271 -291 -271s-264.334 90.333 -293.001 271zM724 1811c-34 -2 -52.3301 -3.00098 -54.9971 -3.00098c-8.66699 0 -14.334 19.667 -17.001 59c-0.666992 24.667 -1.66699 49.334 -3 74.001
c53.333 16.667 86.666 28.667 99.999 36c40.667 20 61 45.333 61 76c0 32.667 -11.333 61.667 -34 87s-50.334 38 -83.001 38c-7.33301 0 -18 -2 -32 -6s-24.333 -6 -31 -6c-22.667 0 -34 11.333 -34 34c0 36 25 54 75 54c62.667 0 119.667 -23.333 171 -70
c53.333 -48.667 80 -104.334 80 -167.001c0 -43.333 -18.333 -74.666 -55 -93.999l-98 -38c-34 -15.333 -49 -40 -45 -74z" />
    <glyph glyph-name="glyph300" unicode="&#x1eb3;" horiz-adv-x="915" 
d="M883 80c-48 -68.667 -103.334 -103 -166.001 -103c-66.667 0 -113 44 -139 132c-90 -80.667 -180.333 -121 -271 -121c-65.333 0 -120 18.667 -164 56c-47.333 39.333 -71 91 -71 155c0 104.667 61.333 191.334 184 260.001c70.667 40 178 78.667 322 116v136
c0 121.333 -54.667 182 -164 182c-97.333 0 -146 -32.667 -146 -98c0 -18 6.83301 -41.333 20.5 -70s20.5 -44.334 20.5 -47.001c0 -16 -20.667 -32 -62 -48c-36 -14.667 -64.333 -22 -85 -22c-38.667 0 -58 46.667 -58 140c0 78.667 46.667 138.667 140 180
c72.667 32.667 153.667 49 243 49c94 0 161.667 -17.667 203 -53c45.333 -38 68 -103 68 -195v-504c0 -58.667 13 -88 39 -88c26.667 0 55.334 9.66699 86.001 29v-86zM577.999 479c-209.333 -56.667 -314 -131 -314 -223c0 -38 14 -68.667 42 -92c26 -22 58.333 -33 97 -33
c64.667 0 123 30.667 175 92v256zM160.999 1400h51.001c22 -94.667 102.667 -142 242 -142c138.667 0 218.667 47.333 240 142h51c-27.333 -180.667 -124.333 -271 -291 -271s-264.334 90.333 -293.001 271zM439 1386c-34 -2 -52.3301 -3.00098 -54.9971 -3.00098
c-8.66699 0 -14.334 19.667 -17.001 59c-0.666992 24.667 -1.66699 49.334 -3 74.001c53.333 16.667 86.666 28.667 99.999 36c40.667 20 61 45.333 61 76c0 32.667 -11.333 61.667 -34 87s-50.334 38 -83.001 38c-7.33301 0 -18 -2 -32 -6s-24.333 -6 -31 -6
c-22.667 0 -34 11.333 -34 34c0 36 25 54 75 54c62.667 0 119.667 -23.333 171 -70c53.333 -48.667 80 -104.334 80 -167.001c0 -43.333 -18.333 -74.666 -55 -93.999l-98 -38c-34 -15.333 -49 -40 -45 -74z" />
    <glyph glyph-name="glyph301" unicode="&#x1eb4;" horiz-adv-x="1475" 
d="M483 702h379l-186 545zM55 0l-0.000976562 90.002c56.667 10.667 101.334 40.334 134.001 89.001c18.667 27.333 41 77.666 67 150.999l354 999c12.667 36 19 58.667 19 68c0 17.333 -7 35 -21 53h217l412 -1141c49.333 -136 112 -209 188 -219v-90h-557v90
c98.667 11.333 148 45.666 148 102.999c0 40.667 -16 108 -48 202l-71 193h-453l-56 -175c-21.333 -73.333 -32 -132.333 -32 -177c0 -74.667 51.333 -123.334 154 -146.001v-90h-455zM445.999 1825h51.001c22 -94.667 102.667 -142 242 -142
c138.667 0 218.667 47.333 240 142h51c-27.333 -180.667 -124.333 -271 -291 -271s-264.334 90.333 -293.001 271zM1098 2168c-26.667 -136 -91.665 -204 -194.998 -204c-26.667 0 -65.334 7.5 -116.001 22.5s-89 22.5 -115 22.5c-46.667 0 -79 -30 -97 -90h-51
c25.333 138.667 91 208 197 208c26.667 0 65.167 -7.5 115.5 -22.5s88.166 -22.5 113.499 -22.5c44.667 0 76 28.667 94 86h54z" />
    <glyph glyph-name="glyph302" unicode="&#x1eb5;" horiz-adv-x="915" 
d="M883 80c-48 -68.667 -103.334 -103 -166.001 -103c-66.667 0 -113 44 -139 132c-90 -80.667 -180.333 -121 -271 -121c-65.333 0 -120 18.667 -164 56c-47.333 39.333 -71 91 -71 155c0 104.667 61.333 191.334 184 260.001c70.667 40 178 78.667 322 116v136
c0 121.333 -54.667 182 -164 182c-97.333 0 -146 -32.667 -146 -98c0 -18 6.83301 -41.333 20.5 -70s20.5 -44.334 20.5 -47.001c0 -16 -20.667 -32 -62 -48c-36 -14.667 -64.333 -22 -85 -22c-38.667 0 -58 46.667 -58 140c0 78.667 46.667 138.667 140 180
c72.667 32.667 153.667 49 243 49c94 0 161.667 -17.667 203 -53c45.333 -38 68 -103 68 -195v-504c0 -58.667 13 -88 39 -88c26.667 0 55.334 9.66699 86.001 29v-86zM577.999 479c-209.333 -56.667 -314 -131 -314 -223c0 -38 14 -68.667 42 -92c26 -22 58.333 -33 97 -33
c64.667 0 123 30.667 175 92v256zM160.999 1400h51.001c22 -94.667 102.667 -142 242 -142c138.667 0 218.667 47.333 240 142h51c-27.333 -180.667 -124.333 -271 -291 -271s-264.334 90.333 -293.001 271zM813 1742c-26.667 -136 -91.665 -204 -194.998 -204
c-26.667 0 -65.334 7.5 -116.001 22.5s-89 22.5 -115 22.5c-46.667 0 -79 -30 -97 -90h-51c25.333 138.667 91 208 197 208c26.667 0 65.167 -7.5 115.5 -22.5s88.166 -22.5 113.499 -22.5c44.667 0 76 28.667 94 86h54z" />
    <glyph glyph-name="glyph303" unicode="&#x1eb6;" horiz-adv-x="1475" 
d="M483 702h379l-186 545zM55 0l-0.000976562 90.002c56.667 10.667 101.334 40.334 134.001 89.001c18.667 27.333 41 77.666 67 150.999l354 999c12.667 36 19 58.667 19 68c0 17.333 -7 35 -21 53h217l412 -1141c49.333 -136 112 -209 188 -219v-90h-557v90
c98.667 11.333 148 45.666 148 102.999c0 40.667 -16 108 -48 202l-71 193h-453l-56 -175c-21.333 -73.333 -32 -132.333 -32 -177c0 -74.667 51.333 -123.334 154 -146.001v-90h-455zM445.999 1825h51.001c22 -94.667 102.667 -142 242 -142
c138.667 0 218.667 47.333 240 142h51c-27.333 -180.667 -124.333 -271 -291 -271s-264.334 90.333 -293.001 271zM585 -261.998c0 36.667 12.667 67.667 38 93s56.333 38 93 38s67.667 -12.667 93 -38s38 -56.333 38 -93s-12.667 -68 -38 -94s-56.333 -39 -93 -39
s-67.667 13 -93 39s-38 57.333 -38 94z" />
    <glyph glyph-name="glyph304" unicode="&#x1eb7;" horiz-adv-x="915" 
d="M883 80c-48 -68.667 -103.334 -103 -166.001 -103c-66.667 0 -113 44 -139 132c-90 -80.667 -180.333 -121 -271 -121c-65.333 0 -120 18.667 -164 56c-47.333 39.333 -71 91 -71 155c0 104.667 61.333 191.334 184 260.001c70.667 40 178 78.667 322 116v136
c0 121.333 -54.667 182 -164 182c-97.333 0 -146 -32.667 -146 -98c0 -18 6.83301 -41.333 20.5 -70s20.5 -44.334 20.5 -47.001c0 -16 -20.667 -32 -62 -48c-36 -14.667 -64.333 -22 -85 -22c-38.667 0 -58 46.667 -58 140c0 78.667 46.667 138.667 140 180
c72.667 32.667 153.667 49 243 49c94 0 161.667 -17.667 203 -53c45.333 -38 68 -103 68 -195v-504c0 -58.667 13 -88 39 -88c26.667 0 55.334 9.66699 86.001 29v-86zM577.999 479c-209.333 -56.667 -314 -131 -314 -223c0 -38 14 -68.667 42 -92c26 -22 58.333 -33 97 -33
c64.667 0 123 30.667 175 92v256zM160.999 1400h51.001c22 -94.667 102.667 -142 242 -142c138.667 0 218.667 47.333 240 142h51c-27.333 -180.667 -124.333 -271 -291 -271s-264.334 90.333 -293.001 271zM322 -262c0 36.667 12.667 67.667 38 93s56.333 38 93 38
s67.667 -12.667 93 -38s38 -56.333 38 -93s-12.667 -68 -38 -94s-56.333 -39 -93 -39s-67.667 13 -93 39s-38 57.333 -38 94z" />
    <glyph glyph-name="glyph305" unicode="&#x1eb8;" horiz-adv-x="1352" 
d="M82 0v89.999c82 9.33301 136 28.833 162 58.5s39 85.834 39 168.501v830c0 82.667 -13 138.834 -39 168.501s-80 49.167 -162 58.5v76h1151l10 -307h-86c-26.667 94 -81.334 157.333 -164.001 190c-56 22 -142.667 33 -260 33h-147c-32 0 -52 -4.16699 -60 -12.5
s-12 -27.5 -12 -57.5v-481h164c103.333 0 174.333 8 213 24c65.333 26.667 98.666 83.334 99.999 170.001l88 1v-488l-88 1c-2 87.333 -35 144.666 -99 171.999c-40 17.333 -111.333 26 -214 26h-164v-422c0 -86.667 24 -145.334 72 -176.001
c36.667 -23.333 101.334 -35 194.001 -35c194.667 0 339.334 96.333 434.001 289l91 -23l-88 -354h-1135zM551 -262.001c0 36.667 12.667 67.667 38 93s56.333 38 93 38s67.667 -12.667 93 -38s38 -56.333 38 -93s-12.667 -68 -38 -94s-56.333 -39 -93 -39
s-67.667 13 -93 39s-38 57.333 -38 94z" />
    <glyph glyph-name="glyph306" unicode="&#x1eb9;" horiz-adv-x="909" 
d="M250 678h407c-4 61.333 -22.667 111 -56 149c-36 41.333 -84 62 -144 62c-104.667 0 -173.667 -70.333 -207 -211zM872 211c-104 -154 -228.667 -231.002 -374 -231.002c-134.667 0 -241 47.667 -319 143c-72.667 88.667 -109 202 -109 340
c0 136.667 36.333 254.334 109 353.001c80.667 108.667 187 163 319 163c107.333 0 197 -39 269 -117c67.333 -73.333 105.333 -164.666 114 -273.999h-535c-37.333 0 -58.333 -0.666992 -63 -2c-22 -4.66699 -33 -19 -33 -43c0 -96 26.667 -182.333 80 -259
c59.333 -86.667 135 -130 227 -130c88 0 175.333 37.333 262 112zM354 -262.002c0 36.667 12.667 67.667 38 93s56.333 38 93 38s67.667 -12.667 93 -38s38 -56.333 38 -93s-12.667 -68 -38 -94s-56.333 -39 -93 -39s-67.667 13 -93 39s-38 57.333 -38 94z" />
    <glyph glyph-name="glyph307" unicode="&#x1eba;" horiz-adv-x="1352" 
d="M82 0v89.999c82 9.33301 136 28.833 162 58.5s39 85.834 39 168.501v830c0 82.667 -13 138.834 -39 168.501s-80 49.167 -162 58.5v76h1151l10 -307h-86c-26.667 94 -81.334 157.333 -164.001 190c-56 22 -142.667 33 -260 33h-147c-32 0 -52 -4.16699 -60 -12.5
s-12 -27.5 -12 -57.5v-481h164c103.333 0 174.333 8 213 24c65.333 26.667 98.666 83.334 99.999 170.001l88 1v-488l-88 1c-2 87.333 -35 144.666 -99 171.999c-40 17.333 -111.333 26 -214 26h-164v-422c0 -86.667 24 -145.334 72 -176.001
c36.667 -23.333 101.334 -35 194.001 -35c194.667 0 339.334 96.333 434.001 289l91 -23l-88 -354h-1135zM686 1572c-34 -2 -52.3301 -3.00098 -54.9971 -3.00098c-8.66699 0 -14.334 19.667 -17.001 59c-0.666992 24.667 -1.66699 49.334 -3 74.001
c53.333 16.667 86.666 28.667 99.999 36c40.667 20 61 45.333 61 76c0 32.667 -11.333 61.667 -34 87s-50.334 38 -83.001 38c-7.33301 0 -18 -2 -32 -6s-24.333 -6 -31 -6c-22.667 0 -34 11.333 -34 34c0 36 25 54 75 54c62.667 0 119.667 -23.333 171 -70
c53.333 -48.667 80 -104.334 80 -167.001c0 -43.333 -18.333 -74.666 -55 -93.999l-98 -38c-34 -15.333 -49 -40 -45 -74z" />
    <glyph glyph-name="glyph308" unicode="&#x1ebb;" horiz-adv-x="909" 
d="M250 678h407c-4 61.333 -22.667 111 -56 149c-36 41.333 -84 62 -144 62c-104.667 0 -173.667 -70.333 -207 -211zM872 211c-104 -154 -228.667 -231.002 -374 -231.002c-134.667 0 -241 47.667 -319 143c-72.667 88.667 -109 202 -109 340
c0 136.667 36.333 254.334 109 353.001c80.667 108.667 187 163 319 163c107.333 0 197 -39 269 -117c67.333 -73.333 105.333 -164.666 114 -273.999h-535c-37.333 0 -58.333 -0.666992 -63 -2c-22 -4.66699 -33 -19 -33 -43c0 -96 26.667 -182.333 80 -259
c59.333 -86.667 135 -130 227 -130c88 0 175.333 37.333 262 112zM483 1082c-34 -2 -52.3301 -3.00098 -54.9971 -3.00098c-8.66699 0 -14.334 19.667 -17.001 59c-0.666992 24.667 -1.66699 49.334 -3 74.001c53.333 16.667 86.666 28.667 99.999 36
c40.667 20 61 45.333 61 76c0 32.667 -11.333 61.667 -34 87s-50.334 38 -83.001 38c-7.33301 0 -18 -2 -32 -6s-24.333 -6 -31 -6c-22.667 0 -34 11.333 -34 34c0 36 25 54 75 54c62.667 0 119.667 -23.333 171 -70c53.333 -48.667 80 -104.334 80 -167.001
c0 -43.333 -18.333 -74.666 -55 -93.999l-98 -38c-34 -15.333 -49 -40 -45 -74z" />
    <glyph glyph-name="glyph309" unicode="&#x1ebc;" horiz-adv-x="1352" 
d="M82 0v89.999c82 9.33301 136 28.833 162 58.5s39 85.834 39 168.501v830c0 82.667 -13 138.834 -39 168.501s-80 49.167 -162 58.5v76h1151l10 -307h-86c-26.667 94 -81.334 157.333 -164.001 190c-56 22 -142.667 33 -260 33h-147c-32 0 -52 -4.16699 -60 -12.5
s-12 -27.5 -12 -57.5v-481h164c103.333 0 174.333 8 213 24c65.333 26.667 98.666 83.334 99.999 170.001l88 1v-488l-88 1c-2 87.333 -35 144.666 -99 171.999c-40 17.333 -111.333 26 -214 26h-164v-422c0 -86.667 24 -145.334 72 -176.001
c36.667 -23.333 101.334 -35 194.001 -35c194.667 0 339.334 96.333 434.001 289l91 -23l-88 -354h-1135zM997 1886c-26.667 -136 -91.665 -204 -194.998 -204c-26.667 0 -65.334 7.5 -116.001 22.5s-89 22.5 -115 22.5c-46.667 0 -79 -30 -97 -90h-51
c25.333 138.667 91 208 197 208c26.667 0 65.167 -7.5 115.5 -22.5s88.166 -22.5 113.499 -22.5c44.667 0 76 28.667 94 86h54z" />
    <glyph glyph-name="glyph310" unicode="&#x1ebd;" horiz-adv-x="909" 
d="M250 678h407c-4 61.333 -22.667 111 -56 149c-36 41.333 -84 62 -144 62c-104.667 0 -173.667 -70.333 -207 -211zM872 211c-104 -154 -228.667 -231.002 -374 -231.002c-134.667 0 -241 47.667 -319 143c-72.667 88.667 -109 202 -109 340
c0 136.667 36.333 254.334 109 353.001c80.667 108.667 187 163 319 163c107.333 0 197 -39 269 -117c67.333 -73.333 105.333 -164.666 114 -273.999h-535c-37.333 0 -58.333 -0.666992 -63 -2c-22 -4.66699 -33 -19 -33 -43c0 -96 26.667 -182.333 80 -259
c59.333 -86.667 135 -130 227 -130c88 0 175.333 37.333 262 112zM791 1384c-26.667 -136 -91.665 -204 -194.998 -204c-26.667 0 -65.334 7.5 -116.001 22.5s-89 22.5 -115 22.5c-46.667 0 -79 -30 -97 -90h-51c25.333 138.667 91 208 197 208
c26.667 0 65.167 -7.5 115.5 -22.5s88.166 -22.5 113.499 -22.5c44.667 0 76 28.667 94 86h54z" />
    <glyph glyph-name="glyph311" unicode="&#x1ebe;" horiz-adv-x="1352" 
d="M82 0v89.999c82 9.33301 136 28.833 162 58.5s39 85.834 39 168.501v830c0 82.667 -13 138.834 -39 168.501s-80 49.167 -162 58.5v76h1151l10 -307h-86c-26.667 94 -81.334 157.333 -164.001 190c-56 22 -142.667 33 -260 33h-147c-32 0 -52 -4.16699 -60 -12.5
s-12 -27.5 -12 -57.5v-481h164c103.333 0 174.333 8 213 24c65.333 26.667 98.666 83.334 99.999 170.001l88 1v-488l-88 1c-2 87.333 -35 144.666 -99 171.999c-40 17.333 -111.333 26 -214 26h-164v-422c0 -86.667 24 -145.334 72 -176.001
c36.667 -23.333 101.334 -35 194.001 -35c194.667 0 339.334 96.333 434.001 289l91 -23l-88 -354h-1135zM386 1517l232 349h118l232 -349h-58l-233 211l-233 -211h-58zM433 1881l289 299c38.667 40 70.667 60 96 60c49.333 0 74 -23.333 74 -70c0 -30 -20.667 -58 -62 -84
l-330 -205h-67z" />
    <glyph glyph-name="glyph312" unicode="&#x1ebf;" horiz-adv-x="909" 
d="M250 678h407c-4 61.333 -22.667 111 -56 149c-36 41.333 -84 62 -144 62c-104.667 0 -173.667 -70.333 -207 -211zM872 211c-104 -154 -228.667 -231.002 -374 -231.002c-134.667 0 -241 47.667 -319 143c-72.667 88.667 -109 202 -109 340
c0 136.667 36.333 254.334 109 353.001c80.667 108.667 187 163 319 163c107.333 0 197 -39 269 -117c67.333 -73.333 105.333 -164.666 114 -273.999h-535c-37.333 0 -58.333 -0.666992 -63 -2c-22 -4.66699 -33 -19 -33 -43c0 -96 26.667 -182.333 80 -259
c59.333 -86.667 135 -130 227 -130c88 0 175.333 37.333 262 112zM192 1087l232 349h118l232 -349h-58l-233 211l-233 -211h-58zM238 1451l289 299c38.667 40 70.667 60 96 60c49.333 0 74 -23.333 74 -70c0 -30 -20.667 -58 -62 -84l-330 -205h-67z" />
    <glyph glyph-name="glyph313" unicode="&#x1ec0;" horiz-adv-x="1352" 
d="M82 0v89.999c82 9.33301 136 28.833 162 58.5s39 85.834 39 168.501v830c0 82.667 -13 138.834 -39 168.501s-80 49.167 -162 58.5v76h1151l10 -307h-86c-26.667 94 -81.334 157.333 -164.001 190c-56 22 -142.667 33 -260 33h-147c-32 0 -52 -4.16699 -60 -12.5
s-12 -27.5 -12 -57.5v-481h164c103.333 0 174.333 8 213 24c65.333 26.667 98.666 83.334 99.999 170.001l88 1v-488l-88 1c-2 87.333 -35 144.666 -99 171.999c-40 17.333 -111.333 26 -214 26h-164v-422c0 -86.667 24 -145.334 72 -176.001
c36.667 -23.333 101.334 -35 194.001 -35c194.667 0 339.334 96.333 434.001 289l91 -23l-88 -354h-1135zM386 1517l232 349h118l232 -349h-58l-233 211l-233 -211h-58zM932 1880h-67l-330 205c-41.333 26 -62 54 -62 84c0 46.667 24.667 70 74 70
c25.333 0 57.333 -20 96 -60z" />
    <glyph glyph-name="glyph314" unicode="&#x1ec1;" horiz-adv-x="909" 
d="M250 678h407c-4 61.333 -22.667 111 -56 149c-36 41.333 -84 62 -144 62c-104.667 0 -173.667 -70.333 -207 -211zM872 211c-104 -154 -228.667 -231.002 -374 -231.002c-134.667 0 -241 47.667 -319 143c-72.667 88.667 -109 202 -109 340
c0 136.667 36.333 254.334 109 353.001c80.667 108.667 187 163 319 163c107.333 0 197 -39 269 -117c67.333 -73.333 105.333 -164.666 114 -273.999h-535c-37.333 0 -58.333 -0.666992 -63 -2c-22 -4.66699 -33 -19 -33 -43c0 -96 26.667 -182.333 80 -259
c59.333 -86.667 135 -130 227 -130c88 0 175.333 37.333 262 112zM192 1087l232 349h118l232 -349h-58l-233 211l-233 -211h-58zM738 1450h-67l-330 205c-41.333 26 -62 54 -62 84c0 46.667 24.667 70 74 70c25.333 0 57.333 -20 96 -60z" />
    <glyph glyph-name="glyph315" unicode="&#x1ec2;" horiz-adv-x="1352" 
d="M82 0v89.999c82 9.33301 136 28.833 162 58.5s39 85.834 39 168.501v830c0 82.667 -13 138.834 -39 168.501s-80 49.167 -162 58.5v76h1151l10 -307h-86c-26.667 94 -81.334 157.333 -164.001 190c-56 22 -142.667 33 -260 33h-147c-32 0 -52 -4.16699 -60 -12.5
s-12 -27.5 -12 -57.5v-481h164c103.333 0 174.333 8 213 24c65.333 26.667 98.666 83.334 99.999 170.001l88 1v-488l-88 1c-2 87.333 -35 144.666 -99 171.999c-40 17.333 -111.333 26 -214 26h-164v-422c0 -86.667 24 -145.334 72 -176.001
c36.667 -23.333 101.334 -35 194.001 -35c194.667 0 339.334 96.333 434.001 289l91 -23l-88 -354h-1135zM386 1517l232 349h118l232 -349h-58l-233 211l-233 -211h-58zM885 1815c-34 -2 -52.3301 -3.00195 -54.9971 -3.00195c-8.66699 0 -14.334 19.667 -17.001 59
c-0.666992 24.667 -1.66699 49.334 -3 74.001c53.333 16.667 86.666 28.667 99.999 36c40.667 20 61 45.333 61 76c0 32.667 -11.333 61.667 -34 87s-50.334 38 -83.001 38c-7.33301 0 -18 -2 -32 -6s-24.333 -6 -31 -6c-22.667 0 -34 11.333 -34 34c0 36 25 54 75 54
c62.667 0 119.667 -23.333 171 -70c53.333 -48.667 80 -104.334 80 -167c0 -43.333 -18.333 -74.666 -55 -93.999l-98 -38c-34 -15.333 -49 -40 -45 -74z" />
    <glyph glyph-name="glyph316" unicode="&#x1ec3;" horiz-adv-x="909" 
d="M250 678h407c-4 61.333 -22.667 111 -56 149c-36 41.333 -84 62 -144 62c-104.667 0 -173.667 -70.333 -207 -211zM872 211c-104 -154 -228.667 -231.002 -374 -231.002c-134.667 0 -241 47.667 -319 143c-72.667 88.667 -109 202 -109 340
c0 136.667 36.333 254.334 109 353.001c80.667 108.667 187 163 319 163c107.333 0 197 -39 269 -117c67.333 -73.333 105.333 -164.666 114 -273.999h-535c-37.333 0 -58.333 -0.666992 -63 -2c-22 -4.66699 -33 -19 -33 -43c0 -96 26.667 -182.333 80 -259
c59.333 -86.667 135 -130 227 -130c88 0 175.333 37.333 262 112zM192 1087l232 349h118l232 -349h-58l-233 211l-233 -211h-58zM692 1386c-34 -2 -52.3301 -3.00098 -54.9971 -3.00098c-8.66699 0 -14.334 19.667 -17.001 59c-0.666992 24.667 -1.66699 49.334 -3 74.001
c53.333 16.667 86.666 28.667 99.999 36c40.667 20 61 45.333 61 76c0 32.667 -11.333 61.667 -34 87s-50.334 38 -83.001 38c-7.33301 0 -18 -2 -32 -6s-24.333 -6 -31 -6c-22.667 0 -34 11.333 -34 34c0 36 25 54 75 54c62.667 0 119.667 -23.333 171 -70
c53.333 -48.667 80 -104.334 80 -167.001c0 -43.333 -18.333 -74.666 -55 -93.999l-98 -38c-34 -15.333 -49 -40 -45 -74z" />
    <glyph glyph-name="glyph317" unicode="&#x1ec4;" horiz-adv-x="1352" 
d="M82 0v89.999c82 9.33301 136 28.833 162 58.5s39 85.834 39 168.501v830c0 82.667 -13 138.834 -39 168.501s-80 49.167 -162 58.5v76h1151l10 -307h-86c-26.667 94 -81.334 157.333 -164.001 190c-56 22 -142.667 33 -260 33h-147c-32 0 -52 -4.16699 -60 -12.5
s-12 -27.5 -12 -57.5v-481h164c103.333 0 174.333 8 213 24c65.333 26.667 98.666 83.334 99.999 170.001l88 1v-488l-88 1c-2 87.333 -35 144.666 -99 171.999c-40 17.333 -111.333 26 -214 26h-164v-422c0 -86.667 24 -145.334 72 -176.001
c36.667 -23.333 101.334 -35 194.001 -35c194.667 0 339.334 96.333 434.001 289l91 -23l-88 -354h-1135zM386 1517l232 349h118l232 -349h-58l-233 211l-233 -211h-58zM1037 2172c-26.667 -136 -91.665 -204 -194.998 -204c-26.667 0 -65.334 7.5 -116.001 22.5
s-89 22.5 -115 22.5c-46.667 0 -79 -30 -97 -90h-51c25.333 138.667 91 208 197 208c26.667 0 65.167 -7.5 115.5 -22.5s88.166 -22.5 113.499 -22.5c44.667 0 76 28.667 94 86h54z" />
    <glyph glyph-name="glyph318" unicode="&#x1ec5;" horiz-adv-x="909" 
d="M250 678h407c-4 61.333 -22.667 111 -56 149c-36 41.333 -84 62 -144 62c-104.667 0 -173.667 -70.333 -207 -211zM872 211c-104 -154 -228.667 -231.002 -374 -231.002c-134.667 0 -241 47.667 -319 143c-72.667 88.667 -109 202 -109 340
c0 136.667 36.333 254.334 109 353.001c80.667 108.667 187 163 319 163c107.333 0 197 -39 269 -117c67.333 -73.333 105.333 -164.666 114 -273.999h-535c-37.333 0 -58.333 -0.666992 -63 -2c-22 -4.66699 -33 -19 -33 -43c0 -96 26.667 -182.333 80 -259
c59.333 -86.667 135 -130 227 -130c88 0 175.333 37.333 262 112zM192 1087l232 349h118l232 -349h-58l-233 211l-233 -211h-58zM843 1742c-26.667 -136 -91.665 -204 -194.998 -204c-26.667 0 -65.334 7.5 -116.001 22.5s-89 22.5 -115 22.5c-46.667 0 -79 -30 -97 -90h-51
c25.333 138.667 91 208 197 208c26.667 0 65.167 -7.5 115.5 -22.5s88.166 -22.5 113.499 -22.5c44.667 0 76 28.667 94 86h54z" />
    <glyph glyph-name="glyph319" unicode="&#x1ec6;" horiz-adv-x="1352" 
d="M82 0v89.999c82 9.33301 136 28.833 162 58.5s39 85.834 39 168.501v830c0 82.667 -13 138.834 -39 168.501s-80 49.167 -162 58.5v76h1151l10 -307h-86c-26.667 94 -81.334 157.333 -164.001 190c-56 22 -142.667 33 -260 33h-147c-32 0 -52 -4.16699 -60 -12.5
s-12 -27.5 -12 -57.5v-481h164c103.333 0 174.333 8 213 24c65.333 26.667 98.666 83.334 99.999 170.001l88 1v-488l-88 1c-2 87.333 -35 144.666 -99 171.999c-40 17.333 -111.333 26 -214 26h-164v-422c0 -86.667 24 -145.334 72 -176.001
c36.667 -23.333 101.334 -35 194.001 -35c194.667 0 339.334 96.333 434.001 289l91 -23l-88 -354h-1135zM386 1517l232 349h118l232 -349h-58l-233 211l-233 -211h-58zM551 -262.001c0 36.667 12.667 67.667 38 93s56.333 38 93 38s67.667 -12.667 93 -38
s38 -56.333 38 -93s-12.667 -68 -38 -94s-56.333 -39 -93 -39s-67.667 13 -93 39s-38 57.333 -38 94z" />
    <glyph glyph-name="glyph320" unicode="&#x1ec7;" horiz-adv-x="909" 
d="M250 678h407c-4 61.333 -22.667 111 -56 149c-36 41.333 -84 62 -144 62c-104.667 0 -173.667 -70.333 -207 -211zM872 211c-104 -154 -228.667 -231.002 -374 -231.002c-134.667 0 -241 47.667 -319 143c-72.667 88.667 -109 202 -109 340
c0 136.667 36.333 254.334 109 353.001c80.667 108.667 187 163 319 163c107.333 0 197 -39 269 -117c67.333 -73.333 105.333 -164.666 114 -273.999h-535c-37.333 0 -58.333 -0.666992 -63 -2c-22 -4.66699 -33 -19 -33 -43c0 -96 26.667 -182.333 80 -259
c59.333 -86.667 135 -130 227 -130c88 0 175.333 37.333 262 112zM192 1087l232 349h118l232 -349h-58l-233 211l-233 -211h-58zM354 -262.002c0 36.667 12.667 67.667 38 93s56.333 38 93 38s67.667 -12.667 93 -38s38 -56.333 38 -93s-12.667 -68 -38 -94
s-56.333 -39 -93 -39s-67.667 13 -93 39s-38 57.333 -38 94z" />
    <glyph glyph-name="glyph321" unicode="&#x1ec8;" horiz-adv-x="797" 
d="M80 0v90.001c82 9.33301 136 28.833 162 58.5s39 85.834 39 168.501v818c0 82 -13 137.667 -39 167s-80 48.666 -162 57.999v90h635v-90c-82 -9.33301 -136 -28.5 -162 -57.5s-39 -84.833 -39 -167.5v-818c0 -82.667 13 -138.834 39 -168.501s80 -49.167 162 -58.5v-90
h-635zM400 1572c-34 -2 -52.3301 -3.00098 -54.9971 -3.00098c-8.66699 0 -14.334 19.667 -17.001 59c-0.666992 24.667 -1.66699 49.334 -3 74.001c53.333 16.667 86.666 28.667 99.999 36c40.667 20 61 45.333 61 76c0 32.667 -11.333 61.667 -34 87
s-50.334 38 -83.001 38c-7.33301 0 -18 -2 -32 -6s-24.333 -6 -31 -6c-22.667 0 -34 11.333 -34 34c0 36 25 54 75 54c62.667 0 119.667 -23.333 171 -70c53.333 -48.667 80 -104.334 80 -167.001c0 -43.333 -18.333 -74.666 -55 -93.999l-98 -38
c-34 -15.333 -49 -40 -45 -74z" />
    <glyph glyph-name="glyph322" unicode="&#x1ec9;" horiz-adv-x="631" 
d="M233 766l-136.999 64.999v56l275 90h51v-705c0 -62 7.33301 -104.667 22 -128c20 -31.333 60.333 -49.333 121 -54v-90h-481v90c59.333 2.66699 99.666 19.334 120.999 50.001c18.667 26 28 70 28 132v494zM306.001 1082c-34 -2 -52.3301 -3.00098 -54.9971 -3.00098
c-8.66699 0 -14.334 19.667 -17.001 59c-0.666992 24.667 -1.66699 49.334 -3 74.001c53.333 16.667 86.666 28.667 99.999 36c40.667 20 61 45.333 61 76c0 32.667 -11.333 61.667 -34 87s-50.334 38 -83.001 38c-7.33301 0 -18 -2 -32 -6s-24.333 -6 -31 -6
c-22.667 0 -34 11.333 -34 34c0 36 25 54 75 54c62.667 0 119.667 -23.333 171 -70c53.333 -48.667 80 -104.334 80 -167.001c0 -43.333 -18.333 -74.666 -55 -93.999l-98 -38c-34 -15.333 -49 -40 -45 -74z" />
    <glyph glyph-name="glyph323" unicode="&#x1eca;" horiz-adv-x="797" 
d="M80 0v90.001c82 9.33301 136 28.833 162 58.5s39 85.834 39 168.501v818c0 82 -13 137.667 -39 167s-80 48.666 -162 57.999v90h635v-90c-82 -9.33301 -136 -28.5 -162 -57.5s-39 -84.833 -39 -167.5v-818c0 -82.667 13 -138.834 39 -168.501s80 -49.167 162 -58.5v-90
h-635zM272 -261.999c0 36.667 12.667 67.667 38 93s56.333 38 93 38s67.667 -12.667 93 -38s38 -56.333 38 -93s-12.667 -68 -38 -94s-56.333 -39 -93 -39s-67.667 13 -93 39s-38 57.333 -38 94z" />
    <glyph glyph-name="glyph324" unicode="&#x1ecb;" horiz-adv-x="631" 
d="M211 1364c0 32.667 11.333 60.667 34 84s50.334 35 83.001 35s60.167 -11.667 82.5 -35s33.5 -51.333 33.5 -84s-11.167 -60.334 -33.5 -83.001s-49.833 -34 -82.5 -34s-60.334 11.333 -83.001 34s-34 50.334 -34 83.001zM233 766l-136.999 64.999v56l275 90h51v-705
c0 -62 7.33301 -104.667 22 -128c20 -31.333 60.333 -49.333 121 -54v-90h-481v90c59.333 2.66699 99.666 19.334 120.999 50.001c18.667 26 28 70 28 132v494zM189.001 -262.001c0 36.667 12.667 67.667 38 93s56.333 38 93 38s67.667 -12.667 93 -38s38 -56.333 38 -93
s-12.667 -68 -38 -94s-56.333 -39 -93 -39s-67.667 13 -93 39s-38 57.333 -38 94z" />
    <glyph glyph-name="glyph325" unicode="&#x1ecc;" horiz-adv-x="1571" 
d="M336 778c0 -183.333 31.333 -338.666 94 -465.999c81.333 -166 204.333 -249 369 -249c158 0 274.667 70 350 210c58.667 110 88 251 88 423c0 176.667 -34 328.667 -102 456c-84.667 159.333 -207.667 239 -369 239c-153.333 0 -267.333 -67.667 -342 -203
c-58.667 -106.667 -88 -243.334 -88 -410.001zM782 -29c-207.333 0 -376.999 72.333 -508.999 217c-127.333 140.667 -191 315.667 -191 525c0 214 65 393.667 195 539c135.333 151.333 308.666 227 519.999 227c200 0 366.667 -73.667 500 -221
c128 -142.667 192 -315 192 -517c0 -209.333 -65 -388.333 -195 -537c-135.333 -155.333 -306 -233 -512 -233zM656.001 -262c0 36.667 12.667 67.667 38 93s56.333 38 93 38s67.667 -12.667 93 -38s38 -56.333 38 -93s-12.667 -68 -38 -94s-56.333 -39 -93 -39
s-67.667 13 -93 39s-38 57.333 -38 94z" />
    <glyph glyph-name="glyph326" unicode="&#x1ecd;" horiz-adv-x="1042" 
d="M274 559c0 -114.667 17.333 -217.667 52 -309c48 -126 119.667 -189 215 -189c151.333 0 227 113.333 227 340c0 116.667 -17.333 219.667 -52 309c-47.333 123.333 -120 185 -218 185c-149.333 0 -224 -112 -224 -336zM522 -18c-134 0 -243.666 49.333 -328.999 148
c-82 94 -123 209 -123 345c0 140 39.667 257 119 351c84 99.333 195 149 333 149c134.667 0 244.667 -50 330 -150c80.667 -94.667 121 -210.667 121 -348c0 -139.333 -39.667 -255.333 -119 -348c-84.667 -98 -195.334 -147 -332.001 -147zM399.001 -262
c0 36.667 12.667 67.667 38 93s56.333 38 93 38s67.667 -12.667 93 -38s38 -56.333 38 -93s-12.667 -68 -38 -94s-56.333 -39 -93 -39s-67.667 13 -93 39s-38 57.333 -38 94z" />
    <glyph glyph-name="glyph327" unicode="&#x1ece;" horiz-adv-x="1571" 
d="M336 778c0 -183.333 31.333 -338.666 94 -465.999c81.333 -166 204.333 -249 369 -249c158 0 274.667 70 350 210c58.667 110 88 251 88 423c0 176.667 -34 328.667 -102 456c-84.667 159.333 -207.667 239 -369 239c-153.333 0 -267.333 -67.667 -342 -203
c-58.667 -106.667 -88 -243.334 -88 -410.001zM782 -29c-207.333 0 -376.999 72.333 -508.999 217c-127.333 140.667 -191 315.667 -191 525c0 214 65 393.667 195 539c135.333 151.333 308.666 227 519.999 227c200 0 366.667 -73.667 500 -221
c128 -142.667 192 -315 192 -517c0 -209.333 -65 -388.333 -195 -537c-135.333 -155.333 -306 -233 -512 -233zM796.001 1572c-34 -2 -52.3301 -3.00098 -54.9971 -3.00098c-8.66699 0 -14.334 19.667 -17.001 59c-0.666992 24.667 -1.66699 49.334 -3 74.001
c53.333 16.667 86.666 28.667 99.999 36c40.667 20 61 45.333 61 76c0 32.667 -11.333 61.667 -34 87s-50.334 38 -83.001 38c-7.33301 0 -18 -2 -32 -6s-24.333 -6 -31 -6c-22.667 0 -34 11.333 -34 34c0 36 25 54 75 54c62.667 0 119.667 -23.333 171 -70
c53.333 -48.667 80 -104.334 80 -167.001c0 -43.333 -18.333 -74.666 -55 -93.999l-98 -38c-34 -15.333 -49 -40 -45 -74z" />
    <glyph glyph-name="glyph328" unicode="&#x1ecf;" horiz-adv-x="1042" 
d="M274 559c0 -114.667 17.333 -217.667 52 -309c48 -126 119.667 -189 215 -189c151.333 0 227 113.333 227 340c0 116.667 -17.333 219.667 -52 309c-47.333 123.333 -120 185 -218 185c-149.333 0 -224 -112 -224 -336zM522 -18c-134 0 -243.666 49.333 -328.999 148
c-82 94 -123 209 -123 345c0 140 39.667 257 119 351c84 99.333 195 149 333 149c134.667 0 244.667 -50 330 -150c80.667 -94.667 121 -210.667 121 -348c0 -139.333 -39.667 -255.333 -119 -348c-84.667 -98 -195.334 -147 -332.001 -147zM526.001 1082
c-34 -2 -52.3301 -3.00098 -54.9971 -3.00098c-8.66699 0 -14.334 19.667 -17.001 59c-0.666992 24.667 -1.66699 49.334 -3 74.001c53.333 16.667 86.666 28.667 99.999 36c40.667 20 61 45.333 61 76c0 32.667 -11.333 61.667 -34 87s-50.334 38 -83.001 38
c-7.33301 0 -18 -2 -32 -6s-24.333 -6 -31 -6c-22.667 0 -34 11.333 -34 34c0 36 25 54 75 54c62.667 0 119.667 -23.333 171 -70c53.333 -48.667 80 -104.334 80 -167.001c0 -43.333 -18.333 -74.666 -55 -93.999l-98 -38c-34 -15.333 -49 -40 -45 -74z" />
    <glyph glyph-name="glyph329" unicode="&#x1ed0;" horiz-adv-x="1571" 
d="M336 778c0 -183.333 31.333 -338.666 94 -465.999c81.333 -166 204.333 -249 369 -249c158 0 274.667 70 350 210c58.667 110 88 251 88 423c0 176.667 -34 328.667 -102 456c-84.667 159.333 -207.667 239 -369 239c-153.333 0 -267.333 -67.667 -342 -203
c-58.667 -106.667 -88 -243.334 -88 -410.001zM782 -29c-207.333 0 -376.999 72.333 -508.999 217c-127.333 140.667 -191 315.667 -191 525c0 214 65 393.667 195 539c135.333 151.333 308.666 227 519.999 227c200 0 366.667 -73.667 500 -221
c128 -142.667 192 -315 192 -517c0 -209.333 -65 -388.333 -195 -537c-135.333 -155.333 -306 -233 -512 -233zM496.001 1517l232 349h118l232 -349h-58l-233 211l-233 -211h-58zM542.001 1882l289 299c38.667 40 70.667 60 96 60c49.333 0 74 -23.333 74 -70
c0 -30 -20.667 -58 -62 -84l-330 -205h-67z" />
    <glyph glyph-name="glyph330" unicode="&#x1ed1;" horiz-adv-x="1042" 
d="M274 559c0 -114.667 17.333 -217.667 52 -309c48 -126 119.667 -189 215 -189c151.333 0 227 113.333 227 340c0 116.667 -17.333 219.667 -52 309c-47.333 123.333 -120 185 -218 185c-149.333 0 -224 -112 -224 -336zM522 -18c-134 0 -243.666 49.333 -328.999 148
c-82 94 -123 209 -123 345c0 140 39.667 257 119 351c84 99.333 195 149 333 149c134.667 0 244.667 -50 330 -150c80.667 -94.667 121 -210.667 121 -348c0 -139.333 -39.667 -255.333 -119 -348c-84.667 -98 -195.334 -147 -332.001 -147zM231.001 1087l232 349h118
l232 -349h-58l-233 211l-233 -211h-58zM277.001 1451l289 299c38.667 40 70.667 60 96 60c49.333 0 74 -23.333 74 -70c0 -30 -20.667 -58 -62 -84l-330 -205h-67z" />
    <glyph glyph-name="glyph331" unicode="&#x1ed2;" horiz-adv-x="1571" 
d="M336 778c0 -183.333 31.333 -338.666 94 -465.999c81.333 -166 204.333 -249 369 -249c158 0 274.667 70 350 210c58.667 110 88 251 88 423c0 176.667 -34 328.667 -102 456c-84.667 159.333 -207.667 239 -369 239c-153.333 0 -267.333 -67.667 -342 -203
c-58.667 -106.667 -88 -243.334 -88 -410.001zM782 -29c-207.333 0 -376.999 72.333 -508.999 217c-127.333 140.667 -191 315.667 -191 525c0 214 65 393.667 195 539c135.333 151.333 308.666 227 519.999 227c200 0 366.667 -73.667 500 -221
c128 -142.667 192 -315 192 -517c0 -209.333 -65 -388.333 -195 -537c-135.333 -155.333 -306 -233 -512 -233zM496.001 1517l232 349h118l232 -349h-58l-233 211l-233 -211h-58zM1043 1880h-67l-330 205c-41.333 26 -62 54 -62 84c0 46.667 24.667 70 74 70
c25.333 0 57.333 -20 96 -60z" />
    <glyph glyph-name="glyph332" unicode="&#x1ed3;" horiz-adv-x="1042" 
d="M274 559c0 -114.667 17.333 -217.667 52 -309c48 -126 119.667 -189 215 -189c151.333 0 227 113.333 227 340c0 116.667 -17.333 219.667 -52 309c-47.333 123.333 -120 185 -218 185c-149.333 0 -224 -112 -224 -336zM522 -18c-134 0 -243.666 49.333 -328.999 148
c-82 94 -123 209 -123 345c0 140 39.667 257 119 351c84 99.333 195 149 333 149c134.667 0 244.667 -50 330 -150c80.667 -94.667 121 -210.667 121 -348c0 -139.333 -39.667 -255.333 -119 -348c-84.667 -98 -195.334 -147 -332.001 -147zM231.001 1087l232 349h118
l232 -349h-58l-233 211l-233 -211h-58zM777.001 1450h-67l-330 205c-41.333 26 -62 54 -62 84c0 46.667 24.667 70 74 70c25.333 0 57.333 -20 96 -60z" />
    <glyph glyph-name="glyph333" unicode="&#x1ed4;" horiz-adv-x="1571" 
d="M336 778c0 -183.333 31.333 -338.666 94 -465.999c81.333 -166 204.333 -249 369 -249c158 0 274.667 70 350 210c58.667 110 88 251 88 423c0 176.667 -34 328.667 -102 456c-84.667 159.333 -207.667 239 -369 239c-153.333 0 -267.333 -67.667 -342 -203
c-58.667 -106.667 -88 -243.334 -88 -410.001zM782 -29c-207.333 0 -376.999 72.333 -508.999 217c-127.333 140.667 -191 315.667 -191 525c0 214 65 393.667 195 539c135.333 151.333 308.666 227 519.999 227c200 0 366.667 -73.667 500 -221
c128 -142.667 192 -315 192 -517c0 -209.333 -65 -388.333 -195 -537c-135.333 -155.333 -306 -233 -512 -233zM496.001 1517l232 349h118l232 -349h-58l-233 211l-233 -211h-58zM996.001 1815c-34 -2 -52.3301 -3.00098 -54.9971 -3.00098
c-8.66699 0 -14.334 19.667 -17.001 59c-0.666992 24.667 -1.66699 49.334 -3 74.001c53.333 16.667 86.666 28.667 99.999 36c40.667 20 61 45.333 61 76c0 32.667 -11.333 61.667 -34 87s-50.334 38 -83.001 38c-7.33301 0 -18 -2 -32 -6s-24.333 -6 -31 -6
c-22.667 0 -34 11.333 -34 34c0 36 25 54 75 54c62.667 0 119.667 -23.333 171 -70c53.333 -48.667 80 -104.334 80 -167.001c0 -43.333 -18.333 -74.666 -55 -93.999l-98 -38c-34 -15.333 -49 -40 -45 -74z" />
    <glyph glyph-name="glyph334" unicode="&#x1ed5;" horiz-adv-x="1042" 
d="M274 559c0 -114.667 17.333 -217.667 52 -309c48 -126 119.667 -189 215 -189c151.333 0 227 113.333 227 340c0 116.667 -17.333 219.667 -52 309c-47.333 123.333 -120 185 -218 185c-149.333 0 -224 -112 -224 -336zM522 -18c-134 0 -243.666 49.333 -328.999 148
c-82 94 -123 209 -123 345c0 140 39.667 257 119 351c84 99.333 195 149 333 149c134.667 0 244.667 -50 330 -150c80.667 -94.667 121 -210.667 121 -348c0 -139.333 -39.667 -255.333 -119 -348c-84.667 -98 -195.334 -147 -332.001 -147zM231.001 1087l232 349h118
l232 -349h-58l-233 211l-233 -211h-58zM731.001 1386c-34 -2 -52.3301 -3.00098 -54.9971 -3.00098c-8.66699 0 -14.334 19.667 -17.001 59c-0.666992 24.667 -1.66699 49.334 -3 74.001c53.333 16.667 86.666 28.667 99.999 36c40.667 20 61 45.333 61 76
c0 32.667 -11.333 61.667 -34 87s-50.334 38 -83.001 38c-7.33301 0 -18 -2 -32 -6s-24.333 -6 -31 -6c-22.667 0 -34 11.333 -34 34c0 36 25 54 75 54c62.667 0 119.667 -23.333 171 -70c53.333 -48.667 80 -104.334 80 -167.001c0 -43.333 -18.333 -74.666 -55 -93.999
l-98 -38c-34 -15.333 -49 -40 -45 -74z" />
    <glyph glyph-name="glyph335" unicode="&#x1ed6;" horiz-adv-x="1571" 
d="M336 778c0 -183.333 31.333 -338.666 94 -465.999c81.333 -166 204.333 -249 369 -249c158 0 274.667 70 350 210c58.667 110 88 251 88 423c0 176.667 -34 328.667 -102 456c-84.667 159.333 -207.667 239 -369 239c-153.333 0 -267.333 -67.667 -342 -203
c-58.667 -106.667 -88 -243.334 -88 -410.001zM782 -29c-207.333 0 -376.999 72.333 -508.999 217c-127.333 140.667 -191 315.667 -191 525c0 214 65 393.667 195 539c135.333 151.333 308.666 227 519.999 227c200 0 366.667 -73.667 500 -221
c128 -142.667 192 -315 192 -517c0 -209.333 -65 -388.333 -195 -537c-135.333 -155.333 -306 -233 -512 -233zM496.001 1517l232 349h118l232 -349h-58l-233 211l-233 -211h-58zM1148 2172c-26.667 -136 -91.665 -204 -194.998 -204c-26.667 0 -65.334 7.5 -116.001 22.5
s-89 22.5 -115 22.5c-46.667 0 -79 -30 -97 -90h-51c25.333 138.667 91 208 197 208c26.667 0 65.167 -7.5 115.5 -22.5s88.166 -22.5 113.499 -22.5c44.667 0 76 28.667 94 86h54z" />
    <glyph glyph-name="glyph336" unicode="&#x1ed7;" horiz-adv-x="1042" 
d="M274 559c0 -114.667 17.333 -217.667 52 -309c48 -126 119.667 -189 215 -189c151.333 0 227 113.333 227 340c0 116.667 -17.333 219.667 -52 309c-47.333 123.333 -120 185 -218 185c-149.333 0 -224 -112 -224 -336zM522 -18c-134 0 -243.666 49.333 -328.999 148
c-82 94 -123 209 -123 345c0 140 39.667 257 119 351c84 99.333 195 149 333 149c134.667 0 244.667 -50 330 -150c80.667 -94.667 121 -210.667 121 -348c0 -139.333 -39.667 -255.333 -119 -348c-84.667 -98 -195.334 -147 -332.001 -147zM231.001 1087l232 349h118
l232 -349h-58l-233 211l-233 -211h-58zM882.001 1742c-26.667 -136 -91.665 -204 -194.998 -204c-26.667 0 -65.334 7.5 -116.001 22.5s-89 22.5 -115 22.5c-46.667 0 -79 -30 -97 -90h-51c25.333 138.667 91 208 197 208c26.667 0 65.167 -7.5 115.5 -22.5
s88.166 -22.5 113.499 -22.5c44.667 0 76 28.667 94 86h54z" />
    <glyph glyph-name="glyph337" unicode="&#x1ed8;" horiz-adv-x="1571" 
d="M336 778c0 -183.333 31.333 -338.666 94 -465.999c81.333 -166 204.333 -249 369 -249c158 0 274.667 70 350 210c58.667 110 88 251 88 423c0 176.667 -34 328.667 -102 456c-84.667 159.333 -207.667 239 -369 239c-153.333 0 -267.333 -67.667 -342 -203
c-58.667 -106.667 -88 -243.334 -88 -410.001zM782 -29c-207.333 0 -376.999 72.333 -508.999 217c-127.333 140.667 -191 315.667 -191 525c0 214 65 393.667 195 539c135.333 151.333 308.666 227 519.999 227c200 0 366.667 -73.667 500 -221
c128 -142.667 192 -315 192 -517c0 -209.333 -65 -388.333 -195 -537c-135.333 -155.333 -306 -233 -512 -233zM496.001 1517l232 349h118l232 -349h-58l-233 211l-233 -211h-58zM656.001 -262c0 36.667 12.667 67.667 38 93s56.333 38 93 38s67.667 -12.667 93 -38
s38 -56.333 38 -93s-12.667 -68 -38 -94s-56.333 -39 -93 -39s-67.667 13 -93 39s-38 57.333 -38 94z" />
    <glyph glyph-name="glyph338" unicode="&#x1ed9;" horiz-adv-x="1042" 
d="M274 559c0 -114.667 17.333 -217.667 52 -309c48 -126 119.667 -189 215 -189c151.333 0 227 113.333 227 340c0 116.667 -17.333 219.667 -52 309c-47.333 123.333 -120 185 -218 185c-149.333 0 -224 -112 -224 -336zM522 -18c-134 0 -243.666 49.333 -328.999 148
c-82 94 -123 209 -123 345c0 140 39.667 257 119 351c84 99.333 195 149 333 149c134.667 0 244.667 -50 330 -150c80.667 -94.667 121 -210.667 121 -348c0 -139.333 -39.667 -255.333 -119 -348c-84.667 -98 -195.334 -147 -332.001 -147zM231.001 1087l232 349h118
l232 -349h-58l-233 211l-233 -211h-58zM399.001 -262c0 36.667 12.667 67.667 38 93s56.333 38 93 38s67.667 -12.667 93 -38s38 -56.333 38 -93s-12.667 -68 -38 -94s-56.333 -39 -93 -39s-67.667 13 -93 39s-38 57.333 -38 94z" />
    </font>
</defs>
</svg>
