<?xml version="1.0" standalone="no"?>
<!DOCTYPE svg PUBLIC "-//W3C//DTD SVG 1.1//EN" "http://www.w3.org/Graphics/SVG/1.1/DTD/svg11.dtd" >
<svg>
<metadata>
Created by FontForge 20090914 at Mon Jul  6 06:48:15 2020
 By www-data
(c) Copyright 2001 by Tom Truong. All Rights Reserved
</metadata>
<defs>
<font id="UVNAnhHaiBold" horiz-adv-x="1024" >
  <font-face 
    font-family="UVN Anh Hai"
    font-weight="700"
    font-stretch="normal"
    units-per-em="2048"
    panose-1="2 4 8 3 5 5 6 2 4 3"
    ascent="1638"
    descent="-410"
    x-height="957.998"
    cap-height="1450"
    bbox="-342 -483 2347 2301"
    underline-thickness="186"
    underline-position="-102"
    unicode-range="U+0020-U+F002"
  />
<missing-glyph 
d="M128 0v2300h768v-2300h-768zM256 128h512v2044h-512v-2044z" />
    <glyph glyph-name=".notdef" 
d="M128 0v2300h768v-2300h-768zM256 128h512v2044h-512v-2044z" />
    <glyph glyph-name="space" unicode=" " horiz-adv-x="512" 
 />
    <glyph glyph-name="exclam" unicode="!" horiz-adv-x="688" 
d="M270 442l-57.001 896.999c-1.33301 20.667 -2 32.334 -2 35.001c0 48.667 12 82 36 100c20.667 15.333 55.667 23 105 23c48.667 0 83.334 -7.66699 104.001 -23c25.333 -18 38 -50.667 38 -98c0 -8 -0.666992 -20 -2 -36l-76 -898h-146zM179.999 142.999
c0 46.667 15.667 86 47 118s70.333 48 117 48c46 0 84.833 -16.167 116.5 -48.5s47.5 -71.5 47.5 -117.5c0 -45.333 -16 -83.833 -48 -115.5s-70.667 -47.5 -116 -47.5c-46 0 -84.833 15.667 -116.5 47s-47.5 70 -47.5 116z" />
    <glyph glyph-name="quotedbl" unicode="&#x22;" horiz-adv-x="707" 
d="M543 852l-41 0.000976562l-80 461c-2.66699 15.333 -4 27.666 -4 36.999c0 76 34.667 114 104 114c70 0 105 -36.667 105 -110c0 -12 -1.33301 -25.667 -4 -41zM203 852.001h-41l-80 461c-1.33301 8 -2 20.333 -2 37c0 76 34 114 102 114c68.667 0 103 -36.667 103 -110
c0 -19.333 -0.666992 -33 -2 -41z" />
    <glyph glyph-name="numbersign" unicode="#" horiz-adv-x="1575" 
d="M705 852l-91 -252h265l88 252h-262zM711 1464h215l-148 -415h254l150 415h213l-148 -415h283l-74 -199h-278l-88 -248h292l-71 -196h-291l-148 -416h-215l148 416h-254l-150 -416h-215l148 416h-289l74 196h287l88 248h-304l74 199h299z" />
    <glyph glyph-name="dollar" unicode="$" 
d="M449 928v388.999c-109.333 -35.333 -164 -96.666 -164 -183.999c0 -84 54.667 -152.333 164 -205zM557 -281.001l-108.001 -0.000976562v256c-89.333 8 -167 27.333 -233 58c-92 42 -138 99.333 -138 172c0 26.667 9.33301 49 28 67s41.334 27 68.001 27
c35.333 0 64.666 -17 87.999 -51l63 -95c30.667 -34.667 71.667 -53 123 -55l1 510c-238 99.333 -357 239.333 -357 420c0 106 33.667 195.667 101 269c64.667 71.333 150 116.333 256 135v174h108v-168c79.333 -2.66699 153.333 -22.667 222 -60
c84 -46 126 -104.667 126 -176c0 -28 -8.5 -52 -25.5 -72s-39.167 -30 -66.5 -30c-34.667 0 -60.167 16.333 -76.5 49l-49.5 97c-27.333 38 -70.666 61.667 -129.999 71v-440c259.333 -109.333 389 -261.666 389 -456.999c0 -120 -35 -219.333 -105 -298
s-164.667 -127.667 -284 -147v-256zM556.999 108.998c128.667 24.667 193 95.667 193 213c0 104.667 -64.333 183 -193 235v-448z" />
    <glyph glyph-name="percent" unicode="%" horiz-adv-x="1616" 
d="M1262 692c-68.667 0 -103 -103 -103 -309c0 -207.333 34.333 -311 103 -311c68 0 102 103.667 102 311c0 206 -34 309 -102 309zM1577 371c0 -248.667 -105.667 -373 -317 -373c-209.333 0 -314 127.667 -314 383c0 254 105.333 381 316 381c210 0 315 -130.333 315 -391
zM670 1022c0 -248.667 -105.333 -373 -316 -373c-210 0 -315 127.667 -315 383c0 254 105.667 381 317 381c209.333 0 314 -130.333 314 -391zM354 1343c-68 0 -102 -103.667 -102 -311s34 -311 102 -311c68.667 0 103 103.667 103 311s-34.333 311 -103 311zM272 -25
l914 1463h151l-913 -1463h-152z" />
    <glyph glyph-name="ampersand" unicode="&#x26;" horiz-adv-x="1825" 
d="M979 254l-334 487.001c-113.333 -92.667 -170 -188.667 -170 -288c0 -74.667 25 -141.334 75 -200.001c52.667 -62 115.667 -93 189 -93c63.333 0 143.333 31.333 240 94zM809 1036c66.667 60 100 114 100 162c0 39.333 -15.333 74.5 -46 105.5s-65.667 46.5 -105 46.5
c-26 0 -48.167 -8.5 -66.5 -25.5s-27.5 -38.5 -27.5 -64.5c0 -48 48.333 -122.667 145 -224zM1655 0.000976562c-111.333 -22 -194 -33.002 -248 -33.002c-139.333 0 -253.333 58 -342 174c-146 -114.667 -298.333 -172 -457 -172c-118 0 -217 30.667 -297 92
c-87.333 67.333 -131 158.333 -131 273c0 158 128.333 329.333 385 514c-91.333 132.667 -137 236.334 -137 311.001c0 84 43.667 159.667 131 227c81.333 63.333 165.333 95 252 95c75.333 0 140.666 -24.333 195.999 -73c58 -50 87 -112.333 87 -187
c0 -51.333 -26 -104 -78 -158c-22.667 -23.333 -70 -62.333 -142 -117c154.667 -197.333 265.334 -359 332.001 -485c102.667 126.667 154 225.667 154 297c0 44.667 -41 67 -123 67v99h418v-99c-63.333 -23.333 -125.333 -88.666 -186 -195.999
c-55.333 -98 -118.333 -193 -189 -285c35.333 -85.333 84 -146 146 -182c56.667 -32.667 133 -49 229 -49v-113z" />
    <glyph glyph-name="quotesingle" unicode="'" horiz-adv-x="365" 
d="M203 852l-41 0.000976562l-80 461c-2.66699 15.333 -4 27.666 -4 36.999c0 76 34.667 114 104 114c68.667 0 103 -36.667 103 -110c0 -19.333 -0.666992 -33 -2 -41z" />
    <glyph glyph-name="parenleft" unicode="(" horiz-adv-x="692" 
d="M567 -381c-166 124.667 -288.667 263.332 -368 415.999c-80.667 155.333 -121 335.333 -121 540c0 347.333 161 648 483 902l80 -93c-234.667 -185.333 -352 -465.666 -352 -840.999c0 -346.667 117.333 -622 352 -826z" />
    <glyph glyph-name="parenright" unicode=")" horiz-adv-x="692" 
d="M125 -381l-74 98.001c234.667 204 352 479.333 352 826c0 373.333 -117.333 653.666 -352 840.999l80 93c322 -254 483 -554.667 483 -902c0 -204.667 -40.333 -385 -121 -541c-79.333 -152 -202 -290.333 -368 -415z" />
    <glyph glyph-name="asterisk" unicode="*" 
d="M512 752l-136.998 -85c-74.667 -44.667 -120.334 -67 -137.001 -67c-32 0 -48 15.667 -48 47c0 16.667 16.667 63.334 50 140.001l65 147l-214 155c-12.667 9.33301 -19 22.333 -19 39c0 28.667 16.333 43 49 43h254l90 271c8 24.667 23.667 37 47 37s39 -12.333 47 -37
l90 -271h258c30 0 45 -14.333 45 -43c0 -16.667 -6.33301 -29.667 -19 -39l-214 -155l65 -147c33.333 -76.667 50 -123.334 50 -140.001c0 -31.333 -16 -47 -48 -47c-16.667 0 -62.334 22.333 -137.001 67z" />
    <glyph glyph-name="plus" unicode="+" horiz-adv-x="1706" 
d="M752 1221h202v-510h498v-199h-498v-512h-202v512h-498v199h498v510z" />
    <glyph glyph-name="comma" unicode="," horiz-adv-x="512" 
d="M45 -348l-0.000976562 94.001c66.667 14 122.667 37.667 168 71c57.333 42 86 92.667 86 152c0 25.333 -20.667 42.333 -62 51c-64 13.333 -102.667 23.666 -116 30.999c-41.333 22.667 -62 63.667 -62 123c0 50 16.167 90.167 48.5 120.5s73.5 45.5 123.5 45.5
c72 0 130.333 -30 175 -90c40.667 -54 61 -118.333 61 -193c0 -116 -42.333 -210.667 -127 -284c-75.333 -64.667 -173.666 -105 -294.999 -121z" />
    <glyph glyph-name="hyphen" unicode="-" horiz-adv-x="692" 
d="M96 356v250h500v-250h-500z" />
    <glyph glyph-name="hyphen" unicode="&#x2010;" horiz-adv-x="692" 
d="M96 356v250h500v-250h-500z" />
    <glyph glyph-name="period" unicode="." horiz-adv-x="512" 
d="M92 145c0 46.667 15.667 85.667 47 117s70.333 47 117 47c46 0 84.833 -15.833 116.5 -47.5s47.5 -70.5 47.5 -116.5c0 -45.333 -16 -83.833 -48 -115.5s-70.667 -47.5 -116 -47.5c-46 0 -84.833 15.667 -116.5 47s-47.5 70 -47.5 116z" />
    <glyph glyph-name="slash" unicode="/" horiz-adv-x="573" 
d="M102 -190h-131l498 1687h133z" />
    <glyph glyph-name="zero" unicode="0" 
d="M508 1298c-76 0 -125 -85.332 -147 -255.999c-8.66699 -66 -13 -179.333 -13 -340c0 -162.667 4.33301 -275.334 13 -338.001c23.333 -166 75 -249 155 -249c76 0 125 85.333 147 256c8.66699 64.667 13 178 13 340c0 166 -4 278.667 -12 338
c-23.333 166 -75.333 249 -156 249zM514 -24.999c-169.333 0 -291.002 89.333 -365.002 268c-52.667 126.667 -79 288.667 -79 486c0 179.333 29.333 332 88 458c77.333 166 195.333 249 354 249c160.667 0 279.334 -85.667 356.001 -257c57.333 -128 86 -283.333 86 -466
c0 -188.667 -27.333 -347 -82 -475c-75.333 -175.333 -194.666 -263 -357.999 -263z" />
    <glyph glyph-name="one" unicode="1" 
d="M899 115l-0.000976562 -115h-731v115c88.667 0 144.334 7 167.001 21c32 20 48 70.333 48 151v866c0 52.667 -39.667 79 -119 79c13.333 0 -18 -1.66699 -94 -5v94c91.333 10 260 47.667 506 113v-1147c0 -82 17 -133 51 -153c22 -12.667 79.333 -19 172 -19z" />
    <glyph glyph-name="two" unicode="2" 
d="M47 0l-0.000976562 95.999c143.333 139.333 264.666 277 363.999 413c145.333 196.667 218 357.334 218 482.001c0 68 -20.333 124.333 -61 169c-42.667 46 -97.667 69 -165 69c-73.333 0 -162.666 -38.333 -267.999 -115l-65 74c173.333 166.667 329 250 467 250
c108 0 194.333 -31.833 259 -95.5s97 -149.5 97 -257.5c0 -154 -187.667 -431.667 -563 -833h319c54 0 96 8.33301 126 25c32.667 17.333 60.334 49.333 83.001 96l84 -21l-119 -352h-776z" />
    <glyph glyph-name="three" unicode="3" 
d="M233 643v118.999c96 7.33301 176.333 31.666 241 72.999c78.667 51.333 118 121 118 209c0 56.667 -19.833 102.334 -59.5 137.001s-88.167 52 -145.5 52c-78 0 -164 -40.333 -258 -121l-59 78c126 162.667 270.667 244 434 244c95.333 0 177.666 -25.333 246.999 -76
c76.667 -56.667 115 -131 115 -223c0 -123.333 -66.667 -229.333 -200 -318c170.667 -77.333 256 -192 256 -344c0 -157.333 -65 -282.666 -195 -375.999c-116.667 -84 -256.667 -126 -420 -126c-176 0 -264 46 -264 138c0 22.667 8.33301 42.334 25 59.001
s36.334 25 59.001 25c30 0 74.5 -11.333 133.5 -34s104.5 -34 136.5 -34c70 0 128.833 22.667 176.5 68s71.5 102.666 71.5 171.999c0 100.667 -46.333 175 -139 223c-71.333 36.667 -162.333 55 -273 55z" />
    <glyph glyph-name="four" unicode="4" 
d="M551 -18v364h-500v246l584 821h184v-850h162v-217h-162v-364h-268zM174 563h377v551z" />
    <glyph glyph-name="five" unicode="5" 
d="M129 735l159.999 640.999h401c54 0 90.333 20 109 60l90 -35l-127 -221h-412l-49 -193c416.667 -66 625 -237.333 625 -514c0 -169.333 -63 -299 -189 -389c-110.667 -79.333 -254 -119 -430 -119c-139.333 0 -209 17 -209 51c0 16.667 16.333 50.667 49 102s56 77 70 77
c-3.33301 0 26 -12.333 88 -37s114 -37 156 -37c80.667 0 149.667 24 207 72c61.333 50.667 92 115.334 92 194.001c0 110.667 -82 197 -246 259c-77.333 29.333 -205.666 59 -384.999 89z" />
    <glyph glyph-name="six" unicode="6" 
d="M858 1427l49 -67c-276 -132 -440.333 -309 -493 -531c78 32 140.667 48 188 48c114.667 0 204.667 -42 270 -126c59.333 -76.667 89 -174 89 -292c0 -136 -42.333 -250 -127 -342c-87.333 -94.667 -198.666 -142 -333.999 -142c-146.667 0 -260.334 61.667 -341.001 185
c-69.333 106.667 -104 237 -104 391c0 225.333 78 422.333 234 591c155.333 166.667 345 261.667 569 285zM500 111c110.667 0 166 107.667 166 323c0 194 -55.333 291 -166 291c-104 0 -156 -104.333 -156 -313c0 -200.667 52 -301 156 -301z" />
    <glyph glyph-name="seven" unicode="7" 
d="M220 541v250h352l141 354h-346c-56 0 -98.667 -13.667 -128 -41c-21.333 -19.333 -45 -58.333 -71 -117l-94 19l121 407h755c0 -37.333 0 -51 0 -41l-208 -581h63v-250h-153l-203 -566h-203l226 566h-252z" />
    <glyph glyph-name="eight" unicode="8" 
d="M598 870c113.333 80.667 170.002 167.332 170.002 259.999c0 58 -21.833 105.333 -65.5 142s-94.834 55 -153.501 55c-52.667 0 -97.334 -11.333 -134.001 -34c-43.333 -27.333 -65 -65.666 -65 -114.999c0 -93.333 82.667 -196 248 -308zM430.002 626.998
c-96.667 -85.333 -145 -174.333 -145 -267c0 -72 20.667 -130.667 62 -176c42.667 -47.333 99.667 -71 171 -71c57.333 0 106.5 17.833 147.5 53.5s61.5 81.834 61.5 138.501c0 75.333 -99 182.666 -297 321.999zM332.002 704.998c-158.667 127.333 -238 252.667 -238 376
c0 109.333 46.667 197.666 140 264.999c84 61.333 182.667 92 296 92c103.333 0 193 -25.667 269 -77c87.333 -58 131 -136.333 131 -235c0 -122 -77.333 -231 -232 -327c175.333 -137.333 263 -276.666 263 -417.999c0 -122 -46.667 -220.333 -140 -295
c-86.667 -69.333 -192.334 -104 -317.001 -104c-113.333 0 -212.666 30.667 -297.999 92c-95.333 68 -143 156.667 -143 266c0 70 30.667 139.667 92 209c34.667 40 93.667 92 177 156z" />
    <glyph glyph-name="nine" unicode="9" 
d="M516 678c109.333 0 164 107 164 321c0 195.333 -54.667 293 -164 293c-105.333 0 -158 -101.667 -158 -305c0 -206 52.667 -309 158 -309zM166 -25l-49 67.999c276.667 132 441 308.667 493 530c-77.333 -30 -140 -45 -188 -45c-114.667 0 -204.667 41.667 -270 125
c-59.333 76.667 -89 173.667 -89 291c0 136 42.333 250 127 342c87.333 94 198.666 141 333.999 141c146.667 0 260.334 -61.333 341.001 -184c69.333 -105.333 104 -235 104 -389c0 -225.333 -77.667 -422.666 -233 -591.999s-345.333 -265 -570 -287z" />
    <glyph glyph-name="colon" unicode=":" horiz-adv-x="688" 
d="M180 813c0 46 15.833 84.833 47.5 116.5s70.5 47.5 116.5 47.5s84.833 -15.833 116.5 -47.5s47.5 -70.5 47.5 -116.5s-15.833 -85.167 -47.5 -117.5s-70.5 -48.5 -116.5 -48.5s-84.833 16.167 -116.5 48.5s-47.5 71.5 -47.5 117.5zM180 145
c0 46.667 15.667 85.667 47 117s70.333 47 117 47c46 0 84.833 -15.833 116.5 -47.5s47.5 -70.5 47.5 -116.5c0 -45.333 -16 -83.833 -48 -115.5s-70.667 -47.5 -116 -47.5c-46 0 -84.833 15.667 -116.5 47s-47.5 70 -47.5 116z" />
    <glyph glyph-name="semicolon" unicode=";" horiz-adv-x="688" 
d="M180 813c0 46 15.833 84.833 47.5 116.5s70.5 47.5 116.5 47.5s84.833 -15.833 116.5 -47.5s47.5 -70.5 47.5 -116.5s-15.833 -85.167 -47.5 -117.5s-70.5 -48.5 -116.5 -48.5s-84.833 16.167 -116.5 48.5s-47.5 71.5 -47.5 117.5zM133 -348l-0.00195312 94.001
c66.667 14 122.334 37.667 167.001 71c56.667 41.333 85 92 85 152c0 25.333 -20.667 42.333 -62 51c-62.667 13.333 -100.667 23.666 -114 30.999c-41.333 22.667 -62 63.667 -62 123c0 50 16.167 90.167 48.5 120.5s73.5 45.5 123.5 45.5c72 0 130.333 -30 175 -90
c40.667 -54 61 -118.333 61 -193c0 -116 -42.333 -210.667 -127 -284c-75.333 -64.667 -173.666 -105 -294.999 -121z" />
    <glyph glyph-name="less" unicode="&#x3c;" horiz-adv-x="1706" 
d="M1442 1194v-219l-893 -365l893 -364v-219l-1178 485v199z" />
    <glyph glyph-name="equal" unicode="=" horiz-adv-x="1706" 
d="M254 496h1198v-199h-1198v199zM254 926h1198v-199h-1198v199z" />
    <glyph glyph-name="greater" unicode="&#x3e;" horiz-adv-x="1706" 
d="M264 1194l1178 -483v-199l-1178 -485v219l895 364l-895 365v219z" />
    <glyph glyph-name="question" unicode="?" horiz-adv-x="915" 
d="M285 426l-17 307.002c126.667 44.667 206 75.667 238 93c96.667 52.667 145 114.667 145 186c0 55.333 -16.5 102 -49.5 140s-86.5 62.333 -160.5 73c-108 16 -164 24.667 -168 26c-52 18 -78 56.333 -78 115c0 76.667 49.667 115 149 115c78.667 0 161 -39 247 -117
c74.667 -67.333 131.667 -142.333 171 -225c35.333 -75.333 53 -151.333 53 -228c0 -88 -26.333 -158.333 -79 -211c-30 -31.333 -82.333 -64.333 -157 -99c-65.333 -30.667 -104 -56.834 -116 -78.501s-19.667 -53.834 -23 -96.501h-155zM205 145.002
c0 46.667 15.332 85.667 45.999 117s69.334 47 116.001 47c46 0 84.667 -15.833 116 -47.5s47 -70.5 47 -116.5c0 -45.333 -15.833 -83.833 -47.5 -115.5s-70.167 -47.5 -115.5 -47.5c-46 0 -84.5 15.667 -115.5 47s-46.5 70 -46.5 116z" />
    <glyph glyph-name="at" unicode="@" horiz-adv-x="2019" 
d="M1176 319c-80.667 -130.667 -179 -195.999 -295 -195.999c-99.333 0 -175.666 33 -228.999 99c-49.333 60 -74 141 -74 243c0 135.333 49.667 259.666 149 372.999c102.667 117.333 220.667 176 354 176c126 0 200 -61 222 -183l49 164h190l-174 -618
c-10.667 -38 -16 -69.333 -16 -94c0 -67.333 25 -101 75 -101c20.667 0 49 8.33301 85 25c100.667 47.333 179 126 235 236c50.667 100 76 209.667 76 329c0 190.667 -66.333 342.667 -199 456c-125.333 107.333 -285 161 -479 161c-246.667 0 -450.667 -84.333 -612 -253
c-158.667 -166.667 -238 -374 -238 -622c0 -229.333 72.667 -409.333 218 -540c140 -126 326 -189 558 -189c217.333 0 426.333 69 627 207l39 -51c-201.333 -150.667 -423.333 -226 -666 -226c-266.667 0 -486 68.333 -658 205c-186.667 149.333 -280 354.333 -280 615
c0 262.667 99.667 483.667 299 663c193.333 173.333 422.666 260 687.999 260c223.333 0 405 -58.667 545 -176c148.667 -124.667 223 -296.667 223 -516c0 -153.333 -43 -295.333 -129 -426c-96.667 -147.333 -218 -221 -364 -221c-136.667 0 -209.667 66.667 -219 200z
M1118 948.001c-86.667 0 -166 -77.667 -238 -233c-61.333 -134 -92 -251.667 -92 -353c0 -114.667 42.333 -172 127 -172c88 0 167 79 237 237c59.333 134.667 89 253 89 355c0 110.667 -41 166 -123 166z" />
    <glyph glyph-name="A" unicode="A" horiz-adv-x="1479" 
d="M47 0v119c65.333 16 116 76.667 152 182l350 1022c5.33301 15.333 8 29 8 41c0 27.333 -15 56 -45 86h367l409 -1171c34.667 -98.667 82.667 -152 144 -160v-119h-635v119c86 4 129 34 129 90c0 26.667 -11.333 79.667 -34 159l-42 140h-447l-40 -135
c-18 -64 -27 -112.667 -27 -146c0 -72 43 -108 129 -108v-119h-418zM449 635h348l-172 522z" />
    <glyph glyph-name="B" unicode="B" horiz-adv-x="1413" 
d="M578 827c7.33301 0.666992 17.833 0.166992 31.5 -1.5s23.5 -2.5 29.5 -2.5c177.333 0 266 89.667 266 269c0 164.667 -90.667 247 -272 247c-36.667 0 -55 -13 -55 -39v-473zM578 711v-353.001c0 -71.333 7.33301 -121.666 22 -150.999c22 -44 64.333 -66 127 -66
c74.667 0 131.667 26.333 171 79c34.667 46.667 52 108.667 52 186c0 114 -35 195.333 -105 244c-58.667 40.667 -147.667 61 -267 61zM66 -0.000976562v119c63.333 6.66699 106 20.667 128 42s33 63.333 33 126v876c0 62.667 -11 104.667 -33 126s-64.667 35.333 -128 42
v119h673c332 0 498 -110.667 498 -332c0 -171.333 -110 -286 -330 -344c269.333 -67.333 404 -194.333 404 -381c0 -122 -50 -219.667 -150 -293c-90.667 -66.667 -199 -100 -325 -100h-770z" />
    <glyph glyph-name="C" unicode="C" horiz-adv-x="1479" 
d="M1374 92c-214 -82 -399 -123 -555 -123c-222 0 -402.333 67.333 -541 202s-208 312.667 -208 534c0 217.333 73.167 401 219.5 551s327.833 225 544.5 225c159.333 0 319.666 -46 480.999 -138l33 -313h-127c-68.667 217.333 -197.667 326 -387 326
c-139.333 0 -242.666 -63.667 -309.999 -191c-52 -100 -78 -226.333 -78 -379c0 -169.333 30.333 -316.333 91 -441c78 -160.667 192.667 -241 344 -241c187.333 0 320.333 115 399 345h131z" />
    <glyph glyph-name="D" unicode="D" horiz-adv-x="1708" 
d="M578 362c0 -89.333 12 -149.668 36 -181.001c28.667 -36 86 -54 172 -54c153.333 0 269 58 347 174c66.667 98.667 100 228.334 100 389.001c0 191.333 -43.667 343 -131 455c-96.667 124 -238 186 -424 186c-66.667 0 -100 -32.667 -100 -98v-871zM66 -0.00195312
l0.000976562 118.999c63.333 6.66699 105.333 20 126 40c23.333 22.667 35 65.334 35 128.001v876c0 62.667 -11.667 105.334 -35 128.001c-20.667 20 -62.667 33.333 -126 40v119h663c252 0 457 -55.667 615 -167c181.333 -127.333 272 -311.333 272 -552
c0 -163.333 -46.667 -308.333 -140 -435c-94.667 -128.667 -220 -214.334 -376 -257.001c-92.667 -26 -207.334 -39 -344.001 -39h-690z" />
    <glyph glyph-name="E" unicode="E" horiz-adv-x="1360" 
d="M66 0l0.00195312 119c63.333 6.66699 106 20.667 128 42s33 63.333 33 126v876c0 62.667 -11 104.667 -33 126s-64.667 35.333 -128 42v119h1138v-299h-110c-54.667 124 -163.334 186 -326.001 186c-70.667 0 -113 -2 -127 -6c-38 -12 -57 -44 -57 -96v-401h153
c128.667 0 201 56.667 217 170h119v-482h-118c-14 126 -86.667 189 -218 189h-153v-398c0 -66 14.667 -112 44 -138c27.333 -24 74.666 -36 141.999 -36c189.333 0 334 83.333 434 250h115l-86 -389h-1167z" />
    <glyph glyph-name="F" unicode="F" horiz-adv-x="1327" 
d="M66 0v119c63.333 6.66699 106 20.667 128 42s33 63.333 33 126v876c0 62.667 -11 104.667 -33 126s-64.667 35.333 -128 42v119h1239v-322h-101c-68 138 -216 207 -444 207c-67.333 0 -108 -2.33301 -122 -7c-36 -11.333 -54 -42.333 -54 -93v-401h153
c128.667 0 201 56.667 217 170h119v-482h-118c-14 126 -86.667 189 -218 189h-153v-398c0 -81.333 11.833 -134 35.5 -158s76.5 -37.333 158.5 -40v-115h-712z" />
    <glyph glyph-name="G" unicode="G" horiz-adv-x="1690" 
d="M1440 86c-188 -46.667 -289.334 -71.6641 -304.001 -74.9971c-118.667 -25.333 -221.667 -38 -309 -38c-226 0 -409.333 67.667 -550 203s-211 315.666 -211 540.999c0 223.333 77 407.333 231 552c150.667 141.333 338.334 212 563.001 212
c188 0 381.333 -47.333 580 -142v-311h-103c-109.333 222.667 -256 334 -440 334c-150 0 -266 -62.333 -348 -187c-70 -106.667 -105 -239 -105 -397c0 -166.667 34.667 -310.334 104 -431.001c84.667 -146.667 204.334 -220 359.001 -220c58 0 122.333 15 193 45v279
c0 66 -10.333 109.167 -31 129.5s-64.334 32.166 -131.001 35.499v109h692v-109c-66.667 -4 -113 -15.333 -139 -34c-34 -24 -51 -67 -51 -129v-367z" />
    <glyph glyph-name="H" unicode="H" horiz-adv-x="1716" 
d="M66 0v119.002c63.333 6.66699 106 20.667 128 42s33 63.333 33 126v876c0 62.667 -11 104.667 -33 126s-64.667 35.333 -128 42v119h673v-119c-64 -6.66699 -106.333 -20 -127 -40c-22.667 -22.667 -34 -65.334 -34 -128.001v-340h561v340
c0 62.667 -11.667 105.334 -35 128.001c-20.667 20 -63 33.333 -127 40v119h674v-119c-64 -6.66699 -106.333 -20 -127 -40c-23.333 -22.667 -35 -65.334 -35 -128.001v-876c0 -62.667 11.667 -105.334 35 -128.001c20.667 -20 63 -33.333 127 -40v-119h-674v119
c64 6.66699 106.333 20 127 40c23.333 22.667 35 65.334 35 128.001v391h-561v-391c0 -62.667 11.333 -105.334 34 -128.001c20.667 -20 63 -33.333 127 -40v-119h-673z" />
    <glyph glyph-name="I" unicode="I" horiz-adv-x="801" 
d="M63 0v119c64 6.66699 106.333 20 127 40c23.333 22.667 35 65.334 35 128.001v876c0 62.667 -11.667 105.334 -35 128.001c-20.667 20 -63 33.333 -127 40v119h674v-119c-64 -6.66699 -106.333 -20 -127 -40c-23.333 -22.667 -35 -65.334 -35 -128.001v-876
c0 -62.667 11.667 -105.334 35 -128.001c20.667 -20 63 -33.333 127 -40v-119h-674z" />
    <glyph glyph-name="J" unicode="J" horiz-adv-x="915" 
d="M160 1331v119h674v-119c-64 -6.66699 -107 -20.667 -129 -42s-33 -63.333 -33 -126v-977c0 -87.333 -3.33301 -154.333 -10 -201c-35.333 -244 -191 -366 -467 -366c-70.667 0 -130 12.333 -178 37c-60.667 32 -91 80.333 -91 145c0 37.333 11.833 68.833 35.5 94.5
s54.167 38.5 91.5 38.5c44.667 0 86.167 -26.167 124.5 -78.5s67.833 -78.5 88.5 -78.5c37.333 0 56 35.333 56 106v1280c0 62.667 -11 104.667 -33 126s-65 35.333 -129 42z" />
    <glyph glyph-name="K" unicode="K" horiz-adv-x="1634" 
d="M66 0v119.004c63.333 6.66699 106 20.667 128 42s33 63.333 33 126v876c0 63.333 -10.833 105.666 -32.5 126.999s-64.5 35.666 -128.5 42.999v117h673v-117c-64 -7.33301 -106.333 -21.333 -127 -42c-22.667 -22 -34 -64.667 -34 -128v-395l401 369
c40.667 37.333 61 72 61 104c0 56 -43 86.667 -129 92v117h613v-117c-120.667 -16 -239.667 -81.333 -357 -196l-282 -275c-9.33301 -9.33301 -15 -18 -17 -26c1.33301 -6.66699 10.333 -18.334 27 -35.001l549 -551c48 -48 80.333 -78 97 -90
c40 -30.667 80 -44.667 120 -42v-118h-420l-663 668v-381c0 -62.667 11.333 -105.334 34 -128.001c20.667 -20 63 -33.333 127 -40v-119h-673z" />
    <glyph glyph-name="L" unicode="L" horiz-adv-x="1475" 
d="M743 1450l-0.000976562 -116.997c-64 -7.33301 -106 -21.333 -126 -42c-22 -22.667 -33 -65.334 -33 -128.001v-801c0 -101.333 14.333 -167.333 43 -198c30 -32.667 94.667 -49 194 -49c122.667 0 221.334 24 296.001 72c68 43.333 135.333 120.333 202 231h113
l-89 -418h-1277v119c63.333 6.66699 106 20.667 128 42s33 63.333 33 126v876c0 63.333 -10.833 105.666 -32.5 126.999s-64.5 35.666 -128.5 42.999v117h677z" />
    <glyph glyph-name="M" unicode="M" horiz-adv-x="2048" 
d="M57 0l0.999023 118.999c84 2.66699 137 56.667 159 162l178 845c8.66699 41.333 13 66 13 74c0 74.667 -58.667 118.334 -176 131.001l-1 119h508c2.66699 -99.333 18.334 -186.666 47.001 -261.999l252 -662l281 678c23.333 56 36.333 138 39 246h489v-119
c-102 0 -153 -48.333 -153 -145c0 -20 2 -43.333 6 -70l121 -799c10 -67.333 25 -114 45 -140c25.333 -32.667 69 -52 131 -58v-119h-656v119c93.333 0 140 41 140 123c0 24 -2.66699 53.333 -8 88l-99 649l-323 -772c-35.333 -84 -60 -153 -74 -207h-109
c-8.66699 45.333 -36 128.666 -82 249.999l-278 729l-139 -653c-10 -46.667 -15 -78.334 -15 -95.001c0 -67.333 51.333 -104.666 154 -111.999v-119h-451z" />
    <glyph glyph-name="N" unicode="N" horiz-adv-x="1651" 
d="M63 0v119.002c79.333 7.33301 131 32.666 155 75.999c17.333 31.333 26 91.333 26 180v842c-62 76 -122.333 114 -181 114v119h402c27.333 0 52 -13 74 -39l747 -883v598c0 118 -60.667 186.333 -182 205v119h495v-119c-66 -10.667 -111.833 -30.834 -137.5 -60.501
s-38.5 -77.834 -38.5 -144.501v-924c0 -64.667 3.33301 -141.667 10 -231h-147l-909 1067v-663c0 -91.333 13.667 -153.666 41 -186.999c29.333 -37.333 88 -60.333 176 -69v-119h-531z" />
    <glyph glyph-name="O" unicode="O" horiz-adv-x="1597" 
d="M451 764c0 -168 19.666 -307.001 58.999 -417.001c58.667 -164.667 156.334 -247 293.001 -247c229.333 0 344 196 344 588c0 168.667 -19.333 307.334 -58 416.001c-58 164 -155.333 246 -292 246c-230.667 0 -346 -195.333 -346 -586zM783.999 -29.001
c-210 0 -382.667 72 -518 216c-132 140.667 -198 316.667 -198 528c0 217.333 69.667 398.333 209 543c141.333 147.333 320 221 536 221c208.667 0 380.334 -70.333 515.001 -211s202 -315.667 202 -525c0 -220 -69 -403 -207 -549
c-140.667 -148.667 -320.334 -223 -539.001 -223z" />
    <glyph glyph-name="P" unicode="P" horiz-adv-x="1290" 
d="M66 0v121c63.333 4 106 17 128 39s33 64.333 33 127v880c0 61.333 -11.667 103 -35 125c-20.667 19.333 -62.667 32.333 -126 39v117h587c164.667 0 296 -29.333 394 -88c121.333 -72 182 -184.667 182 -338c0 -126 -50.667 -224.667 -152 -296
c-90 -63.333 -200.667 -95 -332 -95c-50.667 0 -81 4 -91 12s-15 34.667 -15 80c0 17.333 13.667 29 41 35l64 10c104.667 28 157 114 157 258c0 192.667 -84 289 -252 289c-50.667 0 -76 -15 -76 -45v-983c0 -60.667 12.667 -103 38 -127
c23.333 -22.667 66 -35.667 128 -39v-121h-673z" />
    <glyph glyph-name="Q" unicode="Q" horiz-adv-x="1597" 
d="M1511 -119l0.00195312 -254.002c-176 6 -324.333 36.667 -445 92c-56.667 26.667 -183.334 105.334 -380.001 236.001c-6.66699 4.66699 -45.667 20.334 -117 47.001c-334 125.333 -501 362.333 -501 711c0 218 69.833 400.167 209.5 546.5s318.167 219.5 535.5 219.5
c209.333 0 381.666 -71 516.999 -213c133.333 -140 200 -315 200 -525c0 -312.667 -141.333 -546.667 -424 -702c120 -80 255 -132.667 405 -158zM451.002 763.998c0 -168 19.666 -307.001 58.999 -417.001c58.667 -164.667 156.334 -247 293.001 -247
c229.333 0 344 196 344 588c0 168.667 -19.333 307.334 -58 416.001c-58 164 -155.333 246 -292 246c-230.667 0 -346 -195.333 -346 -586z" />
    <glyph glyph-name="R" unicode="R" horiz-adv-x="1475" 
d="M573 780c7.33301 0.666992 18.333 0.166992 33 -1.5s25 -2.5 31 -2.5c174.667 0 262 93 262 279c0 173.333 -90.667 260 -272 260c-36 0 -54 -14.333 -54 -43v-492zM573 297c0 -66.667 10.3311 -111.5 30.998 -134.5s64.334 -37.5 131.001 -43.5v-119h-669v119
c66.667 6.66699 110.167 21.167 130.5 43.5s30.5 67.166 30.5 134.499v866c0 62.667 -11 104.667 -33 126s-64.667 35.333 -128 42v119h615c128 0 230 -12.333 306 -37c108 -34.667 186.333 -96.667 235 -186c26.667 -49.333 40 -104 40 -164c0 -90 -28 -165.333 -84 -226
c-52 -57.333 -123 -96.666 -213 -117.999l274 -422c64 -98.667 131.667 -158 203 -178v-119h-373c-31.333 0 -51.666 8 -60.999 24l-371 623h-64v-350z" />
    <glyph glyph-name="S" unicode="S" horiz-adv-x="1251" 
d="M127 63l-0.00195312 361h113c20.667 -97.333 62.334 -173.666 125.001 -228.999c65.333 -57.333 147 -86 245 -86c64.667 0 120 17 166 51c50.667 38 76 88.333 76 151c0 79.333 -92.333 171 -277 275c-154 86 -254 149.333 -300 190c-98.667 87.333 -148 189 -148 305
c0 139.333 54 244.666 162 315.999c92.667 61.333 212 92 358 92c151.333 0 294 -44.333 428 -133v-287h-106c-20.667 86.667 -60.334 157 -119.001 211c-62 57.333 -136.333 86 -223 86c-59.333 0 -109.666 -14.333 -150.999 -43c-46.667 -32.667 -70 -77.667 -70 -135
c0 -70 94 -159 282 -267c172 -98.667 271.667 -159.667 299 -183c101.333 -84 152 -184.667 152 -302c0 -147.333 -50.333 -262 -151 -344c-93.333 -76.667 -215 -115 -365 -115c-133.333 0 -298.666 28.667 -495.999 86z" />
    <glyph glyph-name="T" unicode="T" horiz-adv-x="1587" 
d="M977 303c0 -80.667 17.002 -134.333 51.002 -161c29.333 -22 86.666 -33 171.999 -33v-109h-803v109c85.333 0 142.666 11.333 171.999 34c34.667 26 52 79.333 52 160v1016h-142c-86.667 0 -154 -23.333 -202 -70c-40 -38.667 -74.333 -102.667 -103 -192h-113l43 393
h1403l33 -393h-110c-29.333 124 -82 202 -158 234c-44.667 18.667 -143 28 -295 28v-1016z" />
    <glyph glyph-name="U" unicode="U" horiz-adv-x="1651" 
d="M61 1450l681.997 -0.000976562v-119c-77.333 0 -126.666 -18.667 -147.999 -56c-14.667 -25.333 -22 -81 -22 -167v-625c0 -118.667 27 -205.667 81 -261s140.333 -83 259 -83c144.667 0 248 40.333 310 121c54.667 70.667 82 180.667 82 330v543
c0 80 -13.5 133 -40.5 159s-80.5 39 -160.5 39v119h512v-119c-69.333 0 -115.666 -13.167 -138.999 -39.5s-35 -79.166 -35 -158.499v-543c0 -203.333 -51.333 -358 -154 -464c-104 -108.667 -257 -163 -459 -163c-119.333 0 -228.666 21.667 -327.999 65
c-119.333 51.333 -199 125 -239 221c-26 60.667 -39 146.334 -39 257.001v612c0 94 -11 152.167 -33 174.5s-64.667 35.166 -128 38.499z" />
    <glyph glyph-name="V" unicode="V" horiz-adv-x="1479" 
d="M690 -29l-505.999 1213c-38.667 93.333 -88.334 142.333 -149.001 147v119h627v-102c-74 0 -111 -28 -111 -84c0 -22 8 -52 24 -90l283 -676c178.667 440.667 268 680.334 268 719.001c0 71.333 -53.667 115.666 -161 132.999v100h479v-102
c-72 -6 -149 -114.333 -231 -325l-223 -553l-104 -247c-42 -104 -70.333 -188 -85 -252h-111z" />
    <glyph glyph-name="W" unicode="W" horiz-adv-x="2048" 
d="M639 1450v-118.999c-65.333 0 -98 -23 -98 -69c0 -28 10 -70.333 30 -127l226 -637c84 231.333 150.667 425 200 581l-44 163c-26 59.333 -67.333 89 -124 89v119h578v-119c-79.333 0 -119 -26 -119 -78c0 -14.667 6.33301 -45.334 19 -92.001l182 -667
c158 450.667 237 695 237 733c0 69.333 -44.333 104 -133 104v119h412v-119c-64 -7.33301 -107.667 -36 -131 -86c-18 -39.333 -39.333 -99 -64 -179l-57 -187l-153 -449l-81 -228c-34 -102.667 -53.667 -179.667 -59 -231h-151l-260 877l-72 -205l-143 -423
c-19.333 -56 -42 -139 -68 -249h-150l-415 1186c-34 96.667 -82 154.667 -144 174v119h582z" />
    <glyph glyph-name="X" unicode="X" horiz-adv-x="1597" 
d="M72 0l0.000976562 119c92 23.333 176.667 82 254 176l305 373l-348 493c-38.667 54.667 -68 91.334 -88 110.001c-36.667 36 -77.667 56 -123 60v119h686v-118c-16 2 -28.333 3 -37 3c-54.667 0 -82 -17 -82 -51c0 -24.667 37 -87.667 111 -189l120 -157l193 225
c34 39.333 51 74.333 51 105c0 42 -44.333 63 -133 63v119h516v-118l-24 1c-54.667 2 -114.334 -34.667 -179.001 -110l-340 -396l408 -551c68.667 -92 130 -144.333 184 -157v-119h-702v118l30 -1c64.667 -2 97 21 97 69c0 24 -82 145.667 -246 365l-184 -225
c-41.333 -50.667 -62 -90.334 -62 -119.001c0 -52 50.333 -81.333 151 -88l1 -119h-559z" />
    <glyph glyph-name="Y" unicode="Y" horiz-adv-x="1485" 
d="M397 0l1.00098 118.998c79.333 0.666992 130 16.334 152 47.001c16.667 23.333 25 74.333 25 153v244l-337 600c-58.667 104.667 -122.334 160.667 -191.001 168v119h682v-118l-33 1c-73.333 2 -110 -25.333 -110 -82c0 -19.333 13.667 -55.333 41 -108l219 -422
c200.667 314.667 301 499 301 553c0 36 -41 55.333 -123 58v118h412l-1 -119c-30 -0.666992 -58 -12.667 -84 -36c-28.667 -26 -70.667 -90 -126 -192c-89.333 -165.333 -191 -333.666 -305 -504.999v-283c0 -80 8.66699 -131 26 -153c20 -26 68 -40.333 144 -43v-119h-693z
" />
    <glyph glyph-name="Z" unicode="Z" horiz-adv-x="1356" 
d="M51 0l0.000976562 133l789 1208h-213c-190 0 -319 -72.333 -387 -217h-105v326h1129v-109l-795 -1208h264c114 0 204.333 17 271 51c73.333 38 136.666 104.333 189.999 199h111l-82 -383h-1172z" />
    <glyph glyph-name="bracketleft" unicode="[" horiz-adv-x="692" 
d="M616 -389l-525.999 -0.000976562v1839h526v-125c-6 0 -15.333 0.333008 -28 1s-22.334 1 -29.001 1c-78 0 -134 -11.333 -168 -34c-42 -28 -63 -78.667 -63 -152v-1211c0 -91.333 27 -149.666 81 -174.999c31.333 -14 100.333 -21 207 -21v-123z" />
    <glyph glyph-name="backslash" unicode="\" horiz-adv-x="573" 
d="M469 -47l-498 1687h131l500 -1687h-133z" />
    <glyph glyph-name="bracketright" unicode="]" horiz-adv-x="692" 
d="M76 -389v123.001c106.667 0 175.667 7 207 21c54.667 25.333 82 83.666 82 174.999v1211c0 86 -29.333 141 -88 165c-31.333 12.667 -98.333 19 -201 19v125h526v-1839h-526z" />
    <glyph glyph-name="asciicircum" unicode="^" horiz-adv-x="2048" 
d="M905 1462h236l491 -565h-112l-498 373l-498 -373h-112z" />
    <glyph glyph-name="underscore" unicode="_" 
d="M0 -279h1024v-204h-1024v204z" />
    <glyph glyph-name="grave" unicode="`" 
d="M707 1087h-91l-313 166c-62.667 33.333 -94 69 -94 107c0 60 30 90 90 90c38.667 0 83.667 -26.667 135 -80z" />
    <glyph glyph-name="a" unicode="a" horiz-adv-x="1028" 
d="M614 86c-97.333 -69.333 -190.002 -104.002 -278.002 -104.002c-76.667 0 -140.667 20 -192 60c-55.333 43.333 -83 102.333 -83 177c0 150 177 266.667 531 350v160c0 98.667 -43.667 148 -131 148c-80.667 0 -121 -24 -121 -72c0 -14 5.5 -32.167 16.5 -54.5
s16.5 -36.166 16.5 -41.499c0 -18.667 -26 -39 -78 -61c-47.333 -20 -83.666 -30 -108.999 -30c-23.333 0 -41.666 17.667 -54.999 53c-9.33301 26.667 -14 54.334 -14 83.001c0 78.667 43.333 137.667 130 177c66 30.667 143.333 46 232 46c140 0 236 -17.667 288 -53
c66 -44 99 -131.333 99 -262v-408c0 -61.333 14.333 -92 43 -92c17.333 0 39.333 7.33301 66 22c0 -62.667 -18.5 -113.167 -55.5 -151.5s-86.833 -57.5 -149.5 -57.5c-71.333 0 -123.333 37 -156 111zM591.998 210.998l0.000976562 248c-177.333 -52 -266 -119 -266 -201
c0 -32 12 -58 36 -78c22 -18.667 49.333 -28 82 -28c45.333 0 94.666 19.667 147.999 59z" />
    <glyph glyph-name="b" unicode="b" horiz-adv-x="1126" 
d="M135 102v1139l-123 64v65l180 63c96.667 32 162 48 196 48c7.33301 0 13.333 -0.666992 18 -2v-621c90 79.333 184.667 119 284 119c117.333 0 211 -46.333 281 -139c62.667 -84 94 -186.667 94 -308c0 -145.333 -40 -269.333 -120 -372
c-87.333 -112 -201.666 -168 -342.999 -168c-110.667 0 -266.334 37.333 -467.001 112zM420 334c0 -73.333 8.33301 -125.999 25 -157.999c24.667 -46.667 71 -70 139 -70c142 0 213 111.333 213 334c0 89.333 -18 164.666 -54 225.999c-44 73.333 -108 110 -192 110
c-87.333 0 -131 -43.667 -131 -131v-311z" />
    <glyph glyph-name="c" unicode="c" 
d="M958 188c-140 -138.667 -281.998 -208 -425.998 -208c-132.667 0 -240.334 46.667 -323.001 140c-79.333 89.333 -119 201 -119 335c0 152 43.333 275.667 130 371c89.333 99.333 209.333 149 360 149c90 0 168.333 -18 235 -54c82 -44 123 -107.333 123 -190
c0 -38 -12.833 -70.667 -38.5 -98s-57.167 -41 -94.5 -41c-46.667 0 -83 22.667 -109 68l-59 126c-27.333 45.333 -65 68 -113 68c-60.667 0 -106.334 -28.333 -137.001 -85c-24.667 -45.333 -37 -101 -37 -167c0 -108 24.333 -200.333 73 -277
c57.333 -90 137 -135 239 -135c76.667 0 153 26.667 229 80z" />
    <glyph glyph-name="d" unicode="d" horiz-adv-x="1141" 
d="M719 100c-90.667 -80 -185.667 -120 -285 -120c-118 0 -211.333 47 -280 141c-62 84 -93 187 -93 309c0 146 39.333 271 118 375c87.333 114.667 201.666 172 342.999 172c70 0 133.667 -24.667 191 -74v338l-119 64v63l179 64c96.667 32.667 162 49 196 49
c7.33301 0 13.333 -0.666992 18 -2v-1239c0 -47.333 7.33301 -78 22 -92s45.334 -21.667 92.001 -23l1 -88l-383 -55v118zM713 623c0 72.667 -8.33301 125.333 -25 158c-24.667 46 -71 69 -139 69c-142 0 -213 -111.333 -213 -334c0 -90 18 -165.333 54 -226
c44 -73.333 108 -110 192 -110c87.333 0 131 43.667 131 131v312z" />
    <glyph glyph-name="e" unicode="e" horiz-adv-x="1028" 
d="M948 545l-596 -0.000976562v-6c0 -88.667 22 -163.667 66 -225c50 -68.667 117.667 -103 203 -103c65.333 0 155.333 29.333 270 88l70 -76c-70 -77.333 -133 -133.666 -189 -168.999c-75.333 -48 -155.333 -72 -240 -72c-138 0 -248.333 50.667 -331 152
c-76.667 94 -115 211.667 -115 353s41.667 257.333 125 348c85.333 93.333 198 140 338 140c123.333 0 221 -41.667 293 -125c66.667 -78 102 -179.667 106 -305zM353 648.999h325c0 2.66699 0.333008 8 1 16c0.666992 6 1 11 1 15c0 120 -57.333 180 -172 180
c-51.333 0 -91 -23.333 -119 -70c-23.333 -39.333 -35.333 -86.333 -36 -141z" />
    <glyph glyph-name="f" unicode="f" horiz-adv-x="668" 
d="M461 295c0 -66 7.66797 -110.666 23.001 -133.999c20 -30.667 62.667 -49.667 128 -57v-104h-573v104c65.333 7.33301 108 26.333 128 57c15.333 23.333 23 68 23 134v553h-133v110h133c0 350 130.667 525 392 525c58.667 0 114 -12.333 166 -37
c64 -30.667 96 -72.334 96 -125.001c0 -30.667 -10.5 -55 -31.5 -73s-46.833 -27 -77.5 -27c-38 0 -70.833 24.5 -98.5 73.5s-58.834 73.5 -93.501 73.5c-54.667 0 -82 -43.667 -82 -131v-279h188v-110h-188v-553z" />
    <glyph glyph-name="g" unicode="g" 
d="M487 858c-90 0 -135 -64 -135 -192c0 -128.667 45 -193 135 -193c92 0 138 64.333 138 193c0 128 -46 192 -138 192zM283 -37c-27.333 -24.667 -41 -54.001 -41 -88.001c0 -92.667 76.333 -139 229 -139c210 0 315 46.333 315 139c0 36.667 -20.5 61.834 -61.5 75.501
s-145.833 20.5 -314.5 20.5c-38 0 -80.333 -2.66699 -127 -8zM182 9.99902c-62.667 64 -93.998 122 -93.998 174c0 87.333 54.667 156.333 164 207c-105.333 72 -158 163.667 -158 275c0 101.333 38 179.333 114 234c67.333 48.667 153.666 73 258.999 73
c33.333 0 77 -3.33301 131 -10c53.333 -10.667 125.666 -21.667 216.999 -33h195v-166h-162c14.667 -42.667 22 -79.667 22 -111c0 -99.333 -40 -176.666 -120 -231.999c-70 -48.667 -157 -73 -261 -73c-46 0 -92.333 4 -139 12c-14.667 -18.667 -22 -38.334 -22 -59.001
c0 -45.333 58.667 -70 176 -74c172 -6 281.333 -16 328 -30c117.333 -35.333 176 -114 176 -236c0 -124.667 -57.667 -218.667 -173 -282c-92 -50.667 -205.667 -76 -341 -76c-303.333 0 -455 73.667 -455 221c0 71.333 47.667 133.333 143 186z" />
    <glyph glyph-name="h" unicode="h" horiz-adv-x="1204" 
d="M59 0v102c44 4 75.167 14.5 93.5 31.5s27.5 46.833 27.5 89.5v1018l-114 64v63l180 64c96.667 32.667 162 49 196 49c8 0 14.333 -0.666992 19 -2v-609c118.667 71.333 221 107 307 107c102 0 174.667 -29.333 218 -88c37.333 -50.667 56 -129.334 56 -236.001v-430
c0 -40 7.83301 -69.167 23.5 -87.5s44.167 -29.5 85.5 -33.5v-102h-487v102c66.667 7.33301 100 47.666 100 120.999v436c0 50.667 -8.33301 86.334 -25 107.001c-18.667 23.333 -52.667 35 -102 35c-42 0 -100.667 -12.333 -176 -37v-541
c0 -39.333 6.33301 -67.666 19 -84.999c14.667 -20 41 -32 79 -36v-102h-500z" />
    <glyph glyph-name="i" unicode="i" horiz-adv-x="637" 
d="M172 1327c0 42 15.167 77.501 45.5 106.501s66.5 43.5 108.5 43.5c42.667 0 78.5 -14.333 107.5 -43s43.5 -64.334 43.5 -107.001s-14.5 -79.334 -43.5 -110.001s-64.833 -46 -107.5 -46s-79 15.333 -109 46s-45 67.334 -45 110.001zM586 102.001l0.000976562 -102h-518
v102c43.333 4 74.166 14.5 92.499 31.5s27.5 46.833 27.5 89.5v516l-116 62v65l327 111h66v-754c0 -42.667 9.33301 -72.5 28 -89.5s49.667 -27.5 93 -31.5z" />
    <glyph glyph-name="j" unicode="j" horiz-adv-x="598" 
d="M150 1325c0 42 14.667 77.833 44 107.5s65 44.5 107 44.5c42.667 0 78.667 -14.667 108 -44s44 -65.333 44 -108c0 -43.333 -14.5 -79.833 -43.5 -109.5s-65.167 -44.5 -108.5 -44.5c-42.667 0 -78.5 15 -107.5 45s-43.5 66.333 -43.5 109zM180 739l-123.001 62v65
l328 111h66v-877c0 -114.667 -27.667 -211 -83 -289c-45.333 -64 -121.666 -130.667 -228.999 -200l-86 35c84.667 139.333 127 265 127 377v716z" />
    <glyph glyph-name="k" unicode="k" horiz-adv-x="1128" 
d="M45 0l-0.00195312 104c87.333 2.66699 131 42.334 131 119.001v1018l-125 64v63l181 64c97.333 32.667 163 49 197 49c6.66699 0 12.334 -0.666992 17.001 -2v-938l201 196c26 25.333 39 50.666 39 75.999c0 32.667 -25.333 52.667 -76 60v85h418v-86
c-59.333 -11.333 -129.666 -51.666 -210.999 -120.999l-174 -165l465 -469v-117h-227l-435 440v-217c0 -76.667 33 -116.334 99 -119.001v-104h-500z" />
    <glyph glyph-name="l" unicode="l" horiz-adv-x="623" 
d="M575 104v-104.001h-528v104c44.667 3.33301 76 12.666 94 27.999c20.667 18 31 48.333 31 91v1018l-115 64v63l328 111h66v-1256c0 -43.333 10 -73.666 30 -90.999c18 -15.333 49.333 -24.666 94 -27.999z" />
    <glyph glyph-name="m" unicode="m" horiz-adv-x="1786" 
d="M59 0l0.000976562 101.996c43.333 4.66699 73.666 14.667 90.999 30c20 17.333 30 47 30 89v518l-121 62v65l179 64c96.667 32.667 162 49 196 49c8 0 14.333 -0.666992 19 -2v-117c111.333 78 221.666 117 330.999 117c100.667 0 172.334 -41.667 215.001 -125
c147.333 83.333 264.333 125 351 125c180 0 270 -108 270 -324v-432c0 -41.333 8.16699 -70.5 24.5 -87.5s44.5 -27.5 84.5 -31.5v-102h-488v102c38.667 4 65 14.833 79 32.5s21 46.5 21 86.5v438c0 50.667 -8.33301 86.334 -25 107.001c-18.667 23.333 -52.667 35 -102 35
c-65.333 0 -126.666 -16.333 -183.999 -49v-531c0 -41.333 8.16699 -70.5 24.5 -87.5s44.5 -27.5 84.5 -31.5v-102h-475v102c38 4 64.167 14.833 78.5 32.5s21.5 46.5 21.5 86.5v438c0 50.667 -8.33301 86.334 -25 107.001c-18.667 23.333 -52.667 35 -102 35
c-50.667 0 -109.334 -13.667 -176.001 -41v-539c0 -39.333 6.33301 -67.666 19 -84.999c14.667 -19.333 41 -30.666 79 -33.999v-102h-500z" />
    <glyph glyph-name="n" unicode="n" horiz-adv-x="1204" 
d="M59 0v102.001c44 4 75.167 14.5 93.5 31.5s27.5 46.833 27.5 89.5v516l-121 62v65l179 64c96.667 32.667 162 49 196 49c8 0 14.333 -0.666992 19 -2v-115c116 76.667 221 115 315 115c102 0 174.667 -29.333 218 -88c37.333 -50.667 56 -129.334 56 -236.001v-430
c0 -40 7.83301 -69.167 23.5 -87.5s44.167 -29.5 85.5 -33.5v-102h-487v102c66.667 7.33301 100 47.666 100 120.999v436c0 50.667 -8.33301 86.334 -25 107.001c-18.667 23.333 -52.667 35 -102 35c-56 0 -114.667 -13.667 -176 -41v-537c0 -40 6.33301 -68.667 19 -86
c14.667 -19.333 41 -31 79 -35v-102h-500z" />
    <glyph glyph-name="o" unicode="o" horiz-adv-x="1098" 
d="M356 532c0 -292 64.333 -438.001 193 -438.001c126.667 0 190 114 190 342c0 104.667 -11.333 193.334 -34 266.001c-34 109.333 -90.667 164 -170 164c-119.333 0 -179 -111.333 -179 -334zM541 -20.001c-149.333 0 -268.668 49.332 -358.001 147.999
c-85.333 94.667 -128 217.334 -128 368.001c0 140 48 255.667 144 347c94 89.333 211.333 134 352 134c144.667 0 262.334 -47.5 353.001 -142.5s136 -214.833 136 -359.5c0 -146 -46.667 -265 -140 -357s-213 -138 -359 -138z" />
    <glyph glyph-name="p" unicode="p" horiz-adv-x="1141" 
d="M434 334c0 -73.333 8.33301 -126 25 -158c24.667 -46.667 71 -70 139 -70c142 0 213 111.333 213 334c0 90 -18.333 165.333 -55 226c-44.667 73.333 -109 110 -193 110c-86 0 -129 -43.667 -129 -131v-311zM33 -389l0.000976562 102c43.333 4 74.333 14.5 93 31.5
s28 46.833 28 89.5v905l-127 62v65l179 64c96 32.667 161 49 195 49c8 0 14.333 -0.666992 19 -2v-119c91.333 79.333 186.333 119 285 119c117.333 0 210.666 -46.667 279.999 -140c62.667 -84 94 -186.333 94 -307c0 -146 -40.333 -270.333 -121 -373
c-87.333 -111.333 -202 -167 -344 -167c-60 0 -120 15.667 -180 47v-203c0 -45.333 14 -77 42 -95c20.667 -14 56 -22.667 106 -26v-102h-549z" />
    <glyph glyph-name="q" unicode="q" horiz-adv-x="1141" 
d="M721 109c-91.333 -79.333 -186.333 -119 -285 -119c-117.333 0 -210.666 46 -279.999 138c-63.333 83.333 -95 185.333 -95 306c0 157.333 43.667 286 131 386c92 104.667 215.667 157 371 157c54 0 109.833 -9.83301 167.5 -29.5s87.167 -29.5 88.5 -29.5
c37.333 0 75.666 19.667 114.999 59h67v-1145c0 -45.333 14 -77 42 -95c20.667 -14 56 -22.667 106 -26v-100h-549v100c43.333 4 74 14 92 30c19.333 18.667 29 49 29 91v277zM721 635c0 73.333 -8.33301 125.999 -25 157.999c-24 46 -70.333 69 -139 69
c-142 0 -213 -110.667 -213 -332c0 -89.333 18.333 -164.666 55 -225.999c44 -74 107.667 -111 191 -111c87.333 0 131 43.667 131 131v311z" />
    <glyph glyph-name="r" unicode="r" horiz-adv-x="797" 
d="M455 240c0 -52 8.66797 -87.668 26.001 -107.001s51.666 -29.666 102.999 -30.999v-102h-525v102c44 4 75.167 14.5 93.5 31.5s27.5 46.833 27.5 89.5v516l-119 62v65l179 64c96.667 32.667 162 49 196 49c8 0 14.333 -0.666992 19 -2v-150
c83.333 89.333 153 134 209 134c43.333 0 78.333 -14.333 105 -43s40 -65 40 -109c0 -34.667 -12 -71.667 -36 -111c-26 -44.667 -55 -67 -87 -67c-7.33301 0 -29.5 17.667 -66.5 53s-66.833 53 -89.5 53c-50 0 -75 -33.333 -75 -100v-397z" />
    <glyph glyph-name="s" unicode="s" horiz-adv-x="915" 
d="M94 86l-0.00195312 221.002h99c18.667 -56.667 48.334 -103 89.001 -139c44.667 -39.333 95.334 -59 152.001 -59c38.667 0 74.667 9 108 27c40 21.333 60 49.666 60 84.999c0 43.333 -45.333 82.666 -136 117.999c-140.667 55.333 -224.667 92 -252 110
c-90.667 58 -136 135.667 -136 233c0 96 41.667 172 125 228c72.667 48.667 159.334 73 260.001 73c98 0 197.667 -24 299 -72v-204h-90c-41.333 110 -108.333 165 -201 165c-37.333 0 -69.333 -9 -96 -27c-30 -20.667 -45 -49 -45 -85c0 -41.333 44 -79 132 -113
c133.333 -51.333 214.666 -86.666 243.999 -105.999c88 -58 132 -136 132 -234c0 -102.667 -38 -183.334 -114 -242.001c-70 -54 -157.667 -81 -263 -81c-128.667 0 -251 34 -367 102z" />
    <glyph glyph-name="t" unicode="t" horiz-adv-x="696" 
d="M643 37c-94.667 -40 -178.668 -59.999 -252.001 -59.999c-101.333 0 -169.333 35 -204 105c-23.333 47.333 -35 128.666 -35 243.999v522h-115v98l321 301h64v-289h217v-110h-217v-547c0 -55.333 7.66699 -92.333 23 -111c18.667 -22.667 56 -34 112 -34
c22.667 0 51.334 1.66699 86.001 5v-124z" />
    <glyph glyph-name="u" unicode="u" horiz-adv-x="1139" 
d="M1097 137l1.00098 -102.001l-404 -53v110c-88 -73.333 -178 -110 -270 -110c-184.667 0 -277 111 -277 333v402c0 48 -6.83301 81 -20.5 99s-44.834 31.333 -93.501 40v102l387 19v-637c0 -60.667 9 -103.334 27 -128.001c21.333 -29.333 61.333 -44 120 -44
c84.667 0 127 26.667 127 80v475c0 50.667 -9.66699 85.334 -29 104.001c-14 13.333 -35.667 23.333 -65 30v101l375 19v-715c0 -43.333 3.33301 -72.666 10 -87.999c12 -26.667 37 -40 75 -40c10.667 0 23 1 37 3z" />
    <glyph glyph-name="v" unicode="v" horiz-adv-x="1034" 
d="M565 -18h-106l-318 778c-25.333 62.667 -58 94 -98 94v104h459v-103l-21 1c-35.333 2 -53 -13.667 -53 -47c0 -18 7 -44.667 21 -80l139 -354l155 362c11.333 26.667 17 52 17 76c0 27.333 -24 41 -72 41v104h322v-103c-49.333 -10 -88.333 -48 -117 -114z" />
    <glyph glyph-name="w" unicode="w" horiz-adv-x="1485" 
d="M555 -18h-113.002l-327 811c-17.333 43.333 -44.666 65 -81.999 65v100h450v-100c-42 -6 -63 -23.667 -63 -53c0 -17.333 8 -48 24 -92l123 -336l123 338c14 38.667 21 65.334 21 80.001c0 38.667 -31.333 59.667 -94 63l-1 100h361l-1 -100
c-54 -2.66699 -81 -20.334 -81 -53.001c0 -15.333 8.33301 -46.333 25 -93l122 -341l134 344c13.333 34 20 60.667 20 80c0 37.333 -27 58.333 -81 63l-1 100h336v-99c-45.333 -3.33301 -84.333 -46 -117 -128c-68.667 -164.667 -165.667 -414.334 -291 -749.001h-124
l-179 487c-43.333 -107.333 -104.666 -269.666 -183.999 -486.999z" />
    <glyph glyph-name="x" unicode="x" horiz-adv-x="1034" 
d="M43 0l-0.000976562 103.997c72 8.66699 132.667 44.334 182 107.001l172 221l-250 345c-20 27.333 -34.667 45 -44 53c-17.333 14.667 -38.666 22.667 -63.999 24v104h463v-104c-41.333 0 -62 -13.667 -62 -41c0 -16.667 39.667 -75.334 119 -176.001
c86 101.333 129 162 129 182c0 28.667 -25.333 40.334 -76 35.001v104h365v-104c-51.333 0 -107.333 -39 -168 -117l-166 -213l148 -206c98 -129.333 166 -200.666 204 -213.999v-104h-465v104c48 0 72 14.333 72 43c0 20.667 -17.667 53.334 -53 98.001l-68 77
c-77.333 -96.667 -116 -154 -116 -172c0 -30.667 22.333 -46 67 -46v-104h-389z" />
    <glyph glyph-name="y" unicode="y" horiz-adv-x="1034" 
d="M39 958l477.001 0.000976562v-96c-43.333 0 -65 -16.333 -65 -49c0 -28.667 24.333 -105.334 73 -230.001l80 -196l119 348c9.33301 27.333 14 47.333 14 60c0 40 -30.667 62.667 -92 68v95h354v-96c-52.667 -11.333 -101 -73.333 -145 -186l-313 -805
c-69.333 -178.667 -174 -268 -314 -268c-50.667 0 -93.334 13.333 -128.001 40c-37.333 28.667 -56 67.667 -56 117c0 36.667 11.667 68.167 35 94.5s53.333 39.5 90 39.5c38.667 0 73.5 -17.833 104.5 -53.5s51.5 -53.5 61.5 -53.5c30.667 0 60.667 30.667 90 92l47 121
l-340 813c-13.333 32.667 -44 49 -92 49v96z" />
    <glyph glyph-name="z" unicode="z" horiz-adv-x="909" 
d="M43 0l-0.000976562 109l494 753h-27c-85.333 0 -151.666 -10 -198.999 -30c-62.667 -26 -109 -72.667 -139 -140h-86v285h29c18 -12.667 64.333 -19 139 -19h600v-96l-483 -753h159c109.333 0 197 64.667 263 194h96l-74 -303h-772z" />
    <glyph glyph-name="braceleft" unicode="{" 
d="M852 1516v-60.9971c-80 -2 -135 -20.5 -165 -55.5s-45 -115.833 -45 -242.5v-54v-54c0 -146 -17.333 -245.667 -52 -299c-36.667 -54.667 -102.334 -93 -197.001 -115c94.667 -21.333 160.334 -59 197.001 -113c34.667 -52.667 52 -151.334 52 -296.001v-57v-56
c0 -126.667 15 -207.5 45 -242.5s85 -53.5 165 -55.5v-59c-157.333 0 -264 24 -320 72c-58 49.333 -87 152.666 -87 309.999c0 14.667 0.333008 36.667 1 66s1 51 1 65c0 126.667 -18.833 210.667 -56.5 252s-108.5 67 -212.5 77v76c104 10 174.833 35.667 212.5 77
s56.5 125 56.5 251c0 14.667 -0.333008 36.5 -1 65.5s-1 50.833 -1 65.5c0 157.333 29 260.666 87 309.999c56 48.667 162.667 73 320 73z" />
    <glyph glyph-name="bar" unicode="|" 
d="M410 1565h206v-2048h-206v2048z" />
    <glyph glyph-name="braceright" unicode="}" 
d="M172 1516c158 0 265.667 -24.5 323 -73.5s86 -152.167 86 -309.5c0 -14.667 -0.333008 -36.667 -1 -66s-1 -51 -1 -65c0 -126 18.833 -209.667 56.5 -251s108.5 -67 212.5 -77v-76c-104 -10 -174.667 -35.667 -212 -77s-56 -124.333 -56 -249v-66
c0.666992 -30 1 -52.333 1 -67c0 -156 -28.333 -258.833 -85 -308.5s-164.667 -74.5 -324 -74.5v59c78.667 1.33301 133.334 19.833 164.001 55.5s46 116.834 46 243.501v56.5v56.5c0 144 17.833 242.667 53.5 296s100.834 90.666 195.501 111.999
c-94.667 22 -159.834 60 -195.501 114s-53.5 152.667 -53.5 296v55.5v54.5c0 126.667 -15.333 208 -46 244s-85.334 54.667 -164.001 56v61z" />
    <glyph glyph-name="asciitilde" unicode="~" horiz-adv-x="1706" 
d="M1530 803v-221c-134.667 -92 -261 -138 -379 -138c-67.333 0 -165 21.833 -293 65.5s-226.333 65.5 -295 65.5c-110 0 -238.333 -52.333 -385 -157v221c141.333 95.333 270.333 143 387 143c68 0 170 -22.167 306 -66.5s230.667 -66.5 284 -66.5
c108.667 0 233.667 51.333 375 154z" />
    <glyph glyph-name="euro" 
d="M952 1305l23.002 -304h-103c-38.667 199.333 -119 299 -241 299c-146.667 0 -232.667 -140.333 -258 -421h422l-45 -103h-381c0 -65.333 1.33301 -112.333 4 -141h327l-45 -103h-270c46 -278 133.333 -417 262 -417c116 0 193.333 107.667 232 323h96l-35 -344
c-124 -79.333 -238 -119 -342 -119c-146 0 -263 58.667 -351 176c-72.667 96 -121 223 -145 381h-127l45 103h74c0 107.333 0.666992 154.333 2 141h-145l45 103h115c29.333 152 82.666 277.333 159.999 376c94 120.667 210.667 181 350 181
c107.333 0 217.666 -43.667 330.999 -131z" />
    <glyph glyph-name="nonbreakingspace" unicode="&#xa0;" 
 />
    <glyph glyph-name="exclamdown" unicode="&#xa1;" horiz-adv-x="688" 
d="M416 1034l57 -896.999c1.33301 -20.667 2 -32.334 2 -35.001c0 -48.667 -12.333 -82 -37 -100c-20 -14.667 -54.667 -22 -104 -22c-92.667 0 -139 39.333 -139 118c0 10 0.666992 23.333 2 40l73 896h146zM506 1333c0 -46.667 -15.333 -86 -46 -118
s-69.334 -48 -116.001 -48c-45.333 0 -84.333 16.333 -117 49s-49 71.667 -49 117c0 46 16.167 84.833 48.5 116.5s71.5 47.5 117.5 47.5c46.667 0 85.334 -15.667 116.001 -47s46 -70.333 46 -117z" />
    <glyph glyph-name="cent" unicode="&#xa2;" 
d="M942 188c-144.667 -142 -285.334 -212.999 -422.001 -212.999c-44.667 0 -100 11.667 -166 35l-110 -231l-88 43l112 229c-129.333 101.333 -194 240.666 -194 417.999c0 137.333 40.333 253 121 347c84.667 99.333 194.334 149 329.001 149
c44.667 0 102 -7.66699 172 -23l113 232l84 -41l-105 -222c92 -41.333 138 -97.333 138 -168c0 -38 -11 -71.667 -33 -101c-24 -32 -54.667 -48 -92 -48c-46 0 -87.667 28.667 -125 86l-211 -444c57.333 -34.667 113.333 -52 168 -52c76.667 0 157 28.667 241 86z
M621 786.001c-26 46.667 -64.333 70 -115 70c-63.333 0 -111.333 -31.667 -144 -95c-25.333 -49.333 -38 -109 -38 -179c0 -94 22.333 -185 67 -273z" />
    <glyph glyph-name="sterling" unicode="&#xa3;" 
d="M469 141c-46.667 -110.667 -123.669 -166.001 -231.002 -166.001c-66 0 -118.333 20.333 -157 61s-58 94.334 -58 161.001c0 56.667 19 104.5 57 143.5s85 58.5 141 58.5c38 0 84.333 -6.66699 139 -20c-1.33301 88.667 -32.666 178.667 -93.999 270h-237v142h170
c-38.667 85.333 -58 174.666 -58 267.999c0 123.333 44.333 219.333 133 288c81.333 62 185.333 93 312 93c80.667 0 157.334 -19.333 230.001 -58c86.667 -46.667 130 -106.667 130 -180c0 -33.333 -10.833 -61.166 -32.5 -83.499s-49.167 -33.5 -82.5 -33.5
c-51.333 0 -94.166 38.333 -128.499 115s-77.5 115 -129.5 115c-51.333 0 -90.333 -24.333 -117 -73c-21.333 -38.667 -32 -86 -32 -142c0 -61.333 21.667 -164.333 65 -309h256v-142h-229c20.667 -73.333 31 -131.333 31 -174c0 -56 -5.66699 -108 -17 -156
c112.667 -55.333 194.667 -83 246 -83c55.333 0 104.666 45.667 147.999 137l77 -29c-19.333 -241.333 -106 -362 -260 -362c-91.333 0 -182 53 -272 159zM359.998 230.999c-34.667 32 -74 48 -118 48c-76.667 0 -115 -32.333 -115 -97c0 -65.333 33.333 -98 100 -98
c82.667 0 127 49 133 147z" />
    <glyph glyph-name="currency" unicode="&#xa4;" 
d="M952 1305l23.002 -304h-103c-38.667 199.333 -119 299 -241 299c-146.667 0 -232.667 -140.333 -258 -421h422l-45 -103h-381c0 -65.333 1.33301 -112.333 4 -141h327l-45 -103h-270c46 -278 133.333 -417 262 -417c116 0 193.333 107.667 232 323h96l-35 -344
c-124 -79.333 -238 -119 -342 -119c-146 0 -263 58.667 -351 176c-72.667 96 -121 223 -145 381h-127l45 103h74c0 107.333 0.666992 154.333 2 141h-145l45 103h115c29.333 152 82.666 277.333 159.999 376c94 120.667 210.667 181 350 181
c107.333 0 217.666 -43.667 330.999 -131z" />
    <glyph glyph-name="yen" unicode="&#xa5;" horiz-adv-x="1434" 
d="M834 582v-275.003c0 -76.667 8 -126.334 24 -149.001c20 -27.333 66.333 -41.666 139 -42.999v-115h-591v115c76 0.666992 125 16.334 147 47.001c16.667 23.333 25 73 25 149v242l-17 29h-504v102h443l-80 139h-363v103h299l-116 206
c-58 102.667 -119 157.334 -183 164.001v117h576v-116l-33 1c-70.667 2 -106 -24.333 -106 -79c0 -24 12.667 -59 38 -105l238 -432c199.333 310.667 299 494.334 299 551.001c0 38 -39 59.333 -117 64v116h385v-116c-48 -2.66699 -110.667 -67.667 -188 -195l-107 -176h301
v-103h-358l-90 -139h448v-102h-509z" />
    <glyph glyph-name="brokenbar" unicode="&#xa6;" 
d="M410 408h206v-758h-206v758zM410 1432h206v-758h-206v758z" />
    <glyph glyph-name="section" unicode="&#xa7;" 
d="M524 1362c-47.333 0 -71 -29.333 -71 -88c0 -48.667 40.667 -140 122 -274c116 -192 191 -324 225 -396c81.333 -171.333 122 -326.333 122 -465c0 -145.333 -35.667 -266.666 -107 -363.999c-80 -109.333 -190 -164 -330 -164c-77.333 0 -144.666 13.667 -201.999 41
c-75.333 34.667 -113 86.334 -113 155.001c0 33.333 11.833 60.833 35.5 82.5s52.167 32.5 85.5 32.5c49.333 0 82.666 -13.667 99.999 -41l48 -90c24.667 -40.667 49 -61 73 -61c53.333 0 80 34 80 102c0 59.333 -40.667 163.333 -122 312
c-134.667 245.333 -210.334 385.666 -227.001 420.999c-81.333 173.333 -122 319.666 -122 438.999c0 141.333 38.333 255.333 115 342c80 91.333 189.667 137 329 137c70 0 132.333 -14.667 187 -44c68 -36 102 -85.667 102 -149c0 -74.667 -42.333 -112 -127 -112
c-39.333 0 -70.666 16 -93.999 48l-46 88c-16.667 32 -37.667 48 -63 48zM729 -27c15.333 56 23.001 104.002 23.001 144.002c0 98.667 -29.667 216 -89 352c-34.667 80 -97.334 200.667 -188.001 362c-86.667 153.333 -144 264.666 -172 333.999
c-12 -48 -18 -91.667 -18 -131c0 -84 35 -204.333 105 -361c20 -44 78.667 -160.333 176 -349l90 -172c34 -68.667 58.333 -128.334 73 -179.001z" />
    <glyph glyph-name="dieresis" unicode="&#xa8;" 
d="M573 1251c0 32.667 12 60.667 36 84s52.333 35 85 35s60.667 -11.667 84 -35s35 -51.333 35 -84c0 -35.333 -11 -64.333 -33 -87s-50.667 -34 -86 -34c-34 0 -62.667 11.667 -86 35s-35 52 -35 86zM209 1251c0 32.667 12 60.667 36 84s52.333 35 85 35
s60.667 -11.667 84 -35s35 -51.333 35 -84c0 -35.333 -11 -64.333 -33 -87s-50.667 -34 -86 -34c-34.667 0 -63.5 11.5 -86.5 34.5s-34.5 51.833 -34.5 86.5z" />
    <glyph glyph-name="copyright" unicode="&#xa9;" horiz-adv-x="1683" 
d="M1126 1102l45.001 -0.000976562v-326h-47c-43.333 182 -131.333 273 -264 273c-155.333 0 -233 -121.667 -233 -365c0 -251.333 81.667 -377 245 -377c106.667 0 197.667 58 273 174l45 -28c-84.667 -143.333 -200.667 -215 -348 -215
c-122.667 0 -225.334 40.333 -308.001 121s-124 182.334 -124 305.001c0 126 39.667 231.167 119 315.5s181.666 126.5 306.999 126.5c38.667 0 86.834 -11 144.501 -33s87.167 -33 88.5 -33c30.667 0 49.667 20.667 57 62zM844.001 1309
c-174 0 -322.001 -61.667 -444.001 -185s-183 -272 -183 -446c0 -175.333 60.5 -323.666 181.5 -444.999s268.833 -182 443.5 -182c172.667 0 319.834 61.167 441.501 183.5s182.5 270.166 182.5 443.499s-60.5 321.833 -181.5 445.5s-267.833 185.5 -440.5 185.5zM844 1413
c200 0 371.833 -72.501 515.5 -217.501s215.5 -317.5 215.5 -517.5c0 -201.333 -71.833 -373.5 -215.5 -516.5s-316.167 -214.5 -517.5 -214.5c-202.667 0 -375.167 71.167 -517.5 213.5s-213.5 314.833 -213.5 517.5s71.5 375.834 214.5 519.501s315.833 215.5 518.5 215.5
z" />
    <glyph glyph-name="ordfeminine" unicode="&#xaa;" horiz-adv-x="772" 
d="M461 840c-75.333 -48 -144.998 -72.002 -208.998 -72.002c-56 0 -103 13.333 -141 40c-42.667 30 -64 72 -64 126c0 105.333 132.333 187.333 397 246v110c0 70 -32.667 105 -98 105c-60 0 -90 -17.333 -90 -52c0 -8.66699 4.16699 -21 12.5 -37s12.5 -26 12.5 -30
c0 -13.333 -20 -27.666 -60 -42.999c-36.667 -14 -64 -21 -82 -21c-34 0 -51 32.333 -51 97c0 55.333 33.333 97 100 125c49.333 20 106.666 30 171.999 30c102.667 0 173 -11.333 211 -34c52 -31.333 78 -93.666 78 -186.999v-285c0 -43.333 11 -65 33 -65
c12.667 0 29 5.33301 49 16c0 -44.667 -14.333 -80 -43 -106s-65.334 -39 -110.001 -39c-54 0 -93 25.333 -117 76zM444.002 927.998v174c-133.333 -36.667 -200 -83.667 -200 -141c0 -49.333 30 -74 90 -74c33.333 0 70 13.667 110 41z" />
    <glyph glyph-name="guillemotleft" unicode="&#xab;" horiz-adv-x="977" 
d="M713 82c-69.333 128.667 -152.667 259.667 -250 393c94.667 132 178 265 250 399h190c-60 -139.333 -137 -272.333 -231 -399c87.333 -117.333 164.333 -248.333 231 -393h-190zM323.999 82c-69.333 128.667 -152.667 259.667 -250 393c94.667 132 178 265 250 399h188
c-60 -139.333 -137 -272.333 -231 -399c87.333 -117.333 164.333 -248.333 231 -393h-188z" />
    <glyph glyph-name="logicalnot" unicode="&#xac;" horiz-adv-x="1706" 
d="M254 864h1198v-502h-199v306h-999v196z" />
    <glyph glyph-name="sfthyphen" unicode="&#xad;" horiz-adv-x="692" 
d="M96 356v250h500v-250h-500z" />
    <glyph glyph-name="registered" unicode="&#xae;" horiz-adv-x="1683" 
d="M760 723c11.333 -1.33301 25.667 -2 43 -2c128 0 192 60 192 180c0 41.333 -14.5 76 -43.5 104s-64.167 42 -105.5 42c-57.333 0 -86 -22 -86 -66v-258zM465.001 1098l403.001 -0.000976562c79.333 0 148.333 -13.667 207 -41c76.667 -35.333 115 -88 115 -158
c0 -67.333 -31.333 -118.666 -94 -153.999c-40.667 -22 -102.334 -40.333 -185.001 -55c124 -28.667 197 -93.334 219 -194.001c4 -31.333 7.66699 -62.333 11 -93c8 -43.333 23 -65 45 -65c38 0 57 43 57 129h51v-23c0 -120 -57.333 -180 -172 -180
c-88 0 -141.333 35.333 -160 106l-30 198c-21.333 70.667 -78.666 106 -171.999 106v-246c0 -32.667 8.33301 -55.667 25 -69c13.333 -10.667 37.666 -18.334 72.999 -23.001v-51h-393v50c37.333 2.66699 63.333 9.33398 78 20.001c18.667 14 28 38.333 28 73v522
c0 34.667 -9.33301 59.334 -28 74.001c-14.667 10.667 -40.667 17.667 -78 21v53zM844.002 1309c-173.333 0 -321.168 -61.667 -443.501 -185s-183.5 -272 -183.5 -446c0 -175.333 60.5 -323.666 181.5 -444.999s268.833 -182 443.5 -182
c172.667 0 319.834 61.167 441.501 183.5s182.5 270.166 182.5 443.499c0 172 -60.833 320.167 -182.5 444.5s-268.167 186.5 -439.5 186.5zM844 1413c206 0 379 -72.833 519 -218.5s210 -321.834 210 -528.501c0 -196.667 -72.667 -365.667 -218 -507
s-316.333 -212 -513 -212c-202 0 -374.333 71.333 -517 214s-214 315 -214 517c0 202.667 71.5 375.834 214.5 519.501s315.833 215.5 518.5 215.5z" />
    <glyph glyph-name="macron" unicode="&#xaf;" 
d="M236 1178v147h552v-147h-552z" />
    <glyph glyph-name="macron" unicode="&#x2c9;" 
d="M236 1178v147h552v-147h-552z" />
    <glyph glyph-name="degree" unicode="&#xb0;" horiz-adv-x="674" 
d="M338 1335c-48.667 0 -90.167 -16.832 -124.5 -50.499s-51.5 -74.834 -51.5 -123.501c0 -49.333 17 -91 51 -125s75.667 -51 125 -51c48 0 89 17.333 123 52s51 76 51 124s-17 89 -51 123s-75 51 -123 51zM338 1464c84.667 0 156.332 -29.667 214.999 -89
s88 -131.333 88 -216s-29.667 -156.334 -89 -215.001s-131.333 -88 -216 -88s-156 29.333 -214 88s-87 130.334 -87 215.001s29.333 156.667 88 216s130.334 89 215.001 89z" />
    <glyph glyph-name="plusminus" unicode="&#xb1;" horiz-adv-x="1706" 
d="M254 197h1198v-199h-1198v199zM752 1223h202v-326h498v-199h-498v-325h-202v325h-498v199h498v326z" />
    <glyph glyph-name="twosuperior" unicode="&#xb2;" horiz-adv-x="676" 
d="M31 565l0.000976562 57.999c256.667 228.667 385 407.334 385 536.001c0 42.667 -14.333 77.334 -43 104.001s-64.334 40 -107.001 40c-48 0 -106.667 -23.333 -176 -70l-45 45c113.333 99.333 216.333 149 309 149c68 0 123.667 -17.667 167 -53
c46 -38 69 -90.333 69 -157c0 -98.667 -124.333 -265.334 -373 -500.001h211c66 0 112.333 23.667 139 71l56 -12l-80 -211h-512z" />
    <glyph glyph-name="threesuperior" unicode="&#xb3;" horiz-adv-x="676" 
d="M154 950v72.0029c62 5.33301 113.667 19.666 155 42.999c54.667 30.667 82 73 82 127c0 35.333 -14 63.666 -42 84.999c-25.333 18.667 -56.333 28 -93 28c-52 0 -108.667 -24 -170 -72l-41 47c82 96.667 177.667 145 287 145c60.667 0 113.667 -14.333 159 -43
c53.333 -34 80 -79.667 80 -137c0 -72 -43.667 -135.333 -131 -190c112 -44.667 168 -113 168 -205c0 -97.333 -45 -174 -135 -230c-76.667 -47.333 -166.667 -71 -270 -71c-116 0 -174 27.333 -174 82c0 32.667 18.333 49 55 49c20 0 49.5 -6.5 88.5 -19.5
s68.833 -19.5 89.5 -19.5c44.667 0 82.667 12.333 114 37c33.333 27.333 50 62.666 50 105.999c0 110.667 -90.667 166 -272 166z" />
    <glyph glyph-name="acute" unicode="&#xb4;" 
d="M317 1087l273 283c51.333 53.333 96.333 80 135 80c60 0 90 -30 90 -90c0 -38 -31.333 -73.667 -94 -107l-313 -166h-91z" />
    <glyph glyph-name="mu" unicode="&#xb5;" horiz-adv-x="1202" 
d="M178 209l-44 -365.999c-32 -178 -78.667 -267 -140 -267c-76.667 0 -115 38.333 -115 115c0 30.667 22.667 122 68 274c44.667 149.333 80 285.333 106 408l109 512h256l-99 -459c-14.667 -68 -22 -117 -22 -147c0 -83.333 38.333 -125 115 -125
c91.333 0 152.666 73 183.999 219l109 512h256l-115 -533c-11.333 -52.667 -17 -89.334 -17 -110.001c0 -58.667 24.667 -88 74 -88c40.667 0 72.667 17 96 51c8 10.667 22.667 42 44 94c14 34 29.667 51 47 51c21.333 0 32 -13 32 -39c0 -22.667 -5.33301 -52 -16 -88
c-50 -165.333 -143 -248 -279 -248c-110 0 -171.333 66.333 -184 199c-50 -132.667 -132.667 -199 -248 -199c-129.333 0 -201.666 78 -216.999 234z" />
    <glyph glyph-name="mu" unicode="&#x3bc;" horiz-adv-x="1202" 
d="M178 209l-44 -365.999c-32 -178 -78.667 -267 -140 -267c-76.667 0 -115 38.333 -115 115c0 30.667 22.667 122 68 274c44.667 149.333 80 285.333 106 408l109 512h256l-99 -459c-14.667 -68 -22 -117 -22 -147c0 -83.333 38.333 -125 115 -125
c91.333 0 152.666 73 183.999 219l109 512h256l-115 -533c-11.333 -52.667 -17 -89.334 -17 -110.001c0 -58.667 24.667 -88 74 -88c40.667 0 72.667 17 96 51c8 10.667 22.667 42 44 94c14 34 29.667 51 47 51c21.333 0 32 -13 32 -39c0 -22.667 -5.33301 -52 -16 -88
c-50 -165.333 -143 -248 -279 -248c-110 0 -171.333 66.333 -184 199c-50 -132.667 -132.667 -199 -248 -199c-129.333 0 -201.666 78 -216.999 234z" />
    <glyph glyph-name="paragraph" unicode="&#xb6;" 
d="M983 1479l0.000976562 -111.001h-113v-1368h-151v1368h-158v-1368h-153v784c-106.667 4 -193.334 35.667 -260.001 95c-71.333 62.667 -107 146.334 -107 251.001c0 110.667 38.333 197.667 115 261c71.333 58.667 163.333 88 276 88h551z" />
    <glyph glyph-name="ch270" unicode="&#xb7;" horiz-adv-x="512" 
d="M92 713c0 46 15.833 84.333 47.5 115s70.5 46 116.5 46s84.833 -15.333 116.5 -46s47.5 -69 47.5 -115s-15.833 -85.167 -47.5 -117.5s-70.5 -48.5 -116.5 -48.5c-46.667 0 -85.667 16 -117 48s-47 71.333 -47 118z" />
    <glyph glyph-name="ch270" unicode="&#x2219;" horiz-adv-x="512" 
d="M92 713c0 46 15.833 84.333 47.5 115s70.5 46 116.5 46s84.833 -15.333 116.5 -46s47.5 -69 47.5 -115s-15.833 -85.167 -47.5 -117.5s-70.5 -48.5 -116.5 -48.5c-46.667 0 -85.667 16 -117 48s-47 71.333 -47 118z" />
    <glyph glyph-name="cedilla" unicode="&#xb8;" 
d="M227 -377l41.001 90c91.333 -48.667 174 -73 248 -73c58.667 0 88 27 88 81c0 57.333 -33.333 86 -100 86c-12.667 0 -33.334 -1.66699 -62.001 -5v198h70v-114c26.667 3.33301 48.667 5 66 5c55.333 0 99.333 -14.333 132 -43c34.667 -30.667 52 -73 52 -127
c0 -118.667 -76.667 -178 -230 -178c-72 0 -173.667 26.667 -305 80z" />
    <glyph glyph-name="onesuperior" unicode="&#xb9;" horiz-adv-x="676" 
d="M592 635l0.000976562 -70h-481v70c58 0 93.333 3.33301 106 10c23.333 11.333 35 42 35 92v520c0 27.333 -18.667 43 -56 47c-10.667 1.33301 -39 0.333008 -85 -3v57c59.333 6 170.333 28.333 333 67v-688c0 -50 13 -81 39 -93c13.333 -6 49.666 -9 108.999 -9z" />
    <glyph glyph-name="ordmasculine" unicode="&#xba;" horiz-adv-x="823" 
d="M268 1153c0 -204.667 48 -307 144 -307c95.333 0 143 79.667 143 239c0 200.667 -51.333 301 -154 301c-88.667 0 -133 -77.667 -133 -233zM406 766c-108.667 0 -196.667 33.002 -264 99.002s-101 153 -101 261c0 101.333 37.333 183.666 112 246.999
c71.333 60.667 158.333 91 261 91c105.333 0 192.333 -32 261 -96c70 -66 105 -151.333 105 -256s-36.667 -189.334 -110 -254.001c-70 -61.333 -158 -92 -264 -92z" />
    <glyph glyph-name="guillemotright" unicode="&#xbb;" horiz-adv-x="977" 
d="M653 82h-190.001c66.667 144.667 143.667 275.667 231 393c-94 126.667 -171 259.667 -231 399h190c72 -134 155.333 -267 250 -399c-97.333 -133.333 -180.666 -264.333 -249.999 -393zM261.999 82h-188.001c66.667 144.667 143.667 275.667 231 393
c-94 126.667 -171 259.667 -231 399h188c76 -141.333 159.333 -274.333 250 -399c-97.333 -133.333 -180.666 -264.333 -249.999 -393z" />
    <glyph glyph-name="onequarter" unicode="&#xbc;" horiz-adv-x="1632" 
d="M1333 -10v205h-313v137l366 459h117v-476h103v-120h-103v-205h-170zM1098 315h235v310zM303 -25l879 1463h145l-876 -1463h-148zM567 684l-0.00195312 -63.001h-461v63c54.667 0 88.334 3 101.001 9c23.333 11.333 35 40.333 35 87v486c0 25.333 -17.667 40 -53 44
c-11.333 1.33301 -38 0.333008 -80 -3v53c55.333 6 161 27 317 63v-643c0 -47.333 12.333 -76.666 37 -87.999c12.667 -5.33301 47.334 -8 104.001 -8z" />
    <glyph glyph-name="onehalf" unicode="&#xbd;" horiz-adv-x="1632" 
d="M1016 0v53c244 211.333 366 378.666 366 501.999c0 40 -13.5 72.167 -40.5 96.5s-60.5 36.5 -100.5 36.5c-49.333 0 -105.333 -21 -168 -63l-43 41c109.333 92.667 207.666 139 294.999 139c64.667 0 117.334 -16.333 158.001 -49c44.667 -35.333 67 -84.666 67 -147.999
c0 -81.333 -118.667 -237 -356 -467h203c62 0 105.667 22.667 131 68l53 -12l-76 -197h-489zM303 -25l879 1463h145l-876 -1463h-148zM567 684l-0.00195312 -63.001h-461v63c54.667 0 88.334 3 101.001 9c23.333 11.333 35 40.333 35 87v486c0 25.333 -17.667 40 -53 44
c-11.333 1.33301 -38 0.333008 -80 -3v53c55.333 6 161 27 317 63v-643c0 -47.333 12.333 -76.666 37 -87.999c12.667 -5.33301 47.334 -8 104.001 -8z" />
    <glyph glyph-name="threequarters" unicode="&#xbe;" horiz-adv-x="1632" 
d="M1333 -10v205h-313v137l366 459h117v-476h103v-120h-103v-205h-170zM1098 315h235v310zM303 -25l879 1463h145l-876 -1463h-148zM147 981l1 65.999c57.333 4 106.333 17 147 39c52 29.333 78 69.333 78 120c0 32.667 -13.667 59 -41 79c-24.667 17.333 -54 26 -88 26
c-50.667 0 -104.667 -22.667 -162 -68l-39 43c78 91.333 169.333 137 274 137c57.333 0 107.666 -13.333 150.999 -40c51.333 -31.333 77 -74 77 -128c0 -67.333 -41.667 -126.666 -125 -177.999c108 -42 162 -106 162 -192c0 -91.333 -43.667 -163 -131 -215
c-73.333 -44 -158.666 -66 -255.999 -66c-112 0 -168 26 -168 78c0 31.333 17.667 47 53 47c19.333 0 47.5 -6.5 84.5 -19.5s65.5 -19.5 85.5 -19.5c42 0 78 11.667 108 35c32 26 48 59.333 48 100c0 104 -86.333 156 -259 156z" />
    <glyph glyph-name="questiondown" unicode="&#xbf;" horiz-adv-x="915" 
d="M614 1036l19.0029 -309.001c-126 -44.667 -205.333 -75.667 -238 -93c-96.667 -52 -145 -113.667 -145 -185c0 -96.667 39.333 -160 118 -190l221 -41c78.667 -17.333 118 -58 118 -122c0 -77.333 -50 -116 -150 -116c-78.667 0 -161.334 39.333 -248.001 118
c-75.333 68 -132.333 143.333 -171 226c-36 74.667 -54 150.334 -54 227.001c0 88 26 158.333 78 211c30 30 82.333 62 157 96c65.333 30.667 104.666 58 117.999 82c11.333 20 18.666 52 21.999 96h155zM696.003 1315c0 -46.667 -15.667 -85.332 -47 -115.999
s-70.333 -46 -117 -46c-45.333 0 -83.833 15.667 -115.5 47s-47.5 69.666 -47.5 114.999c0 46 15.833 85.167 47.5 117.5s70.167 48.5 115.5 48.5c46 0 84.833 -16.167 116.5 -48.5s47.5 -71.5 47.5 -117.5z" />
    <glyph glyph-name="Agrave" unicode="&#xc0;" horiz-adv-x="1479" 
d="M47 0v119c65.333 16 116 76.667 152 182l350 1022c5.33301 15.333 8 29 8 41c0 27.333 -15 56 -45 86h367l409 -1171c34.667 -98.667 82.667 -152 144 -160v-119h-635v119c86 4 129 34 129 90c0 26.667 -11.333 79.667 -34 159l-42 140h-447l-40 -135
c-18 -64 -27 -112.667 -27 -146c0 -72 43 -108 129 -108v-119h-418zM449 635h348l-172 522zM922 1589h-91l-313 166c-62.667 33.333 -94 69 -94 107c0 60 30 90 90 90c38.667 0 83.667 -26.667 135 -80z" />
    <glyph glyph-name="Aacute" unicode="&#xc1;" horiz-adv-x="1479" 
d="M47 0v119c65.333 16 116 76.667 152 182l350 1022c5.33301 15.333 8 29 8 41c0 27.333 -15 56 -45 86h367l409 -1171c34.667 -98.667 82.667 -152 144 -160v-119h-635v119c86 4 129 34 129 90c0 26.667 -11.333 79.667 -34 159l-42 140h-447l-40 -135
c-18 -64 -27 -112.667 -27 -146c0 -72 43 -108 129 -108v-119h-418zM449 635h348l-172 522zM532 1589l273 283c51.333 53.333 96.333 80 135 80c60 0 90 -30 90 -90c0 -38 -31.333 -73.667 -94 -107l-313 -166h-91z" />
    <glyph glyph-name="Acircumflex" unicode="&#xc2;" horiz-adv-x="1479" 
d="M47 0v119c65.333 16 116 76.667 152 182l350 1022c5.33301 15.333 8 29 8 41c0 27.333 -15 56 -45 86h367l409 -1171c34.667 -98.667 82.667 -152 144 -160v-119h-635v119c86 4 129 34 129 90c0 26.667 -11.333 79.667 -34 159l-42 140h-447l-40 -135
c-18 -64 -27 -112.667 -27 -146c0 -72 43 -108 129 -108v-119h-418zM449 635h348l-172 522zM428 1545l225 349h148l225 -349h-84l-215 181l-215 -181h-84z" />
    <glyph glyph-name="Atilde" unicode="&#xc3;" horiz-adv-x="1479" 
d="M47 0v119c65.333 16 116 76.667 152 182l350 1022c5.33301 15.333 8 29 8 41c0 27.333 -15 56 -45 86h367l409 -1171c34.667 -98.667 82.667 -152 144 -160v-119h-635v119c86 4 129 34 129 90c0 26.667 -11.333 79.667 -34 159l-42 140h-447l-40 -135
c-18 -64 -27 -112.667 -27 -146c0 -72 43 -108 129 -108v-119h-418zM449 635h348l-172 522zM1016 1911c-20 -164 -88.333 -246 -205 -246c-24.667 0 -61.167 7.16699 -109.5 21.5s-84.833 21.5 -109.5 21.5c-39.333 0 -69.333 -28.667 -90 -86h-66
c22.667 164 93 246 211 246c24.667 0 60.167 -7.16699 106.5 -21.5s81.166 -21.5 104.499 -21.5c40.667 0 71.334 28.667 92.001 86h66z" />
    <glyph glyph-name="Adieresis" unicode="&#xc4;" horiz-adv-x="1479" 
d="M47 0v119c65.333 16 116 76.667 152 182l350 1022c5.33301 15.333 8 29 8 41c0 27.333 -15 56 -45 86h367l409 -1171c34.667 -98.667 82.667 -152 144 -160v-119h-635v119c86 4 129 34 129 90c0 26.667 -11.333 79.667 -34 159l-42 140h-447l-40 -135
c-18 -64 -27 -112.667 -27 -146c0 -72 43 -108 129 -108v-119h-418zM449 635h348l-172 522zM788 1753c0 32.667 12 60.667 36 84s52.333 35 85 35s60.667 -11.667 84 -35s35 -51.333 35 -84c0 -35.333 -11 -64.333 -33 -87s-50.667 -34 -86 -34c-34 0 -62.667 11.667 -86 35
s-35 52 -35 86zM424 1753c0 32.667 12 60.667 36 84s52.333 35 85 35s60.667 -11.667 84 -35s35 -51.333 35 -84c0 -35.333 -11 -64.333 -33 -87s-50.667 -34 -86 -34c-34.667 0 -63.5 11.5 -86.5 34.5s-34.5 51.833 -34.5 86.5z" />
    <glyph glyph-name="Aring" unicode="&#xc5;" horiz-adv-x="1479" 
d="M586 1731c0 -36 12.167 -66.167 36.5 -90.5s54.5 -36.5 90.5 -36.5s66.167 12.167 90.5 36.5s36.5 54.5 36.5 90.5c0 35.333 -12.333 65.333 -37 90s-54.667 37 -90 37s-65.333 -12.333 -90 -37s-37 -54.667 -37 -90zM471 1731c0 68 23 125.167 69 171.5
s103 69.5 171 69.5s125.5 -23.167 172.5 -69.5s70.5 -103.5 70.5 -171.5s-23.5 -125.333 -70.5 -172s-104.5 -70 -172.5 -70s-125 23.333 -171 70s-69 104 -69 172zM47 0v119.001c42 10 75.333 32.667 100 68c16 23.333 33.333 61.333 52 114l346 996
c5.33301 15.333 8 28.666 8 39.999c0 27.333 -15 56 -45 86h375l405 -1144c35.333 -98.667 83.333 -152 144 -160v-119h-635v119c86 4 129 34 129 90c0 26.667 -11.333 79.667 -34 159l-42 140h-447l-40 -135c-18 -64 -27 -112.667 -27 -146c0 -72 43 -108 129 -108v-119
h-418zM449 635.001h348l-172 522z" />
    <glyph glyph-name="AE" unicode="&#xc6;" horiz-adv-x="2048" 
d="M29 0v119c59.333 12 105 61.667 137 149l315 860c18 49.333 27 87 27 113c0 66.667 -46.333 100 -139 100l14 109h1221l100 -297l-94 -8c-78.667 98 -164.334 158 -257.001 180c-44 10.667 -152.333 16 -325 16c-32.667 0 -49 -12 -49 -36c0 -10.667 2.66699 -25 8 -43
l150 -504h178c56 0 95.333 10.667 118 32c19.333 18.667 29 50.334 29 95.001c0 17.333 -1.33301 39.666 -4 66.999h107l157 -446h-114c-30.667 60 -74.334 101.333 -131.001 124c-41.333 16.667 -99 25 -173 25c-14 0 -35.5 -0.333008 -64.5 -1s-50.833 -1 -65.5 -1
l104 -342c22.667 -73.333 43.334 -120 62.001 -140c26.667 -28 74.334 -42 143.001 -42c100 0 181.667 19.667 245 59c59.333 36 116 98.333 170 187h113l-86 -375h-1139v119c98.667 0 148 30 148 90c0 29.333 -11.667 80 -35 152l-51 147h-457l-54 -145
c-24 -70 -36 -122 -36 -156c0 -52.667 46.333 -82 139 -88v-119h-411zM442 631h371l-168 557z" />
    <glyph glyph-name="Ccedilla" unicode="&#xc7;" horiz-adv-x="1479" 
d="M1374 92c-214 -82 -399 -123 -555 -123c-222 0 -402.333 67.333 -541 202s-208 312.667 -208 534c0 217.333 73.167 401 219.5 551s327.833 225 544.5 225c159.333 0 319.666 -46 480.999 -138l33 -313h-127c-68.667 217.333 -197.667 326 -387 326
c-139.333 0 -242.666 -63.667 -309.999 -191c-52 -100 -78 -226.333 -78 -379c0 -169.333 30.333 -316.333 91 -441c78 -160.667 192.667 -241 344 -241c187.333 0 320.333 115 399 345h131zM536 -377l41.001 90c91.333 -48.667 174 -73 248 -73c58.667 0 88 27 88 81
c0 57.333 -33.333 86 -100 86c-12.667 0 -33.334 -1.66699 -62.001 -5v198h70v-114c26.667 3.33301 48.667 5 66 5c55.333 0 99.333 -14.333 132 -43c34.667 -30.667 52 -73 52 -127c0 -118.667 -76.667 -178 -230 -178c-72 0 -173.667 26.667 -305 80z" />
    <glyph glyph-name="Egrave" unicode="&#xc8;" horiz-adv-x="1360" 
d="M66 0l0.00195312 119c63.333 6.66699 106 20.667 128 42s33 63.333 33 126v876c0 62.667 -11 104.667 -33 126s-64.667 35.333 -128 42v119h1138v-299h-110c-54.667 124 -163.334 186 -326.001 186c-70.667 0 -113 -2 -127 -6c-38 -12 -57 -44 -57 -96v-401h153
c128.667 0 201 56.667 217 170h119v-482h-118c-14 126 -86.667 189 -218 189h-153v-398c0 -66 14.667 -112 44 -138c27.333 -24 74.666 -36 141.999 -36c189.333 0 334 83.333 434 250h115l-86 -389h-1167zM875.002 1589h-91l-313 166c-62.667 33.333 -94 69 -94 107
c0 60 30 90 90 90c38.667 0 83.667 -26.667 135 -80z" />
    <glyph glyph-name="Eacute" unicode="&#xc9;" horiz-adv-x="1360" 
d="M66 0l0.00195312 119c63.333 6.66699 106 20.667 128 42s33 63.333 33 126v876c0 62.667 -11 104.667 -33 126s-64.667 35.333 -128 42v119h1138v-299h-110c-54.667 124 -163.334 186 -326.001 186c-70.667 0 -113 -2 -127 -6c-38 -12 -57 -44 -57 -96v-401h153
c128.667 0 201 56.667 217 170h119v-482h-118c-14 126 -86.667 189 -218 189h-153v-398c0 -66 14.667 -112 44 -138c27.333 -24 74.666 -36 141.999 -36c189.333 0 334 83.333 434 250h115l-86 -389h-1167zM485.002 1589l273 283c51.333 53.333 96.333 80 135 80
c60 0 90 -30 90 -90c0 -38 -31.333 -73.667 -94 -107l-313 -166h-91z" />
    <glyph glyph-name="Ecircumflex" unicode="&#xca;" horiz-adv-x="1360" 
d="M66 0l0.00195312 119c63.333 6.66699 106 20.667 128 42s33 63.333 33 126v876c0 62.667 -11 104.667 -33 126s-64.667 35.333 -128 42v119h1138v-299h-110c-54.667 124 -163.334 186 -326.001 186c-70.667 0 -113 -2 -127 -6c-38 -12 -57 -44 -57 -96v-401h153
c128.667 0 201 56.667 217 170h119v-482h-118c-14 126 -86.667 189 -218 189h-153v-398c0 -66 14.667 -112 44 -138c27.333 -24 74.666 -36 141.999 -36c189.333 0 334 83.333 434 250h115l-86 -389h-1167zM382.002 1545l225 349h148l225 -349h-84l-215 181l-215 -181h-84z
" />
    <glyph glyph-name="Edieresis" unicode="&#xcb;" horiz-adv-x="1360" 
d="M66 0l0.00195312 119c63.333 6.66699 106 20.667 128 42s33 63.333 33 126v876c0 62.667 -11 104.667 -33 126s-64.667 35.333 -128 42v119h1138v-299h-110c-54.667 124 -163.334 186 -326.001 186c-70.667 0 -113 -2 -127 -6c-38 -12 -57 -44 -57 -96v-401h153
c128.667 0 201 56.667 217 170h119v-482h-118c-14 126 -86.667 189 -218 189h-153v-398c0 -66 14.667 -112 44 -138c27.333 -24 74.666 -36 141.999 -36c189.333 0 334 83.333 434 250h115l-86 -389h-1167zM741.002 1753c0 32.667 12 60.667 36 84s52.333 35 85 35
s60.667 -11.667 84 -35s35 -51.333 35 -84c0 -35.333 -11 -64.333 -33 -87s-50.667 -34 -86 -34c-34 0 -62.667 11.667 -86 35s-35 52 -35 86zM377.002 1753c0 32.667 12 60.667 36 84s52.333 35 85 35s60.667 -11.667 84 -35s35 -51.333 35 -84
c0 -35.333 -11 -64.333 -33 -87s-50.667 -34 -86 -34c-34.667 0 -63.5 11.5 -86.5 34.5s-34.5 51.833 -34.5 86.5z" />
    <glyph glyph-name="Igrave" unicode="&#xcc;" horiz-adv-x="801" 
d="M63 0v119c64 6.66699 106.333 20 127 40c23.333 22.667 35 65.334 35 128.001v876c0 62.667 -11.667 105.334 -35 128.001c-20.667 20 -63 33.333 -127 40v119h674v-119c-64 -6.66699 -106.333 -20 -127 -40c-23.333 -22.667 -35 -65.334 -35 -128.001v-876
c0 -62.667 11.667 -105.334 35 -128.001c20.667 -20 63 -33.333 127 -40v-119h-674zM596 1589h-91l-313 166c-62.667 33.333 -94 69 -94 107c0 60 30 90 90 90c38.667 0 83.667 -26.667 135 -80z" />
    <glyph glyph-name="Iacute" unicode="&#xcd;" horiz-adv-x="801" 
d="M63 0v119c64 6.66699 106.333 20 127 40c23.333 22.667 35 65.334 35 128.001v876c0 62.667 -11.667 105.334 -35 128.001c-20.667 20 -63 33.333 -127 40v119h674v-119c-64 -6.66699 -106.333 -20 -127 -40c-23.333 -22.667 -35 -65.334 -35 -128.001v-876
c0 -62.667 11.667 -105.334 35 -128.001c20.667 -20 63 -33.333 127 -40v-119h-674zM206 1589l273 283c51.333 53.333 96.333 80 135 80c60 0 90 -30 90 -90c0 -38 -31.333 -73.667 -94 -107l-313 -166h-91z" />
    <glyph glyph-name="Icircumflex" unicode="&#xce;" horiz-adv-x="801" 
d="M63 0v119c64 6.66699 106.333 20 127 40c23.333 22.667 35 65.334 35 128.001v876c0 62.667 -11.667 105.334 -35 128.001c-20.667 20 -63 33.333 -127 40v119h674v-119c-64 -6.66699 -106.333 -20 -127 -40c-23.333 -22.667 -35 -65.334 -35 -128.001v-876
c0 -62.667 11.667 -105.334 35 -128.001c20.667 -20 63 -33.333 127 -40v-119h-674zM102 1589l225 349h148l225 -349h-84l-215 181l-215 -181h-84z" />
    <glyph glyph-name="Idieresis" unicode="&#xcf;" horiz-adv-x="801" 
d="M63 0v119c64 6.66699 106.333 20 127 40c23.333 22.667 35 65.334 35 128.001v876c0 62.667 -11.667 105.334 -35 128.001c-20.667 20 -63 33.333 -127 40v119h674v-119c-64 -6.66699 -106.333 -20 -127 -40c-23.333 -22.667 -35 -65.334 -35 -128.001v-876
c0 -62.667 11.667 -105.334 35 -128.001c20.667 -20 63 -33.333 127 -40v-119h-674zM462 1753c0 32.667 12 60.667 36 84s52.333 35 85 35s60.667 -11.667 84 -35s35 -51.333 35 -84c0 -35.333 -11 -64.333 -33 -87s-50.667 -34 -86 -34c-34 0 -62.667 11.667 -86 35
s-35 52 -35 86zM98 1753c0 32.667 12 60.667 36 84s52.333 35 85 35s60.667 -11.667 84 -35s35 -51.333 35 -84c0 -35.333 -11 -64.333 -33 -87s-50.667 -34 -86 -34c-34.667 0 -63.5 11.5 -86.5 34.5s-34.5 51.833 -34.5 86.5z" />
    <glyph glyph-name="Eth" unicode="&#xd0;" horiz-adv-x="1716" 
d="M588 362c0 -90 12 -150.333 36 -181c28 -36 85 -54 171 -54c152.667 0 268 58 346 174c66.667 99.333 100 229 100 389c0 191.333 -43.667 343 -131 455c-96.667 124 -238 186 -424 186c-65.333 0 -98 -32.667 -98 -98v-420h340v-127h-340v-324zM76 0
l0.000976562 118.998c64 6.66699 106.333 20 127 40c23.333 22.667 35 65.334 35 128.001v399h-238v127h238v350c0 62.667 -11.667 105.334 -35 128.001c-20.667 20 -63 33.333 -127 40v119h663c252 0 457.333 -55.667 616 -167c180.667 -126.667 271 -310.667 271 -552
c0 -162.667 -47.5 -308 -142.5 -436s-220.167 -213.333 -375.5 -256c-92.667 -26 -207.334 -39 -344.001 -39h-688z" />
    <glyph glyph-name="Ntilde" unicode="&#xd1;" horiz-adv-x="1651" 
d="M63 0v119.002c79.333 7.33301 131 32.666 155 75.999c17.333 31.333 26 91.333 26 180v842c-62 76 -122.333 114 -181 114v119h402c27.333 0 52 -13 74 -39l747 -883v598c0 118 -60.667 186.333 -182 205v119h495v-119c-66 -10.667 -111.833 -30.834 -137.5 -60.501
s-38.5 -77.834 -38.5 -144.501v-924c0 -64.667 3.33301 -141.667 10 -231h-147l-909 1067v-663c0 -91.333 13.667 -153.666 41 -186.999c29.333 -37.333 88 -60.333 176 -69v-119h-531zM1114 1911c-20 -164 -88.333 -246 -205 -246c-24.667 0 -61.167 7.16699 -109.5 21.5
s-84.833 21.5 -109.5 21.5c-39.333 0 -69.333 -28.667 -90 -86h-66c22.667 164 93 246 211 246c24.667 0 60.167 -7.16699 106.5 -21.5s81.166 -21.5 104.499 -21.5c40.667 0 71.334 28.667 92.001 86h66z" />
    <glyph glyph-name="Ograve" unicode="&#xd2;" horiz-adv-x="1597" 
d="M451 764c0 -168 19.666 -307.001 58.999 -417.001c58.667 -164.667 156.334 -247 293.001 -247c229.333 0 344 196 344 588c0 168.667 -19.333 307.334 -58 416.001c-58 164 -155.333 246 -292 246c-230.667 0 -346 -195.333 -346 -586zM783.999 -29.001
c-210 0 -382.667 72 -518 216c-132 140.667 -198 316.667 -198 528c0 217.333 69.667 398.333 209 543c141.333 147.333 320 221 536 221c208.667 0 380.334 -70.333 515.001 -211s202 -315.667 202 -525c0 -220 -69 -403 -207 -549
c-140.667 -148.667 -320.334 -223 -539.001 -223zM993.999 1589h-91l-313 166c-62.667 33.333 -94 69 -94 107c0 60 30 90 90 90c38.667 0 83.667 -26.667 135 -80z" />
    <glyph glyph-name="Oacute" unicode="&#xd3;" horiz-adv-x="1597" 
d="M451 764c0 -168 19.666 -307.001 58.999 -417.001c58.667 -164.667 156.334 -247 293.001 -247c229.333 0 344 196 344 588c0 168.667 -19.333 307.334 -58 416.001c-58 164 -155.333 246 -292 246c-230.667 0 -346 -195.333 -346 -586zM783.999 -29.001
c-210 0 -382.667 72 -518 216c-132 140.667 -198 316.667 -198 528c0 217.333 69.667 398.333 209 543c141.333 147.333 320 221 536 221c208.667 0 380.334 -70.333 515.001 -211s202 -315.667 202 -525c0 -220 -69 -403 -207 -549
c-140.667 -148.667 -320.334 -223 -539.001 -223zM603.999 1589l273 283c51.333 53.333 96.333 80 135 80c60 0 90 -30 90 -90c0 -38 -31.333 -73.667 -94 -107l-313 -166h-91z" />
    <glyph glyph-name="Ocircumflex" unicode="&#xd4;" horiz-adv-x="1597" 
d="M451 764c0 -168 19.666 -307.001 58.999 -417.001c58.667 -164.667 156.334 -247 293.001 -247c229.333 0 344 196 344 588c0 168.667 -19.333 307.334 -58 416.001c-58 164 -155.333 246 -292 246c-230.667 0 -346 -195.333 -346 -586zM783.999 -29.001
c-210 0 -382.667 72 -518 216c-132 140.667 -198 316.667 -198 528c0 217.333 69.667 398.333 209 543c141.333 147.333 320 221 536 221c208.667 0 380.334 -70.333 515.001 -211s202 -315.667 202 -525c0 -220 -69 -403 -207 -549
c-140.667 -148.667 -320.334 -223 -539.001 -223zM500.999 1545l225 349h148l225 -349h-84l-215 181l-215 -181h-84z" />
    <glyph glyph-name="Otilde" unicode="&#xd5;" horiz-adv-x="1597" 
d="M451 764c0 -168 19.666 -307.001 58.999 -417.001c58.667 -164.667 156.334 -247 293.001 -247c229.333 0 344 196 344 588c0 168.667 -19.333 307.334 -58 416.001c-58 164 -155.333 246 -292 246c-230.667 0 -346 -195.333 -346 -586zM783.999 -29.001
c-210 0 -382.667 72 -518 216c-132 140.667 -198 316.667 -198 528c0 217.333 69.667 398.333 209 543c141.333 147.333 320 221 536 221c208.667 0 380.334 -70.333 515.001 -211s202 -315.667 202 -525c0 -220 -69 -403 -207 -549
c-140.667 -148.667 -320.334 -223 -539.001 -223zM1088 1911c-20 -164 -88.333 -246 -205 -246c-24.667 0 -61.167 7.16699 -109.5 21.5s-84.833 21.5 -109.5 21.5c-39.333 0 -69.333 -28.667 -90 -86h-66c22.667 164 93 246 211 246c24.667 0 60.167 -7.16699 106.5 -21.5
s81.166 -21.5 104.499 -21.5c40.667 0 71.334 28.667 92.001 86h66z" />
    <glyph glyph-name="Odieresis" unicode="&#xd6;" horiz-adv-x="1597" 
d="M451 764c0 -168 19.666 -307.001 58.999 -417.001c58.667 -164.667 156.334 -247 293.001 -247c229.333 0 344 196 344 588c0 168.667 -19.333 307.334 -58 416.001c-58 164 -155.333 246 -292 246c-230.667 0 -346 -195.333 -346 -586zM783.999 -29.001
c-210 0 -382.667 72 -518 216c-132 140.667 -198 316.667 -198 528c0 217.333 69.667 398.333 209 543c141.333 147.333 320 221 536 221c208.667 0 380.334 -70.333 515.001 -211s202 -315.667 202 -525c0 -220 -69 -403 -207 -549
c-140.667 -148.667 -320.334 -223 -539.001 -223zM859.999 1753c0 32.667 12 60.667 36 84s52.333 35 85 35s60.667 -11.667 84 -35s35 -51.333 35 -84c0 -35.333 -11 -64.333 -33 -87s-50.667 -34 -86 -34c-34 0 -62.667 11.667 -86 35s-35 52 -35 86zM495.999 1753
c0 32.667 12 60.667 36 84s52.333 35 85 35s60.667 -11.667 84 -35s35 -51.333 35 -84c0 -35.333 -11 -64.333 -33 -87s-50.667 -34 -86 -34c-34.667 0 -63.5 11.5 -86.5 34.5s-34.5 51.833 -34.5 86.5z" />
    <glyph glyph-name="multiply" unicode="&#xd7;" horiz-adv-x="1706" 
d="M416 1202l450 -450l451 450l141 -139l-450 -453l450 -450l-141 -140l-451 451l-450 -451l-140 140l451 450l-451 453z" />
    <glyph glyph-name="Oslash" unicode="&#xd8;" horiz-adv-x="1597" 
d="M516 332l512 897c-62 80.667 -137.667 121 -227 121c-233.333 0 -350 -196.667 -350 -590c0 -158 21.667 -300.667 65 -428zM231 -145l138 239.002c-200.667 151.333 -301 357.666 -301 618.999c0 221.333 71 404.666 213 549.999s323.333 218 544 218
c110 0 209.667 -22 299 -66l99 176l102 -57l-102 -176c204.667 -148.667 307 -353 307 -613c0 -224 -70 -408.667 -210 -554s-321.333 -218 -544 -218c-106 0 -207 21.333 -303 64l-139 -242zM1081 1122l-512 -897c62 -83.333 140 -125 234 -125c228 0 342 196 342 588
c0 178 -21.333 322.667 -64 434z" />
    <glyph glyph-name="Ugrave" unicode="&#xd9;" horiz-adv-x="1651" 
d="M61 1450l681.997 -0.000976562v-119c-77.333 0 -126.666 -18.667 -147.999 -56c-14.667 -25.333 -22 -81 -22 -167v-625c0 -118.667 27 -205.667 81 -261s140.333 -83 259 -83c144.667 0 248 40.333 310 121c54.667 70.667 82 180.667 82 330v543
c0 80 -13.5 133 -40.5 159s-80.5 39 -160.5 39v119h512v-119c-69.333 0 -115.666 -13.167 -138.999 -39.5s-35 -79.166 -35 -158.499v-543c0 -203.333 -51.333 -358 -154 -464c-104 -108.667 -257 -163 -459 -163c-119.333 0 -228.666 21.667 -327.999 65
c-119.333 51.333 -199 125 -239 221c-26 60.667 -39 146.334 -39 257.001v612c0 94 -11 152.167 -33 174.5s-64.667 35.166 -128 38.499zM1110 1589h-91l-313 166c-62.667 33.333 -94 69 -94 107c0 60 30 90 90 90c38.667 0 83.667 -26.667 135 -80z" />
    <glyph glyph-name="Uacute" unicode="&#xda;" horiz-adv-x="1651" 
d="M61 1450l681.997 -0.000976562v-119c-77.333 0 -126.666 -18.667 -147.999 -56c-14.667 -25.333 -22 -81 -22 -167v-625c0 -118.667 27 -205.667 81 -261s140.333 -83 259 -83c144.667 0 248 40.333 310 121c54.667 70.667 82 180.667 82 330v543
c0 80 -13.5 133 -40.5 159s-80.5 39 -160.5 39v119h512v-119c-69.333 0 -115.666 -13.167 -138.999 -39.5s-35 -79.166 -35 -158.499v-543c0 -203.333 -51.333 -358 -154 -464c-104 -108.667 -257 -163 -459 -163c-119.333 0 -228.666 21.667 -327.999 65
c-119.333 51.333 -199 125 -239 221c-26 60.667 -39 146.334 -39 257.001v612c0 94 -11 152.167 -33 174.5s-64.667 35.166 -128 38.499zM719.997 1589l273 283c51.333 53.333 96.333 80 135 80c60 0 90 -30 90 -90c0 -38 -31.333 -73.667 -94 -107l-313 -166h-91z" />
    <glyph glyph-name="Ucircumflex" unicode="&#xdb;" horiz-adv-x="1651" 
d="M61 1450l681.997 -0.000976562v-119c-77.333 0 -126.666 -18.667 -147.999 -56c-14.667 -25.333 -22 -81 -22 -167v-625c0 -118.667 27 -205.667 81 -261s140.333 -83 259 -83c144.667 0 248 40.333 310 121c54.667 70.667 82 180.667 82 330v543
c0 80 -13.5 133 -40.5 159s-80.5 39 -160.5 39v119h512v-119c-69.333 0 -115.666 -13.167 -138.999 -39.5s-35 -79.166 -35 -158.499v-543c0 -203.333 -51.333 -358 -154 -464c-104 -108.667 -257 -163 -459 -163c-119.333 0 -228.666 21.667 -327.999 65
c-119.333 51.333 -199 125 -239 221c-26 60.667 -39 146.334 -39 257.001v612c0 94 -11 152.167 -33 174.5s-64.667 35.166 -128 38.499zM615.997 1589l225 349h148l225 -349h-84l-215 181l-215 -181h-84z" />
    <glyph glyph-name="Udieresis" unicode="&#xdc;" horiz-adv-x="1651" 
d="M61 1450l681.997 -0.000976562v-119c-77.333 0 -126.666 -18.667 -147.999 -56c-14.667 -25.333 -22 -81 -22 -167v-625c0 -118.667 27 -205.667 81 -261s140.333 -83 259 -83c144.667 0 248 40.333 310 121c54.667 70.667 82 180.667 82 330v543
c0 80 -13.5 133 -40.5 159s-80.5 39 -160.5 39v119h512v-119c-69.333 0 -115.666 -13.167 -138.999 -39.5s-35 -79.166 -35 -158.499v-543c0 -203.333 -51.333 -358 -154 -464c-104 -108.667 -257 -163 -459 -163c-119.333 0 -228.666 21.667 -327.999 65
c-119.333 51.333 -199 125 -239 221c-26 60.667 -39 146.334 -39 257.001v612c0 94 -11 152.167 -33 174.5s-64.667 35.166 -128 38.499zM975.997 1753c0 32.667 12 60.667 36 84s52.333 35 85 35s60.667 -11.667 84 -35s35 -51.333 35 -84c0 -35.333 -11 -64.333 -33 -87
s-50.667 -34 -86 -34c-34 0 -62.667 11.667 -86 35s-35 52 -35 86zM611.997 1753c0 32.667 12 60.667 36 84s52.333 35 85 35s60.667 -11.667 84 -35s35 -51.333 35 -84c0 -35.333 -11 -64.333 -33 -87s-50.667 -34 -86 -34c-34.667 0 -63.5 11.5 -86.5 34.5
s-34.5 51.833 -34.5 86.5z" />
    <glyph glyph-name="Yacute" unicode="&#xdd;" horiz-adv-x="1485" 
d="M397 0l1.00098 118.998c79.333 0.666992 130 16.334 152 47.001c16.667 23.333 25 74.333 25 153v244l-337 600c-58.667 104.667 -122.334 160.667 -191.001 168v119h682v-118l-33 1c-73.333 2 -110 -25.333 -110 -82c0 -19.333 13.667 -55.333 41 -108l219 -422
c200.667 314.667 301 499 301 553c0 36 -41 55.333 -123 58v118h412l-1 -119c-30 -0.666992 -58 -12.667 -84 -36c-28.667 -26 -70.667 -90 -126 -192c-89.333 -165.333 -191 -333.666 -305 -504.999v-283c0 -80 8.66699 -131 26 -153c20 -26 68 -40.333 144 -43v-119h-693z
M548.001 1589l273 283c51.333 53.333 96.333 80 135 80c60 0 90 -30 90 -90c0 -38 -31.333 -73.667 -94 -107l-313 -166h-91z" />
    <glyph glyph-name="Thorn" unicode="&#xde;" horiz-adv-x="1298" 
d="M735 1450l-0.00292969 -119.004c-65.333 -6 -108.666 -19.833 -129.999 -41.5s-32 -64.5 -32 -128.5c193.333 0 340.333 -23.667 441 -71c143.333 -67.333 215 -186.333 215 -357c0 -126 -51 -224.333 -153 -295c-89.333 -62.667 -199.666 -94 -330.999 -94
c-49.333 0 -78.666 3.33301 -87.999 10c-12 9.33301 -18 36 -18 80c0 15.333 27.667 30.333 83 45c64.667 18 108.667 42 132 72c31.333 40.667 47 103.334 47 188.001c0 192.667 -84 289 -252 289c-50.667 0 -76 -15 -76 -45v-696c0 -62 13.333 -105 40 -129
c24 -21.333 66 -33.666 126 -36.999v-121h-673v121c62.667 2.66699 105.167 15.334 127.5 38.001s33.5 65.334 33.5 128.001v880c0 61.333 -11.667 103 -35 125c-20.667 19.333 -62.667 32.333 -126 39v119h669z" />
    <glyph glyph-name="germandbls" unicode="&#xdf;" horiz-adv-x="1255" 
d="M621 891c140 54.667 209.998 154.333 209.998 299c0 54.667 -15.667 99.334 -47 134.001s-74.333 52 -129 52c-90 0 -149 -44.667 -177 -134c-15.333 -47.333 -23 -128.333 -23 -243v-999h-404v106c62 2 101 22 117 60c8 20 12 67.667 12 143v568h-94v16
c0 37.333 33.333 67.333 100 90c8 152.667 60.333 276.5 157 371.5s221.334 142.5 374.001 142.5c99.333 0 182.333 -21 249 -63c79.333 -49.333 119 -121 119 -215c0 -141.333 -96.667 -255.333 -290 -342c262 -45.333 393 -186 393 -422
c0 -114.667 -36.333 -219.334 -109 -314.001c-78.667 -102 -174 -153 -286 -153c-136.667 0 -205 76.333 -205 229h102c4 -69.333 32.667 -104 86 -104c86 0 129 91.333 129 274c0 105.333 -21.333 193.333 -64 264c-49.333 81.333 -122.666 130 -219.999 146v94z" />
    <glyph glyph-name="agrave" unicode="&#xe0;" horiz-adv-x="1028" 
d="M614 86c-97.333 -69.333 -190.002 -104.002 -278.002 -104.002c-76.667 0 -140.667 20 -192 60c-55.333 43.333 -83 102.333 -83 177c0 150 177 266.667 531 350v160c0 98.667 -43.667 148 -131 148c-80.667 0 -121 -24 -121 -72c0 -14 5.5 -32.167 16.5 -54.5
s16.5 -36.166 16.5 -41.499c0 -18.667 -26 -39 -78 -61c-47.333 -20 -83.666 -30 -108.999 -30c-23.333 0 -41.666 17.667 -54.999 53c-9.33301 26.667 -14 54.334 -14 83.001c0 78.667 43.333 137.667 130 177c66 30.667 143.333 46 232 46c140 0 236 -17.667 288 -53
c66 -44 99 -131.333 99 -262v-408c0 -61.333 14.333 -92 43 -92c17.333 0 39.333 7.33301 66 22c0 -62.667 -18.5 -113.167 -55.5 -151.5s-86.833 -57.5 -149.5 -57.5c-71.333 0 -123.333 37 -156 111zM591.998 210.998l0.000976562 248c-177.333 -52 -266 -119 -266 -201
c0 -32 12 -58 36 -78c22 -18.667 49.333 -28 82 -28c45.333 0 94.666 19.667 147.999 59zM696.999 1087h-91l-313 166c-62.667 33.333 -94 69 -94 107c0 60 30 90 90 90c38.667 0 83.667 -26.667 135 -80z" />
    <glyph glyph-name="aacute" unicode="&#xe1;" horiz-adv-x="1028" 
d="M614 86c-97.333 -69.333 -190.002 -104.002 -278.002 -104.002c-76.667 0 -140.667 20 -192 60c-55.333 43.333 -83 102.333 -83 177c0 150 177 266.667 531 350v160c0 98.667 -43.667 148 -131 148c-80.667 0 -121 -24 -121 -72c0 -14 5.5 -32.167 16.5 -54.5
s16.5 -36.166 16.5 -41.499c0 -18.667 -26 -39 -78 -61c-47.333 -20 -83.666 -30 -108.999 -30c-23.333 0 -41.666 17.667 -54.999 53c-9.33301 26.667 -14 54.334 -14 83.001c0 78.667 43.333 137.667 130 177c66 30.667 143.333 46 232 46c140 0 236 -17.667 288 -53
c66 -44 99 -131.333 99 -262v-408c0 -61.333 14.333 -92 43 -92c17.333 0 39.333 7.33301 66 22c0 -62.667 -18.5 -113.167 -55.5 -151.5s-86.833 -57.5 -149.5 -57.5c-71.333 0 -123.333 37 -156 111zM591.998 210.998l0.000976562 248c-177.333 -52 -266 -119 -266 -201
c0 -32 12 -58 36 -78c22 -18.667 49.333 -28 82 -28c45.333 0 94.666 19.667 147.999 59zM306.999 1087l273 283c51.333 53.333 96.333 80 135 80c60 0 90 -30 90 -90c0 -38 -31.333 -73.667 -94 -107l-313 -166h-91z" />
    <glyph glyph-name="acircumflex" unicode="&#xe2;" horiz-adv-x="1028" 
d="M614 86c-97.333 -69.333 -190.002 -104.002 -278.002 -104.002c-76.667 0 -140.667 20 -192 60c-55.333 43.333 -83 102.333 -83 177c0 150 177 266.667 531 350v160c0 98.667 -43.667 148 -131 148c-80.667 0 -121 -24 -121 -72c0 -14 5.5 -32.167 16.5 -54.5
s16.5 -36.166 16.5 -41.499c0 -18.667 -26 -39 -78 -61c-47.333 -20 -83.666 -30 -108.999 -30c-23.333 0 -41.666 17.667 -54.999 53c-9.33301 26.667 -14 54.334 -14 83.001c0 78.667 43.333 137.667 130 177c66 30.667 143.333 46 232 46c140 0 236 -17.667 288 -53
c66 -44 99 -131.333 99 -262v-408c0 -61.333 14.333 -92 43 -92c17.333 0 39.333 7.33301 66 22c0 -62.667 -18.5 -113.167 -55.5 -151.5s-86.833 -57.5 -149.5 -57.5c-71.333 0 -123.333 37 -156 111zM591.998 210.998l0.000976562 248c-177.333 -52 -266 -119 -266 -201
c0 -32 12 -58 36 -78c22 -18.667 49.333 -28 82 -28c45.333 0 94.666 19.667 147.999 59zM202.999 1087l225 349h148l225 -349h-84l-215 181l-215 -181h-84z" />
    <glyph glyph-name="atilde" unicode="&#xe3;" horiz-adv-x="1028" 
d="M614 86c-97.333 -69.333 -190.002 -104.002 -278.002 -104.002c-76.667 0 -140.667 20 -192 60c-55.333 43.333 -83 102.333 -83 177c0 150 177 266.667 531 350v160c0 98.667 -43.667 148 -131 148c-80.667 0 -121 -24 -121 -72c0 -14 5.5 -32.167 16.5 -54.5
s16.5 -36.166 16.5 -41.499c0 -18.667 -26 -39 -78 -61c-47.333 -20 -83.666 -30 -108.999 -30c-23.333 0 -41.666 17.667 -54.999 53c-9.33301 26.667 -14 54.334 -14 83.001c0 78.667 43.333 137.667 130 177c66 30.667 143.333 46 232 46c140 0 236 -17.667 288 -53
c66 -44 99 -131.333 99 -262v-408c0 -61.333 14.333 -92 43 -92c17.333 0 39.333 7.33301 66 22c0 -62.667 -18.5 -113.167 -55.5 -151.5s-86.833 -57.5 -149.5 -57.5c-71.333 0 -123.333 37 -156 111zM591.998 210.998l0.000976562 248c-177.333 -52 -266 -119 -266 -201
c0 -32 12 -58 36 -78c22 -18.667 49.333 -28 82 -28c45.333 0 94.666 19.667 147.999 59zM790.999 1409c-20 -164 -88.333 -246 -205 -246c-24.667 0 -61.167 7.16699 -109.5 21.5s-84.833 21.5 -109.5 21.5c-39.333 0 -69.333 -28.667 -90 -86h-66
c22.667 164 93 246 211 246c24.667 0 60.167 -7.16699 106.5 -21.5s81.166 -21.5 104.499 -21.5c40.667 0 71.334 28.667 92.001 86h66z" />
    <glyph glyph-name="adieresis" unicode="&#xe4;" horiz-adv-x="1028" 
d="M614 86c-97.333 -69.333 -190.002 -104.002 -278.002 -104.002c-76.667 0 -140.667 20 -192 60c-55.333 43.333 -83 102.333 -83 177c0 150 177 266.667 531 350v160c0 98.667 -43.667 148 -131 148c-80.667 0 -121 -24 -121 -72c0 -14 5.5 -32.167 16.5 -54.5
s16.5 -36.166 16.5 -41.499c0 -18.667 -26 -39 -78 -61c-47.333 -20 -83.666 -30 -108.999 -30c-23.333 0 -41.666 17.667 -54.999 53c-9.33301 26.667 -14 54.334 -14 83.001c0 78.667 43.333 137.667 130 177c66 30.667 143.333 46 232 46c140 0 236 -17.667 288 -53
c66 -44 99 -131.333 99 -262v-408c0 -61.333 14.333 -92 43 -92c17.333 0 39.333 7.33301 66 22c0 -62.667 -18.5 -113.167 -55.5 -151.5s-86.833 -57.5 -149.5 -57.5c-71.333 0 -123.333 37 -156 111zM591.998 210.998l0.000976562 248c-177.333 -52 -266 -119 -266 -201
c0 -32 12 -58 36 -78c22 -18.667 49.333 -28 82 -28c45.333 0 94.666 19.667 147.999 59zM562.999 1251c0 32.667 12 60.667 36 84s52.333 35 85 35s60.667 -11.667 84 -35s35 -51.333 35 -84c0 -35.333 -11 -64.333 -33 -87s-50.667 -34 -86 -34
c-34 0 -62.667 11.667 -86 35s-35 52 -35 86zM198.999 1251c0 32.667 12 60.667 36 84s52.333 35 85 35s60.667 -11.667 84 -35s35 -51.333 35 -84c0 -35.333 -11 -64.333 -33 -87s-50.667 -34 -86 -34c-34.667 0 -63.5 11.5 -86.5 34.5s-34.5 51.833 -34.5 86.5z" />
    <glyph glyph-name="aring" unicode="&#xe5;" horiz-adv-x="1028" 
d="M365 1321c0 -38 13 -69.666 39 -94.999s58 -38 96 -38s69.667 12.667 95 38s38 57 38 95c0 37.333 -12.833 69.166 -38.5 95.499s-57.167 39.5 -94.5 39.5c-38 0 -70 -13 -96 -39s-39 -58 -39 -96zM246 1321c0 71.333 24.167 131.5 72.5 180.5s108.166 73.5 179.499 73.5
s131.5 -24.5 180.5 -73.5s73.5 -109.167 73.5 -180.5s-24.5 -131.166 -73.5 -179.499s-109.167 -72.5 -180.5 -72.5s-131.166 24.167 -179.499 72.5s-72.5 108.166 -72.5 179.499zM614 86.001c-97.333 -69.333 -190.002 -104.002 -278.002 -104.002
c-76.667 0 -140.667 20 -192 60c-55.333 43.333 -83 102.333 -83 177c0 150 177 266.667 531 350v160c0 98.667 -43.667 148 -131 148c-80.667 0 -121 -24 -121 -72c0 -14 5.5 -32.167 16.5 -54.5s16.5 -36.166 16.5 -41.499c0 -18.667 -26 -39 -78 -61
c-47.333 -20 -83.666 -30 -108.999 -30c-23.333 0 -41.666 17.667 -54.999 53c-9.33301 26.667 -14 54.334 -14 83.001c0 78.667 43.333 137.667 130 177c66 30.667 143.333 46 232 46c140 0 236 -17.667 288 -53c66 -44 99 -131.333 99 -262v-408
c0 -61.333 14.333 -92 43 -92c17.333 0 39.333 7.33301 66 22c0 -62.667 -18.5 -113.167 -55.5 -151.5s-86.833 -57.5 -149.5 -57.5c-71.333 0 -123.333 37 -156 111zM591.998 210.999l0.000976562 248c-177.333 -52 -266 -119 -266 -201c0 -32 12 -58 36 -78
c22 -18.667 49.333 -28 82 -28c45.333 0 94.666 19.667 147.999 59z" />
    <glyph glyph-name="ae" unicode="&#xe6;" horiz-adv-x="1520" 
d="M596 459c-176 -50.667 -264 -117 -264 -199c0 -73.333 36 -110 108 -110c50 0 102 20.333 156 61v248zM858 582l328.001 65v25c0 52 -13 95.333 -39 130c-28.667 37.333 -68.334 56 -119.001 56c-113.333 0 -170 -82.667 -170 -248v-28zM784.001 874
c80 64.667 171.667 96.9971 275 96.9971c112 0 203 -34.667 273 -104c66.667 -66 106.667 -155.667 120 -269l-582 -125c9.33301 -76.667 38 -139 86 -187c50.667 -51.333 113.667 -77 189 -77c56 0 142 29.333 258 88l65 -76c-70 -77.333 -132.667 -133.666 -188 -168.999
c-75.333 -48 -155.333 -72 -240 -72c-144.667 0 -258.667 55.667 -342 167c-130 -110 -250 -165 -360 -165c-76.667 0 -140 20 -190 60c-54.667 43.333 -82 102.333 -82 177c0 150.667 176.667 267.334 530 350.001v160c0 98.667 -44.333 148 -133 148
c-79.333 0 -119 -24 -119 -72c0 -14 5.5 -32.167 16.5 -54.5s16.5 -36.166 16.5 -41.499c0 -18.667 -26.333 -39 -79 -61c-47.333 -20 -83.333 -30 -108 -30c-23.333 0 -42 17.667 -56 53c-10 27.333 -15 55 -15 83c0 78.667 43.333 137.667 130 177
c66 30.667 143.333 46 232 46c151.333 0 252.333 -34.333 303 -103z" />
    <glyph glyph-name="ccedilla" unicode="&#xe7;" 
d="M958 188c-140 -138.667 -281.998 -208 -425.998 -208c-132.667 0 -240.334 46.667 -323.001 140c-79.333 89.333 -119 201 -119 335c0 152 43.333 275.667 130 371c89.333 99.333 209.333 149 360 149c90 0 168.333 -18 235 -54c82 -44 123 -107.333 123 -190
c0 -38 -12.833 -70.667 -38.5 -98s-57.167 -41 -94.5 -41c-46.667 0 -83 22.667 -109 68l-59 126c-27.333 45.333 -65 68 -113 68c-60.667 0 -106.334 -28.333 -137.001 -85c-24.667 -45.333 -37 -101 -37 -167c0 -108 24.333 -200.333 73 -277
c57.333 -90 137 -135 239 -135c76.667 0 153 26.667 229 80zM235.002 -377l41.001 90c91.333 -48.667 174 -73 248 -73c58.667 0 88 27 88 81c0 57.333 -33.333 86 -100 86c-12.667 0 -33.334 -1.66699 -62.001 -5v198h70v-114c26.667 3.33301 48.667 5 66 5
c55.333 0 99.333 -14.333 132 -43c34.667 -30.667 52 -73 52 -127c0 -118.667 -76.667 -178 -230 -178c-72 0 -173.667 26.667 -305 80z" />
    <glyph glyph-name="egrave" unicode="&#xe8;" horiz-adv-x="1028" 
d="M948 545l-596 -0.000976562v-6c0 -88.667 22 -163.667 66 -225c50 -68.667 117.667 -103 203 -103c65.333 0 155.333 29.333 270 88l70 -76c-70 -77.333 -133 -133.666 -189 -168.999c-75.333 -48 -155.333 -72 -240 -72c-138 0 -248.333 50.667 -331 152
c-76.667 94 -115 211.667 -115 353s41.667 257.333 125 348c85.333 93.333 198 140 338 140c123.333 0 221 -41.667 293 -125c66.667 -78 102 -179.667 106 -305zM353 648.999h325c0 2.66699 0.333008 8 1 16c0.666992 6 1 11 1 15c0 120 -57.333 180 -172 180
c-51.333 0 -91 -23.333 -119 -70c-23.333 -39.333 -35.333 -86.333 -36 -141zM723 1087h-91l-313 166c-62.667 33.333 -94 69 -94 107c0 60 30 90 90 90c38.667 0 83.667 -26.667 135 -80z" />
    <glyph glyph-name="eacute" unicode="&#xe9;" horiz-adv-x="1028" 
d="M948 545l-596 -0.000976562v-6c0 -88.667 22 -163.667 66 -225c50 -68.667 117.667 -103 203 -103c65.333 0 155.333 29.333 270 88l70 -76c-70 -77.333 -133 -133.666 -189 -168.999c-75.333 -48 -155.333 -72 -240 -72c-138 0 -248.333 50.667 -331 152
c-76.667 94 -115 211.667 -115 353s41.667 257.333 125 348c85.333 93.333 198 140 338 140c123.333 0 221 -41.667 293 -125c66.667 -78 102 -179.667 106 -305zM353 648.999h325c0 2.66699 0.333008 8 1 16c0.666992 6 1 11 1 15c0 120 -57.333 180 -172 180
c-51.333 0 -91 -23.333 -119 -70c-23.333 -39.333 -35.333 -86.333 -36 -141zM333 1087l273 283c51.333 53.333 96.333 80 135 80c60 0 90 -30 90 -90c0 -38 -31.333 -73.667 -94 -107l-313 -166h-91z" />
    <glyph glyph-name="ecircumflex" unicode="&#xea;" horiz-adv-x="1028" 
d="M948 545l-596 -0.000976562v-6c0 -88.667 22 -163.667 66 -225c50 -68.667 117.667 -103 203 -103c65.333 0 155.333 29.333 270 88l70 -76c-70 -77.333 -133 -133.666 -189 -168.999c-75.333 -48 -155.333 -72 -240 -72c-138 0 -248.333 50.667 -331 152
c-76.667 94 -115 211.667 -115 353s41.667 257.333 125 348c85.333 93.333 198 140 338 140c123.333 0 221 -41.667 293 -125c66.667 -78 102 -179.667 106 -305zM353 648.999h325c0 2.66699 0.333008 8 1 16c0.666992 6 1 11 1 15c0 120 -57.333 180 -172 180
c-51.333 0 -91 -23.333 -119 -70c-23.333 -39.333 -35.333 -86.333 -36 -141zM229 1087l225 349h148l225 -349h-84l-215 181l-215 -181h-84z" />
    <glyph glyph-name="edieresis" unicode="&#xeb;" horiz-adv-x="1028" 
d="M948 545l-596 -0.000976562v-6c0 -88.667 22 -163.667 66 -225c50 -68.667 117.667 -103 203 -103c65.333 0 155.333 29.333 270 88l70 -76c-70 -77.333 -133 -133.666 -189 -168.999c-75.333 -48 -155.333 -72 -240 -72c-138 0 -248.333 50.667 -331 152
c-76.667 94 -115 211.667 -115 353s41.667 257.333 125 348c85.333 93.333 198 140 338 140c123.333 0 221 -41.667 293 -125c66.667 -78 102 -179.667 106 -305zM353 648.999h325c0 2.66699 0.333008 8 1 16c0.666992 6 1 11 1 15c0 120 -57.333 180 -172 180
c-51.333 0 -91 -23.333 -119 -70c-23.333 -39.333 -35.333 -86.333 -36 -141zM589 1251c0 32.667 12 60.667 36 84s52.333 35 85 35s60.667 -11.667 84 -35s35 -51.333 35 -84c0 -35.333 -11 -64.333 -33 -87s-50.667 -34 -86 -34c-34 0 -62.667 11.667 -86 35
s-35 52 -35 86zM225 1251c0 32.667 12 60.667 36 84s52.333 35 85 35s60.667 -11.667 84 -35s35 -51.333 35 -84c0 -35.333 -11 -64.333 -33 -87s-50.667 -34 -86 -34c-34.667 0 -63.5 11.5 -86.5 34.5s-34.5 51.833 -34.5 86.5z" />
    <glyph glyph-name="igrave" unicode="&#xec;" horiz-adv-x="637" 
d="M586 102l0.000976562 -102h-518v102c43.333 4 74.166 14.5 92.499 31.5s27.5 46.833 27.5 89.5v516l-116 62v65l327 111h66v-754c0 -42.667 9.33301 -72.5 28 -89.5s49.667 -27.5 93 -31.5zM502.001 1087h-91l-313 166c-62.667 33.333 -94 69 -94 107c0 60 30 90 90 90
c38.667 0 83.667 -26.667 135 -80z" />
    <glyph glyph-name="iacute" unicode="&#xed;" horiz-adv-x="637" 
d="M586 102l0.000976562 -102h-518v102c43.333 4 74.166 14.5 92.499 31.5s27.5 46.833 27.5 89.5v516l-116 62v65l327 111h66v-754c0 -42.667 9.33301 -72.5 28 -89.5s49.667 -27.5 93 -31.5zM112.001 1087l273 283c51.333 53.333 96.333 80 135 80c60 0 90 -30 90 -90
c0 -38 -31.333 -73.667 -94 -107l-313 -166h-91z" />
    <glyph glyph-name="icircumflex" unicode="&#xee;" horiz-adv-x="637" 
d="M586 102l0.000976562 -102h-518v102c43.333 4 74.166 14.5 92.499 31.5s27.5 46.833 27.5 89.5v516l-116 62v65l327 111h66v-754c0 -42.667 9.33301 -72.5 28 -89.5s49.667 -27.5 93 -31.5zM8.00098 1087l225 349h148l225 -349h-84l-215 181l-215 -181h-84z" />
    <glyph glyph-name="idieresis" unicode="&#xef;" horiz-adv-x="637" 
d="M586 102l0.000976562 -102h-518v102c43.333 4 74.166 14.5 92.499 31.5s27.5 46.833 27.5 89.5v516l-116 62v65l327 111h66v-754c0 -42.667 9.33301 -72.5 28 -89.5s49.667 -27.5 93 -31.5zM368.001 1251c0 32.667 12 60.667 36 84s52.333 35 85 35
s60.667 -11.667 84 -35s35 -51.333 35 -84c0 -35.333 -11 -64.333 -33 -87s-50.667 -34 -86 -34c-34 0 -62.667 11.667 -86 35s-35 52 -35 86zM4.00098 1251c0 32.667 12 60.667 36 84s52.333 35 85 35s60.667 -11.667 84 -35s35 -51.333 35 -84
c0 -35.333 -11 -64.333 -33 -87s-50.667 -34 -86 -34c-34.667 0 -63.5 11.5 -86.5 34.5s-34.5 51.833 -34.5 86.5z" />
    <glyph glyph-name="eth" unicode="&#xf0;" horiz-adv-x="1006" 
d="M328 516c0 -282.667 57.333 -424 172 -424s172 109.333 172 328c0 274 -61.667 411 -185 411c-106 0 -159 -105 -159 -315zM579 922c-33.333 100 -70.668 177.001 -112.001 231.001l-289 -162l-49 92l277 154l-158 195l47 47c80.667 -50 162 -106 244 -168l286 164
l52 -91l-248 -141c98 -100.667 174.667 -217.667 230 -351c56.667 -135.333 85 -272.333 85 -411c0 -143.333 -38.667 -261 -116 -353c-82 -97.333 -193.333 -146 -334 -146c-136.667 0 -245 49 -325 147c-74.667 91.333 -112 206.666 -112 345.999
c0 120.667 38.667 227 116 319c82 97.333 182.667 146 302 146c34.667 0 69.334 -6 104.001 -18z" />
    <glyph glyph-name="ntilde" unicode="&#xf1;" horiz-adv-x="1204" 
d="M59 0v102.001c44 4 75.167 14.5 93.5 31.5s27.5 46.833 27.5 89.5v516l-121 62v65l179 64c96.667 32.667 162 49 196 49c8 0 14.333 -0.666992 19 -2v-115c116 76.667 221 115 315 115c102 0 174.667 -29.333 218 -88c37.333 -50.667 56 -129.334 56 -236.001v-430
c0 -40 7.83301 -69.167 23.5 -87.5s44.167 -29.5 85.5 -33.5v-102h-487v102c66.667 7.33301 100 47.666 100 120.999v436c0 50.667 -8.33301 86.334 -25 107.001c-18.667 23.333 -52.667 35 -102 35c-56 0 -114.667 -13.667 -176 -41v-537c0 -40 6.33301 -68.667 19 -86
c14.667 -19.333 41 -31 79 -35v-102h-500zM891 1409c-20 -164 -88.333 -246 -205 -246c-24.667 0 -61.167 7.16699 -109.5 21.5s-84.833 21.5 -109.5 21.5c-39.333 0 -69.333 -28.667 -90 -86h-66c22.667 164 93 246 211 246c24.667 0 60.167 -7.16699 106.5 -21.5
s81.166 -21.5 104.499 -21.5c40.667 0 71.334 28.667 92.001 86h66z" />
    <glyph glyph-name="ograve" unicode="&#xf2;" horiz-adv-x="1098" 
d="M356 532c0 -292 64.333 -438.001 193 -438.001c126.667 0 190 114 190 342c0 104.667 -11.333 193.334 -34 266.001c-34 109.333 -90.667 164 -170 164c-119.333 0 -179 -111.333 -179 -334zM541 -20.001c-149.333 0 -268.668 49.332 -358.001 147.999
c-85.333 94.667 -128 217.334 -128 368.001c0 140 48 255.667 144 347c94 89.333 211.333 134 352 134c144.667 0 262.334 -47.5 353.001 -142.5s136 -214.833 136 -359.5c0 -146 -46.667 -265 -140 -357s-213 -138 -359 -138zM743.998 1087h-91l-313 166
c-62.667 33.333 -94 69 -94 107c0 60 30 90 90 90c38.667 0 83.667 -26.667 135 -80z" />
    <glyph glyph-name="oacute" unicode="&#xf3;" horiz-adv-x="1098" 
d="M356 532c0 -292 64.333 -438.001 193 -438.001c126.667 0 190 114 190 342c0 104.667 -11.333 193.334 -34 266.001c-34 109.333 -90.667 164 -170 164c-119.333 0 -179 -111.333 -179 -334zM541 -20.001c-149.333 0 -268.668 49.332 -358.001 147.999
c-85.333 94.667 -128 217.334 -128 368.001c0 140 48 255.667 144 347c94 89.333 211.333 134 352 134c144.667 0 262.334 -47.5 353.001 -142.5s136 -214.833 136 -359.5c0 -146 -46.667 -265 -140 -357s-213 -138 -359 -138zM353.998 1087l273 283
c51.333 53.333 96.333 80 135 80c60 0 90 -30 90 -90c0 -38 -31.333 -73.667 -94 -107l-313 -166h-91z" />
    <glyph glyph-name="ocircumflex" unicode="&#xf4;" horiz-adv-x="1098" 
d="M356 532c0 -292 64.333 -438.001 193 -438.001c126.667 0 190 114 190 342c0 104.667 -11.333 193.334 -34 266.001c-34 109.333 -90.667 164 -170 164c-119.333 0 -179 -111.333 -179 -334zM541 -20.001c-149.333 0 -268.668 49.332 -358.001 147.999
c-85.333 94.667 -128 217.334 -128 368.001c0 140 48 255.667 144 347c94 89.333 211.333 134 352 134c144.667 0 262.334 -47.5 353.001 -142.5s136 -214.833 136 -359.5c0 -146 -46.667 -265 -140 -357s-213 -138 -359 -138zM249.998 1087l225 349h148l225 -349h-84
l-215 181l-215 -181h-84z" />
    <glyph glyph-name="otilde" unicode="&#xf5;" horiz-adv-x="1098" 
d="M356 532c0 -292 64.333 -438.001 193 -438.001c126.667 0 190 114 190 342c0 104.667 -11.333 193.334 -34 266.001c-34 109.333 -90.667 164 -170 164c-119.333 0 -179 -111.333 -179 -334zM541 -20.001c-149.333 0 -268.668 49.332 -358.001 147.999
c-85.333 94.667 -128 217.334 -128 368.001c0 140 48 255.667 144 347c94 89.333 211.333 134 352 134c144.667 0 262.334 -47.5 353.001 -142.5s136 -214.833 136 -359.5c0 -146 -46.667 -265 -140 -357s-213 -138 -359 -138zM837.998 1409
c-20 -164 -88.333 -246 -205 -246c-24.667 0 -61.167 7.16699 -109.5 21.5s-84.833 21.5 -109.5 21.5c-39.333 0 -69.333 -28.667 -90 -86h-66c22.667 164 93 246 211 246c24.667 0 60.167 -7.16699 106.5 -21.5s81.166 -21.5 104.499 -21.5
c40.667 0 71.334 28.667 92.001 86h66z" />
    <glyph glyph-name="odieresis" unicode="&#xf6;" horiz-adv-x="1098" 
d="M356 532c0 -292 64.333 -438.001 193 -438.001c126.667 0 190 114 190 342c0 104.667 -11.333 193.334 -34 266.001c-34 109.333 -90.667 164 -170 164c-119.333 0 -179 -111.333 -179 -334zM541 -20.001c-149.333 0 -268.668 49.332 -358.001 147.999
c-85.333 94.667 -128 217.334 -128 368.001c0 140 48 255.667 144 347c94 89.333 211.333 134 352 134c144.667 0 262.334 -47.5 353.001 -142.5s136 -214.833 136 -359.5c0 -146 -46.667 -265 -140 -357s-213 -138 -359 -138zM609.998 1251c0 32.667 12 60.667 36 84
s52.333 35 85 35s60.667 -11.667 84 -35s35 -51.333 35 -84c0 -35.333 -11 -64.333 -33 -87s-50.667 -34 -86 -34c-34 0 -62.667 11.667 -86 35s-35 52 -35 86zM245.998 1251c0 32.667 12 60.667 36 84s52.333 35 85 35s60.667 -11.667 84 -35s35 -51.333 35 -84
c0 -35.333 -11 -64.333 -33 -87s-50.667 -34 -86 -34c-34.667 0 -63.5 11.5 -86.5 34.5s-34.5 51.833 -34.5 86.5z" />
    <glyph glyph-name="divide" unicode="&#xf7;" horiz-adv-x="1706" 
d="M854 369c41.333 0 77 -15 107 -45s45 -65.667 45 -107s-15 -76.5 -45 -105.5s-65.667 -43.5 -107 -43.5c-42 0 -77.833 14.333 -107.5 43s-44.5 64 -44.5 106s14.833 77.833 44.5 107.5s65.5 44.5 107.5 44.5zM254 711h1198v-199h-1198v199zM854 1155
c41.333 0 77 -14.833 107 -44.5s45 -65.167 45 -106.5c0 -42 -14.833 -77.833 -44.5 -107.5s-65.5 -44.5 -107.5 -44.5s-77.833 14.833 -107.5 44.5s-44.5 65.5 -44.5 107.5s14.833 77.667 44.5 107s65.5 44 107.5 44z" />
    <glyph glyph-name="oslash" unicode="&#xf8;" horiz-adv-x="1098" 
d="M760 934l123 231.001l90 -49l-125 -235c128 -96 192 -227.333 192 -394c0 -148.667 -43.667 -269.334 -131 -362.001c-90 -95.333 -208.667 -143 -356 -143c-57.333 0 -116 8 -176 24l-137 -256l-93 49l134 246c-150.667 98 -226 248.333 -226 451
c0 140.667 47.667 256 143 346c93.333 88.667 211 133 353 133c57.333 0 127 -13.667 209 -41zM721 667.001l-283 -520c27.333 -35.333 64.333 -53 111 -53c126.667 0 190 114 190 342c0 75.333 -6 152.333 -18 231zM391 229.001l291 535c-36.667 66.667 -85 100 -145 100
c-120.667 0 -181 -110.667 -181 -332c0 -104.667 11.667 -205.667 35 -303z" />
    <glyph glyph-name="ugrave" unicode="&#xf9;" horiz-adv-x="1139" 
d="M1097 137l1.00098 -102.001l-404 -53v110c-88 -73.333 -178 -110 -270 -110c-184.667 0 -277 111 -277 333v402c0 48 -6.83301 81 -20.5 99s-44.834 31.333 -93.501 40v102l387 19v-637c0 -60.667 9 -103.334 27 -128.001c21.333 -29.333 61.333 -44 120 -44
c84.667 0 127 26.667 127 80v475c0 50.667 -9.66699 85.334 -29 104.001c-14 13.333 -35.667 23.333 -65 30v101l375 19v-715c0 -43.333 3.33301 -72.666 10 -87.999c12 -26.667 37 -40 75 -40c10.667 0 23 1 37 3zM738.001 1087h-91l-313 166
c-62.667 33.333 -94 69 -94 107c0 60 30 90 90 90c38.667 0 83.667 -26.667 135 -80z" />
    <glyph glyph-name="uacute" unicode="&#xfa;" horiz-adv-x="1139" 
d="M1097 137l1.00098 -102.001l-404 -53v110c-88 -73.333 -178 -110 -270 -110c-184.667 0 -277 111 -277 333v402c0 48 -6.83301 81 -20.5 99s-44.834 31.333 -93.501 40v102l387 19v-637c0 -60.667 9 -103.334 27 -128.001c21.333 -29.333 61.333 -44 120 -44
c84.667 0 127 26.667 127 80v475c0 50.667 -9.66699 85.334 -29 104.001c-14 13.333 -35.667 23.333 -65 30v101l375 19v-715c0 -43.333 3.33301 -72.666 10 -87.999c12 -26.667 37 -40 75 -40c10.667 0 23 1 37 3zM348.001 1087l273 283c51.333 53.333 96.333 80 135 80
c60 0 90 -30 90 -90c0 -38 -31.333 -73.667 -94 -107l-313 -166h-91z" />
    <glyph glyph-name="ucircumflex" unicode="&#xfb;" horiz-adv-x="1139" 
d="M1097 137l1.00098 -102.001l-404 -53v110c-88 -73.333 -178 -110 -270 -110c-184.667 0 -277 111 -277 333v402c0 48 -6.83301 81 -20.5 99s-44.834 31.333 -93.501 40v102l387 19v-637c0 -60.667 9 -103.334 27 -128.001c21.333 -29.333 61.333 -44 120 -44
c84.667 0 127 26.667 127 80v475c0 50.667 -9.66699 85.334 -29 104.001c-14 13.333 -35.667 23.333 -65 30v101l375 19v-715c0 -43.333 3.33301 -72.666 10 -87.999c12 -26.667 37 -40 75 -40c10.667 0 23 1 37 3zM244.001 1087l225 349h148l225 -349h-84l-215 181
l-215 -181h-84z" />
    <glyph glyph-name="udieresis" unicode="&#xfc;" horiz-adv-x="1139" 
d="M1097 137l1.00098 -102.001l-404 -53v110c-88 -73.333 -178 -110 -270 -110c-184.667 0 -277 111 -277 333v402c0 48 -6.83301 81 -20.5 99s-44.834 31.333 -93.501 40v102l387 19v-637c0 -60.667 9 -103.334 27 -128.001c21.333 -29.333 61.333 -44 120 -44
c84.667 0 127 26.667 127 80v475c0 50.667 -9.66699 85.334 -29 104.001c-14 13.333 -35.667 23.333 -65 30v101l375 19v-715c0 -43.333 3.33301 -72.666 10 -87.999c12 -26.667 37 -40 75 -40c10.667 0 23 1 37 3zM604.001 1251c0 32.667 12 60.667 36 84s52.333 35 85 35
s60.667 -11.667 84 -35s35 -51.333 35 -84c0 -35.333 -11 -64.333 -33 -87s-50.667 -34 -86 -34c-34 0 -62.667 11.667 -86 35s-35 52 -35 86zM240.001 1251c0 32.667 12 60.667 36 84s52.333 35 85 35s60.667 -11.667 84 -35s35 -51.333 35 -84
c0 -35.333 -11 -64.333 -33 -87s-50.667 -34 -86 -34c-34.667 0 -63.5 11.5 -86.5 34.5s-34.5 51.833 -34.5 86.5z" />
    <glyph glyph-name="yacute" unicode="&#xfd;" horiz-adv-x="1034" 
d="M39 958l477.001 0.000976562v-96c-43.333 0 -65 -16.333 -65 -49c0 -28.667 24.333 -105.334 73 -230.001l80 -196l119 348c9.33301 27.333 14 47.333 14 60c0 40 -30.667 62.667 -92 68v95h354v-96c-52.667 -11.333 -101 -73.333 -145 -186l-313 -805
c-69.333 -178.667 -174 -268 -314 -268c-50.667 0 -93.334 13.333 -128.001 40c-37.333 28.667 -56 67.667 -56 117c0 36.667 11.667 68.167 35 94.5s53.333 39.5 90 39.5c38.667 0 73.5 -17.833 104.5 -53.5s51.5 -53.5 61.5 -53.5c30.667 0 60.667 30.667 90 92l47 121
l-340 813c-13.333 32.667 -44 49 -92 49v96zM323.001 1087l273 283c51.333 53.333 96.333 80 135 80c60 0 90 -30 90 -90c0 -38 -31.333 -73.667 -94 -107l-313 -166h-91z" />
    <glyph glyph-name="thorn" unicode="&#xfe;" horiz-adv-x="1147" 
d="M154 1241l-114.999 64v63l180 64c96 32.667 161.333 49 196 49c8 0 14.333 -0.666992 19 -2v-615c83.333 75.333 170.666 113 261.999 113c122 0 218 -45.333 288 -136c63.333 -82 95 -185.667 95 -311c0 -146 -40.333 -270.333 -121 -373
c-87.333 -111.333 -202 -167 -344 -167c-60 0 -120 15.667 -180 47v-203c0 -45.333 14 -77 42 -95c20.667 -14 56 -22.667 106 -26v-102h-549v102c43.333 4 74.333 14.5 93 31.5s28 46.833 28 89.5v1407zM434.001 334c0 -73.333 8.33301 -126 25 -158
c24.667 -46.667 71 -70 139 -70c142 0 213 111.333 213 334c0 90 -18.333 165.333 -55 226c-44.667 73.333 -109 110 -193 110c-86 0 -129 -43.667 -129 -131v-311z" />
    <glyph glyph-name="ydieresis" unicode="&#xff;" horiz-adv-x="1034" 
d="M39 958l477.001 0.000976562v-96c-43.333 0 -65 -16.333 -65 -49c0 -28.667 24.333 -105.334 73 -230.001l80 -196l119 348c9.33301 27.333 14 47.333 14 60c0 40 -30.667 62.667 -92 68v95h354v-96c-52.667 -11.333 -101 -73.333 -145 -186l-313 -805
c-69.333 -178.667 -174 -268 -314 -268c-50.667 0 -93.334 13.333 -128.001 40c-37.333 28.667 -56 67.667 -56 117c0 36.667 11.667 68.167 35 94.5s53.333 39.5 90 39.5c38.667 0 73.5 -17.833 104.5 -53.5s51.5 -53.5 61.5 -53.5c30.667 0 60.667 30.667 90 92l47 121
l-340 813c-13.333 32.667 -44 49 -92 49v96zM579.001 1251c0 32.667 12 60.667 36 84s52.333 35 85 35s60.667 -11.667 84 -35s35 -51.333 35 -84c0 -35.333 -11 -64.333 -33 -87s-50.667 -34 -86 -34c-34 0 -62.667 11.667 -86 35s-35 52 -35 86zM215.001 1251
c0 32.667 12 60.667 36 84s52.333 35 85 35s60.667 -11.667 84 -35s35 -51.333 35 -84c0 -35.333 -11 -64.333 -33 -87s-50.667 -34 -86 -34c-34.667 0 -63.5 11.5 -86.5 34.5s-34.5 51.833 -34.5 86.5z" />
    <glyph glyph-name="glyph271" unicode="&#x102;" horiz-adv-x="1479" 
d="M47 0v119c65.333 16 116 76.667 152 182l350 1022c5.33301 15.333 8 29 8 41c0 27.333 -15 56 -45 86h367l409 -1171c34.667 -98.667 82.667 -152 144 -160v-119h-635v119c86 4 129 34 129 90c0 26.667 -11.333 79.667 -34 159l-42 140h-447l-40 -135
c-18 -64 -27 -112.667 -27 -146c0 -72 43 -108 129 -108v-119h-418zM449 635h348l-172 522zM420 1864h75.999c21.333 -82 99 -123 233 -123c136.667 0 213.667 41 231 123h76c-27.333 -191.333 -129.666 -287 -306.999 -287s-280.333 95.667 -309 287z" />
    <glyph glyph-name="glyph272" unicode="&#x103;" horiz-adv-x="1028" 
d="M614 86c-97.333 -69.333 -190.002 -104.002 -278.002 -104.002c-76.667 0 -140.667 20 -192 60c-55.333 43.333 -83 102.333 -83 177c0 150 177 266.667 531 350v160c0 98.667 -43.667 148 -131 148c-80.667 0 -121 -24 -121 -72c0 -14 5.5 -32.167 16.5 -54.5
s16.5 -36.166 16.5 -41.499c0 -18.667 -26 -39 -78 -61c-47.333 -20 -83.666 -30 -108.999 -30c-23.333 0 -41.666 17.667 -54.999 53c-9.33301 26.667 -14 54.334 -14 83.001c0 78.667 43.333 137.667 130 177c66 30.667 143.333 46 232 46c140 0 236 -17.667 288 -53
c66 -44 99 -131.333 99 -262v-408c0 -61.333 14.333 -92 43 -92c17.333 0 39.333 7.33301 66 22c0 -62.667 -18.5 -113.167 -55.5 -151.5s-86.833 -57.5 -149.5 -57.5c-71.333 0 -123.333 37 -156 111zM591.998 210.998l0.000976562 248c-177.333 -52 -266 -119 -266 -201
c0 -32 12 -58 36 -78c22 -18.667 49.333 -28 82 -28c45.333 0 94.666 19.667 147.999 59zM192.999 1404h75.999c21.333 -82 99 -123 233 -123c136.667 0 213.667 41 231 123h76c-27.333 -191.333 -129.666 -287 -306.999 -287s-280.333 95.667 -309 287z" />
    <glyph glyph-name="Cacute" unicode="&#x106;" horiz-adv-x="1479" 
d="M1374 92c-214 -82 -399 -123 -555 -123c-222 0 -402.333 67.333 -541 202s-208 312.667 -208 534c0 217.333 73.167 401 219.5 551s327.833 225 544.5 225c159.333 0 319.666 -46 480.999 -138l33 -313h-127c-68.667 217.333 -197.667 326 -387 326
c-139.333 0 -242.666 -63.667 -309.999 -191c-52 -100 -78 -226.333 -78 -379c0 -169.333 30.333 -316.333 91 -441c78 -160.667 192.667 -241 344 -241c187.333 0 320.333 115 399 345h131zM616 1589l273 283c51.333 53.333 96.333 80 135 80c60 0 90 -30 90 -90
c0 -38 -31.333 -73.667 -94 -107l-313 -166h-91z" />
    <glyph glyph-name="cacute" unicode="&#x107;" 
d="M958 188c-140 -138.667 -281.998 -208 -425.998 -208c-132.667 0 -240.334 46.667 -323.001 140c-79.333 89.333 -119 201 -119 335c0 152 43.333 275.667 130 371c89.333 99.333 209.333 149 360 149c90 0 168.333 -18 235 -54c82 -44 123 -107.333 123 -190
c0 -38 -12.833 -70.667 -38.5 -98s-57.167 -41 -94.5 -41c-46.667 0 -83 22.667 -109 68l-59 126c-27.333 45.333 -65 68 -113 68c-60.667 0 -106.334 -28.333 -137.001 -85c-24.667 -45.333 -37 -101 -37 -167c0 -108 24.333 -200.333 73 -277
c57.333 -90 137 -135 239 -135c76.667 0 153 26.667 229 80zM335.002 1087l273 283c51.333 53.333 96.333 80 135 80c60 0 90 -30 90 -90c0 -38 -31.333 -73.667 -94 -107l-313 -166h-91z" />
    <glyph glyph-name="Ccaron" unicode="&#x10c;" horiz-adv-x="1479" 
d="M1374 92c-214 -82 -399 -123 -555 -123c-222 0 -402.333 67.333 -541 202s-208 312.667 -208 534c0 217.333 73.167 401 219.5 551s327.833 225 544.5 225c159.333 0 319.666 -46 480.999 -138l33 -313h-127c-68.667 217.333 -197.667 326 -387 326
c-139.333 0 -242.666 -63.667 -309.999 -191c-52 -100 -78 -226.333 -78 -379c0 -169.333 30.333 -316.333 91 -441c78 -160.667 192.667 -241 344 -241c187.333 0 320.333 115 399 345h131zM512 1938h84l215 -179l215 179h84l-225 -349h-148z" />
    <glyph glyph-name="ccaron" unicode="&#x10d;" 
d="M958 188c-140 -138.667 -281.998 -208 -425.998 -208c-132.667 0 -240.334 46.667 -323.001 140c-79.333 89.333 -119 201 -119 335c0 152 43.333 275.667 130 371c89.333 99.333 209.333 149 360 149c90 0 168.333 -18 235 -54c82 -44 123 -107.333 123 -190
c0 -38 -12.833 -70.667 -38.5 -98s-57.167 -41 -94.5 -41c-46.667 0 -83 22.667 -109 68l-59 126c-27.333 45.333 -65 68 -113 68c-60.667 0 -106.334 -28.333 -137.001 -85c-24.667 -45.333 -37 -101 -37 -167c0 -108 24.333 -200.333 73 -277
c57.333 -90 137 -135 239 -135c76.667 0 153 26.667 229 80zM231.002 1436h84l215 -179l215 179h84l-225 -349h-148z" />
    <glyph glyph-name="Dslash" unicode="&#x110;" horiz-adv-x="1716" 
d="M588 362c0 -90 12 -150.333 36 -181c28 -36 85 -54 171 -54c152.667 0 268 58 346 174c66.667 99.333 100 229 100 389c0 191.333 -43.667 343 -131 455c-96.667 124 -238 186 -424 186c-65.333 0 -98 -32.667 -98 -98v-420h340v-127h-340v-324zM76 0
l0.000976562 118.998c64 6.66699 106.333 20 127 40c23.333 22.667 35 65.334 35 128.001v399h-238v127h238v350c0 62.667 -11.667 105.334 -35 128.001c-20.667 20 -63 33.333 -127 40v119h663c252 0 457.333 -55.667 616 -167c180.667 -126.667 271 -310.667 271 -552
c0 -162.667 -47.5 -308 -142.5 -436s-220.167 -213.333 -375.5 -256c-92.667 -26 -207.334 -39 -344.001 -39h-688z" />
    <glyph glyph-name="dcroat" unicode="&#x111;" horiz-adv-x="1155" 
d="M719 100c-90.667 -80 -185.668 -120 -285.001 -120c-117.333 0 -210.666 47 -279.999 141c-62 84.667 -93 187.667 -93 309c0 145.333 39.667 270.333 119 375c87.333 114.667 201.333 172 342 172c65.333 0 129 -24.667 191 -74v170h-269v109h269v59l-119 64v63l179 64
c96.667 32.667 162 49 196 49c7.33301 0 13.333 -0.666992 18 -2v-297h168v-109h-168v-833c0 -56 12 -90 36 -102c16 -8 42 -12.333 78 -13l1 -88l-383 -55v118zM712.999 623c0 73.333 -8.33301 126 -25 158c-24 46 -70.333 69 -139 69c-142 0 -213 -111.333 -213 -334
c0 -90 18 -165.333 54 -226c44 -73.333 108 -110 192 -110c87.333 0 131 43.667 131 131v312z" />
    <glyph glyph-name="Gbreve" unicode="&#x11e;" horiz-adv-x="1690" 
d="M1440 86c-188 -46.667 -289.334 -71.6641 -304.001 -74.9971c-118.667 -25.333 -221.667 -38 -309 -38c-226 0 -409.333 67.667 -550 203s-211 315.666 -211 540.999c0 223.333 77 407.333 231 552c150.667 141.333 338.334 212 563.001 212
c188 0 381.333 -47.333 580 -142v-311h-103c-109.333 222.667 -256 334 -440 334c-150 0 -266 -62.333 -348 -187c-70 -106.667 -105 -239 -105 -397c0 -166.667 34.667 -310.334 104 -431.001c84.667 -146.667 204.334 -220 359.001 -220c58 0 122.333 15 193 45v279
c0 66 -10.333 109.167 -31 129.5s-64.334 32.166 -131.001 35.499v109h692v-109c-66.667 -4 -113 -15.333 -139 -34c-34 -24 -51 -67 -51 -129v-367zM536.999 1907h75.999c21.333 -82 99 -123 233 -123c136.667 0 213.667 41 231 123h76
c-27.333 -191.333 -129.666 -287 -306.999 -287s-280.333 95.667 -309 287z" />
    <glyph glyph-name="gbreve" unicode="&#x11f;" 
d="M487 858c-90 0 -135 -64 -135 -192c0 -128.667 45 -193 135 -193c92 0 138 64.333 138 193c0 128 -46 192 -138 192zM283 -37c-27.333 -24.667 -41 -54.001 -41 -88.001c0 -92.667 76.333 -139 229 -139c210 0 315 46.333 315 139c0 36.667 -20.5 61.834 -61.5 75.501
s-145.833 20.5 -314.5 20.5c-38 0 -80.333 -2.66699 -127 -8zM182 9.99902c-62.667 64 -93.998 122 -93.998 174c0 87.333 54.667 156.333 164 207c-105.333 72 -158 163.667 -158 275c0 101.333 38 179.333 114 234c67.333 48.667 153.666 73 258.999 73
c33.333 0 77 -3.33301 131 -10c53.333 -10.667 125.666 -21.667 216.999 -33h195v-166h-162c14.667 -42.667 22 -79.667 22 -111c0 -99.333 -40 -176.666 -120 -231.999c-70 -48.667 -157 -73 -261 -73c-46 0 -92.333 4 -139 12c-14.667 -18.667 -22 -38.334 -22 -59.001
c0 -45.333 58.667 -70 176 -74c172 -6 281.333 -16 328 -30c117.333 -35.333 176 -114 176 -236c0 -124.667 -57.667 -218.667 -173 -282c-92 -50.667 -205.667 -76 -341 -76c-303.333 0 -455 73.667 -455 221c0 71.333 47.667 133.333 143 186zM203.002 1405h75.999
c21.333 -82 99 -123 233 -123c136.667 0 213.667 41 231 123h76c-27.333 -191.333 -129.666 -287 -306.999 -287s-280.333 95.667 -309 287z" />
    <glyph glyph-name="glyph273" unicode="&#x128;" horiz-adv-x="801" 
d="M63 0v119c64 6.66699 106.333 20 127 40c23.333 22.667 35 65.334 35 128.001v876c0 62.667 -11.667 105.334 -35 128.001c-20.667 20 -63 33.333 -127 40v119h674v-119c-64 -6.66699 -106.333 -20 -127 -40c-23.333 -22.667 -35 -65.334 -35 -128.001v-876
c0 -62.667 11.667 -105.334 35 -128.001c20.667 -20 63 -33.333 127 -40v-119h-674zM687 1911c-20 -164 -88.333 -246 -205 -246c-24.667 0 -61.167 7.16699 -109.5 21.5s-84.833 21.5 -109.5 21.5c-39.333 0 -69.333 -28.667 -90 -86h-66c22.667 164 93 246 211 246
c24.667 0 60.167 -7.16699 106.5 -21.5s81.166 -21.5 104.499 -21.5c40.667 0 71.334 28.667 92.001 86h66z" />
    <glyph glyph-name="glyph274" unicode="&#x129;" horiz-adv-x="637" 
d="M586 102l0.000976562 -102h-518v102c43.333 4 74.166 14.5 92.499 31.5s27.5 46.833 27.5 89.5v516l-116 62v65l327 111h66v-754c0 -42.667 9.33301 -72.5 28 -89.5s49.667 -27.5 93 -31.5zM614.001 1409c-20 -164 -88.333 -246 -205 -246
c-24.667 0 -61.167 7.16699 -109.5 21.5s-84.833 21.5 -109.5 21.5c-39.333 0 -69.333 -28.667 -90 -86h-66c22.667 164 93 246 211 246c24.667 0 60.167 -7.16699 106.5 -21.5s81.166 -21.5 104.499 -21.5c40.667 0 71.334 28.667 92.001 86h66z" />
    <glyph glyph-name="Idotaccent" unicode="&#x130;" horiz-adv-x="801" 
d="M63 0v119c64 6.66699 106.333 20 127 40c23.333 22.667 35 65.334 35 128.001v876c0 62.667 -11.667 105.334 -35 128.001c-20.667 20 -63 33.333 -127 40v119h674v-119c-64 -6.66699 -106.333 -20 -127 -40c-23.333 -22.667 -35 -65.334 -35 -128.001v-876
c0 -62.667 11.667 -105.334 35 -128.001c20.667 -20 63 -33.333 127 -40v-119h-674zM274 1753c0 34 12.667 63.667 38 89s55 38 89 38c35.333 0 65.333 -12.333 90 -37s37 -54.667 37 -90c0 -36.667 -12 -67 -36 -91s-54.333 -36 -91 -36c-36 0 -66.167 12.167 -90.5 36.5
s-36.5 54.5 -36.5 90.5z" />
    <glyph glyph-name="dotlessi" unicode="&#x131;" horiz-adv-x="637" 
d="M586 102l0.000976562 -102h-518v102c43.333 4 74.166 14.5 92.499 31.5s27.5 46.833 27.5 89.5v516l-116 62v65l327 111h66v-754c0 -42.667 9.33301 -72.5 28 -89.5s49.667 -27.5 93 -31.5z" />
    <glyph glyph-name="Lslash" unicode="&#x141;" horiz-adv-x="1475" 
d="M758 1450l-1 -117c-64 -7.33301 -106 -21.333 -126 -42c-22 -22.667 -33 -65.334 -33 -128.001v-377l375 254v-153l-375 -254v-271c0 -101.333 14.333 -167.333 43 -198c30 -32.667 95 -49 195 -49c122 0 220.667 24 296 72c67.333 44 134.333 121 201 231h113l-90 -418
h-1276v119c64 6.66699 106.333 20 127 40c23.333 22.667 35 65.334 35 128.001v180l-242 -162v154l242 164v540c0 63.333 -11.667 106.333 -35 129c-20.667 20 -63 34 -127 42v116h678z" />
    <glyph glyph-name="lslash" unicode="&#x142;" horiz-adv-x="659" 
d="M66 0l0.000976562 101.999c43.333 4 74.166 14.5 92.499 31.5s27.5 46.833 27.5 89.5v359l-223 -148v131l223 150v526l-114 64v63l179 64c96 32.667 161 49 195 49c8 0 14.333 -0.666992 19 -2v-645l219 147v-131l-219 -148v-479c0 -73.333 33.333 -113.666 100 -120.999
v-102h-499z" />
    <glyph glyph-name="OE" unicode="&#x152;" horiz-adv-x="2175" 
d="M1029 0c-127.333 0 -213.667 1.66797 -259 5.00098c-96.667 6.66699 -181 23.334 -253 50.001c-132.667 48 -237.334 134.333 -314.001 259c-71.333 118 -107 250.333 -107 397c0 141.333 32.667 270.666 98 387.999c69.333 124 165.333 215.667 288 275
c107.333 52 243 78 407 78l1177 -2l21 -326l-96 -6c-30.667 94 -82 157 -154 189c-52 22.667 -135.333 34 -250 34h-401c176.667 -109.333 268.334 -286 275.001 -530h169c130 0 199 61.333 207 184h94v-465h-95c-8 73.333 -33.667 123.666 -77 150.999
c-32.667 21.333 -83 32 -151 32c-15.333 0 -39.5 -0.666992 -72.5 -2s-58.167 -2 -75.5 -2c-8 -246.667 -84.333 -431 -229 -553h399c122.667 0 211 15.333 265 46c59.333 34 114.333 105.333 165 214l97 -15l-95 -401h-1033zM464.999 764.001c0 -162 18.667 -296 56 -402
c56 -158 150 -237 282 -237c220 0 330 189 330 567c0 160 -18.667 292.333 -56 397c-56 156 -149.333 234 -280 234c-221.333 0 -332 -186.333 -332 -559z" />
    <glyph glyph-name="oe" unicode="&#x153;" horiz-adv-x="1677" 
d="M1002 647h331v6c0 136.667 -55.333 205 -166 205c-106 0 -161 -70.333 -165 -211zM885 98c-99.333 -78.667 -213.334 -118.001 -342.001 -118.001c-149.333 0 -268.333 48.667 -357 146c-86 94.667 -129 217.334 -129 368.001c0 140 47.333 256 142 348
c94 90 211.333 135 352 135c122 0 232 -42.333 330 -127c90 82 195.667 123 317 123c124 0 222 -41.333 294 -124c66.667 -77.333 102.334 -179.333 107.001 -306h-599c2.66699 -92 27.667 -168.667 75 -230c52.667 -68 123.667 -102 213 -102
c57.333 0 143.333 28.667 258 86l66 -76c-143.333 -159.333 -286 -239 -428 -239c-110 0 -209.667 38.667 -299 116zM357.999 529.999c0 -104.667 10.333 -193.333 31 -266c32 -113.333 86 -170 162 -170c126.667 0 190 114 190 342c0 104 -11 192 -33 264
c-34 109.333 -89.667 164 -167 164c-122 0 -183 -111.333 -183 -334z" />
    <glyph glyph-name="Scedilla" unicode="&#x15e;" horiz-adv-x="1251" 
d="M127 63l-0.00195312 361h113c20.667 -97.333 62.334 -173.666 125.001 -228.999c65.333 -57.333 147 -86 245 -86c64.667 0 120 17 166 51c50.667 38 76 88.333 76 151c0 79.333 -92.333 171 -277 275c-154 86 -254 149.333 -300 190c-98.667 87.333 -148 189 -148 305
c0 139.333 54 244.666 162 315.999c92.667 61.333 212 92 358 92c151.333 0 294 -44.333 428 -133v-287h-106c-20.667 86.667 -60.334 157 -119.001 211c-62 57.333 -136.333 86 -223 86c-59.333 0 -109.666 -14.333 -150.999 -43c-46.667 -32.667 -70 -77.667 -70 -135
c0 -70 94 -159 282 -267c172 -98.667 271.667 -159.667 299 -183c101.333 -84 152 -184.667 152 -302c0 -147.333 -50.333 -262 -151 -344c-93.333 -76.667 -215 -115 -365 -115c-133.333 0 -298.666 28.667 -495.999 86zM341.998 -377l41.001 90
c91.333 -48.667 174 -73 248 -73c58.667 0 88 27 88 81c0 57.333 -33.333 86 -100 86c-12.667 0 -33.334 -1.66699 -62.001 -5v198h70v-114c26.667 3.33301 48.667 5 66 5c55.333 0 99.333 -14.333 132 -43c34.667 -30.667 52 -73 52 -127
c0 -118.667 -76.667 -178 -230 -178c-72 0 -173.667 26.667 -305 80z" />
    <glyph glyph-name="scedilla" unicode="&#x15f;" horiz-adv-x="915" 
d="M94 86l-0.00195312 221.002h99c18.667 -56.667 48.334 -103 89.001 -139c44.667 -39.333 95.334 -59 152.001 -59c38.667 0 74.667 9 108 27c40 21.333 60 49.666 60 84.999c0 43.333 -45.333 82.666 -136 117.999c-140.667 55.333 -224.667 92 -252 110
c-90.667 58 -136 135.667 -136 233c0 96 41.667 172 125 228c72.667 48.667 159.334 73 260.001 73c98 0 197.667 -24 299 -72v-204h-90c-41.333 110 -108.333 165 -201 165c-37.333 0 -69.333 -9 -96 -27c-30 -20.667 -45 -49 -45 -85c0 -41.333 44 -79 132 -113
c133.333 -51.333 214.666 -86.666 243.999 -105.999c88 -58 132 -136 132 -234c0 -102.667 -38 -183.334 -114 -242.001c-70 -54 -157.667 -81 -263 -81c-128.667 0 -251 34 -367 102zM173.998 -376.998l41.001 90c91.333 -48.667 174 -73 248 -73c58.667 0 88 27 88 81
c0 57.333 -33.333 86 -100 86c-12.667 0 -33.334 -1.66699 -62.001 -5v198h70v-114c26.667 3.33301 48.667 5 66 5c55.333 0 99.333 -14.333 132 -43c34.667 -30.667 52 -73 52 -127c0 -118.667 -76.667 -178 -230 -178c-72 0 -173.667 26.667 -305 80z" />
    <glyph glyph-name="Scaron" unicode="&#x160;" horiz-adv-x="1251" 
d="M127 63l-0.00195312 361h113c20.667 -97.333 62.334 -173.666 125.001 -228.999c65.333 -57.333 147 -86 245 -86c64.667 0 120 17 166 51c50.667 38 76 88.333 76 151c0 79.333 -92.333 171 -277 275c-154 86 -254 149.333 -300 190c-98.667 87.333 -148 189 -148 305
c0 139.333 54 244.666 162 315.999c92.667 61.333 212 92 358 92c151.333 0 294 -44.333 428 -133v-287h-106c-20.667 86.667 -60.334 157 -119.001 211c-62 57.333 -136.333 86 -223 86c-59.333 0 -109.666 -14.333 -150.999 -43c-46.667 -32.667 -70 -77.667 -70 -135
c0 -70 94 -159 282 -267c172 -98.667 271.667 -159.667 299 -183c101.333 -84 152 -184.667 152 -302c0 -147.333 -50.333 -262 -151 -344c-93.333 -76.667 -215 -115 -365 -115c-133.333 0 -298.666 28.667 -495.999 86zM327.998 1938h84l215 -179l215 179h84l-225 -349
h-148z" />
    <glyph glyph-name="scaron" unicode="&#x161;" horiz-adv-x="915" 
d="M94 86l-0.00195312 221.002h99c18.667 -56.667 48.334 -103 89.001 -139c44.667 -39.333 95.334 -59 152.001 -59c38.667 0 74.667 9 108 27c40 21.333 60 49.666 60 84.999c0 43.333 -45.333 82.666 -136 117.999c-140.667 55.333 -224.667 92 -252 110
c-90.667 58 -136 135.667 -136 233c0 96 41.667 172 125 228c72.667 48.667 159.334 73 260.001 73c98 0 197.667 -24 299 -72v-204h-90c-41.333 110 -108.333 165 -201 165c-37.333 0 -69.333 -9 -96 -27c-30 -20.667 -45 -49 -45 -85c0 -41.333 44 -79 132 -113
c133.333 -51.333 214.666 -86.666 243.999 -105.999c88 -58 132 -136 132 -234c0 -102.667 -38 -183.334 -114 -242.001c-70 -54 -157.667 -81 -263 -81c-128.667 0 -251 34 -367 102zM159.998 1436h84l215 -179l215 179h84l-225 -349h-148z" />
    <glyph glyph-name="glyph275" unicode="&#x168;" horiz-adv-x="1651" 
d="M61 1450l681.997 -0.000976562v-119c-77.333 0 -126.666 -18.667 -147.999 -56c-14.667 -25.333 -22 -81 -22 -167v-625c0 -118.667 27 -205.667 81 -261s140.333 -83 259 -83c144.667 0 248 40.333 310 121c54.667 70.667 82 180.667 82 330v543
c0 80 -13.5 133 -40.5 159s-80.5 39 -160.5 39v119h512v-119c-69.333 0 -115.666 -13.167 -138.999 -39.5s-35 -79.166 -35 -158.499v-543c0 -203.333 -51.333 -358 -154 -464c-104 -108.667 -257 -163 -459 -163c-119.333 0 -228.666 21.667 -327.999 65
c-119.333 51.333 -199 125 -239 221c-26 60.667 -39 146.334 -39 257.001v612c0 94 -11 152.167 -33 174.5s-64.667 35.166 -128 38.499zM1170 1911c-20 -164 -88.333 -246 -205 -246c-24.667 0 -61.167 7.16699 -109.5 21.5s-84.833 21.5 -109.5 21.5
c-39.333 0 -69.333 -28.667 -90 -86h-66c22.667 164 93 246 211 246c24.667 0 60.167 -7.16699 106.5 -21.5s81.166 -21.5 104.499 -21.5c40.667 0 71.334 28.667 92.001 86h66z" />
    <glyph glyph-name="glyph276" unicode="&#x169;" horiz-adv-x="1139" 
d="M1097 137l1.00098 -102.001l-404 -53v110c-88 -73.333 -178 -110 -270 -110c-184.667 0 -277 111 -277 333v402c0 48 -6.83301 81 -20.5 99s-44.834 31.333 -93.501 40v102l387 19v-637c0 -60.667 9 -103.334 27 -128.001c21.333 -29.333 61.333 -44 120 -44
c84.667 0 127 26.667 127 80v475c0 50.667 -9.66699 85.334 -29 104.001c-14 13.333 -35.667 23.333 -65 30v101l375 19v-715c0 -43.333 3.33301 -72.666 10 -87.999c12 -26.667 37 -40 75 -40c10.667 0 23 1 37 3zM838.001 1409c-20 -164 -88.333 -246 -205 -246
c-24.667 0 -61.167 7.16699 -109.5 21.5s-84.833 21.5 -109.5 21.5c-39.333 0 -69.333 -28.667 -90 -86h-66c22.667 164 93 246 211 246c24.667 0 60.167 -7.16699 106.5 -21.5s81.166 -21.5 104.499 -21.5c40.667 0 71.334 28.667 92.001 86h66z" />
    <glyph glyph-name="Ydieresis" unicode="&#x178;" horiz-adv-x="1485" 
d="M397 0l1.00098 118.998c79.333 0.666992 130 16.334 152 47.001c16.667 23.333 25 74.333 25 153v244l-337 600c-58.667 104.667 -122.334 160.667 -191.001 168v119h682v-118l-33 1c-73.333 2 -110 -25.333 -110 -82c0 -19.333 13.667 -55.333 41 -108l219 -422
c200.667 314.667 301 499 301 553c0 36 -41 55.333 -123 58v118h412l-1 -119c-30 -0.666992 -58 -12.667 -84 -36c-28.667 -26 -70.667 -90 -126 -192c-89.333 -165.333 -191 -333.666 -305 -504.999v-283c0 -80 8.66699 -131 26 -153c20 -26 68 -40.333 144 -43v-119h-693z
M804.001 1753c0 32.667 12 60.667 36 84s52.333 35 85 35s60.667 -11.667 84 -35s35 -51.333 35 -84c0 -35.333 -11 -64.333 -33 -87s-50.667 -34 -86 -34c-34 0 -62.667 11.667 -86 35s-35 52 -35 86zM440.001 1753c0 32.667 12 60.667 36 84s52.333 35 85 35
s60.667 -11.667 84 -35s35 -51.333 35 -84c0 -35.333 -11 -64.333 -33 -87s-50.667 -34 -86 -34c-34.667 0 -63.5 11.5 -86.5 34.5s-34.5 51.833 -34.5 86.5z" />
    <glyph glyph-name="Zcaron" unicode="&#x17d;" horiz-adv-x="1356" 
d="M51 0l0.000976562 133l789 1208h-213c-190 0 -319 -72.333 -387 -217h-105v326h1129v-109l-795 -1208h264c114 0 204.333 17 271 51c73.333 38 136.666 104.333 189.999 199h111l-82 -383h-1172zM379.001 1938h84l215 -179l215 179h84l-225 -349h-148z" />
    <glyph glyph-name="zcaron" unicode="&#x17e;" horiz-adv-x="909" 
d="M43 0l-0.000976562 109l494 753h-27c-85.333 0 -151.666 -10 -198.999 -30c-62.667 -26 -109 -72.667 -139 -140h-86v285h29c18 -12.667 64.333 -19 139 -19h600v-96l-483 -753h159c109.333 0 197 64.667 263 194h96l-74 -303h-772zM155.999 1436h84l215 -179l215 179h84
l-225 -349h-148z" />
    <glyph glyph-name="florin" unicode="&#x192;" 
d="M401 786l-202.003 -0.000976562v123h219c34.667 384 165 576 391 576c50 0 93.333 -9.33301 130 -28c46 -23.333 69 -57.666 69 -102.999c0 -30 -9.16699 -55 -27.5 -75s-42.166 -30 -71.499 -30c-31.333 0 -59.666 19.833 -84.999 59.5s-48 59.5 -68 59.5
c-46 0 -74.667 -152.667 -86 -458l207 -1v-123h-211c-14 -447.333 -54.833 -755.333 -122.5 -924s-178.5 -253 -332.5 -253c-48 0 -88.667 9.66699 -122 29c-41.333 23.333 -62 57.333 -62 102c0 69.333 33.333 104 100 104c32 0 59.833 -19 83.5 -57s45.5 -57 65.5 -57
c46.667 0 76.334 146.333 89.001 439c10.667 254 22.667 459.667 36 617z" />
    <glyph glyph-name="glyph277" unicode="&#x1a0;" horiz-adv-x="1597" 
d="M451 764c0 -168 19.666 -307.001 58.999 -417.001c58.667 -164.667 156.334 -247 293.001 -247c229.333 0 344 196 344 588c0 168.667 -19.333 307.334 -58 416.001c-58 164 -155.333 246 -292 246c-230.667 0 -346 -195.333 -346 -586zM1442 1110
c27.333 32 41 63.666 41 94.999s-32.667 69.833 -98 115.5s-98 90.834 -98 135.501c0 41.333 14.333 75 43 101s63.334 39 104.001 39c66.667 0 120 -28 160 -84c35.333 -50.667 53 -110.667 53 -180c0 -120.667 -55.667 -222.334 -167 -305.001
c33.333 -89.333 50 -184 50 -284c0 -220 -69 -403 -207 -549c-140.667 -148.667 -320.334 -223 -539.001 -223c-210 0 -382.667 72 -518 216c-132 140.667 -198 316.667 -198 528c0 217.333 69.667 398.333 209 543c141.333 147.333 320 221 536 221
c139.333 0 265 -33.667 377 -101c108 -65.333 192 -154.666 252 -267.999z" />
    <glyph glyph-name="glyph278" unicode="&#x1a1;" horiz-adv-x="1098" 
d="M356 532c0 -292 64.333 -438.001 193 -438.001c126.667 0 190 114 190 342c0 104.667 -11.333 193.334 -34 266.001c-34 109.333 -90.667 164 -170 164c-119.333 0 -179 -111.333 -179 -334zM988 713.999c13.333 22.667 20.002 44.9971 20.002 66.9971
c0 30.667 -32.667 68.834 -98 114.501s-98 91.167 -98 136.5c0 40.667 14.167 74.167 42.5 100.5s63.166 39.5 104.499 39.5c66.667 0 120 -28.333 160 -85c35.333 -50 53 -109.667 53 -179c0 -114 -49.667 -211 -149 -291c11.333 -45.333 17 -92.666 17 -141.999
c0 -146 -46.667 -265 -140 -357s-213 -138 -359 -138c-149.333 0 -268.666 49.333 -357.999 148c-85.333 94.667 -128 217.334 -128 368.001c0 140 48 255.667 144 347c94 89.333 211.333 134 352 134c99.333 0 187.666 -24 264.999 -72
c75.333 -46 132.666 -109.667 171.999 -191z" />
    <glyph glyph-name="glyph279" unicode="&#x1af;" horiz-adv-x="1651" 
d="M1350 1450l-1.00098 6c-0.666992 40.667 13.666 74.667 42.999 102c28 25.333 62.667 38 104 38c66.667 0 120 -28 160 -84c35.333 -50.667 53 -110.667 53 -180c0 -150.667 -89 -273 -267 -367v-375c0 -203.333 -51.333 -358 -154 -464
c-104 -108.667 -257 -163 -459 -163c-119.333 0 -228.666 21.667 -327.999 65c-119.333 51.333 -199 125 -239 221c-26 60.667 -39 146.334 -39 257.001v612c0 94 -11 152.167 -33 174.5s-64.667 35.166 -128 38.499l-1 119h682v-119
c-77.333 0 -126.666 -18.667 -147.999 -56c-14.667 -25.333 -22 -81 -22 -167v-625c0 -118.667 27 -205.667 81 -261s140.333 -83 259 -83c144.667 0 248 40.333 310 121c54.667 70.667 82 180.667 82 330v543c0 80 -13.5 133 -40.5 159s-80.5 39 -160.5 39v119h246z
M1442 1053c68.667 52 103 102.667 103 152c0 29.333 -21 59.666 -63 90.999c-26.667 -25.333 -40 -79.666 -40 -162.999v-80z" />
    <glyph glyph-name="glyph280" unicode="&#x1b0;" horiz-adv-x="1139" 
d="M848 971c-11.333 18.667 -16.998 39 -16.998 61c0 40.667 14.167 74.167 42.5 100.5s63.166 39.5 104.499 39.5c66.667 0 120 -28.333 160 -85c35.333 -50 53 -109.667 53 -179c0 -136.667 -72 -249.334 -216 -338.001v-308c0 -43.333 3.33301 -72.666 10 -87.999
c12 -26.667 37 -40 75 -40c10.667 0 23 1 37 3l1 -102l-404 -53v110c-88 -73.333 -178 -110 -270 -110c-184.667 0 -277 111 -277 333v402c0 48 -6.83301 81 -20.5 99s-44.834 31.333 -93.501 40v102l387 19v-637c0 -60.667 9 -103.334 27 -128.001
c21.333 -29.333 61.333 -44 120 -44c84.667 0 127 26.667 127 80v475c0 50.667 -9.66699 85.334 -29 104.001c-14 13.333 -35.667 23.333 -65 30v101zM975.002 674c34.667 36 52 71.667 52 107c0 27.333 -17.333 54.333 -52 81v-188z" />
    <glyph glyph-name="circumflex" unicode="&#x2c6;" 
d="M213 1087l225 349h148l225 -349h-84l-215 181l-215 -181h-84z" />
    <glyph glyph-name="caron" unicode="&#x2c7;" 
d="M213 1436h84l215 -179l215 179h84l-225 -349h-148z" />
    <glyph glyph-name="breve" unicode="&#x2d8;" 
d="M203 1405h75.999c21.333 -82 99 -123 233 -123c136.667 0 213.667 41 231 123h76c-27.333 -191.333 -129.666 -287 -306.999 -287s-280.333 95.667 -309 287z" />
    <glyph glyph-name="dotaccent" unicode="&#x2d9;" 
d="M385 1251c0 34 12.667 63.667 38 89s55 38 89 38c35.333 0 65.333 -12.333 90 -37s37 -54.667 37 -90c0 -36.667 -12 -67 -36 -91s-54.333 -36 -91 -36c-36 0 -66.167 12.167 -90.5 36.5s-36.5 54.5 -36.5 90.5z" />
    <glyph glyph-name="ring" unicode="&#x2da;" 
d="M377 1321c0 -38 13 -70 39 -96s58 -39 96 -39s70.333 13 97 39s40 58 40 96c0 37.333 -13.5 69.5 -40.5 96.5s-59.167 40.5 -96.5 40.5c-38 0 -70 -13.333 -96 -40s-39 -59 -39 -97zM260 1321c0 71.333 24.167 131.5 72.5 180.5s108.166 73.5 179.499 73.5
s131.5 -24.5 180.5 -73.5s73.5 -109.167 73.5 -180.5s-24.5 -131.166 -73.5 -179.499s-109.167 -72.5 -180.5 -72.5s-131.166 24.167 -179.499 72.5s-72.5 108.166 -72.5 179.499z" />
    <glyph glyph-name="ogonek" unicode="&#x2db;" 
d="M676 29c-116 -93.333 -173.999 -181.667 -173.999 -265c0 -74.667 31.333 -112 94 -112c45.333 0 83.666 24 114.999 72l32 -19c-53.333 -109.333 -133 -164 -239 -164c-44 0 -80 14.333 -108 43s-42 65 -42 109c0 110 89.667 222 269 336h53z" />
    <glyph glyph-name="tilde" unicode="&#x2dc;" 
d="M801 1409c-20 -164 -88.333 -246 -205 -246c-24.667 0 -61.167 7.16699 -109.5 21.5s-84.833 21.5 -109.5 21.5c-39.333 0 -69.333 -28.667 -90 -86h-66c22.667 164 93 246 211 246c24.667 0 60.167 -7.16699 106.5 -21.5s81.166 -21.5 104.499 -21.5
c40.667 0 71.334 28.667 92.001 86h66z" />
    <glyph glyph-name="hungarumlaut" unicode="&#x2dd;" 
d="M565 1087l197 283c38 54.667 72.667 82 104 82c22.667 0 41.667 -7.5 57 -22.5s23 -33.5 23 -55.5c0 -34.667 -21.667 -68.667 -65 -102l-242 -185h-74zM313 1087l144 273.001c32.667 61.333 66.667 92 102 92c52 0 78 -24.667 78 -74c0 -32.667 -17 -65.334 -51 -98.001
l-199 -193h-74z" />
    <glyph glyph-name="Delta" unicode="&#x394;" horiz-adv-x="1350" 
d="M547 1116l-381 -827h764zM647 1497h68l692 -1497h-1460z" />
    <glyph glyph-name="Delta" unicode="&#x2206;" horiz-adv-x="1350" 
d="M547 1116l-381 -827h764zM647 1497h68l692 -1497h-1460z" />
    <glyph glyph-name="Omega" unicode="&#x3a9;" horiz-adv-x="1569" 
d="M1133 258v-14.001h290l43 145h78l-117 -389h-530c131.333 290.667 197 575.334 197 854.001c0 370 -102.667 555 -308 555c-206 0 -309 -185 -309 -555c0 -277.333 66.333 -562 199 -854h-533l-116 389h75l45 -145h289v14c-228 122 -342 316 -342 582
c0 194.667 67.333 353.667 202 477c130 120 293.333 180 490 180s360 -60 490 -180c134 -123.333 201 -282.333 201 -477c0 -262.667 -114.667 -456.667 -344 -582z" />
    <glyph glyph-name="Omega" unicode="&#x2126;" horiz-adv-x="1569" 
d="M1133 258v-14.001h290l43 145h78l-117 -389h-530c131.333 290.667 197 575.334 197 854.001c0 370 -102.667 555 -308 555c-206 0 -309 -185 -309 -555c0 -277.333 66.333 -562 199 -854h-533l-116 389h75l45 -145h289v14c-228 122 -342 316 -342 582
c0 194.667 67.333 353.667 202 477c130 120 293.333 180 490 180s360 -60 490 -180c134 -123.333 201 -282.333 201 -477c0 -262.667 -114.667 -456.667 -344 -582z" />
    <glyph glyph-name="pi" unicode="&#x3c0;" horiz-adv-x="1477" 
d="M1444 885l-60 -275.004h-348c-5.33301 -85.333 -8 -151.333 -8 -198c0 -25.333 1.33301 -63.666 4 -114.999s4 -89.666 4 -114.999c0 -150 -53 -225 -159 -225c-74 0 -111 40.333 -111 121c0 44 24.333 128.667 73 254c58.667 149.333 92.334 242 101.001 278h-375
c-5.33301 -90.667 -8 -156.667 -8 -198c0 -25.333 1 -63.666 3 -114.999s3 -89.666 3 -114.999c0 -150 -53.333 -225 -160 -225c-72 0 -108 40.333 -108 121c0 44.667 24 129.667 72 255c58 150 91.333 242.333 100 277h-156c-69.333 0 -119.333 -7.66699 -150 -23
c-42.667 -21.333 -70.334 -63.333 -83.001 -126h-64c27.333 146 67.333 249.333 120 310c65.333 76 166 114 302 114h1008z" />
    <glyph glyph-name="glyph281" unicode="&#x1ea0;" horiz-adv-x="1479" 
d="M47 0v119c65.333 16 116 76.667 152 182l350 1022c5.33301 15.333 8 29 8 41c0 27.333 -15 56 -45 86h367l409 -1171c34.667 -98.667 82.667 -152 144 -160v-119h-635v119c86 4 129 34 129 90c0 26.667 -11.333 79.667 -34 159l-42 140h-447l-40 -135
c-18 -64 -27 -112.667 -27 -146c0 -72 43 -108 129 -108v-119h-418zM449 635h348l-172 522zM539 -305c0 46.667 15.667 85.667 47 117s70.333 47 117 47c46 0 84.833 -15.833 116.5 -47.5s47.5 -70.5 47.5 -116.5c0 -45.333 -16 -83.833 -48 -115.5
s-70.667 -47.5 -116 -47.5c-46 0 -84.833 15.667 -116.5 47s-47.5 70 -47.5 116z" />
    <glyph glyph-name="glyph282" unicode="&#x1ea1;" horiz-adv-x="1028" 
d="M614 86c-97.333 -69.333 -190.002 -104.002 -278.002 -104.002c-76.667 0 -140.667 20 -192 60c-55.333 43.333 -83 102.333 -83 177c0 150 177 266.667 531 350v160c0 98.667 -43.667 148 -131 148c-80.667 0 -121 -24 -121 -72c0 -14 5.5 -32.167 16.5 -54.5
s16.5 -36.166 16.5 -41.499c0 -18.667 -26 -39 -78 -61c-47.333 -20 -83.666 -30 -108.999 -30c-23.333 0 -41.666 17.667 -54.999 53c-9.33301 26.667 -14 54.334 -14 83.001c0 78.667 43.333 137.667 130 177c66 30.667 143.333 46 232 46c140 0 236 -17.667 288 -53
c66 -44 99 -131.333 99 -262v-408c0 -61.333 14.333 -92 43 -92c17.333 0 39.333 7.33301 66 22c0 -62.667 -18.5 -113.167 -55.5 -151.5s-86.833 -57.5 -149.5 -57.5c-71.333 0 -123.333 37 -156 111zM591.998 210.998l0.000976562 248c-177.333 -52 -266 -119 -266 -201
c0 -32 12 -58 36 -78c22 -18.667 49.333 -28 82 -28c45.333 0 94.666 19.667 147.999 59zM343.999 -305.002c0 46.667 15.667 85.667 47 117s70.333 47 117 47c46 0 84.833 -15.833 116.5 -47.5s47.5 -70.5 47.5 -116.5c0 -45.333 -16 -83.833 -48 -115.5
s-70.667 -47.5 -116 -47.5c-46 0 -84.833 15.667 -116.5 47s-47.5 70 -47.5 116z" />
    <glyph glyph-name="glyph283" unicode="&#x1ea2;" horiz-adv-x="1479" 
d="M47 0v119c65.333 16 116 76.667 152 182l350 1022c5.33301 15.333 8 29 8 41c0 27.333 -15 56 -45 86h367l409 -1171c34.667 -98.667 82.667 -152 144 -160v-119h-635v119c86 4 129 34 129 90c0 26.667 -11.333 79.667 -34 159l-42 140h-447l-40 -135
c-18 -64 -27 -112.667 -27 -146c0 -72 43 -108 129 -108v-119h-418zM449 635h348l-172 522zM597 1570l-7.00098 130.001c53.333 18.667 87 32 101 40c40.667 22 61 48 61 78c0 23.333 -7.16699 43.333 -21.5 60s-49.5 28.334 -105.5 35.001
c-44 5.33301 -66 23.666 -66 54.999c0 33.333 21 49.666 63 48.999c120 -2.66699 204.333 -43.334 253 -122.001c12 -19.333 18.333 -45 19 -77c0 -21.333 -2.66699 -38.666 -8 -51.999c-17.333 -42 -55.666 -76 -114.999 -102c-61.333 -27.333 -94.333 -45.333 -99 -54
s-7.66699 -22 -9 -40h-66z" />
    <glyph glyph-name="glyph284" unicode="&#x1ea3;" horiz-adv-x="1028" 
d="M614 86c-97.333 -69.333 -190.002 -104.002 -278.002 -104.002c-76.667 0 -140.667 20 -192 60c-55.333 43.333 -83 102.333 -83 177c0 150 177 266.667 531 350v160c0 98.667 -43.667 148 -131 148c-80.667 0 -121 -24 -121 -72c0 -14 5.5 -32.167 16.5 -54.5
s16.5 -36.166 16.5 -41.499c0 -18.667 -26 -39 -78 -61c-47.333 -20 -83.666 -30 -108.999 -30c-23.333 0 -41.666 17.667 -54.999 53c-9.33301 26.667 -14 54.334 -14 83.001c0 78.667 43.333 137.667 130 177c66 30.667 143.333 46 232 46c140 0 236 -17.667 288 -53
c66 -44 99 -131.333 99 -262v-408c0 -61.333 14.333 -92 43 -92c17.333 0 39.333 7.33301 66 22c0 -62.667 -18.5 -113.167 -55.5 -151.5s-86.833 -57.5 -149.5 -57.5c-71.333 0 -123.333 37 -156 111zM591.998 210.998l0.000976562 248c-177.333 -52 -266 -119 -266 -201
c0 -32 12 -58 36 -78c22 -18.667 49.333 -28 82 -28c45.333 0 94.666 19.667 147.999 59zM394.999 1081l-7.00098 130.001c53.333 18.667 87 32 101 40c40.667 22 61 48 61 78c0 23.333 -7.16699 43.333 -21.5 60s-49.5 28.334 -105.5 35.001
c-44 5.33301 -66 23.666 -66 54.999c0 33.333 21 49.666 63 48.999c120 -2.66699 204.333 -43.334 253 -122.001c12 -19.333 18.333 -45 19 -77c0 -21.333 -2.66699 -38.666 -8 -51.999c-17.333 -42 -55.666 -76 -114.999 -102c-61.333 -27.333 -94.333 -45.333 -99 -54
s-7.66699 -22 -9 -40h-66z" />
    <glyph glyph-name="glyph285" unicode="&#x1ea4;" horiz-adv-x="1479" 
d="M47 0v119c65.333 16 116 76.667 152 182l350 1022c5.33301 15.333 8 29 8 41c0 27.333 -15 56 -45 86h367l409 -1171c34.667 -98.667 82.667 -152 144 -160v-119h-635v119c86 4 129 34 129 90c0 26.667 -11.333 79.667 -34 159l-42 140h-447l-40 -135
c-18 -64 -27 -112.667 -27 -146c0 -72 43 -108 129 -108v-119h-418zM449 635h348l-172 522zM428 1545l225 349h148l225 -349h-84l-215 181l-215 -181h-84zM461 1935l273 283c51.333 53.333 96.333 80 135 80c60 0 90 -30 90 -90c0 -38 -31.333 -73.667 -94 -107l-313 -166
h-91z" />
    <glyph glyph-name="glyph286" unicode="&#x1ea5;" horiz-adv-x="1028" 
d="M614 86c-97.333 -69.333 -190.002 -104.002 -278.002 -104.002c-76.667 0 -140.667 20 -192 60c-55.333 43.333 -83 102.333 -83 177c0 150 177 266.667 531 350v160c0 98.667 -43.667 148 -131 148c-80.667 0 -121 -24 -121 -72c0 -14 5.5 -32.167 16.5 -54.5
s16.5 -36.166 16.5 -41.499c0 -18.667 -26 -39 -78 -61c-47.333 -20 -83.666 -30 -108.999 -30c-23.333 0 -41.666 17.667 -54.999 53c-9.33301 26.667 -14 54.334 -14 83.001c0 78.667 43.333 137.667 130 177c66 30.667 143.333 46 232 46c140 0 236 -17.667 288 -53
c66 -44 99 -131.333 99 -262v-408c0 -61.333 14.333 -92 43 -92c17.333 0 39.333 7.33301 66 22c0 -62.667 -18.5 -113.167 -55.5 -151.5s-86.833 -57.5 -149.5 -57.5c-71.333 0 -123.333 37 -156 111zM591.998 210.998l0.000976562 248c-177.333 -52 -266 -119 -266 -201
c0 -32 12 -58 36 -78c22 -18.667 49.333 -28 82 -28c45.333 0 94.666 19.667 147.999 59zM202.999 1087l225 349h148l225 -349h-84l-215 181l-215 -181h-84zM235.999 1478l273 283c51.333 53.333 96.333 80 135 80c60 0 90 -30 90 -90c0 -38 -31.333 -73.667 -94 -107
l-313 -166h-91z" />
    <glyph glyph-name="glyph287" unicode="&#x1ea6;" horiz-adv-x="1479" 
d="M47 0v119c65.333 16 116 76.667 152 182l350 1022c5.33301 15.333 8 29 8 41c0 27.333 -15 56 -45 86h367l409 -1171c34.667 -98.667 82.667 -152 144 -160v-119h-635v119c86 4 129 34 129 90c0 26.667 -11.333 79.667 -34 159l-42 140h-447l-40 -135
c-18 -64 -27 -112.667 -27 -146c0 -72 43 -108 129 -108v-119h-418zM449 635h348l-172 522zM428 1545l225 349h148l225 -349h-84l-215 181l-215 -181h-84zM1003 1935h-91l-313 166c-62.667 33.333 -94 69 -94 107c0 60 30 90 90 90c38.667 0 83.667 -26.667 135 -80z" />
    <glyph glyph-name="glyph288" unicode="&#x1ea7;" horiz-adv-x="1028" 
d="M614 86c-97.333 -69.333 -190.002 -104.002 -278.002 -104.002c-76.667 0 -140.667 20 -192 60c-55.333 43.333 -83 102.333 -83 177c0 150 177 266.667 531 350v160c0 98.667 -43.667 148 -131 148c-80.667 0 -121 -24 -121 -72c0 -14 5.5 -32.167 16.5 -54.5
s16.5 -36.166 16.5 -41.499c0 -18.667 -26 -39 -78 -61c-47.333 -20 -83.666 -30 -108.999 -30c-23.333 0 -41.666 17.667 -54.999 53c-9.33301 26.667 -14 54.334 -14 83.001c0 78.667 43.333 137.667 130 177c66 30.667 143.333 46 232 46c140 0 236 -17.667 288 -53
c66 -44 99 -131.333 99 -262v-408c0 -61.333 14.333 -92 43 -92c17.333 0 39.333 7.33301 66 22c0 -62.667 -18.5 -113.167 -55.5 -151.5s-86.833 -57.5 -149.5 -57.5c-71.333 0 -123.333 37 -156 111zM591.998 210.998l0.000976562 248c-177.333 -52 -266 -119 -266 -201
c0 -32 12 -58 36 -78c22 -18.667 49.333 -28 82 -28c45.333 0 94.666 19.667 147.999 59zM202.999 1087l225 349h148l225 -349h-84l-215 181l-215 -181h-84zM777.999 1478h-91l-313 166c-62.667 33.333 -94 69 -94 107c0 60 30 90 90 90c38.667 0 83.667 -26.667 135 -80z
" />
    <glyph glyph-name="glyph289" unicode="&#x1ea8;" horiz-adv-x="1479" 
d="M47 0v119c65.333 16 116 76.667 152 182l350 1022c5.33301 15.333 8 29 8 41c0 27.333 -15 56 -45 86h367l409 -1171c34.667 -98.667 82.667 -152 144 -160v-119h-635v119c86 4 129 34 129 90c0 26.667 -11.333 79.667 -34 159l-42 140h-447l-40 -135
c-18 -64 -27 -112.667 -27 -146c0 -72 43 -108 129 -108v-119h-418zM449 635h348l-172 522zM428 1545l225 349h148l225 -349h-84l-215 181l-215 -181h-84zM881 1842l-7.00098 130c53.333 18.667 87 32 101 40c40.667 22 61 48 61 78c0 23.333 -7.16699 43.333 -21.5 60
s-49.5 28.334 -105.5 35c-44 5.33301 -66 23.666 -66 55c0 33.333 21 49.666 63 49c120 -2.66699 204.333 -43.334 253 -122c12 -19.333 18.333 -45 19 -77c0 -21.333 -2.66699 -38.666 -8 -52c-17.333 -42 -55.666 -76 -114.999 -102
c-61.333 -27.333 -94.333 -45.333 -99 -54s-7.66699 -22 -9 -40h-66z" />
    <glyph glyph-name="glyph290" unicode="&#x1ea9;" horiz-adv-x="1028" 
d="M614 86c-97.333 -69.333 -190.002 -104.002 -278.002 -104.002c-76.667 0 -140.667 20 -192 60c-55.333 43.333 -83 102.333 -83 177c0 150 177 266.667 531 350v160c0 98.667 -43.667 148 -131 148c-80.667 0 -121 -24 -121 -72c0 -14 5.5 -32.167 16.5 -54.5
s16.5 -36.166 16.5 -41.499c0 -18.667 -26 -39 -78 -61c-47.333 -20 -83.666 -30 -108.999 -30c-23.333 0 -41.666 17.667 -54.999 53c-9.33301 26.667 -14 54.334 -14 83.001c0 78.667 43.333 137.667 130 177c66 30.667 143.333 46 232 46c140 0 236 -17.667 288 -53
c66 -44 99 -131.333 99 -262v-408c0 -61.333 14.333 -92 43 -92c17.333 0 39.333 7.33301 66 22c0 -62.667 -18.5 -113.167 -55.5 -151.5s-86.833 -57.5 -149.5 -57.5c-71.333 0 -123.333 37 -156 111zM591.998 210.998l0.000976562 248c-177.333 -52 -266 -119 -266 -201
c0 -32 12 -58 36 -78c22 -18.667 49.333 -28 82 -28c45.333 0 94.666 19.667 147.999 59zM202.999 1087l225 349h148l225 -349h-84l-215 181l-215 -181h-84zM654.999 1385l-7.00098 130.001c53.333 18.667 87 32 101 40c40.667 22 61 48 61 78
c0 23.333 -7.16699 43.333 -21.5 60s-49.5 28.334 -105.5 35.001c-44 5.33301 -66 23.666 -66 54.999c0 33.333 21 49.666 63 48.999c120 -2.66699 204.333 -43.334 253 -122.001c12 -19.333 18.333 -45 19 -77c0 -21.333 -2.66699 -38.666 -8 -51.999
c-17.333 -42 -55.666 -76 -114.999 -102c-61.333 -27.333 -94.333 -45.333 -99 -54s-7.66699 -22 -9 -40h-66z" />
    <glyph glyph-name="glyph291" unicode="&#x1eaa;" horiz-adv-x="1479" 
d="M47 0v119c65.333 16 116 76.667 152 182l350 1022c5.33301 15.333 8 29 8 41c0 27.333 -15 56 -45 86h367l409 -1171c34.667 -98.667 82.667 -152 144 -160v-119h-635v119c86 4 129 34 129 90c0 26.667 -11.333 79.667 -34 159l-42 140h-447l-40 -135
c-18 -64 -27 -112.667 -27 -146c0 -72 43 -108 129 -108v-119h-418zM449 635h348l-172 522zM428 1545l225 349h148l225 -349h-84l-215 181l-215 -181h-84zM1083 2239c-20 -164 -88.333 -246 -205 -246c-24.667 0 -61.167 7.16699 -109.5 21.5s-84.833 21.5 -109.5 21.5
c-39.333 0 -69.333 -28.667 -90 -86h-66c22.667 164 93 246 211 246c24.667 0 60.167 -7.16699 106.5 -21.5s81.166 -21.5 104.499 -21.5c40.667 0 71.334 28.667 92.001 86h66z" />
    <glyph glyph-name="glyph292" unicode="&#x1eab;" horiz-adv-x="1028" 
d="M614 86c-97.333 -69.333 -190.002 -104.002 -278.002 -104.002c-76.667 0 -140.667 20 -192 60c-55.333 43.333 -83 102.333 -83 177c0 150 177 266.667 531 350v160c0 98.667 -43.667 148 -131 148c-80.667 0 -121 -24 -121 -72c0 -14 5.5 -32.167 16.5 -54.5
s16.5 -36.166 16.5 -41.499c0 -18.667 -26 -39 -78 -61c-47.333 -20 -83.666 -30 -108.999 -30c-23.333 0 -41.666 17.667 -54.999 53c-9.33301 26.667 -14 54.334 -14 83.001c0 78.667 43.333 137.667 130 177c66 30.667 143.333 46 232 46c140 0 236 -17.667 288 -53
c66 -44 99 -131.333 99 -262v-408c0 -61.333 14.333 -92 43 -92c17.333 0 39.333 7.33301 66 22c0 -62.667 -18.5 -113.167 -55.5 -151.5s-86.833 -57.5 -149.5 -57.5c-71.333 0 -123.333 37 -156 111zM591.998 210.998l0.000976562 248c-177.333 -52 -266 -119 -266 -201
c0 -32 12 -58 36 -78c22 -18.667 49.333 -28 82 -28c45.333 0 94.666 19.667 147.999 59zM202.999 1087l225 349h148l225 -349h-84l-215 181l-215 -181h-84zM857.999 1782c-20 -164 -88.333 -246 -205 -246c-24.667 0 -61.167 7.16699 -109.5 21.5s-84.833 21.5 -109.5 21.5
c-39.333 0 -69.333 -28.667 -90 -86h-66c22.667 164 93 246 211 246c24.667 0 60.167 -7.16699 106.5 -21.5s81.166 -21.5 104.499 -21.5c40.667 0 71.334 28.667 92.001 86h66z" />
    <glyph glyph-name="glyph293" unicode="&#x1eac;" horiz-adv-x="1479" 
d="M47 0v119c65.333 16 116 76.667 152 182l350 1022c5.33301 15.333 8 29 8 41c0 27.333 -15 56 -45 86h367l409 -1171c34.667 -98.667 82.667 -152 144 -160v-119h-635v119c86 4 129 34 129 90c0 26.667 -11.333 79.667 -34 159l-42 140h-447l-40 -135
c-18 -64 -27 -112.667 -27 -146c0 -72 43 -108 129 -108v-119h-418zM449 635h348l-172 522zM428 1545l225 349h148l225 -349h-84l-215 181l-215 -181h-84zM539 -305c0 46.667 15.667 85.667 47 117s70.333 47 117 47c46 0 84.833 -15.833 116.5 -47.5
s47.5 -70.5 47.5 -116.5c0 -45.333 -16 -83.833 -48 -115.5s-70.667 -47.5 -116 -47.5c-46 0 -84.833 15.667 -116.5 47s-47.5 70 -47.5 116z" />
    <glyph glyph-name="glyph294" unicode="&#x1ead;" horiz-adv-x="1028" 
d="M614 86c-97.333 -69.333 -190.002 -104.002 -278.002 -104.002c-76.667 0 -140.667 20 -192 60c-55.333 43.333 -83 102.333 -83 177c0 150 177 266.667 531 350v160c0 98.667 -43.667 148 -131 148c-80.667 0 -121 -24 -121 -72c0 -14 5.5 -32.167 16.5 -54.5
s16.5 -36.166 16.5 -41.499c0 -18.667 -26 -39 -78 -61c-47.333 -20 -83.666 -30 -108.999 -30c-23.333 0 -41.666 17.667 -54.999 53c-9.33301 26.667 -14 54.334 -14 83.001c0 78.667 43.333 137.667 130 177c66 30.667 143.333 46 232 46c140 0 236 -17.667 288 -53
c66 -44 99 -131.333 99 -262v-408c0 -61.333 14.333 -92 43 -92c17.333 0 39.333 7.33301 66 22c0 -62.667 -18.5 -113.167 -55.5 -151.5s-86.833 -57.5 -149.5 -57.5c-71.333 0 -123.333 37 -156 111zM591.998 210.998l0.000976562 248c-177.333 -52 -266 -119 -266 -201
c0 -32 12 -58 36 -78c22 -18.667 49.333 -28 82 -28c45.333 0 94.666 19.667 147.999 59zM202.999 1087l225 349h148l225 -349h-84l-215 181l-215 -181h-84zM343.999 -305.002c0 46.667 15.667 85.667 47 117s70.333 47 117 47c46 0 84.833 -15.833 116.5 -47.5
s47.5 -70.5 47.5 -116.5c0 -45.333 -16 -83.833 -48 -115.5s-70.667 -47.5 -116 -47.5c-46 0 -84.833 15.667 -116.5 47s-47.5 70 -47.5 116z" />
    <glyph glyph-name="glyph295" unicode="&#x1eae;" horiz-adv-x="1479" 
d="M47 0v119c65.333 16 116 76.667 152 182l350 1022c5.33301 15.333 8 29 8 41c0 27.333 -15 56 -45 86h367l409 -1171c34.667 -98.667 82.667 -152 144 -160v-119h-635v119c86 4 129 34 129 90c0 26.667 -11.333 79.667 -34 159l-42 140h-447l-40 -135
c-18 -64 -27 -112.667 -27 -146c0 -72 43 -108 129 -108v-119h-418zM449 635h348l-172 522zM420 1864h75.999c21.333 -82 99 -123 233 -123c136.667 0 213.667 41 231 123h76c-27.333 -191.333 -129.666 -287 -306.999 -287s-280.333 95.667 -309 287zM563.999 1938l273 283
c51.333 53.333 96.333 80 135 80c60 0 90 -30 90 -90c0 -38 -31.333 -73.667 -94 -107l-313 -166h-91z" />
    <glyph glyph-name="glyph296" unicode="&#x1eaf;" horiz-adv-x="1028" 
d="M614 86c-97.333 -69.333 -190.002 -104.002 -278.002 -104.002c-76.667 0 -140.667 20 -192 60c-55.333 43.333 -83 102.333 -83 177c0 150 177 266.667 531 350v160c0 98.667 -43.667 148 -131 148c-80.667 0 -121 -24 -121 -72c0 -14 5.5 -32.167 16.5 -54.5
s16.5 -36.166 16.5 -41.499c0 -18.667 -26 -39 -78 -61c-47.333 -20 -83.666 -30 -108.999 -30c-23.333 0 -41.666 17.667 -54.999 53c-9.33301 26.667 -14 54.334 -14 83.001c0 78.667 43.333 137.667 130 177c66 30.667 143.333 46 232 46c140 0 236 -17.667 288 -53
c66 -44 99 -131.333 99 -262v-408c0 -61.333 14.333 -92 43 -92c17.333 0 39.333 7.33301 66 22c0 -62.667 -18.5 -113.167 -55.5 -151.5s-86.833 -57.5 -149.5 -57.5c-71.333 0 -123.333 37 -156 111zM591.998 210.998l0.000976562 248c-177.333 -52 -266 -119 -266 -201
c0 -32 12 -58 36 -78c22 -18.667 49.333 -28 82 -28c45.333 0 94.666 19.667 147.999 59zM192.999 1404h75.999c21.333 -82 99 -123 233 -123c136.667 0 213.667 41 231 123h76c-27.333 -191.333 -129.666 -287 -306.999 -287s-280.333 95.667 -309 287zM337.998 1478
l273 283c51.333 53.333 96.333 80 135 80c60 0 90 -30 90 -90c0 -38 -31.333 -73.667 -94 -107l-313 -166h-91z" />
    <glyph glyph-name="glyph297" unicode="&#x1eb0;" horiz-adv-x="1479" 
d="M47 0v119c65.333 16 116 76.667 152 182l350 1022c5.33301 15.333 8 29 8 41c0 27.333 -15 56 -45 86h367l409 -1171c34.667 -98.667 82.667 -152 144 -160v-119h-635v119c86 4 129 34 129 90c0 26.667 -11.333 79.667 -34 159l-42 140h-447l-40 -135
c-18 -64 -27 -112.667 -27 -146c0 -72 43 -108 129 -108v-119h-418zM449 635h348l-172 522zM420 1864h75.999c21.333 -82 99 -123 233 -123c136.667 0 213.667 41 231 123h76c-27.333 -191.333 -129.666 -287 -306.999 -287s-280.333 95.667 -309 287zM878.999 1938h-91
l-313 166c-62.667 33.333 -94 69 -94 107c0 60 30 90 90 90c38.667 0 83.667 -26.667 135 -80z" />
    <glyph glyph-name="glyph298" unicode="&#x1eb1;" horiz-adv-x="1028" 
d="M614 86c-97.333 -69.333 -190.002 -104.002 -278.002 -104.002c-76.667 0 -140.667 20 -192 60c-55.333 43.333 -83 102.333 -83 177c0 150 177 266.667 531 350v160c0 98.667 -43.667 148 -131 148c-80.667 0 -121 -24 -121 -72c0 -14 5.5 -32.167 16.5 -54.5
s16.5 -36.166 16.5 -41.499c0 -18.667 -26 -39 -78 -61c-47.333 -20 -83.666 -30 -108.999 -30c-23.333 0 -41.666 17.667 -54.999 53c-9.33301 26.667 -14 54.334 -14 83.001c0 78.667 43.333 137.667 130 177c66 30.667 143.333 46 232 46c140 0 236 -17.667 288 -53
c66 -44 99 -131.333 99 -262v-408c0 -61.333 14.333 -92 43 -92c17.333 0 39.333 7.33301 66 22c0 -62.667 -18.5 -113.167 -55.5 -151.5s-86.833 -57.5 -149.5 -57.5c-71.333 0 -123.333 37 -156 111zM591.998 210.998l0.000976562 248c-177.333 -52 -266 -119 -266 -201
c0 -32 12 -58 36 -78c22 -18.667 49.333 -28 82 -28c45.333 0 94.666 19.667 147.999 59zM192.999 1404h75.999c21.333 -82 99 -123 233 -123c136.667 0 213.667 41 231 123h76c-27.333 -191.333 -129.666 -287 -306.999 -287s-280.333 95.667 -309 287zM651.998 1478h-91
l-313 166c-62.667 33.333 -94 69 -94 107c0 60 30 90 90 90c38.667 0 83.667 -26.667 135 -80z" />
    <glyph glyph-name="glyph299" unicode="&#x1eb2;" horiz-adv-x="1479" 
d="M47 0v119c65.333 16 116 76.667 152 182l350 1022c5.33301 15.333 8 29 8 41c0 27.333 -15 56 -45 86h367l409 -1171c34.667 -98.667 82.667 -152 144 -160v-119h-635v119c86 4 129 34 129 90c0 26.667 -11.333 79.667 -34 159l-42 140h-447l-40 -135
c-18 -64 -27 -112.667 -27 -146c0 -72 43 -108 129 -108v-119h-418zM449 635h348l-172 522zM420 1864h75.999c21.333 -82 99 -123 233 -123c136.667 0 213.667 41 231 123h76c-27.333 -191.333 -129.666 -287 -306.999 -287s-280.333 95.667 -309 287zM652.999 1845
l-7.00098 130c53.333 18.667 87 32 101 40c40.667 22 61 48 61 78c0 23.333 -7.16699 43.333 -21.5 60s-49.5 28.334 -105.5 35c-44 5.33301 -66 23.666 -66 55c0 33.333 21 49.666 63 49c120 -2.66699 204.333 -43.334 253 -122c12 -19.333 18.333 -45 19 -77
c0 -21.333 -2.66699 -38.666 -8 -52c-17.333 -42 -55.666 -76 -114.999 -102c-61.333 -27.333 -94.333 -45.333 -99 -54s-7.66699 -22 -9 -40h-66z" />
    <glyph glyph-name="glyph300" unicode="&#x1eb3;" horiz-adv-x="1028" 
d="M614 86c-97.333 -69.333 -190.002 -104.002 -278.002 -104.002c-76.667 0 -140.667 20 -192 60c-55.333 43.333 -83 102.333 -83 177c0 150 177 266.667 531 350v160c0 98.667 -43.667 148 -131 148c-80.667 0 -121 -24 -121 -72c0 -14 5.5 -32.167 16.5 -54.5
s16.5 -36.166 16.5 -41.499c0 -18.667 -26 -39 -78 -61c-47.333 -20 -83.666 -30 -108.999 -30c-23.333 0 -41.666 17.667 -54.999 53c-9.33301 26.667 -14 54.334 -14 83.001c0 78.667 43.333 137.667 130 177c66 30.667 143.333 46 232 46c140 0 236 -17.667 288 -53
c66 -44 99 -131.333 99 -262v-408c0 -61.333 14.333 -92 43 -92c17.333 0 39.333 7.33301 66 22c0 -62.667 -18.5 -113.167 -55.5 -151.5s-86.833 -57.5 -149.5 -57.5c-71.333 0 -123.333 37 -156 111zM591.998 210.998l0.000976562 248c-177.333 -52 -266 -119 -266 -201
c0 -32 12 -58 36 -78c22 -18.667 49.333 -28 82 -28c45.333 0 94.666 19.667 147.999 59zM192.999 1404h75.999c21.333 -82 99 -123 233 -123c136.667 0 213.667 41 231 123h76c-27.333 -191.333 -129.666 -287 -306.999 -287s-280.333 95.667 -309 287zM425.998 1385
l-7.00098 130.001c53.333 18.667 87 32 101 40c40.667 22 61 48 61 78c0 23.333 -7.16699 43.333 -21.5 60s-49.5 28.334 -105.5 35.001c-44 5.33301 -66 23.666 -66 54.999c0 33.333 21 49.666 63 48.999c120 -2.66699 204.333 -43.334 253 -122.001
c12 -19.333 18.333 -45 19 -77c0 -21.333 -2.66699 -38.666 -8 -51.999c-17.333 -42 -55.666 -76 -114.999 -102c-61.333 -27.333 -94.333 -45.333 -99 -54s-7.66699 -22 -9 -40h-66z" />
    <glyph glyph-name="glyph301" unicode="&#x1eb4;" horiz-adv-x="1479" 
d="M47 0v119c65.333 16 116 76.667 152 182l350 1022c5.33301 15.333 8 29 8 41c0 27.333 -15 56 -45 86h367l409 -1171c34.667 -98.667 82.667 -152 144 -160v-119h-635v119c86 4 129 34 129 90c0 26.667 -11.333 79.667 -34 159l-42 140h-447l-40 -135
c-18 -64 -27 -112.667 -27 -146c0 -72 43 -108 129 -108v-119h-418zM449 635h348l-172 522zM420 1864h75.999c21.333 -82 99 -123 233 -123c136.667 0 213.667 41 231 123h76c-27.333 -191.333 -129.666 -287 -306.999 -287s-280.333 95.667 -309 287zM1085 2242
c-20 -164 -88.333 -246 -205 -246c-24.667 0 -61.167 7.16699 -109.5 21.5s-84.833 21.5 -109.5 21.5c-39.333 0 -69.333 -28.667 -90 -86h-66c22.667 164 93 246 211 246c24.667 0 60.167 -7.16699 106.5 -21.5s81.166 -21.5 104.499 -21.5
c40.667 0 71.334 28.667 92.001 86h66z" />
    <glyph glyph-name="glyph302" unicode="&#x1eb5;" horiz-adv-x="1028" 
d="M614 86c-97.333 -69.333 -190.002 -104.002 -278.002 -104.002c-76.667 0 -140.667 20 -192 60c-55.333 43.333 -83 102.333 -83 177c0 150 177 266.667 531 350v160c0 98.667 -43.667 148 -131 148c-80.667 0 -121 -24 -121 -72c0 -14 5.5 -32.167 16.5 -54.5
s16.5 -36.166 16.5 -41.499c0 -18.667 -26 -39 -78 -61c-47.333 -20 -83.666 -30 -108.999 -30c-23.333 0 -41.666 17.667 -54.999 53c-9.33301 26.667 -14 54.334 -14 83.001c0 78.667 43.333 137.667 130 177c66 30.667 143.333 46 232 46c140 0 236 -17.667 288 -53
c66 -44 99 -131.333 99 -262v-408c0 -61.333 14.333 -92 43 -92c17.333 0 39.333 7.33301 66 22c0 -62.667 -18.5 -113.167 -55.5 -151.5s-86.833 -57.5 -149.5 -57.5c-71.333 0 -123.333 37 -156 111zM591.998 210.998l0.000976562 248c-177.333 -52 -266 -119 -266 -201
c0 -32 12 -58 36 -78c22 -18.667 49.333 -28 82 -28c45.333 0 94.666 19.667 147.999 59zM192.999 1404h75.999c21.333 -82 99 -123 233 -123c136.667 0 213.667 41 231 123h76c-27.333 -191.333 -129.666 -287 -306.999 -287s-280.333 95.667 -309 287zM857.998 1782
c-20 -164 -88.333 -246 -205 -246c-24.667 0 -61.167 7.16699 -109.5 21.5s-84.833 21.5 -109.5 21.5c-39.333 0 -69.333 -28.667 -90 -86h-66c22.667 164 93 246 211 246c24.667 0 60.167 -7.16699 106.5 -21.5s81.166 -21.5 104.499 -21.5
c40.667 0 71.334 28.667 92.001 86h66z" />
    <glyph glyph-name="glyph303" unicode="&#x1eb6;" horiz-adv-x="1479" 
d="M47 0v119c65.333 16 116 76.667 152 182l350 1022c5.33301 15.333 8 29 8 41c0 27.333 -15 56 -45 86h367l409 -1171c34.667 -98.667 82.667 -152 144 -160v-119h-635v119c86 4 129 34 129 90c0 26.667 -11.333 79.667 -34 159l-42 140h-447l-40 -135
c-18 -64 -27 -112.667 -27 -146c0 -72 43 -108 129 -108v-119h-418zM449 635h348l-172 522zM420 1864h75.999c21.333 -82 99 -123 233 -123c136.667 0 213.667 41 231 123h76c-27.333 -191.333 -129.666 -287 -306.999 -287s-280.333 95.667 -309 287zM538.999 -305
c0 46.667 15.667 85.667 47 117s70.333 47 117 47c46 0 84.833 -15.833 116.5 -47.5s47.5 -70.5 47.5 -116.5c0 -45.333 -16 -83.833 -48 -115.5s-70.667 -47.5 -116 -47.5c-46 0 -84.833 15.667 -116.5 47s-47.5 70 -47.5 116z" />
    <glyph glyph-name="glyph304" unicode="&#x1eb7;" horiz-adv-x="1028" 
d="M614 86c-97.333 -69.333 -190.002 -104.002 -278.002 -104.002c-76.667 0 -140.667 20 -192 60c-55.333 43.333 -83 102.333 -83 177c0 150 177 266.667 531 350v160c0 98.667 -43.667 148 -131 148c-80.667 0 -121 -24 -121 -72c0 -14 5.5 -32.167 16.5 -54.5
s16.5 -36.166 16.5 -41.499c0 -18.667 -26 -39 -78 -61c-47.333 -20 -83.666 -30 -108.999 -30c-23.333 0 -41.666 17.667 -54.999 53c-9.33301 26.667 -14 54.334 -14 83.001c0 78.667 43.333 137.667 130 177c66 30.667 143.333 46 232 46c140 0 236 -17.667 288 -53
c66 -44 99 -131.333 99 -262v-408c0 -61.333 14.333 -92 43 -92c17.333 0 39.333 7.33301 66 22c0 -62.667 -18.5 -113.167 -55.5 -151.5s-86.833 -57.5 -149.5 -57.5c-71.333 0 -123.333 37 -156 111zM591.998 210.998l0.000976562 248c-177.333 -52 -266 -119 -266 -201
c0 -32 12 -58 36 -78c22 -18.667 49.333 -28 82 -28c45.333 0 94.666 19.667 147.999 59zM192.999 1404h75.999c21.333 -82 99 -123 233 -123c136.667 0 213.667 41 231 123h76c-27.333 -191.333 -129.666 -287 -306.999 -287s-280.333 95.667 -309 287zM343.998 -305.002
c0 46.667 15.667 85.667 47 117s70.333 47 117 47c46 0 84.833 -15.833 116.5 -47.5s47.5 -70.5 47.5 -116.5c0 -45.333 -16 -83.833 -48 -115.5s-70.667 -47.5 -116 -47.5c-46 0 -84.833 15.667 -116.5 47s-47.5 70 -47.5 116z" />
    <glyph glyph-name="glyph305" unicode="&#x1eb8;" horiz-adv-x="1360" 
d="M66 0l0.00195312 119c63.333 6.66699 106 20.667 128 42s33 63.333 33 126v876c0 62.667 -11 104.667 -33 126s-64.667 35.333 -128 42v119h1138v-299h-110c-54.667 124 -163.334 186 -326.001 186c-70.667 0 -113 -2 -127 -6c-38 -12 -57 -44 -57 -96v-401h153
c128.667 0 201 56.667 217 170h119v-482h-118c-14 126 -86.667 189 -218 189h-153v-398c0 -66 14.667 -112 44 -138c27.333 -24 74.666 -36 141.999 -36c189.333 0 334 83.333 434 250h115l-86 -389h-1167zM520.002 -305c0 46.667 15.667 85.667 47 117s70.333 47 117 47
c46 0 84.833 -15.833 116.5 -47.5s47.5 -70.5 47.5 -116.5c0 -45.333 -16 -83.833 -48 -115.5s-70.667 -47.5 -116 -47.5c-46 0 -84.833 15.667 -116.5 47s-47.5 70 -47.5 116z" />
    <glyph glyph-name="glyph306" unicode="&#x1eb9;" horiz-adv-x="1028" 
d="M948 545l-596 -0.000976562v-6c0 -88.667 22 -163.667 66 -225c50 -68.667 117.667 -103 203 -103c65.333 0 155.333 29.333 270 88l70 -76c-70 -77.333 -133 -133.666 -189 -168.999c-75.333 -48 -155.333 -72 -240 -72c-138 0 -248.333 50.667 -331 152
c-76.667 94 -115 211.667 -115 353s41.667 257.333 125 348c85.333 93.333 198 140 338 140c123.333 0 221 -41.667 293 -125c66.667 -78 102 -179.667 106 -305zM353 648.999h325c0 2.66699 0.333008 8 1 16c0.666992 6 1 11 1 15c0 120 -57.333 180 -172 180
c-51.333 0 -91 -23.333 -119 -70c-23.333 -39.333 -35.333 -86.333 -36 -141zM365 -305.001c0 46.667 15.667 85.667 47 117s70.333 47 117 47c46 0 84.833 -15.833 116.5 -47.5s47.5 -70.5 47.5 -116.5c0 -45.333 -16 -83.833 -48 -115.5s-70.667 -47.5 -116 -47.5
c-46 0 -84.833 15.667 -116.5 47s-47.5 70 -47.5 116z" />
    <glyph glyph-name="glyph307" unicode="&#x1eba;" horiz-adv-x="1360" 
d="M66 0l0.00195312 119c63.333 6.66699 106 20.667 128 42s33 63.333 33 126v876c0 62.667 -11 104.667 -33 126s-64.667 35.333 -128 42v119h1138v-299h-110c-54.667 124 -163.334 186 -326.001 186c-70.667 0 -113 -2 -127 -6c-38 -12 -57 -44 -57 -96v-401h153
c128.667 0 201 56.667 217 170h119v-482h-118c-14 126 -86.667 189 -218 189h-153v-398c0 -66 14.667 -112 44 -138c27.333 -24 74.666 -36 141.999 -36c189.333 0 334 83.333 434 250h115l-86 -389h-1167zM563.002 1570l-7.00098 130.001c53.333 18.667 87 32 101 40
c40.667 22 61 48 61 78c0 23.333 -7.16699 43.333 -21.5 60s-49.5 28.334 -105.5 35.001c-44 5.33301 -66 23.666 -66 54.999c0 33.333 21 49.666 63 48.999c120 -2.66699 204.333 -43.334 253 -122.001c12 -19.333 18.333 -45 19 -77
c0 -21.333 -2.66699 -38.666 -8 -51.999c-17.333 -42 -55.666 -76 -114.999 -102c-61.333 -27.333 -94.333 -45.333 -99 -54s-7.66699 -22 -9 -40h-66z" />
    <glyph glyph-name="glyph308" unicode="&#x1ebb;" horiz-adv-x="1028" 
d="M948 545l-596 -0.000976562v-6c0 -88.667 22 -163.667 66 -225c50 -68.667 117.667 -103 203 -103c65.333 0 155.333 29.333 270 88l70 -76c-70 -77.333 -133 -133.666 -189 -168.999c-75.333 -48 -155.333 -72 -240 -72c-138 0 -248.333 50.667 -331 152
c-76.667 94 -115 211.667 -115 353s41.667 257.333 125 348c85.333 93.333 198 140 338 140c123.333 0 221 -41.667 293 -125c66.667 -78 102 -179.667 106 -305zM353 648.999h325c0 2.66699 0.333008 8 1 16c0.666992 6 1 11 1 15c0 120 -57.333 180 -172 180
c-51.333 0 -91 -23.333 -119 -70c-23.333 -39.333 -35.333 -86.333 -36 -141zM435 1081l-7.00098 130.001c53.333 18.667 87 32 101 40c40.667 22 61 48 61 78c0 23.333 -7.16699 43.333 -21.5 60s-49.5 28.334 -105.5 35.001c-44 5.33301 -66 23.666 -66 54.999
c0 33.333 21 49.666 63 48.999c120 -2.66699 204.333 -43.334 253 -122.001c12 -19.333 18.333 -45 19 -77c0 -21.333 -2.66699 -38.666 -8 -51.999c-17.333 -42 -55.666 -76 -114.999 -102c-61.333 -27.333 -94.333 -45.333 -99 -54s-7.66699 -22 -9 -40h-66z" />
    <glyph glyph-name="glyph309" unicode="&#x1ebc;" horiz-adv-x="1360" 
d="M66 0l0.00195312 119c63.333 6.66699 106 20.667 128 42s33 63.333 33 126v876c0 62.667 -11 104.667 -33 126s-64.667 35.333 -128 42v119h1138v-299h-110c-54.667 124 -163.334 186 -326.001 186c-70.667 0 -113 -2 -127 -6c-38 -12 -57 -44 -57 -96v-401h153
c128.667 0 201 56.667 217 170h119v-482h-118c-14 126 -86.667 189 -218 189h-153v-398c0 -66 14.667 -112 44 -138c27.333 -24 74.666 -36 141.999 -36c189.333 0 334 83.333 434 250h115l-86 -389h-1167zM975.002 1911c-20 -164 -88.333 -246 -205 -246
c-24.667 0 -61.167 7.16699 -109.5 21.5s-84.833 21.5 -109.5 21.5c-39.333 0 -69.333 -28.667 -90 -86h-66c22.667 164 93 246 211 246c24.667 0 60.167 -7.16699 106.5 -21.5s81.166 -21.5 104.499 -21.5c40.667 0 71.334 28.667 92.001 86h66z" />
    <glyph glyph-name="glyph310" unicode="&#x1ebd;" horiz-adv-x="1028" 
d="M948 545l-596 -0.000976562v-6c0 -88.667 22 -163.667 66 -225c50 -68.667 117.667 -103 203 -103c65.333 0 155.333 29.333 270 88l70 -76c-70 -77.333 -133 -133.666 -189 -168.999c-75.333 -48 -155.333 -72 -240 -72c-138 0 -248.333 50.667 -331 152
c-76.667 94 -115 211.667 -115 353s41.667 257.333 125 348c85.333 93.333 198 140 338 140c123.333 0 221 -41.667 293 -125c66.667 -78 102 -179.667 106 -305zM353 648.999h325c0 2.66699 0.333008 8 1 16c0.666992 6 1 11 1 15c0 120 -57.333 180 -172 180
c-51.333 0 -91 -23.333 -119 -70c-23.333 -39.333 -35.333 -86.333 -36 -141zM838 1409c-20 -164 -88.333 -246 -205 -246c-24.667 0 -61.167 7.16699 -109.5 21.5s-84.833 21.5 -109.5 21.5c-39.333 0 -69.333 -28.667 -90 -86h-66c22.667 164 93 246 211 246
c24.667 0 60.167 -7.16699 106.5 -21.5s81.166 -21.5 104.499 -21.5c40.667 0 71.334 28.667 92.001 86h66z" />
    <glyph glyph-name="glyph311" unicode="&#x1ebe;" horiz-adv-x="1360" 
d="M66 0l0.00195312 119c63.333 6.66699 106 20.667 128 42s33 63.333 33 126v876c0 62.667 -11 104.667 -33 126s-64.667 35.333 -128 42v119h1138v-299h-110c-54.667 124 -163.334 186 -326.001 186c-70.667 0 -113 -2 -127 -6c-38 -12 -57 -44 -57 -96v-401h153
c128.667 0 201 56.667 217 170h119v-482h-118c-14 126 -86.667 189 -218 189h-153v-398c0 -66 14.667 -112 44 -138c27.333 -24 74.666 -36 141.999 -36c189.333 0 334 83.333 434 250h115l-86 -389h-1167zM382.002 1545l225 349h148l225 -349h-84l-215 181l-215 -181h-84z
M415.002 1935l273 283c51.333 53.333 96.333 80 135 80c60 0 90 -30 90 -90c0 -38 -31.333 -73.667 -94 -107l-313 -166h-91z" />
    <glyph glyph-name="glyph312" unicode="&#x1ebf;" horiz-adv-x="1028" 
d="M948 545l-596 -0.000976562v-6c0 -88.667 22 -163.667 66 -225c50 -68.667 117.667 -103 203 -103c65.333 0 155.333 29.333 270 88l70 -76c-70 -77.333 -133 -133.666 -189 -168.999c-75.333 -48 -155.333 -72 -240 -72c-138 0 -248.333 50.667 -331 152
c-76.667 94 -115 211.667 -115 353s41.667 257.333 125 348c85.333 93.333 198 140 338 140c123.333 0 221 -41.667 293 -125c66.667 -78 102 -179.667 106 -305zM353 648.999h325c0 2.66699 0.333008 8 1 16c0.666992 6 1 11 1 15c0 120 -57.333 180 -172 180
c-51.333 0 -91 -23.333 -119 -70c-23.333 -39.333 -35.333 -86.333 -36 -141zM229 1087l225 349h148l225 -349h-84l-215 181l-215 -181h-84zM262 1478l273 283c51.333 53.333 96.333 80 135 80c60 0 90 -30 90 -90c0 -38 -31.333 -73.667 -94 -107l-313 -166h-91z" />
    <glyph glyph-name="glyph313" unicode="&#x1ec0;" horiz-adv-x="1360" 
d="M66 0l0.00195312 119c63.333 6.66699 106 20.667 128 42s33 63.333 33 126v876c0 62.667 -11 104.667 -33 126s-64.667 35.333 -128 42v119h1138v-299h-110c-54.667 124 -163.334 186 -326.001 186c-70.667 0 -113 -2 -127 -6c-38 -12 -57 -44 -57 -96v-401h153
c128.667 0 201 56.667 217 170h119v-482h-118c-14 126 -86.667 189 -218 189h-153v-398c0 -66 14.667 -112 44 -138c27.333 -24 74.666 -36 141.999 -36c189.333 0 334 83.333 434 250h115l-86 -389h-1167zM382.002 1545l225 349h148l225 -349h-84l-215 181l-215 -181h-84z
M957.002 1935h-91l-313 166c-62.667 33.333 -94 69 -94 107c0 60 30 90 90 90c38.667 0 83.667 -26.667 135 -80z" />
    <glyph glyph-name="glyph314" unicode="&#x1ec1;" horiz-adv-x="1028" 
d="M948 545l-596 -0.000976562v-6c0 -88.667 22 -163.667 66 -225c50 -68.667 117.667 -103 203 -103c65.333 0 155.333 29.333 270 88l70 -76c-70 -77.333 -133 -133.666 -189 -168.999c-75.333 -48 -155.333 -72 -240 -72c-138 0 -248.333 50.667 -331 152
c-76.667 94 -115 211.667 -115 353s41.667 257.333 125 348c85.333 93.333 198 140 338 140c123.333 0 221 -41.667 293 -125c66.667 -78 102 -179.667 106 -305zM353 648.999h325c0 2.66699 0.333008 8 1 16c0.666992 6 1 11 1 15c0 120 -57.333 180 -172 180
c-51.333 0 -91 -23.333 -119 -70c-23.333 -39.333 -35.333 -86.333 -36 -141zM229 1087l225 349h148l225 -349h-84l-215 181l-215 -181h-84zM804 1478h-91l-313 166c-62.667 33.333 -94 69 -94 107c0 60 30 90 90 90c38.667 0 83.667 -26.667 135 -80z" />
    <glyph glyph-name="glyph315" unicode="&#x1ec2;" horiz-adv-x="1360" 
d="M66 0l0.00195312 119c63.333 6.66699 106 20.667 128 42s33 63.333 33 126v876c0 62.667 -11 104.667 -33 126s-64.667 35.333 -128 42v119h1138v-299h-110c-54.667 124 -163.334 186 -326.001 186c-70.667 0 -113 -2 -127 -6c-38 -12 -57 -44 -57 -96v-401h153
c128.667 0 201 56.667 217 170h119v-482h-118c-14 126 -86.667 189 -218 189h-153v-398c0 -66 14.667 -112 44 -138c27.333 -24 74.666 -36 141.999 -36c189.333 0 334 83.333 434 250h115l-86 -389h-1167zM382.002 1545l225 349h148l225 -349h-84l-215 181l-215 -181h-84z
M835.002 1842l-7.00098 130c53.333 18.667 87 32 101 40c40.667 22 61 48 61 78c0 23.333 -7.16699 43.333 -21.5 60s-49.5 28.334 -105.5 35c-44 5.33301 -66 23.666 -66 55c0 33.333 21 49.666 63 49c120 -2.66699 204.333 -43.334 253 -122c12 -19.333 18.333 -45 19 -77
c0 -21.333 -2.66699 -38.666 -8 -52c-17.333 -42 -55.666 -76 -114.999 -102c-61.333 -27.333 -94.333 -45.333 -99 -54s-7.66699 -22 -9 -40h-66z" />
    <glyph glyph-name="glyph316" unicode="&#x1ec3;" horiz-adv-x="1028" 
d="M948 545l-596 -0.000976562v-6c0 -88.667 22 -163.667 66 -225c50 -68.667 117.667 -103 203 -103c65.333 0 155.333 29.333 270 88l70 -76c-70 -77.333 -133 -133.666 -189 -168.999c-75.333 -48 -155.333 -72 -240 -72c-138 0 -248.333 50.667 -331 152
c-76.667 94 -115 211.667 -115 353s41.667 257.333 125 348c85.333 93.333 198 140 338 140c123.333 0 221 -41.667 293 -125c66.667 -78 102 -179.667 106 -305zM353 648.999h325c0 2.66699 0.333008 8 1 16c0.666992 6 1 11 1 15c0 120 -57.333 180 -172 180
c-51.333 0 -91 -23.333 -119 -70c-23.333 -39.333 -35.333 -86.333 -36 -141zM229 1087l225 349h148l225 -349h-84l-215 181l-215 -181h-84zM681 1385l-7.00098 130.001c53.333 18.667 87 32 101 40c40.667 22 61 48 61 78c0 23.333 -7.16699 43.333 -21.5 60
s-49.5 28.334 -105.5 35.001c-44 5.33301 -66 23.666 -66 54.999c0 33.333 21 49.666 63 48.999c120 -2.66699 204.333 -43.334 253 -122.001c12 -19.333 18.333 -45 19 -77c0 -21.333 -2.66699 -38.666 -8 -51.999c-17.333 -42 -55.666 -76 -114.999 -102
c-61.333 -27.333 -94.333 -45.333 -99 -54s-7.66699 -22 -9 -40h-66z" />
    <glyph glyph-name="glyph317" unicode="&#x1ec4;" horiz-adv-x="1360" 
d="M66 0l0.00195312 119c63.333 6.66699 106 20.667 128 42s33 63.333 33 126v876c0 62.667 -11 104.667 -33 126s-64.667 35.333 -128 42v119h1138v-299h-110c-54.667 124 -163.334 186 -326.001 186c-70.667 0 -113 -2 -127 -6c-38 -12 -57 -44 -57 -96v-401h153
c128.667 0 201 56.667 217 170h119v-482h-118c-14 126 -86.667 189 -218 189h-153v-398c0 -66 14.667 -112 44 -138c27.333 -24 74.666 -36 141.999 -36c189.333 0 334 83.333 434 250h115l-86 -389h-1167zM382.002 1545l225 349h148l225 -349h-84l-215 181l-215 -181h-84z
M1037 2239c-20 -164 -88.333 -246 -205 -246c-24.667 0 -61.167 7.16699 -109.5 21.5s-84.833 21.5 -109.5 21.5c-39.333 0 -69.333 -28.667 -90 -86h-66c22.667 164 93 246 211 246c24.667 0 60.167 -7.16699 106.5 -21.5s81.166 -21.5 104.499 -21.5
c40.667 0 71.334 28.667 92.001 86h66z" />
    <glyph glyph-name="glyph318" unicode="&#x1ec5;" horiz-adv-x="1028" 
d="M948 545l-596 -0.000976562v-6c0 -88.667 22 -163.667 66 -225c50 -68.667 117.667 -103 203 -103c65.333 0 155.333 29.333 270 88l70 -76c-70 -77.333 -133 -133.666 -189 -168.999c-75.333 -48 -155.333 -72 -240 -72c-138 0 -248.333 50.667 -331 152
c-76.667 94 -115 211.667 -115 353s41.667 257.333 125 348c85.333 93.333 198 140 338 140c123.333 0 221 -41.667 293 -125c66.667 -78 102 -179.667 106 -305zM353 648.999h325c0 2.66699 0.333008 8 1 16c0.666992 6 1 11 1 15c0 120 -57.333 180 -172 180
c-51.333 0 -91 -23.333 -119 -70c-23.333 -39.333 -35.333 -86.333 -36 -141zM229 1087l225 349h148l225 -349h-84l-215 181l-215 -181h-84zM884 1782c-20 -164 -88.333 -246 -205 -246c-24.667 0 -61.167 7.16699 -109.5 21.5s-84.833 21.5 -109.5 21.5
c-39.333 0 -69.333 -28.667 -90 -86h-66c22.667 164 93 246 211 246c24.667 0 60.167 -7.16699 106.5 -21.5s81.166 -21.5 104.499 -21.5c40.667 0 71.334 28.667 92.001 86h66z" />
    <glyph glyph-name="glyph319" unicode="&#x1ec6;" horiz-adv-x="1360" 
d="M66 0l0.00195312 119c63.333 6.66699 106 20.667 128 42s33 63.333 33 126v876c0 62.667 -11 104.667 -33 126s-64.667 35.333 -128 42v119h1138v-299h-110c-54.667 124 -163.334 186 -326.001 186c-70.667 0 -113 -2 -127 -6c-38 -12 -57 -44 -57 -96v-401h153
c128.667 0 201 56.667 217 170h119v-482h-118c-14 126 -86.667 189 -218 189h-153v-398c0 -66 14.667 -112 44 -138c27.333 -24 74.666 -36 141.999 -36c189.333 0 334 83.333 434 250h115l-86 -389h-1167zM382.002 1545l225 349h148l225 -349h-84l-215 181l-215 -181h-84z
M520.002 -305c0 46.667 15.667 85.667 47 117s70.333 47 117 47c46 0 84.833 -15.833 116.5 -47.5s47.5 -70.5 47.5 -116.5c0 -45.333 -16 -83.833 -48 -115.5s-70.667 -47.5 -116 -47.5c-46 0 -84.833 15.667 -116.5 47s-47.5 70 -47.5 116z" />
    <glyph glyph-name="glyph320" unicode="&#x1ec7;" horiz-adv-x="1028" 
d="M948 545l-596 -0.000976562v-6c0 -88.667 22 -163.667 66 -225c50 -68.667 117.667 -103 203 -103c65.333 0 155.333 29.333 270 88l70 -76c-70 -77.333 -133 -133.666 -189 -168.999c-75.333 -48 -155.333 -72 -240 -72c-138 0 -248.333 50.667 -331 152
c-76.667 94 -115 211.667 -115 353s41.667 257.333 125 348c85.333 93.333 198 140 338 140c123.333 0 221 -41.667 293 -125c66.667 -78 102 -179.667 106 -305zM353 648.999h325c0 2.66699 0.333008 8 1 16c0.666992 6 1 11 1 15c0 120 -57.333 180 -172 180
c-51.333 0 -91 -23.333 -119 -70c-23.333 -39.333 -35.333 -86.333 -36 -141zM229 1087l225 349h148l225 -349h-84l-215 181l-215 -181h-84zM365 -305.001c0 46.667 15.667 85.667 47 117s70.333 47 117 47c46 0 84.833 -15.833 116.5 -47.5s47.5 -70.5 47.5 -116.5
c0 -45.333 -16 -83.833 -48 -115.5s-70.667 -47.5 -116 -47.5c-46 0 -84.833 15.667 -116.5 47s-47.5 70 -47.5 116z" />
    <glyph glyph-name="glyph321" unicode="&#x1ec8;" horiz-adv-x="801" 
d="M63 0v119c64 6.66699 106.333 20 127 40c23.333 22.667 35 65.334 35 128.001v876c0 62.667 -11.667 105.334 -35 128.001c-20.667 20 -63 33.333 -127 40v119h674v-119c-64 -6.66699 -106.333 -20 -127 -40c-23.333 -22.667 -35 -65.334 -35 -128.001v-876
c0 -62.667 11.667 -105.334 35 -128.001c20.667 -20 63 -33.333 127 -40v-119h-674zM301 1570l-7.00098 130.001c53.333 18.667 87 32 101 40c40.667 22 61 48 61 78c0 23.333 -7.16699 43.333 -21.5 60s-49.5 28.334 -105.5 35.001c-44 5.33301 -66 23.666 -66 54.999
c0 33.333 21 49.666 63 48.999c120 -2.66699 204.333 -43.334 253 -122.001c12 -19.333 18.333 -45 19 -77c0 -21.333 -2.66699 -38.666 -8 -51.999c-17.333 -42 -55.666 -76 -114.999 -102c-61.333 -27.333 -94.333 -45.333 -99 -54s-7.66699 -22 -9 -40h-66z" />
    <glyph glyph-name="glyph322" unicode="&#x1ec9;" horiz-adv-x="637" 
d="M586 102l0.000976562 -102h-518v102c43.333 4 74.166 14.5 92.499 31.5s27.5 46.833 27.5 89.5v516l-116 62v65l327 111h66v-754c0 -42.667 9.33301 -72.5 28 -89.5s49.667 -27.5 93 -31.5zM214.001 1081l-7.00098 130.001c53.333 18.667 87 32 101 40
c40.667 22 61 48 61 78c0 23.333 -7.16699 43.333 -21.5 60s-49.5 28.334 -105.5 35.001c-44 5.33301 -66 23.666 -66 54.999c0 33.333 21 49.666 63 48.999c120 -2.66699 204.333 -43.334 253 -122.001c12 -19.333 18.333 -45 19 -77
c0 -21.333 -2.66699 -38.666 -8 -51.999c-17.333 -42 -55.666 -76 -114.999 -102c-61.333 -27.333 -94.333 -45.333 -99 -54s-7.66699 -22 -9 -40h-66z" />
    <glyph glyph-name="glyph323" unicode="&#x1eca;" horiz-adv-x="801" 
d="M63 0v119c64 6.66699 106.333 20 127 40c23.333 22.667 35 65.334 35 128.001v876c0 62.667 -11.667 105.334 -35 128.001c-20.667 20 -63 33.333 -127 40v119h674v-119c-64 -6.66699 -106.333 -20 -127 -40c-23.333 -22.667 -35 -65.334 -35 -128.001v-876
c0 -62.667 11.667 -105.334 35 -128.001c20.667 -20 63 -33.333 127 -40v-119h-674zM248 -305c0 46.667 15.667 85.667 47 117s70.333 47 117 47c46 0 84.833 -15.833 116.5 -47.5s47.5 -70.5 47.5 -116.5c0 -45.333 -16 -83.833 -48 -115.5s-70.667 -47.5 -116 -47.5
c-46 0 -84.833 15.667 -116.5 47s-47.5 70 -47.5 116z" />
    <glyph glyph-name="glyph324" unicode="&#x1ecb;" horiz-adv-x="637" 
d="M172 1327c0 42 15.167 77.501 45.5 106.501s66.5 43.5 108.5 43.5c42.667 0 78.5 -14.333 107.5 -43s43.5 -64.334 43.5 -107.001s-14.5 -79.334 -43.5 -110.001s-64.833 -46 -107.5 -46s-79 15.333 -109 46s-45 67.334 -45 110.001zM586 102.001l0.000976562 -102h-518
v102c43.333 4 74.166 14.5 92.499 31.5s27.5 46.833 27.5 89.5v516l-116 62v65l327 111h66v-754c0 -42.667 9.33301 -72.5 28 -89.5s49.667 -27.5 93 -31.5zM167.001 -304.999c0 46.667 15.667 85.667 47 117s70.333 47 117 47c46 0 84.833 -15.833 116.5 -47.5
s47.5 -70.5 47.5 -116.5c0 -45.333 -16 -83.833 -48 -115.5s-70.667 -47.5 -116 -47.5c-46 0 -84.833 15.667 -116.5 47s-47.5 70 -47.5 116z" />
    <glyph glyph-name="glyph325" unicode="&#x1ecc;" horiz-adv-x="1597" 
d="M451 764c0 -168 19.666 -307.001 58.999 -417.001c58.667 -164.667 156.334 -247 293.001 -247c229.333 0 344 196 344 588c0 168.667 -19.333 307.334 -58 416.001c-58 164 -155.333 246 -292 246c-230.667 0 -346 -195.333 -346 -586zM783.999 -29.001
c-210 0 -382.667 72 -518 216c-132 140.667 -198 316.667 -198 528c0 217.333 69.667 398.333 209 543c141.333 147.333 320 221 536 221c208.667 0 380.334 -70.333 515.001 -211s202 -315.667 202 -525c0 -220 -69 -403 -207 -549
c-140.667 -148.667 -320.334 -223 -539.001 -223zM618.999 -305.001c0 46.667 15.667 85.667 47 117s70.333 47 117 47c46 0 84.833 -15.833 116.5 -47.5s47.5 -70.5 47.5 -116.5c0 -45.333 -16 -83.833 -48 -115.5s-70.667 -47.5 -116 -47.5
c-46 0 -84.833 15.667 -116.5 47s-47.5 70 -47.5 116z" />
    <glyph glyph-name="glyph326" unicode="&#x1ecd;" horiz-adv-x="1098" 
d="M356 532c0 -292 64.333 -438.001 193 -438.001c126.667 0 190 114 190 342c0 104.667 -11.333 193.334 -34 266.001c-34 109.333 -90.667 164 -170 164c-119.333 0 -179 -111.333 -179 -334zM541 -20.001c-149.333 0 -268.668 49.332 -358.001 147.999
c-85.333 94.667 -128 217.334 -128 368.001c0 140 48 255.667 144 347c94 89.333 211.333 134 352 134c144.667 0 262.334 -47.5 353.001 -142.5s136 -214.833 136 -359.5c0 -146 -46.667 -265 -140 -357s-213 -138 -359 -138zM379.998 -305.002
c0 46.667 15.667 85.667 47 117s70.333 47 117 47c46 0 84.833 -15.833 116.5 -47.5s47.5 -70.5 47.5 -116.5c0 -45.333 -16 -83.833 -48 -115.5s-70.667 -47.5 -116 -47.5c-46 0 -84.833 15.667 -116.5 47s-47.5 70 -47.5 116z" />
    <glyph glyph-name="glyph327" unicode="&#x1ece;" horiz-adv-x="1597" 
d="M451 764c0 -168 19.666 -307.001 58.999 -417.001c58.667 -164.667 156.334 -247 293.001 -247c229.333 0 344 196 344 588c0 168.667 -19.333 307.334 -58 416.001c-58 164 -155.333 246 -292 246c-230.667 0 -346 -195.333 -346 -586zM783.999 -29.001
c-210 0 -382.667 72 -518 216c-132 140.667 -198 316.667 -198 528c0 217.333 69.667 398.333 209 543c141.333 147.333 320 221 536 221c208.667 0 380.334 -70.333 515.001 -211s202 -315.667 202 -525c0 -220 -69 -403 -207 -549
c-140.667 -148.667 -320.334 -223 -539.001 -223zM721.999 1570l-7.00098 130.001c53.333 18.667 87 32 101 40c40.667 22 61 48 61 78c0 23.333 -7.16699 43.333 -21.5 60s-49.5 28.334 -105.5 35.001c-44 5.33301 -66 23.666 -66 54.999c0 33.333 21 49.666 63 48.999
c120 -2.66699 204.333 -43.334 253 -122.001c12 -19.333 18.333 -45 19 -77c0 -21.333 -2.66699 -38.666 -8 -51.999c-17.333 -42 -55.666 -76 -114.999 -102c-61.333 -27.333 -94.333 -45.333 -99 -54s-7.66699 -22 -9 -40h-66z" />
    <glyph glyph-name="glyph328" unicode="&#x1ecf;" horiz-adv-x="1098" 
d="M356 532c0 -292 64.333 -438.001 193 -438.001c126.667 0 190 114 190 342c0 104.667 -11.333 193.334 -34 266.001c-34 109.333 -90.667 164 -170 164c-119.333 0 -179 -111.333 -179 -334zM541 -20.001c-149.333 0 -268.668 49.332 -358.001 147.999
c-85.333 94.667 -128 217.334 -128 368.001c0 140 48 255.667 144 347c94 89.333 211.333 134 352 134c144.667 0 262.334 -47.5 353.001 -142.5s136 -214.833 136 -359.5c0 -146 -46.667 -265 -140 -357s-213 -138 -359 -138zM442.998 1081l-7.00098 130.001
c53.333 18.667 87 32 101 40c40.667 22 61 48 61 78c0 23.333 -7.16699 43.333 -21.5 60s-49.5 28.334 -105.5 35.001c-44 5.33301 -66 23.666 -66 54.999c0 33.333 21 49.666 63 48.999c120 -2.66699 204.333 -43.334 253 -122.001c12 -19.333 18.333 -45 19 -77
c0 -21.333 -2.66699 -38.666 -8 -51.999c-17.333 -42 -55.666 -76 -114.999 -102c-61.333 -27.333 -94.333 -45.333 -99 -54s-7.66699 -22 -9 -40h-66z" />
    <glyph glyph-name="glyph329" unicode="&#x1ed0;" horiz-adv-x="1597" 
d="M451 764c0 -168 19.666 -307.001 58.999 -417.001c58.667 -164.667 156.334 -247 293.001 -247c229.333 0 344 196 344 588c0 168.667 -19.333 307.334 -58 416.001c-58 164 -155.333 246 -292 246c-230.667 0 -346 -195.333 -346 -586zM783.999 -29.001
c-210 0 -382.667 72 -518 216c-132 140.667 -198 316.667 -198 528c0 217.333 69.667 398.333 209 543c141.333 147.333 320 221 536 221c208.667 0 380.334 -70.333 515.001 -211s202 -315.667 202 -525c0 -220 -69 -403 -207 -549
c-140.667 -148.667 -320.334 -223 -539.001 -223zM500.999 1545l225 349h148l225 -349h-84l-215 181l-215 -181h-84zM533.999 1935l273 283c51.333 53.333 96.333 80 135 80c60 0 90 -30 90 -90c0 -38 -31.333 -73.667 -94 -107l-313 -166h-91z" />
    <glyph glyph-name="glyph330" unicode="&#x1ed1;" horiz-adv-x="1098" 
d="M356 532c0 -292 64.333 -438.001 193 -438.001c126.667 0 190 114 190 342c0 104.667 -11.333 193.334 -34 266.001c-34 109.333 -90.667 164 -170 164c-119.333 0 -179 -111.333 -179 -334zM541 -20.001c-149.333 0 -268.668 49.332 -358.001 147.999
c-85.333 94.667 -128 217.334 -128 368.001c0 140 48 255.667 144 347c94 89.333 211.333 134 352 134c144.667 0 262.334 -47.5 353.001 -142.5s136 -214.833 136 -359.5c0 -146 -46.667 -265 -140 -357s-213 -138 -359 -138zM249.998 1087l225 349h148l225 -349h-84
l-215 181l-215 -181h-84zM282.998 1478l273 283c51.333 53.333 96.333 80 135 80c60 0 90 -30 90 -90c0 -38 -31.333 -73.667 -94 -107l-313 -166h-91z" />
    <glyph glyph-name="glyph331" unicode="&#x1ed2;" horiz-adv-x="1597" 
d="M451 764c0 -168 19.666 -307.001 58.999 -417.001c58.667 -164.667 156.334 -247 293.001 -247c229.333 0 344 196 344 588c0 168.667 -19.333 307.334 -58 416.001c-58 164 -155.333 246 -292 246c-230.667 0 -346 -195.333 -346 -586zM783.999 -29.001
c-210 0 -382.667 72 -518 216c-132 140.667 -198 316.667 -198 528c0 217.333 69.667 398.333 209 543c141.333 147.333 320 221 536 221c208.667 0 380.334 -70.333 515.001 -211s202 -315.667 202 -525c0 -220 -69 -403 -207 -549
c-140.667 -148.667 -320.334 -223 -539.001 -223zM500.999 1545l225 349h148l225 -349h-84l-215 181l-215 -181h-84zM1076 1935h-91l-313 166c-62.667 33.333 -94 69 -94 107c0 60 30 90 90 90c38.667 0 83.667 -26.667 135 -80z" />
    <glyph glyph-name="glyph332" unicode="&#x1ed3;" horiz-adv-x="1098" 
d="M356 532c0 -292 64.333 -438.001 193 -438.001c126.667 0 190 114 190 342c0 104.667 -11.333 193.334 -34 266.001c-34 109.333 -90.667 164 -170 164c-119.333 0 -179 -111.333 -179 -334zM541 -20.001c-149.333 0 -268.668 49.332 -358.001 147.999
c-85.333 94.667 -128 217.334 -128 368.001c0 140 48 255.667 144 347c94 89.333 211.333 134 352 134c144.667 0 262.334 -47.5 353.001 -142.5s136 -214.833 136 -359.5c0 -146 -46.667 -265 -140 -357s-213 -138 -359 -138zM249.998 1087l225 349h148l225 -349h-84
l-215 181l-215 -181h-84zM824.998 1478h-91l-313 166c-62.667 33.333 -94 69 -94 107c0 60 30 90 90 90c38.667 0 83.667 -26.667 135 -80z" />
    <glyph glyph-name="glyph333" unicode="&#x1ed4;" horiz-adv-x="1597" 
d="M451 764c0 -168 19.666 -307.001 58.999 -417.001c58.667 -164.667 156.334 -247 293.001 -247c229.333 0 344 196 344 588c0 168.667 -19.333 307.334 -58 416.001c-58 164 -155.333 246 -292 246c-230.667 0 -346 -195.333 -346 -586zM783.999 -29.001
c-210 0 -382.667 72 -518 216c-132 140.667 -198 316.667 -198 528c0 217.333 69.667 398.333 209 543c141.333 147.333 320 221 536 221c208.667 0 380.334 -70.333 515.001 -211s202 -315.667 202 -525c0 -220 -69 -403 -207 -549
c-140.667 -148.667 -320.334 -223 -539.001 -223zM500.999 1545l225 349h148l225 -349h-84l-215 181l-215 -181h-84zM953.999 1842l-7.00098 129.999c53.333 18.667 87 32 101 40c40.667 22 61 48 61 78c0 23.333 -7.16699 43.333 -21.5 60s-49.5 28.334 -105.5 35
c-44 5.33301 -66 23.666 -66 55c0 33.333 21 49.666 63 49c120 -2.66699 204.333 -43.334 253 -122c12 -19.333 18.333 -45 19 -77c0 -21.333 -2.66699 -38.666 -8 -51.999c-17.333 -42 -55.666 -76 -114.999 -102c-61.333 -27.333 -94.333 -45.333 -99 -54
s-7.66699 -22 -9 -40h-66z" />
    <glyph glyph-name="glyph334" unicode="&#x1ed5;" horiz-adv-x="1098" 
d="M356 532c0 -292 64.333 -438.001 193 -438.001c126.667 0 190 114 190 342c0 104.667 -11.333 193.334 -34 266.001c-34 109.333 -90.667 164 -170 164c-119.333 0 -179 -111.333 -179 -334zM541 -20.001c-149.333 0 -268.668 49.332 -358.001 147.999
c-85.333 94.667 -128 217.334 -128 368.001c0 140 48 255.667 144 347c94 89.333 211.333 134 352 134c144.667 0 262.334 -47.5 353.001 -142.5s136 -214.833 136 -359.5c0 -146 -46.667 -265 -140 -357s-213 -138 -359 -138zM249.998 1087l225 349h148l225 -349h-84
l-215 181l-215 -181h-84zM701.998 1385l-7.00098 130.001c53.333 18.667 87 32 101 40c40.667 22 61 48 61 78c0 23.333 -7.16699 43.333 -21.5 60s-49.5 28.334 -105.5 35.001c-44 5.33301 -66 23.666 -66 54.999c0 33.333 21 49.666 63 48.999
c120 -2.66699 204.333 -43.334 253 -122.001c12 -19.333 18.333 -45 19 -77c0 -21.333 -2.66699 -38.666 -8 -51.999c-17.333 -42 -55.666 -76 -114.999 -102c-61.333 -27.333 -94.333 -45.333 -99 -54s-7.66699 -22 -9 -40h-66z" />
    <glyph glyph-name="glyph335" unicode="&#x1ed6;" horiz-adv-x="1597" 
d="M451 764c0 -168 19.666 -307.001 58.999 -417.001c58.667 -164.667 156.334 -247 293.001 -247c229.333 0 344 196 344 588c0 168.667 -19.333 307.334 -58 416.001c-58 164 -155.333 246 -292 246c-230.667 0 -346 -195.333 -346 -586zM783.999 -29.001
c-210 0 -382.667 72 -518 216c-132 140.667 -198 316.667 -198 528c0 217.333 69.667 398.333 209 543c141.333 147.333 320 221 536 221c208.667 0 380.334 -70.333 515.001 -211s202 -315.667 202 -525c0 -220 -69 -403 -207 -549
c-140.667 -148.667 -320.334 -223 -539.001 -223zM500.999 1545l225 349h148l225 -349h-84l-215 181l-215 -181h-84zM1156 2239c-20 -164 -88.333 -246 -205 -246c-24.667 0 -61.167 7.16699 -109.5 21.5s-84.833 21.5 -109.5 21.5c-39.333 0 -69.333 -28.667 -90 -86h-66
c22.667 164 93 246 211 246c24.667 0 60.167 -7.16699 106.5 -21.5s81.166 -21.5 104.499 -21.5c40.667 0 71.334 28.667 92.001 86h66z" />
    <glyph glyph-name="glyph336" unicode="&#x1ed7;" horiz-adv-x="1098" 
d="M356 532c0 -292 64.333 -438.001 193 -438.001c126.667 0 190 114 190 342c0 104.667 -11.333 193.334 -34 266.001c-34 109.333 -90.667 164 -170 164c-119.333 0 -179 -111.333 -179 -334zM541 -20.001c-149.333 0 -268.668 49.332 -358.001 147.999
c-85.333 94.667 -128 217.334 -128 368.001c0 140 48 255.667 144 347c94 89.333 211.333 134 352 134c144.667 0 262.334 -47.5 353.001 -142.5s136 -214.833 136 -359.5c0 -146 -46.667 -265 -140 -357s-213 -138 -359 -138zM249.998 1087l225 349h148l225 -349h-84
l-215 181l-215 -181h-84zM904.998 1782c-20 -164 -88.333 -246 -205 -246c-24.667 0 -61.167 7.16699 -109.5 21.5s-84.833 21.5 -109.5 21.5c-39.333 0 -69.333 -28.667 -90 -86h-66c22.667 164 93 246 211 246c24.667 0 60.167 -7.16699 106.5 -21.5
s81.166 -21.5 104.499 -21.5c40.667 0 71.334 28.667 92.001 86h66z" />
    <glyph glyph-name="glyph337" unicode="&#x1ed8;" horiz-adv-x="1597" 
d="M451 764c0 -168 19.666 -307.001 58.999 -417.001c58.667 -164.667 156.334 -247 293.001 -247c229.333 0 344 196 344 588c0 168.667 -19.333 307.334 -58 416.001c-58 164 -155.333 246 -292 246c-230.667 0 -346 -195.333 -346 -586zM783.999 -29.001
c-210 0 -382.667 72 -518 216c-132 140.667 -198 316.667 -198 528c0 217.333 69.667 398.333 209 543c141.333 147.333 320 221 536 221c208.667 0 380.334 -70.333 515.001 -211s202 -315.667 202 -525c0 -220 -69 -403 -207 -549
c-140.667 -148.667 -320.334 -223 -539.001 -223zM500.999 1545l225 349h148l225 -349h-84l-215 181l-215 -181h-84zM618.999 -305.001c0 46.667 15.667 85.667 47 117s70.333 47 117 47c46 0 84.833 -15.833 116.5 -47.5s47.5 -70.5 47.5 -116.5
c0 -45.333 -16 -83.833 -48 -115.5s-70.667 -47.5 -116 -47.5c-46 0 -84.833 15.667 -116.5 47s-47.5 70 -47.5 116z" />
    <glyph glyph-name="glyph338" unicode="&#x1ed9;" horiz-adv-x="1098" 
d="M356 532c0 -292 64.333 -438.001 193 -438.001c126.667 0 190 114 190 342c0 104.667 -11.333 193.334 -34 266.001c-34 109.333 -90.667 164 -170 164c-119.333 0 -179 -111.333 -179 -334zM541 -20.001c-149.333 0 -268.668 49.332 -358.001 147.999
c-85.333 94.667 -128 217.334 -128 368.001c0 140 48 255.667 144 347c94 89.333 211.333 134 352 134c144.667 0 262.334 -47.5 353.001 -142.5s136 -214.833 136 -359.5c0 -146 -46.667 -265 -140 -357s-213 -138 -359 -138zM249.998 1087l225 349h148l225 -349h-84
l-215 181l-215 -181h-84zM379.998 -305.002c0 46.667 15.667 85.667 47 117s70.333 47 117 47c46 0 84.833 -15.833 116.5 -47.5s47.5 -70.5 47.5 -116.5c0 -45.333 -16 -83.833 -48 -115.5s-70.667 -47.5 -116 -47.5c-46 0 -84.833 15.667 -116.5 47s-47.5 70 -47.5 116z
" />
    <glyph glyph-name="glyph339" unicode="&#x1eda;" horiz-adv-x="1597" 
d="M451 764c0 -168 19.666 -307.001 58.999 -417.001c58.667 -164.667 156.334 -247 293.001 -247c229.333 0 344 196 344 588c0 168.667 -19.333 307.334 -58 416.001c-58 164 -155.333 246 -292 246c-230.667 0 -346 -195.333 -346 -586zM1442 1110
c27.333 32 41 63.666 41 94.999s-32.667 69.833 -98 115.5s-98 90.834 -98 135.501c0 41.333 14.333 75 43 101s63.334 39 104.001 39c66.667 0 120 -28 160 -84c35.333 -50.667 53 -110.667 53 -180c0 -120.667 -55.667 -222.334 -167 -305.001
c33.333 -89.333 50 -184 50 -284c0 -220 -69 -403 -207 -549c-140.667 -148.667 -320.334 -223 -539.001 -223c-210 0 -382.667 72 -518 216c-132 140.667 -198 316.667 -198 528c0 217.333 69.667 398.333 209 543c141.333 147.333 320 221 536 221
c139.333 0 265 -33.667 377 -101c108 -65.333 192 -154.666 252 -267.999zM603.999 1589l273 283c51.333 53.333 96.333 80 135 80c60 0 90 -30 90 -90c0 -38 -31.333 -73.667 -94 -107l-313 -166h-91z" />
    <glyph glyph-name="glyph340" unicode="&#x1edb;" horiz-adv-x="1098" 
d="M356 532c0 -292 64.333 -438.001 193 -438.001c126.667 0 190 114 190 342c0 104.667 -11.333 193.334 -34 266.001c-34 109.333 -90.667 164 -170 164c-119.333 0 -179 -111.333 -179 -334zM988 713.999c13.333 22.667 20.002 44.9971 20.002 66.9971
c0 30.667 -32.667 68.834 -98 114.501s-98 91.167 -98 136.5c0 40.667 14.167 74.167 42.5 100.5s63.166 39.5 104.499 39.5c66.667 0 120 -28.333 160 -85c35.333 -50 53 -109.667 53 -179c0 -114 -49.667 -211 -149 -291c11.333 -45.333 17 -92.666 17 -141.999
c0 -146 -46.667 -265 -140 -357s-213 -138 -359 -138c-149.333 0 -268.666 49.333 -357.999 148c-85.333 94.667 -128 217.334 -128 368.001c0 140 48 255.667 144 347c94 89.333 211.333 134 352 134c99.333 0 187.666 -24 264.999 -72
c75.333 -46 132.666 -109.667 171.999 -191zM354.002 1087l273 283c51.333 53.333 96.333 80 135 80c60 0 90 -30 90 -90c0 -38 -31.333 -73.667 -94 -107l-313 -166h-91z" />
    <glyph glyph-name="glyph341" unicode="&#x1edc;" horiz-adv-x="1597" 
d="M451 764c0 -168 19.666 -307.001 58.999 -417.001c58.667 -164.667 156.334 -247 293.001 -247c229.333 0 344 196 344 588c0 168.667 -19.333 307.334 -58 416.001c-58 164 -155.333 246 -292 246c-230.667 0 -346 -195.333 -346 -586zM1442 1110
c27.333 32 41 63.666 41 94.999s-32.667 69.833 -98 115.5s-98 90.834 -98 135.501c0 41.333 14.333 75 43 101s63.334 39 104.001 39c66.667 0 120 -28 160 -84c35.333 -50.667 53 -110.667 53 -180c0 -120.667 -55.667 -222.334 -167 -305.001
c33.333 -89.333 50 -184 50 -284c0 -220 -69 -403 -207 -549c-140.667 -148.667 -320.334 -223 -539.001 -223c-210 0 -382.667 72 -518 216c-132 140.667 -198 316.667 -198 528c0 217.333 69.667 398.333 209 543c141.333 147.333 320 221 536 221
c139.333 0 265 -33.667 377 -101c108 -65.333 192 -154.666 252 -267.999zM993.999 1589h-91l-313 166c-62.667 33.333 -94 69 -94 107c0 60 30 90 90 90c38.667 0 83.667 -26.667 135 -80z" />
    <glyph glyph-name="glyph342" unicode="&#x1edd;" horiz-adv-x="1098" 
d="M356 532c0 -292 64.333 -438.001 193 -438.001c126.667 0 190 114 190 342c0 104.667 -11.333 193.334 -34 266.001c-34 109.333 -90.667 164 -170 164c-119.333 0 -179 -111.333 -179 -334zM988 713.999c13.333 22.667 20.002 44.9971 20.002 66.9971
c0 30.667 -32.667 68.834 -98 114.501s-98 91.167 -98 136.5c0 40.667 14.167 74.167 42.5 100.5s63.166 39.5 104.499 39.5c66.667 0 120 -28.333 160 -85c35.333 -50 53 -109.667 53 -179c0 -114 -49.667 -211 -149 -291c11.333 -45.333 17 -92.666 17 -141.999
c0 -146 -46.667 -265 -140 -357s-213 -138 -359 -138c-149.333 0 -268.666 49.333 -357.999 148c-85.333 94.667 -128 217.334 -128 368.001c0 140 48 255.667 144 347c94 89.333 211.333 134 352 134c99.333 0 187.666 -24 264.999 -72
c75.333 -46 132.666 -109.667 171.999 -191zM744.002 1087h-91l-313 166c-62.667 33.333 -94 69 -94 107c0 60 30 90 90 90c38.667 0 83.667 -26.667 135 -80z" />
    <glyph glyph-name="glyph343" unicode="&#x1ede;" horiz-adv-x="1597" 
d="M451 764c0 -168 19.666 -307.001 58.999 -417.001c58.667 -164.667 156.334 -247 293.001 -247c229.333 0 344 196 344 588c0 168.667 -19.333 307.334 -58 416.001c-58 164 -155.333 246 -292 246c-230.667 0 -346 -195.333 -346 -586zM1442 1110
c27.333 32 41 63.666 41 94.999s-32.667 69.833 -98 115.5s-98 90.834 -98 135.501c0 41.333 14.333 75 43 101s63.334 39 104.001 39c66.667 0 120 -28 160 -84c35.333 -50.667 53 -110.667 53 -180c0 -120.667 -55.667 -222.334 -167 -305.001
c33.333 -89.333 50 -184 50 -284c0 -220 -69 -403 -207 -549c-140.667 -148.667 -320.334 -223 -539.001 -223c-210 0 -382.667 72 -518 216c-132 140.667 -198 316.667 -198 528c0 217.333 69.667 398.333 209 543c141.333 147.333 320 221 536 221
c139.333 0 265 -33.667 377 -101c108 -65.333 192 -154.666 252 -267.999zM721.999 1570l-7.00098 130.001c53.333 18.667 87 32 101 40c40.667 22 61 48 61 78c0 23.333 -7.16699 43.333 -21.5 60s-49.5 28.334 -105.5 35.001c-44 5.33301 -66 23.666 -66 54.999
c0 33.333 21 49.666 63 48.999c120 -2.66699 204.333 -43.334 253 -122.001c12 -19.333 18.333 -45 19 -77c0 -21.333 -2.66699 -38.666 -8 -51.999c-17.333 -42 -55.666 -76 -114.999 -102c-61.333 -27.333 -94.333 -45.333 -99 -54s-7.66699 -22 -9 -40h-66z" />
    <glyph glyph-name="glyph344" unicode="&#x1edf;" horiz-adv-x="1098" 
d="M356 532c0 -292 64.333 -438.001 193 -438.001c126.667 0 190 114 190 342c0 104.667 -11.333 193.334 -34 266.001c-34 109.333 -90.667 164 -170 164c-119.333 0 -179 -111.333 -179 -334zM988 713.999c13.333 22.667 20.002 44.9971 20.002 66.9971
c0 30.667 -32.667 68.834 -98 114.501s-98 91.167 -98 136.5c0 40.667 14.167 74.167 42.5 100.5s63.166 39.5 104.499 39.5c66.667 0 120 -28.333 160 -85c35.333 -50 53 -109.667 53 -179c0 -114 -49.667 -211 -149 -291c11.333 -45.333 17 -92.666 17 -141.999
c0 -146 -46.667 -265 -140 -357s-213 -138 -359 -138c-149.333 0 -268.666 49.333 -357.999 148c-85.333 94.667 -128 217.334 -128 368.001c0 140 48 255.667 144 347c94 89.333 211.333 134 352 134c99.333 0 187.666 -24 264.999 -72
c75.333 -46 132.666 -109.667 171.999 -191zM443.002 1081l-7.00098 130.001c53.333 18.667 87 32 101 40c40.667 22 61 48 61 78c0 23.333 -7.16699 43.333 -21.5 60s-49.5 28.334 -105.5 35.001c-44 5.33301 -66 23.666 -66 54.999c0 33.333 21 49.666 63 48.999
c120 -2.66699 204.333 -43.334 253 -122.001c12 -19.333 18.333 -45 19 -77c0 -21.333 -2.66699 -38.666 -8 -51.999c-17.333 -42 -55.666 -76 -114.999 -102c-61.333 -27.333 -94.333 -45.333 -99 -54s-7.66699 -22 -9 -40h-66z" />
    <glyph glyph-name="glyph345" unicode="&#x1ee0;" horiz-adv-x="1597" 
d="M451 764c0 -168 19.666 -307.001 58.999 -417.001c58.667 -164.667 156.334 -247 293.001 -247c229.333 0 344 196 344 588c0 168.667 -19.333 307.334 -58 416.001c-58 164 -155.333 246 -292 246c-230.667 0 -346 -195.333 -346 -586zM1442 1110
c27.333 32 41 63.666 41 94.999s-32.667 69.833 -98 115.5s-98 90.834 -98 135.501c0 41.333 14.333 75 43 101s63.334 39 104.001 39c66.667 0 120 -28 160 -84c35.333 -50.667 53 -110.667 53 -180c0 -120.667 -55.667 -222.334 -167 -305.001
c33.333 -89.333 50 -184 50 -284c0 -220 -69 -403 -207 -549c-140.667 -148.667 -320.334 -223 -539.001 -223c-210 0 -382.667 72 -518 216c-132 140.667 -198 316.667 -198 528c0 217.333 69.667 398.333 209 543c141.333 147.333 320 221 536 221
c139.333 0 265 -33.667 377 -101c108 -65.333 192 -154.666 252 -267.999zM1088 1911c-20 -164 -88.333 -246 -205 -246c-24.667 0 -61.167 7.16699 -109.5 21.5s-84.833 21.5 -109.5 21.5c-39.333 0 -69.333 -28.667 -90 -86h-66c22.667 164 93 246 211 246
c24.667 0 60.167 -7.16699 106.5 -21.5s81.166 -21.5 104.499 -21.5c40.667 0 71.334 28.667 92.001 86h66z" />
    </font>
</defs>
</svg>
